<svg width="497" height="412" viewBox="0 0 497 412" fill="none" xmlns="http://www.w3.org/2000/svg">
<path opacity="0.5" d="M130.351 307.727C134.897 227.926 152.159 224.16 232 200.356C363.676 161.097 525.018 187.839 463 293C417 371 352.709 344.508 272.905 382.372C241.991 397.039 124.668 407.479 130.351 307.727Z" fill="url(#paint0_linear_0_393)"/>
<path opacity="0.4" d="M157.746 49.8079C163.914 40.08 176.999 37.5551 186.336 44.291L343.114 157.391C357.444 167.729 352.298 190.221 334.895 193.309L77.4262 239.003C60.3054 242.041 47.7399 223.29 57.0539 208.602L157.746 49.8079Z" fill="url(#paint1_linear_0_393)"/>
<path d="M325 177V129C325 96.9675 299.033 71 267 71V71C234.967 71 209 96.9675 209 129V177" stroke="url(#paint2_linear_0_393)" stroke-width="27" stroke-linecap="round"/>
<g filter="url(#filter0_bdi_0_393)">
<path d="M142.649 153.703C142.649 137.134 156.08 123.703 172.649 123.703H364.716C381.285 123.703 394.716 137.135 394.716 153.703V279.594C394.716 312.732 367.853 339.594 334.716 339.594H202.649C169.511 339.594 142.649 312.732 142.649 279.594V153.703Z" fill="url(#paint3_linear_0_393)" shape-rendering="crispEdges"/>
</g>
<rect x="143.547" y="176.175" width="36.3122" height="13.2841" fill="url(#paint4_linear_0_393)"/>
<rect x="143.547" y="200.6" width="36.3122" height="13.2841" fill="url(#paint5_linear_0_393)"/>
<rect x="143.547" y="225.024" width="36.3122" height="13.2841" fill="url(#paint6_linear_0_393)"/>
<rect x="143.547" y="249.449" width="36.3122" height="13.2841" fill="url(#paint7_linear_0_393)"/>
<rect x="143.547" y="273.874" width="36.3122" height="13.2841" fill="url(#paint8_linear_0_393)"/>
<rect width="36.3122" height="13.2841" transform="matrix(-1 0 0 1 393.663 176.175)" fill="url(#paint9_linear_0_393)"/>
<rect width="36.3122" height="13.2841" transform="matrix(-1 0 0 1 393.663 200.6)" fill="url(#paint10_linear_0_393)"/>
<rect width="36.3122" height="13.2841" transform="matrix(-1 0 0 1 393.663 225.024)" fill="url(#paint11_linear_0_393)"/>
<rect width="36.3122" height="13.2841" transform="matrix(-1 0 0 1 393.663 249.449)" fill="url(#paint12_linear_0_393)"/>
<rect width="36.3122" height="13.2841" transform="matrix(-1 0 0 1 393.663 273.874)" fill="url(#paint13_linear_0_393)"/>
<path d="M300.625 213.973L300.625 242.223L348.782 290.319L348.782 311.717" stroke="#EEEEFF" stroke-width="2" stroke-linecap="round" stroke-linejoin="round"/>
<circle cx="349.377" cy="314.83" r="8.35831" fill="url(#paint14_linear_0_393)"/>
<path d="M239.604 213.973L239.604 242.223L191.446 290.319L191.446 311.717" stroke="#EEEEFF" stroke-width="2" stroke-linecap="round" stroke-linejoin="round"/>
<circle cx="8.35831" cy="8.35831" r="8.35831" transform="matrix(-1 0 0 1 199.21 306.471)" fill="url(#paint15_linear_0_393)"/>
<path d="M271.366 208.401V320.959" stroke="white" stroke-width="2"/>
<circle cx="8.35831" cy="8.35831" r="8.35831" transform="matrix(-1 0 0 1 279.449 315.387)" fill="url(#paint16_linear_0_393)"/>
<circle cx="270.256" cy="220.106" r="70.7633" fill="url(#paint17_linear_0_393)"/>
<g filter="url(#filter1_b_0_393)">
<circle cx="270.256" cy="220.106" r="54.8167" fill="#23EAA4" fill-opacity="0.4"/>
<circle cx="270.256" cy="220.106" r="53.8167" stroke="white" stroke-width="2"/>
</g>
<path d="M289.175 220.019C287.199 218.584 284.409 218.046 284.409 218.046C284.409 218.046 286.738 216.642 287.675 215.264C288.613 213.885 289.057 211.767 289.119 210.671C289.18 209.573 289.286 204.978 285.66 202.397C282.854 200.399 279.667 199.644 275.4 199.454L275.238 190.181L269.519 190.282L269.679 199.441L265.324 199.517L265.166 190.357L259.447 190.457L259.608 199.617L250.83 199.77L250.934 205.704L251.771 205.69C252.672 205.674 254.277 205.746 254.97 206.497C255.664 207.245 255.793 207.645 255.818 209.127C255.844 210.608 256.221 232.215 256.231 232.777C256.242 233.338 256.147 234.034 255.673 234.497C255.201 234.959 254.722 235.074 253.572 235.094L251.448 235.131L251.568 241.995L260.345 241.843L260.506 250.978L266.222 250.875L266.062 241.741L270.417 241.665L270.578 250.8L276.296 250.7L276.134 241.414C277.61 241.303 278.987 241.167 279.788 241.047C281.414 240.805 285.095 240.313 288.499 237.849C291.903 235.384 292.611 231.605 292.625 227.812C292.639 224.019 291.149 221.454 289.175 220.019ZM265.439 205.981C265.439 205.981 267.253 205.789 269.044 205.783C270.835 205.778 272.411 205.805 274.776 206.485C277.14 207.164 278.559 208.904 278.649 210.987C278.739 213.069 277.853 214.473 276.266 215.383C274.679 216.292 272.471 216.81 270.387 216.927C268.306 217.043 265.632 217.009 265.632 217.009L265.439 205.981ZM278.712 233.078C277.416 233.822 274.808 234.509 272.274 234.739C269.738 234.97 265.942 234.956 265.942 234.956L265.729 222.699C265.729 222.699 269.359 222.449 272.194 222.586C275.03 222.724 277.42 223.403 278.497 223.92C279.575 224.435 281.467 225.577 281.516 228.382C281.565 231.184 280.008 232.334 278.712 233.078Z" fill="white"/>
<circle cx="117.581" cy="301.456" r="51.8215" fill="url(#paint18_linear_0_393)"/>
<circle cx="117.581" cy="301.457" r="39.1434" stroke="white" stroke-width="2"/>
<defs>
<filter id="filter0_bdi_0_393" x="134.649" y="117.703" width="268.068" height="233.891" filterUnits="userSpaceOnUse" color-interpolation-filters="sRGB">
<feFlood flood-opacity="0" result="BackgroundImageFix"/>
<feGaussianBlur in="BackgroundImageFix" stdDeviation="3"/>
<feComposite in2="SourceAlpha" operator="in" result="effect1_backgroundBlur_0_393"/>
<feColorMatrix in="SourceAlpha" type="matrix" values="0 0 0 0 0 0 0 0 0 0 0 0 0 0 0 0 0 0 127 0" result="hardAlpha"/>
<feOffset dy="4"/>
<feGaussianBlur stdDeviation="4"/>
<feComposite in2="hardAlpha" operator="out"/>
<feColorMatrix type="matrix" values="0 0 0 0 0 0 0 0 0 0 0 0 0 0 0 0 0 0 0.2 0"/>
<feBlend mode="normal" in2="effect1_backgroundBlur_0_393" result="effect2_dropShadow_0_393"/>
<feBlend mode="normal" in="SourceGraphic" in2="effect2_dropShadow_0_393" result="shape"/>
<feColorMatrix in="SourceAlpha" type="matrix" values="0 0 0 0 0 0 0 0 0 0 0 0 0 0 0 0 0 0 127 0" result="hardAlpha"/>
<feOffset dx="-1" dy="-1"/>
<feGaussianBlur stdDeviation="4.5"/>
<feComposite in2="hardAlpha" operator="arithmetic" k2="-1" k3="1"/>
<feColorMatrix type="matrix" values="0 0 0 0 0.137255 0 0 0 0 0.917647 0 0 0 0 0.643137 0 0 0 0.67 0"/>
<feBlend mode="normal" in2="shape" result="effect3_innerShadow_0_393"/>
</filter>
<filter id="filter1_b_0_393" x="211.439" y="161.29" width="117.633" height="117.633" filterUnits="userSpaceOnUse" color-interpolation-filters="sRGB">
<feFlood flood-opacity="0" result="BackgroundImageFix"/>
<feGaussianBlur in="BackgroundImageFix" stdDeviation="2"/>
<feComposite in2="SourceAlpha" operator="in" result="effect1_backgroundBlur_0_393"/>
<feBlend mode="normal" in="SourceGraphic" in2="effect1_backgroundBlur_0_393" result="shape"/>
</filter>
<linearGradient id="paint0_linear_0_393" x1="526.632" y1="285.831" x2="27.0688" y2="343.26" gradientUnits="userSpaceOnUse">
<stop stop-color="white"/>
<stop offset="1" stop-color="#23EAA4" stop-opacity="0"/>
</linearGradient>
<linearGradient id="paint1_linear_0_393" x1="389.907" y1="148.629" x2="-77.6031" y2="176.247" gradientUnits="userSpaceOnUse">
<stop stop-color="white"/>
<stop offset="1" stop-color="#23EAA4" stop-opacity="0"/>
</linearGradient>
<linearGradient id="paint2_linear_0_393" x1="267" y1="71" x2="339.942" y2="230.159" gradientUnits="userSpaceOnUse">
<stop stop-color="#23EAA4"/>
<stop offset="1" stop-color="#23EAA4" stop-opacity="0"/>
</linearGradient>
<linearGradient id="paint3_linear_0_393" x1="268.682" y1="123.703" x2="410.927" y2="454.847" gradientUnits="userSpaceOnUse">
<stop stop-color="#23EAA4"/>
<stop offset="1" stop-color="#23EAA4" stop-opacity="0"/>
</linearGradient>
<linearGradient id="paint4_linear_0_393" x1="181.364" y1="187.028" x2="134.363" y2="179.073" gradientUnits="userSpaceOnUse">
<stop stop-color="white"/>
<stop offset="1" stop-color="#23EAA4" stop-opacity="0"/>
</linearGradient>
<linearGradient id="paint5_linear_0_393" x1="181.364" y1="211.453" x2="134.363" y2="203.498" gradientUnits="userSpaceOnUse">
<stop stop-color="white"/>
<stop offset="1" stop-color="#23EAA4" stop-opacity="0"/>
</linearGradient>
<linearGradient id="paint6_linear_0_393" x1="181.364" y1="235.878" x2="134.363" y2="227.923" gradientUnits="userSpaceOnUse">
<stop stop-color="white"/>
<stop offset="1" stop-color="#23EAA4" stop-opacity="0"/>
</linearGradient>
<linearGradient id="paint7_linear_0_393" x1="181.364" y1="260.303" x2="134.363" y2="252.348" gradientUnits="userSpaceOnUse">
<stop stop-color="white"/>
<stop offset="1" stop-color="#23EAA4" stop-opacity="0"/>
</linearGradient>
<linearGradient id="paint8_linear_0_393" x1="181.364" y1="284.728" x2="134.363" y2="276.773" gradientUnits="userSpaceOnUse">
<stop stop-color="white"/>
<stop offset="1" stop-color="#23EAA4" stop-opacity="0"/>
</linearGradient>
<linearGradient id="paint9_linear_0_393" x1="37.8168" y1="10.8538" x2="-9.1843" y2="2.89889" gradientUnits="userSpaceOnUse">
<stop stop-color="white"/>
<stop offset="1" stop-color="#23EAA4" stop-opacity="0"/>
</linearGradient>
<linearGradient id="paint10_linear_0_393" x1="37.8168" y1="10.8538" x2="-9.1843" y2="2.89889" gradientUnits="userSpaceOnUse">
<stop stop-color="white"/>
<stop offset="1" stop-color="#23EAA4" stop-opacity="0"/>
</linearGradient>
<linearGradient id="paint11_linear_0_393" x1="37.8168" y1="10.8538" x2="-9.1843" y2="2.89889" gradientUnits="userSpaceOnUse">
<stop stop-color="white"/>
<stop offset="1" stop-color="#23EAA4" stop-opacity="0"/>
</linearGradient>
<linearGradient id="paint12_linear_0_393" x1="37.8168" y1="10.8538" x2="-9.1843" y2="2.89889" gradientUnits="userSpaceOnUse">
<stop stop-color="white"/>
<stop offset="1" stop-color="#23EAA4" stop-opacity="0"/>
</linearGradient>
<linearGradient id="paint13_linear_0_393" x1="37.8168" y1="10.8538" x2="-9.1843" y2="2.89889" gradientUnits="userSpaceOnUse">
<stop stop-color="white"/>
<stop offset="1" stop-color="#23EAA4" stop-opacity="0"/>
</linearGradient>
<linearGradient id="paint14_linear_0_393" x1="350.074" y1="314.83" x2="336.143" y2="314.83" gradientUnits="userSpaceOnUse">
<stop stop-color="#EEEEFF"/>
<stop offset="1" stop-color="#EEEEFF" stop-opacity="0"/>
</linearGradient>
<linearGradient id="paint15_linear_0_393" x1="9.05484" y1="8.35831" x2="-4.87568" y2="8.35831" gradientUnits="userSpaceOnUse">
<stop stop-color="#EEEEFF"/>
<stop offset="1" stop-color="#EEEEFF" stop-opacity="0"/>
</linearGradient>
<linearGradient id="paint16_linear_0_393" x1="9.05484" y1="8.35831" x2="-4.87568" y2="8.35831" gradientUnits="userSpaceOnUse">
<stop stop-color="#EEEEFF"/>
<stop offset="1" stop-color="#EEEEFF" stop-opacity="0"/>
</linearGradient>
<linearGradient id="paint17_linear_0_393" x1="346.884" y1="264.978" x2="159.169" y2="253.355" gradientUnits="userSpaceOnUse">
<stop stop-color="white"/>
<stop offset="1" stop-color="#23EAA4" stop-opacity="0"/>
</linearGradient>
<linearGradient id="paint18_linear_0_393" x1="173.697" y1="334.317" x2="36.2298" y2="325.805" gradientUnits="userSpaceOnUse">
<stop stop-color="white"/>
<stop offset="1" stop-color="#23EAA4" stop-opacity="0"/>
</linearGradient>
</defs>
</svg>
