<svg width="117" height="19" viewBox="0 0 117 19" fill="none" xmlns="http://www.w3.org/2000/svg">
<path d="M14.1038 6.04789C14.1038 7.13615 13.8664 8.13521 13.3918 9.04507C12.9171 9.93709 12.1882 10.6596 11.205 11.2127C10.2218 11.7657 9.00129 12.0423 7.54344 12.0423H4.84811V18.7859H0.5V0H7.54344C8.96738 0 10.171 0.258686 11.1542 0.776056C12.1374 1.29343 12.8748 2.00704 13.3664 2.9169C13.858 3.82676 14.1038 4.87042 14.1038 6.04789ZM7.21288 8.40282C8.04351 8.40282 8.66225 8.19765 9.06909 7.78732C9.47593 7.37699 9.67935 6.79718 9.67935 6.04789C9.67935 5.29859 9.47593 4.71878 9.06909 4.30845C8.66225 3.89812 8.04351 3.69296 7.21288 3.69296H4.84811V8.40282H7.21288Z" fill="#102870"/>
<path d="M22.826 19C21.436 19 20.1815 18.6878 19.0627 18.0634C17.9609 17.439 17.0878 16.5469 16.4437 15.3873C15.8165 14.2277 15.5029 12.8718 15.5029 11.3197C15.5029 9.78544 15.8249 8.4385 16.4691 7.27887C17.1133 6.10141 17.9948 5.20047 19.1136 4.57606C20.2324 3.95164 21.4868 3.63944 22.8769 3.63944C24.2669 3.63944 25.5213 3.95164 26.6401 4.57606C27.759 5.20047 28.6404 6.10141 29.2846 7.27887C29.9288 8.4385 30.2509 9.78544 30.2509 11.3197C30.2509 12.854 29.9203 14.2099 29.2592 15.3873C28.615 16.5469 27.725 17.439 26.5893 18.0634C25.4705 18.6878 24.216 19 22.826 19ZM22.826 15.0394C23.6566 15.0394 24.3601 14.7183 24.9365 14.0761C25.5298 13.4338 25.8265 12.515 25.8265 11.3197C25.8265 10.1244 25.5383 9.20563 24.9619 8.56338C24.4025 7.92113 23.7075 7.6 22.8769 7.6C22.0293 7.6 21.3258 7.92113 20.7664 8.56338C20.207 9.18779 19.9273 10.1066 19.9273 11.3197C19.9273 12.515 20.1985 13.4338 20.7409 14.0761C21.3004 14.7183 21.9954 15.0394 22.826 15.0394Z" fill="#102870"/>
<path d="M38.3297 19C37.0922 19 35.9903 18.777 35.0241 18.331C34.0578 17.885 33.295 17.2784 32.7356 16.5113C32.1762 15.7263 31.8626 14.8521 31.7948 13.8887H36.092C36.1429 14.4061 36.3717 14.8254 36.7786 15.1465C37.1854 15.4676 37.6855 15.6282 38.2788 15.6282C38.8213 15.6282 39.2366 15.5211 39.5248 15.307C39.8299 15.0751 39.9825 14.7807 39.9825 14.4239C39.9825 13.9958 39.7706 13.6836 39.3468 13.4873C38.923 13.2732 38.2364 13.0413 37.2871 12.7915C36.27 12.5418 35.4225 12.2831 34.7444 12.0155C34.0663 11.73 33.4815 11.293 32.9899 10.7042C32.4983 10.0977 32.2525 9.28592 32.2525 8.26901C32.2525 7.41268 32.4729 6.63662 32.9136 5.94084C33.3713 5.22723 34.0324 4.66526 34.8969 4.25493C35.7784 3.8446 36.821 3.63944 38.0245 3.63944C39.8045 3.63944 41.203 4.10329 42.2201 5.03099C43.2542 5.95868 43.8475 7.18967 44 8.72394H39.9825C39.9147 8.20657 39.6943 7.79624 39.3214 7.49296C38.9654 7.18967 38.4907 7.03803 37.8974 7.03803C37.3889 7.03803 36.999 7.14507 36.7277 7.35915C36.4565 7.5554 36.3209 7.83192 36.3209 8.18873C36.3209 8.6169 36.5328 8.93803 36.9566 9.15211C37.3973 9.3662 38.0754 9.58028 38.9908 9.79436C40.0418 10.0798 40.8979 10.3653 41.559 10.6507C42.2201 10.9183 42.7965 11.3643 43.2881 11.9887C43.7966 12.5953 44.0594 13.416 44.0763 14.4507C44.0763 15.3249 43.839 16.1099 43.3643 16.8056C42.9066 17.4836 42.237 18.0188 41.3556 18.4113C40.491 18.8038 39.4824 19 38.3297 19Z" fill="#102870"/>
<path d="M54.6444 14.9056V18.7859H52.4322C50.8557 18.7859 49.6267 18.3845 48.7452 17.5817C47.8638 16.761 47.423 15.4319 47.423 13.5944V7.65352H45.6939V3.85352H47.423V0.214085H51.7711V3.85352H54.619V7.65352H51.7711V13.6479C51.7711 14.0939 51.8728 14.415 52.0763 14.6113C52.2797 14.8075 52.6187 14.9056 53.0934 14.9056H54.6444Z" fill="#102870"/>
<path d="M72.5264 0V18.7859H68.1783V11.0521H61.4145V18.7859H57.0664V0H61.4145V7.35915H68.1783V0H72.5264Z" fill="#102870"/>
<path d="M89.0402 11.0789C89.0402 11.507 89.0148 11.9531 88.9639 12.4169H79.1234C79.1913 13.3446 79.471 14.0582 79.9626 14.5577C80.4711 15.0394 81.0898 15.2803 81.8188 15.2803C82.9037 15.2803 83.658 14.7986 84.0818 13.8352H88.7096C88.4723 14.8164 88.0401 15.6995 87.4128 16.4845C86.8026 17.2695 86.0313 17.885 85.0989 18.331C84.1666 18.777 83.1241 19 81.9713 19C80.5813 19 79.3438 18.6878 78.2589 18.0634C77.174 17.439 76.3264 16.5469 75.7162 15.3873C75.1059 14.2277 74.8008 12.8718 74.8008 11.3197C74.8008 9.7676 75.0974 8.41174 75.6907 7.25211C76.301 6.09249 77.1486 5.20047 78.2335 4.57606C79.3184 3.95164 80.5643 3.63944 81.9713 3.63944C83.3444 3.63944 84.5649 3.94272 85.6329 4.5493C86.7009 5.15587 87.5315 6.02113 88.1248 7.14507C88.7351 8.26901 89.0402 9.58028 89.0402 11.0789ZM84.5904 9.87465C84.5904 9.08967 84.3361 8.46526 83.8276 8.00141C83.319 7.53756 82.6833 7.30563 81.9205 7.30563C81.1916 7.30563 80.5728 7.52864 80.0643 7.97465C79.5727 8.42066 79.2675 9.05399 79.1489 9.87465H84.5904Z" fill="#102870"/>
<path d="M90.4695 11.293C90.4695 9.75869 90.7407 8.41174 91.2832 7.25211C91.8426 6.09249 92.5969 5.20047 93.5462 4.57606C94.4955 3.95164 95.555 3.63944 96.7247 3.63944C97.7248 3.63944 98.5979 3.85352 99.3437 4.28169C100.107 4.70986 100.691 5.27183 101.098 5.96761V3.85352H105.446V18.7859H101.098V16.6718C100.674 17.3676 100.081 17.9296 99.3183 18.3577C98.5724 18.7859 97.6994 19 96.6993 19C95.5465 19 94.4955 18.6878 93.5462 18.0634C92.5969 17.4211 91.8426 16.5202 91.2832 15.3606C90.7407 14.1831 90.4695 12.8272 90.4695 11.293ZM101.098 11.3197C101.098 10.1779 100.793 9.27699 100.183 8.6169C99.5895 7.95681 98.8606 7.62676 97.9961 7.62676C97.1315 7.62676 96.3941 7.95681 95.7839 8.6169C95.1906 9.25915 94.8939 10.1512 94.8939 11.293C94.8939 12.4347 95.1906 13.3446 95.7839 14.0225C96.3941 14.6826 97.1315 15.0127 97.9961 15.0127C98.8606 15.0127 99.5895 14.6826 100.183 14.0225C100.793 13.3624 101.098 12.4615 101.098 11.3197Z" fill="#102870"/>
<path d="M116.5 14.9056V18.7859H114.288C112.711 18.7859 111.482 18.3845 110.601 17.5817C109.719 16.761 109.279 15.4319 109.279 13.5944V7.65352H107.549V3.85352H109.279V0.214085H113.627V3.85352H116.475V7.65352H113.627V13.6479C113.627 14.0939 113.728 14.415 113.932 14.6113C114.135 14.8075 114.474 14.9056 114.949 14.9056H116.5Z" fill="#102870"/>
</svg>
