<svg width="31" height="35" viewBox="0 0 31 35" fill="none" xmlns="http://www.w3.org/2000/svg">
<path d="M30.1957 23.2901C32.0917 12.8908 24.6655 6.49955 20.7154 4.60385C19.0301 8.28693 20.5399 13.7213 21.5054 15.9781C21.5054 15.9781 11.7618 11.645 15.9753 0C15.9753 0 3.07163 4.60385 9.12845 18.4154C10.2137 20.89 9.91846 21.936 9.39178 22.4776C9.39178 22.4776 5.4417 25.1858 5.4417 14.0824C0.438215 17.0613 -2.56384 27.8397 5.4417 31.9561C13.4472 36.0725 16.502 25.5468 17.0287 19.7695C17.0287 19.7695 25.7189 27.8939 15.9753 34.9351C19.9254 35.3864 28.2996 33.6893 30.1957 23.2901Z" fill="#4169E1"/>
</svg>
