<svg width="40" height="40" viewBox="0 0 40 40" fill="none" xmlns="http://www.w3.org/2000/svg">
<path d="M14.8958 23.444V21.464L20.7818 13.04H23.7158V21.248H25.2998V23.444H23.7158V26H21.1958V23.444H14.8958ZM21.3578 15.74L17.6678 21.248H21.3578V15.74Z" fill="#23EAA4"/>
<circle cx="20" cy="20" r="17" stroke="#636C69" stroke-width="6"/>
<mask id="path-3-inside-1_38_229" fill="white">
<path d="M21.0585 3.02855C21.1614 1.37735 19.9004 -0.0680829 18.2523 0.0764915C15.3354 0.332372 12.4975 1.22692 9.94525 2.71122C6.52585 4.69986 3.77294 7.65781 2.03465 11.211C0.296352 14.7642 -0.349257 18.7531 0.179462 22.6732C0.574092 25.5992 1.60971 28.3888 3.19801 30.8487C4.09541 32.2385 6.01054 32.347 7.25093 31.2522C8.49132 30.1574 8.57547 28.2744 7.76888 26.8299C6.91643 25.3033 6.35291 23.6227 6.11685 21.8725C5.74651 19.1266 6.19872 16.3326 7.4163 13.8438C8.63387 11.355 10.5621 9.28313 12.9572 7.8902C14.4839 7.0023 16.1566 6.4157 17.885 6.15171C19.5205 5.90193 20.9555 4.67975 21.0585 3.02855Z"/>
</mask>
<path d="M21.0585 3.02855C21.1614 1.37735 19.9004 -0.0680829 18.2523 0.0764915C15.3354 0.332372 12.4975 1.22692 9.94525 2.71122C6.52585 4.69986 3.77294 7.65781 2.03465 11.211C0.296352 14.7642 -0.349257 18.7531 0.179462 22.6732C0.574092 25.5992 1.60971 28.3888 3.19801 30.8487C4.09541 32.2385 6.01054 32.347 7.25093 31.2522C8.49132 30.1574 8.57547 28.2744 7.76888 26.8299C6.91643 25.3033 6.35291 23.6227 6.11685 21.8725C5.74651 19.1266 6.19872 16.3326 7.4163 13.8438C8.63387 11.355 10.5621 9.28313 12.9572 7.8902C14.4839 7.0023 16.1566 6.4157 17.885 6.15171C19.5205 5.90193 20.9555 4.67975 21.0585 3.02855Z" stroke="#23EAA4" stroke-width="12" mask="url(#path-3-inside-1_38_229)"/>
</svg>
