<svg width="24" height="24" fill="none" xmlns="http://www.w3.org/2000/svg"><path d="M23.038 12a11.037 11.037 0 10-18.472 8.152.495.495 0 00.111.098 11.026 11.026 0 0014.663-.005h0l.004-.004.086-.086A10.993 10.993 0 0023.038 12zm0 0s0 0 0 0h-.1.1s0 0 0 0zm-21 0a9.963 9.963 0 1117.112 6.937 8.391 8.391 0 00-4.632-3.597 4.913 4.913 0 10-5.036 0 8.391 8.391 0 00-4.632 3.597A9.973 9.973 0 012.038 12zM12 14.963a3.838 3.838 0 110-7.676 3.838 3.838 0 010 7.676zm0 6.998a9.93 9.93 0 01-6.335-2.284 7.338 7.338 0 0112.67 0A9.93 9.93 0 0112 21.961z" fill="#0A0F2B" stroke="#0A0F2B" stroke-width=".2"/></svg>