<svg width="201" height="33" viewBox="0 0 201 33" fill="none" xmlns="http://www.w3.org/2000/svg">
<path fill-rule="evenodd" clip-rule="evenodd" d="M31.0076 21.5597C28.7485 27.6555 22.8816 32 16 32C7.16344 32 0 24.8366 0 16C0 15.8342 0.00252166 15.669 0.00752873 15.5044C1.23871 15.0255 2.42226 14.602 3.55863 14.2405C9.15476 12.4605 12.7699 12.4671 15.1167 13.822C16.5516 14.6505 18.3863 14.1588 19.2148 12.724C20.0432 11.2891 19.5516 9.45432 18.1167 8.62589C13.4793 5.94847 7.73561 6.63283 1.87346 8.48054C4.56511 3.43438 9.88148 0 16 0C24.426 0 31.3308 6.5133 31.9542 14.7798C30.3426 15.4326 28.8093 15.9975 27.3535 16.4605C21.7574 18.2406 18.1422 18.234 15.7954 16.879C14.3605 16.0506 12.5258 16.5422 11.6973 17.9771C10.8689 19.412 11.3605 21.2468 12.7954 22.0752C17.4681 24.773 23.2638 24.0577 29.1722 22.1782C29.7742 21.9868 30.3861 21.7802 31.0076 21.5597Z" fill="#23EAA4"/>
<path d="M45.248 24.192C44.704 24.192 44.304 24.016 44.048 23.664C43.792 23.296 43.816 22.856 44.12 22.344L52.928 7.944C53.152 7.576 53.4 7.312 53.672 7.152C53.944 6.976 54.28 6.888 54.68 6.888C55.512 6.888 56.048 7.304 56.288 8.136L60.416 22.272C60.608 22.912 60.568 23.392 60.296 23.712C60.04 24.032 59.68 24.192 59.216 24.192C58.768 24.192 58.424 24.08 58.184 23.856C57.96 23.632 57.784 23.288 57.656 22.824L56.936 20.088H48.656L46.784 23.28C46.416 23.888 45.904 24.192 45.248 24.192ZM54.32 10.416L50.072 17.64H56.264L54.368 10.416H54.32ZM64.4274 24.192C63.8994 24.192 63.5154 24.04 63.2754 23.736C63.0354 23.416 62.9554 22.984 63.0354 22.44L65.2194 8.568C65.3634 7.576 65.9474 7.08 66.9714 7.08H75.1794C76.0434 7.08 76.4754 7.408 76.4754 8.064C76.4754 8.512 76.3474 8.872 76.0914 9.144C75.8514 9.4 75.4994 9.528 75.0354 9.528H68.1714L67.4034 14.304H73.5234C74.3874 14.304 74.8194 14.632 74.8194 15.288C74.8194 15.736 74.6914 16.096 74.4354 16.368C74.1954 16.624 73.8434 16.752 73.3794 16.752H67.0194L66.0834 22.68C65.9234 23.688 65.3714 24.192 64.4274 24.192ZM75.2714 24.192C74.7274 24.192 74.3274 24.016 74.0714 23.664C73.8154 23.296 73.8394 22.856 74.1434 22.344L82.9514 7.944C83.1754 7.576 83.4234 7.312 83.6954 7.152C83.9674 6.976 84.3034 6.888 84.7034 6.888C85.5354 6.888 86.0714 7.304 86.3114 8.136L90.4394 22.272C90.6314 22.912 90.5914 23.392 90.3194 23.712C90.0634 24.032 89.7034 24.192 89.2394 24.192C88.7914 24.192 88.4474 24.08 88.2074 23.856C87.9834 23.632 87.8074 23.288 87.6794 22.824L86.9594 20.088H78.6794L76.8074 23.28C76.4394 23.888 75.9274 24.192 75.2714 24.192ZM84.3434 10.416L80.0954 17.64H86.2874L84.3914 10.416H84.3434ZM100.114 24C99.5057 24 99.2497 23.696 99.3457 23.088L101.77 7.848C101.85 7.336 102.154 7.08 102.682 7.08H111.706C112.154 7.08 112.378 7.248 112.378 7.584C112.378 7.856 112.306 8.056 112.162 8.184C112.018 8.296 111.842 8.352 111.634 8.352H103.162L102.13 14.784H110.002C110.45 14.784 110.674 14.952 110.674 15.288C110.674 15.56 110.602 15.76 110.458 15.888C110.314 16 110.13 16.056 109.906 16.056H101.914L100.858 22.728H109.21C109.674 22.728 109.906 22.896 109.906 23.232C109.906 23.504 109.826 23.704 109.666 23.832C109.522 23.944 109.346 24 109.138 24H100.114ZM112.598 24.144C112.294 24.144 112.094 24.032 111.998 23.808C111.918 23.584 111.966 23.376 112.142 23.184L117.11 17.976L114.11 13.32C113.902 12.984 113.87 12.712 114.014 12.504C114.158 12.296 114.342 12.192 114.566 12.192C114.886 12.192 115.142 12.36 115.334 12.696L118.118 17.04L122.246 12.6C122.374 12.472 122.494 12.376 122.606 12.312C122.718 12.232 122.862 12.192 123.038 12.192C123.358 12.192 123.558 12.304 123.638 12.528C123.734 12.752 123.686 12.968 123.494 13.176L118.886 18.072L122.078 23.04C122.302 23.376 122.334 23.648 122.174 23.856C122.03 24.048 121.846 24.144 121.622 24.144C121.302 24.144 121.038 23.984 120.83 23.664L117.878 19.032L113.414 23.76C113.27 23.888 113.134 23.984 113.006 24.048C112.894 24.112 112.758 24.144 112.598 24.144ZM129.924 24.192C128.26 24.192 127.028 23.72 126.228 22.776C125.428 21.832 125.028 20.6 125.028 19.08C125.028 18.232 125.14 17.4 125.364 16.584C125.604 15.752 125.964 15.008 126.444 14.352C126.94 13.68 127.572 13.144 128.34 12.744C129.108 12.344 130.02 12.144 131.076 12.144C131.684 12.144 132.276 12.24 132.852 12.432C133.444 12.608 133.94 12.84 134.34 13.128C134.644 13.352 134.796 13.592 134.796 13.848C134.812 14.104 134.732 14.296 134.556 14.424C134.38 14.552 134.164 14.52 133.908 14.328C133.108 13.72 132.164 13.416 131.076 13.416C130.26 13.416 129.564 13.576 128.988 13.896C128.412 14.216 127.94 14.656 127.572 15.216C127.204 15.76 126.932 16.368 126.756 17.04C126.596 17.712 126.516 18.392 126.516 19.08C126.516 20.248 126.788 21.184 127.332 21.888C127.892 22.592 128.804 22.944 130.068 22.944C130.468 22.944 130.9 22.88 131.364 22.752C131.828 22.608 132.268 22.384 132.684 22.08C132.924 21.92 133.132 21.904 133.308 22.032C133.5 22.144 133.604 22.312 133.62 22.536C133.652 22.76 133.548 22.96 133.308 23.136C132.86 23.472 132.324 23.736 131.7 23.928C131.092 24.104 130.5 24.192 129.924 24.192ZM136.595 24.144C136.099 24.144 135.899 23.856 135.995 23.28L138.467 7.656C138.531 7.176 138.811 6.936 139.307 6.936C139.803 6.936 140.003 7.216 139.907 7.776L138.851 14.376C139.299 13.672 139.875 13.128 140.579 12.744C141.299 12.344 142.139 12.144 143.099 12.144C144.395 12.144 145.371 12.536 146.027 13.32C146.683 14.104 146.883 15.304 146.627 16.92L145.619 23.424C145.539 23.904 145.251 24.144 144.755 24.144C144.259 24.144 144.059 23.856 144.155 23.28L145.163 16.92C145.531 14.584 144.747 13.416 142.811 13.416C141.531 13.416 140.515 13.808 139.763 14.592C139.027 15.36 138.555 16.384 138.347 17.664L137.459 23.424C137.379 23.904 137.091 24.144 136.595 24.144ZM153.145 24.192C152.489 24.192 151.873 24.048 151.297 23.76C150.721 23.472 150.249 23.072 149.881 22.56C149.529 22.032 149.353 21.424 149.353 20.736C149.353 19.52 149.873 18.648 150.913 18.12C151.969 17.592 153.649 17.328 155.953 17.328H157.657L157.777 16.488C157.953 15.48 157.833 14.712 157.417 14.184C157.001 13.656 156.265 13.392 155.209 13.392C154.585 13.392 153.993 13.456 153.433 13.584C152.889 13.712 152.361 13.936 151.849 14.256C151.561 14.432 151.313 14.464 151.105 14.352C150.913 14.224 150.817 14.04 150.817 13.8C150.833 13.56 151.001 13.352 151.321 13.176C151.897 12.824 152.529 12.568 153.217 12.408C153.921 12.232 154.625 12.144 155.329 12.144C156.833 12.144 157.905 12.576 158.545 13.44C159.185 14.288 159.385 15.44 159.145 16.896L158.113 23.424C158.033 23.904 157.761 24.144 157.297 24.144C156.833 24.144 156.641 23.864 156.721 23.304L156.913 22.128C156.497 22.832 155.945 23.352 155.257 23.688C154.569 24.024 153.865 24.192 153.145 24.192ZM153.409 23.016C154.337 23.016 155.169 22.704 155.905 22.08C156.657 21.44 157.129 20.552 157.321 19.416L157.465 18.408H156.289C154.929 18.408 153.857 18.48 153.073 18.624C152.289 18.752 151.729 18.984 151.393 19.32C151.073 19.656 150.913 20.104 150.913 20.664C150.913 21.448 151.161 22.04 151.657 22.44C152.169 22.824 152.753 23.016 153.409 23.016ZM162.588 24.144C162.348 24.144 162.172 24.064 162.06 23.904C161.964 23.744 161.94 23.528 161.988 23.256L163.62 12.936C163.684 12.44 163.964 12.192 164.46 12.192C164.924 12.192 165.108 12.472 165.012 13.032L164.796 14.424C165.244 13.704 165.828 13.144 166.548 12.744C167.268 12.344 168.108 12.144 169.068 12.144C170.364 12.144 171.34 12.536 171.996 13.32C172.652 14.104 172.852 15.304 172.596 16.92L171.564 23.448C171.484 23.912 171.204 24.144 170.724 24.144C170.228 24.144 170.028 23.856 170.124 23.28L171.132 16.92C171.5 14.584 170.716 13.416 168.78 13.416C167.5 13.416 166.484 13.808 165.732 14.592C164.996 15.36 164.524 16.384 164.316 17.664L163.428 23.424C163.348 23.904 163.068 24.144 162.588 24.144ZM180.122 28.512C179.21 28.512 178.362 28.376 177.578 28.104C176.794 27.848 176.082 27.496 175.442 27.048C175.218 26.904 175.122 26.712 175.154 26.472C175.202 26.248 175.322 26.072 175.514 25.944C175.706 25.816 175.922 25.832 176.162 25.992C176.754 26.408 177.346 26.728 177.938 26.952C178.546 27.176 179.234 27.288 180.002 27.288C181.058 27.288 181.914 27.008 182.57 26.448C183.242 25.904 183.674 25.056 183.866 23.904L184.25 21.456C183.818 22.16 183.242 22.72 182.522 23.136C181.802 23.536 180.97 23.736 180.026 23.736C178.634 23.736 177.514 23.304 176.666 22.44C175.834 21.576 175.418 20.424 175.418 18.984C175.418 17.8 175.642 16.688 176.09 15.648C176.538 14.608 177.194 13.768 178.058 13.128C178.938 12.472 180.01 12.144 181.274 12.144C182.186 12.144 183.002 12.36 183.722 12.792C184.442 13.208 184.962 13.864 185.282 14.76L185.57 12.912C185.634 12.432 185.914 12.192 186.41 12.192C186.89 12.192 187.082 12.48 186.986 13.056L185.282 23.832C184.786 26.952 183.066 28.512 180.122 28.512ZM180.338 22.488C181.314 22.488 182.13 22.232 182.786 21.72C183.458 21.192 183.962 20.504 184.298 19.656C184.65 18.808 184.826 17.896 184.826 16.92C184.826 15.8 184.522 14.936 183.914 14.328C183.306 13.704 182.458 13.392 181.37 13.392C180.394 13.392 179.57 13.656 178.898 14.184C178.242 14.696 177.746 15.376 177.41 16.224C177.074 17.056 176.906 17.96 176.906 18.936C176.906 20.072 177.202 20.952 177.794 21.576C178.402 22.184 179.25 22.488 180.338 22.488ZM194.501 24.192C192.885 24.192 191.613 23.744 190.685 22.848C189.757 21.952 189.293 20.712 189.293 19.128C189.293 17.88 189.533 16.728 190.013 15.672C190.509 14.616 191.205 13.768 192.101 13.128C193.013 12.472 194.109 12.144 195.389 12.144C196.573 12.144 197.509 12.424 198.197 12.984C198.885 13.528 199.349 14.232 199.589 15.096C199.845 15.96 199.909 16.872 199.781 17.832C199.749 18.088 199.685 18.264 199.589 18.36C199.493 18.44 199.341 18.48 199.133 18.48H190.757C190.597 19.824 190.853 20.912 191.525 21.744C192.197 22.56 193.197 22.968 194.525 22.968C195.165 22.968 195.757 22.896 196.301 22.752C196.845 22.592 197.373 22.328 197.885 21.96C198.189 21.752 198.429 21.704 198.605 21.816C198.797 21.912 198.893 22.08 198.893 22.32C198.909 22.56 198.781 22.776 198.509 22.968C197.981 23.368 197.357 23.672 196.637 23.88C195.917 24.088 195.205 24.192 194.501 24.192ZM195.365 13.32C194.453 13.32 193.693 13.52 193.085 13.92C192.477 14.32 191.997 14.832 191.645 15.456C191.293 16.08 191.053 16.728 190.925 17.4H198.557C198.637 16.648 198.581 15.968 198.389 15.36C198.197 14.736 197.853 14.24 197.357 13.872C196.877 13.504 196.213 13.32 195.365 13.32Z" fill="#23EAA4"/>
</svg>
