<svg width="1440" height="1160" fill="none" xmlns="http://www.w3.org/2000/svg"><g opacity=".84"><g opacity=".5" clip-path="url(#clip0_177_2815)" filter="url(#filter0_f_177_2815)" fill="#1DA1F2"><path d="M1187.21 338.96c134.67 178.458 277.59 371.528 77.03 470.264-122.44 70.657-306.902 78.448-432.521 146.245-77.71 76.371-253.012 4.633-358.321-109.033-267.962-229.773-133.364-427.666 72.264-485.234 121.904-20.575 112.104-144.864 228.323-166.793 65.303-13.341 361.135 78.653 413.225 144.551z"/><path d="M1194.73 337.158c30.08 39.879 60.24 79.991 87.4 120.315 26.44 39.303 50.51 79.063 67.4 118.446 16.93 38.22 24.96 75.354 23.63 109.344-2.22 36.758-18.36 67.578-43.46 91.781-15.19 14.361-33.01 26.691-53.23 36.818-12.55 6.633-24.91 13.508-38.17 19.549-13.82 6.321-28.18 12.119-42.89 17.53-58.56 21.288-123.27 35.574-186.14 51.881-31.181 8.021-62.052 16.511-91.444 26.493-14.895 5.057-29.431 10.462-43.385 16.489-13.115 5.645-28.156 10.918-37.867 19.658-29.377 26.533-78.019 36.528-136.568 24.2-56.32-11.851-114.876-42.039-164.67-78.965-13.167-9.778-25.746-20.085-37.621-30.825a481.326 481.326 0 01-17.556-16.691 339.651 339.651 0 00-16.675-16.54c-24.303-21.063-46.588-43.31-66.448-66.331-35.113-40.901-60.132-83.873-72.953-125.301-11.672-39.772-13.186-77.292-4.452-110.321 9.005-34.722 25.725-65.581 49.627-91.593 24.449-27.036 54.649-49.876 89.98-68.053 17.514-9.104 36.216-17.071 56.016-23.865 9.711-3.506 19.953-6.433 30.676-8.769 12.121-2.488 23.286-6.148 33.334-10.928 39.238-18.863 60.506-52.073 84.122-82.731 23.615-30.657 51.761-60.445 99.515-70.955 30.143-6.612 70.241 1.268 107.332 9.653 50.612 11.494 101.973 26.869 153.327 45.896 44.16 16.252 91.47 35.371 132.86 61.887 14.22 9.123 28.58 19.771 38.31 31.928 7.82 9.788-7.19 13.425-15.04 3.606-.97-1.18-1.96-2.391-2.93-3.571l-1.57-1.651s.95.857-.48-.575a163.723 163.723 0 00-8.39-7.37 193.172 193.172 0 00-20.78-14.216c-18.55-11.22-37.77-21.189-57.31-29.725-48.78-21.64-98.11-39.633-147.095-53.657-43.702-12.885-89.744-24.629-130.187-28.37-7.453-.71-14.704-.969-21.698-.773-1.522.075-3.015.143-4.487.279l-.452.108-2.104.287c-4.716.878-9.469 2.017-14.192 3.15-21.482 6.255-39.66 16.097-53.814 29.133-29.392 25.595-46.885 59.457-73.335 87.099-13.111 14.483-29.583 26.504-49.014 35.77-19.321 8.655-42.863 12.344-63.623 19.423-38.327 13.199-72.35 30.908-101.427 52.794-29.051 21.425-52.329 47.41-69.266 77.322-16.365 28.368-24.467 61.391-23.956 97.645.928 54.257 29.16 116.038 79.457 173.875 19.474 22.062 41.074 43.404 64.461 63.692 5.895 5.251 10.826 11.169 16.345 16.619 5.519 5.451 11.179 10.723 17.02 15.951a508.303 508.303 0 0036.322 29.506c24.189 17.91 50.421 33.552 77.592 46.271 52.369 24.318 106.474 35.577 148.099 26.067 10.895-2.493 20.749-6.217 29.375-11.101 10.343-5.777 17.532-14.166 28.124-19.64 25.717-13.014 53.268-24.254 82.503-33.658 58.63-19.276 122.112-32.905 183.292-49.207 30.65-8.146 60.75-16.958 89.32-27.466 27.56-10.6 53.69-22.681 78.29-36.199 35.62-18.576 65.04-43.743 79.87-77.691 11.9-27.89 13.49-60.918 4.65-96.602-8.58-35.759-26.27-73.138-47.77-110.112-23.33-39.134-49.54-78.122-78.46-116.7-13.93-18.938-28.08-37.75-42.38-56.707-7.39-9.784 7.58-13.482 15.04-3.606z"/></g><g opacity=".8" clip-path="url(#clip1_177_2815)" filter="url(#filter1_f_177_2815)" fill="#6370F5"><path d="M948.217 311.12c-19.848 87.636-43.441 182.094-264.649 195.496-142.187 12.281-288.524-8.17-431.172 2.576-111.934 20.243-196.556-30.441-198.843-88.751-46.72-124.898 192.291-185.864 389.05-182.366 107.321 7.424 185.337-42.898 289.245-36.733 59.087 3.062 221.897 77.116 216.369 109.778z"/><path d="M955.205 311.367c-4.448 19.582-8.994 39.266-15.973 58.651-6.835 18.89-15.789 37.659-29.976 55.362-13.352 17.25-32.765 32.936-57.163 46.187-26.988 14.229-60.524 24.339-96.357 30.694-21.487 3.733-43.595 6.327-66.01 7.747-14.16 1.018-28.334 2.156-42.623 2.85-14.911.733-29.873 1.191-44.839 1.451-59.403.936-118.685-1.677-177.951-3.257-29.351-.811-58.784-1.396-88.115-1.204-14.862.097-29.691.377-44.501.977-13.908.556-29.031.719-42.465 2.932-40.706 6.729-84.759 4.472-121.023-7.864-34.89-11.863-58.874-31.25-71.527-52.18-3.336-5.54-5.859-11.214-7.546-16.969a64.109 64.109 0 01-1.935-8.829 45.374 45.374 0 00-1.365-8.658c-4.083-11.416-5.81-23.042-5.151-34.664 1.303-20.628 11.744-40.785 30.446-58.777 18.441-17.192 43.096-32.199 72.493-44.125 30.769-12.561 64.778-22.612 100.941-29.834 37.285-7.556 76.078-12.722 115.586-15.392a968.69 968.69 0 0159.229-2.278c9.833-.146 19.675.005 29.478.45 10.974.564 22.025.542 32.993-.063 42.966-2.443 82.067-12.843 121.207-21.935 39.139-9.092 81.143-17.264 124.87-15.322 27.586 1.234 52.81 9.459 75.389 17.501 30.774 10.993 59.45 23.614 85.607 37.676 22.571 12.05 45.574 25.633 58.967 41.381 4.594 5.416 8.242 11.452 7.314 17.492-.757 4.863-14.735 4.383-13.976-.494l.216-1.784-.066-.853s.141.461.035-.287a23.164 23.164 0 00-1.342-3.98c-1.469-2.867-3.516-5.638-6.102-8.263-6.459-6.796-14.291-13.184-23.352-19.046-22.398-14.767-47.718-28.162-75.507-39.947-24.536-10.661-51.645-21.17-79.981-27.806a194.112 194.112 0 00-16.05-3.073c-1.215-.164-2.403-.327-3.622-.462l-.419-.014-1.806-.155c-4.208-.256-8.625-.412-13.013-.567-20.722-.27-41.385 1.297-61.171 4.639-40.071 6.356-76.736 17.495-115.968 25.035-19.984 4.046-40.842 6.691-62.067 7.872-20.721.952-41.252-.594-61.987-.447-38.373.323-76.559 2.976-113.838 7.908-36.942 4.754-72.609 12.045-106.131 21.694-32.024 9.114-60.935 21.119-85.485 35.498-36.617 21.54-57.542 49.534-58.892 78.784-.294 11.195 1.531 22.376 5.448 33.369.893 2.826.59 5.791 1.058 8.647.469 2.856 1.168 5.659 2.035 8.468 1.726 5.522 4.22 10.965 7.46 16.283 6.167 10.156 15.453 19.678 27.47 28.165 23.294 16.281 56.898 27.628 95.254 29.182 10.041.405 20.135.191 30.087-.637 11.879-.961 23.145-3.357 35.006-4.167a1319.687 1319.687 0 0186.209-2.766c58.07-.133 115.964 2.583 173.937 3.95 29.028.693 58.096 1.053 87.156.547a1555.958 1555.958 0 0084.739-4.306c40.005-2.791 79.803-8.975 114.491-20.487 28.283-9.494 52.221-22.332 70.013-37.548 18.04-15.214 30.234-32.228 39.24-49.568 9.095-18.427 15.885-37.163 20.322-56.083 2.384-9.254 4.513-18.486 6.623-27.795 1.087-4.805 15.069-4.356 13.976.494z"/></g></g><defs><clipPath id="clip0_177_2815"><path fill="#fff" transform="matrix(-.97243 .23319 .63454 .77289 1021.24 125.844)" d="M0 0h997.975v873.715H0z"/></clipPath><clipPath id="clip1_177_2815"><path fill="#fff" transform="matrix(-.99938 -.03535 -.12022 .99275 967.988 205.807)" d="M0 0h902.355v339.796H0z"/></clipPath><filter id="filter0_f_177_2815" x="-114.1" y="-39.035" width="1854.63" height="1237.76" filterUnits="userSpaceOnUse" color-interpolation-filters="sRGB"><feFlood flood-opacity="0" result="BackgroundImageFix"/><feBlend in="SourceGraphic" in2="BackgroundImageFix" result="shape"/><feGaussianBlur stdDeviation="82.439" result="effect1_foregroundBlur_177_2815"/></filter><filter id="filter1_f_177_2815" x="-170.782" y="-22.219" width="1334.9" height="761.489" filterUnits="userSpaceOnUse" color-interpolation-filters="sRGB"><feFlood flood-opacity="0" result="BackgroundImageFix"/><feBlend in="SourceGraphic" in2="BackgroundImageFix" result="shape"/><feGaussianBlur stdDeviation="98.065" result="effect1_foregroundBlur_177_2815"/></filter></defs></svg>