<svg width="33" height="34" fill="none" xmlns="http://www.w3.org/2000/svg"><path d="M28.512 9.749V7.934L27.23 9.22 3.988 32.528s0 0 0 0c-.388.387-.821.566-1.338.566-.513 0-.946-.178-1.334-.566C.929 32.14.75 31.707.75 31.19c0-.514.178-.947.566-1.334 0 0 0 0 0 0L24.625 6.612l1.285-1.281H4.19c-.553 0-.981-.179-1.337-.532-.353-.355-.532-.784-.532-1.337 0-.553.179-.982.532-1.337.356-.354.784-.532 1.337-.532h26.191c.553 0 .981.178 1.334.532.356.355.535.784.535 1.337v26.19c0 .553-.179.98-.534 1.334l-.002.002c-.353.354-.78.533-1.333.533-.553 0-.98-.179-1.334-.533l-.001-.002c-.355-.354-.534-.781-.534-1.334V9.75z" fill="#fff" stroke="#0E0F1E" stroke-width="1.5"/></svg>