<svg width="30" height="41" fill="none" xmlns="http://www.w3.org/2000/svg"><path d="M1.73 40.2c-.168 0-.336-.05-.475-.123-.252-.198-.335-.592-.168-.864l10.024-15.515H3.766c-.279 0-.586-.172-.698-.42a.658.658 0 01.168-.69L25.322 1.202a.75.75 0 01.893-.098c.28.172.391.493.252.764l-7.678 15.836h9.38c.28 0 .67.247.782.469a.702.702 0 01-.223.814L2.26 40.027c-.14.124-.335.173-.53.173zm3.49-17.71h7.007c.252 0 .53.148.643.32.111.173.111.469 0 .666l-8.6 13.295 22.42-17.833h-8.767c-.223 0-.558-.148-.698-.321a.727.727 0 01-.056-.715L23.563 4.73 5.219 22.49z" fill="#EB2D2F" stroke="#EB2D2F" stroke-width="1.5"/></svg>