<svg width="44" height="44" fill="none" xmlns="http://www.w3.org/2000/svg"><path d="M30.105 14.575c4.473 4.473 4.473 11.733 0 16.207-4.474 4.473-11.734 4.473-16.207 0-4.473-4.474-4.473-11.734 0-16.207 4.473-4.473 11.733-4.473 16.207 0zM15.126 39.673a18.131 18.131 0 01-9.002-7.81 18.133 18.133 0 01-2.292-11.458m6.893-12.192A18.216 18.216 0 0122 4.327c4.161 0 7.993 1.411 11.073 3.758m-4.198 31.588a18.131 18.131 0 009.002-7.81 18.133 18.133 0 002.291-11.458" stroke="#EB2D2F" stroke-width="1.5" stroke-linecap="round" stroke-linejoin="round"/></svg>