<svg width="42" height="42" fill="none" xmlns="http://www.w3.org/2000/svg"><path d="M38.19 19.109V7.419c0-2.579-1.1-3.61-3.833-3.61h-6.945c-2.734 0-3.834 1.031-3.834 3.61v11.69c0 2.578 1.1 3.61 3.834 3.61h6.945c2.733 0 3.834-1.032 3.834-3.61zm0 15.471v-3.094c0-2.578-1.1-3.61-3.833-3.61h-6.945c-2.734 0-3.834 1.032-3.834 3.61v3.095c0 2.578 1.1 3.61 3.834 3.61h6.945c2.733 0 3.834-1.032 3.834-3.61zM18.421 22.89v11.69c0 2.58-1.1 3.61-3.834 3.61H7.642c-2.733 0-3.833-1.03-3.833-3.61V22.89c0-2.578 1.1-3.61 3.833-3.61h6.945c2.734 0 3.834 1.032 3.834 3.61zm0-15.471v3.094c0 2.579-1.1 3.61-3.834 3.61H7.642c-2.733 0-3.833-1.031-3.833-3.61V7.42c0-2.579 1.1-3.61 3.833-3.61h6.945c2.734 0 3.834 1.031 3.834 3.61z" stroke="#EB2D2F" stroke-width="2.813" stroke-linecap="round" stroke-linejoin="round"/></svg>