<svg width="340" height="356" viewBox="0 0 340 356" fill="none" xmlns="http://www.w3.org/2000/svg">
<g style="mix-blend-mode:multiply" opacity="0.277134" filter="url(#filter0_f_81_1787)">
<rect x="51" y="66.6333" width="238" height="238" rx="66.2433" fill="#B3B8D1"/>
</g>
<g style="mix-blend-mode:multiply" opacity="0.304478" filter="url(#filter1_f_81_1787)">
<rect x="51" y="32.1235" width="238" height="238" rx="66.2433" fill="#6075D0"/>
</g>
<mask id="mask0_81_1787" style="mask-type:luminance" maskUnits="userSpaceOnUse" x="51" y="23" width="238" height="238">
<rect x="51" y="23" width="238" height="238" rx="66.2433" fill="white"/>
</mask>
<g mask="url(#mask0_81_1787)">
<g filter="url(#filter2_i_81_1787)">
<rect x="51" y="23" width="238" height="238" rx="66.2433" fill="url(#paint0_linear_81_1787)"/>
<rect x="51" y="23" width="238" height="238" rx="66.2433" fill="url(#paint1_linear_81_1787)" fill-opacity="0.6" style="mix-blend-mode:multiply"/>
</g>
<g style="mix-blend-mode:screen" filter="url(#filter3_f_81_1787)">
<path fill-rule="evenodd" clip-rule="evenodd" d="M117.243 19.0334C80.6582 19.0334 51 48.6916 51 85.2768V97.1766C51 60.5915 80.6582 30.9333 117.243 30.9333H222.757C259.342 30.9333 289 60.5915 289 97.1767V85.2768C289 48.6916 259.342 19.0334 222.757 19.0334H117.243Z" fill="white"/>
</g>
<g filter="url(#filter4_f_81_1787)">
<rect x="60.1233" y="32.1235" width="219.753" height="219.753" rx="59.5" fill="url(#paint2_linear_81_1787)"/>
</g>
</g>
<path d="M214.935 119.313C219.362 115.992 223.346 112.008 226.445 107.36C222.461 109.13 217.813 110.458 213.164 110.901C218.034 108.024 221.576 103.597 223.346 98.0627C218.919 100.719 213.828 102.711 208.737 103.818C204.31 99.1694 198.333 96.5132 191.693 96.5132C178.854 96.5132 168.451 106.917 168.451 119.755C168.451 121.526 168.672 123.297 169.115 125.068C149.857 123.961 132.591 114.664 121.081 100.719C119.089 104.039 117.982 108.024 117.982 112.451C117.982 120.419 121.966 127.503 128.385 131.708C124.622 131.487 120.859 130.602 117.76 128.831V129.052C117.76 140.341 125.729 149.638 136.354 151.852C134.583 152.294 132.37 152.737 130.378 152.737C128.828 152.737 127.5 152.516 125.951 152.294C128.828 161.591 137.461 168.232 147.643 168.453C139.675 174.651 129.714 178.414 118.867 178.414C116.875 178.414 115.104 178.193 113.333 177.972C123.516 184.612 135.69 188.375 148.971 188.375C191.693 188.375 214.935 153.18 214.935 122.412C214.935 121.305 214.935 120.419 214.935 119.313Z" fill="url(#paint3_linear_81_1787)"/>
<defs>
<filter id="filter0_f_81_1787" x="0.322163" y="15.9555" width="339.356" height="339.356" filterUnits="userSpaceOnUse" color-interpolation-filters="sRGB">
<feFlood flood-opacity="0" result="BackgroundImageFix"/>
<feBlend mode="normal" in="SourceGraphic" in2="BackgroundImageFix" result="shape"/>
<feGaussianBlur stdDeviation="25.3389" result="effect1_foregroundBlur_81_1787"/>
</filter>
<filter id="filter1_f_81_1787" x="19.7307" y="0.854233" width="300.539" height="300.539" filterUnits="userSpaceOnUse" color-interpolation-filters="sRGB">
<feFlood flood-opacity="0" result="BackgroundImageFix"/>
<feBlend mode="normal" in="SourceGraphic" in2="BackgroundImageFix" result="shape"/>
<feGaussianBlur stdDeviation="15.6347" result="effect1_foregroundBlur_81_1787"/>
</filter>
<filter id="filter2_i_81_1787" x="51" y="17.05" width="238" height="243.95" filterUnits="userSpaceOnUse" color-interpolation-filters="sRGB">
<feFlood flood-opacity="0" result="BackgroundImageFix"/>
<feBlend mode="normal" in="SourceGraphic" in2="BackgroundImageFix" result="shape"/>
<feColorMatrix in="SourceAlpha" type="matrix" values="0 0 0 0 0 0 0 0 0 0 0 0 0 0 0 0 0 0 127 0" result="hardAlpha"/>
<feOffset dy="-7.08333"/>
<feGaussianBlur stdDeviation="2.975"/>
<feComposite in2="hardAlpha" operator="arithmetic" k2="-1" k3="1"/>
<feColorMatrix type="matrix" values="0 0 0 0 0 0 0 0 0 0 0 0 0 0 0 0 0 0 0.0920291 0"/>
<feBlend mode="normal" in2="shape" result="effect1_innerShadow_81_1787"/>
</filter>
<filter id="filter3_f_81_1787" x="30.5132" y="-1.45334" width="278.974" height="119.117" filterUnits="userSpaceOnUse" color-interpolation-filters="sRGB">
<feFlood flood-opacity="0" result="BackgroundImageFix"/>
<feBlend mode="normal" in="SourceGraphic" in2="BackgroundImageFix" result="shape"/>
<feGaussianBlur stdDeviation="10.2434" result="effect1_foregroundBlur_81_1787"/>
</filter>
<filter id="filter4_f_81_1787" x="47.9344" y="19.9346" width="244.131" height="244.131" filterUnits="userSpaceOnUse" color-interpolation-filters="sRGB">
<feFlood flood-opacity="0" result="BackgroundImageFix"/>
<feBlend mode="normal" in="SourceGraphic" in2="BackgroundImageFix" result="shape"/>
<feGaussianBlur stdDeviation="6.09447" result="effect1_foregroundBlur_81_1787"/>
</filter>
<linearGradient id="paint0_linear_81_1787" x1="50.9985" y1="23" x2="50.9985" y2="261.003" gradientUnits="userSpaceOnUse">
<stop stop-color="#F4F6FF"/>
<stop offset="1" stop-color="#F4F6FF"/>
</linearGradient>
<linearGradient id="paint1_linear_81_1787" x1="65.6423" y1="52.2845" x2="65.6423" y2="261" gradientUnits="userSpaceOnUse">
<stop stop-color="#F4F6FF"/>
<stop offset="1" stop-color="#D9DEF2"/>
</linearGradient>
<linearGradient id="paint2_linear_81_1787" x1="60.1219" y1="32.1235" x2="60.1219" y2="251.88" gradientUnits="userSpaceOnUse">
<stop stop-color="#E9ECFA"/>
<stop offset="1" stop-color="#F4F6FF"/>
</linearGradient>
<linearGradient id="paint3_linear_81_1787" x1="113.333" y1="76.8335" x2="113.333" y2="207.168" gradientUnits="userSpaceOnUse">
<stop stop-color="#4ECEF6"/>
<stop offset="0.537697" stop-color="#4E8FF6"/>
<stop offset="1" stop-color="#226ADB"/>
</linearGradient>
</defs>
</svg>
