<svg width="114" height="93" viewBox="0 0 114 93" fill="none" xmlns="http://www.w3.org/2000/svg">
<path d="M101.935 23.3127C106.362 19.9923 110.346 16.008 113.445 11.3595C109.461 13.1304 104.813 14.4585 100.164 14.9012C105.034 12.0236 108.576 7.59652 110.346 2.06266C105.919 4.71891 100.828 6.7111 95.737 7.81787C91.3099 3.16943 85.3334 0.513182 78.6928 0.513182C65.8542 0.513182 55.4506 10.9168 55.4506 23.7554C55.4506 25.5262 55.6719 27.297 56.1146 29.0679C36.8568 27.9611 19.5912 18.6642 8.08077 4.71891C6.08858 8.03922 4.98181 12.0236 4.98181 16.4507C4.98181 24.4194 8.96619 31.5028 15.3855 35.7085C11.6224 35.4871 7.85942 34.6017 4.76046 32.8309V33.0522C4.76046 44.3413 12.7292 53.6382 23.3542 55.8517C21.5834 56.2944 19.3698 56.7371 17.3776 56.7371C15.8282 56.7371 14.5 56.5158 12.9506 56.2944C15.8282 65.5913 24.461 72.2319 34.6433 72.4533C26.6745 78.6512 16.7136 82.4142 5.86723 82.4142C3.87504 82.4142 2.10421 82.1929 0.333374 81.9715C10.5157 88.6121 22.6901 92.3752 35.9714 92.3752C78.6928 92.3752 101.935 57.1798 101.935 26.4116C101.935 25.3048 101.935 24.4194 101.935 23.3127Z" fill="url(#paint0_linear_81_1803)"/>
<defs>
<linearGradient id="paint0_linear_81_1803" x1="0.332661" y1="-19.1665" x2="0.332661" y2="111.168" gradientUnits="userSpaceOnUse">
<stop stop-color="#4ECEF6"/>
<stop offset="0.537697" stop-color="#4E8FF6"/>
<stop offset="1" stop-color="#226ADB"/>
</linearGradient>
</defs>
</svg>
