<svg width="143" height="144" viewBox="0 0 143 144" fill="none" xmlns="http://www.w3.org/2000/svg">
<g filter="url(#filter0_d_81_1818)">
<circle cx="71.5" cy="64" r="41.5" fill="white"/>
</g>
<path d="M83.2636 58.4048C83.0176 58.4048 82.818 58.6043 82.818 58.8504V75.9345C82.818 77.409 81.6184 78.6085 80.144 78.6085H67.0302C66.7842 78.6085 66.5846 78.8081 66.5846 79.0542C66.5846 79.3002 66.7842 79.4998 67.0302 79.4998H80.144C82.1098 79.4998 83.7093 77.9004 83.7093 75.9345V58.8504C83.7093 58.6043 83.5097 58.4048 83.2636 58.4048Z" fill="#6175BD"/>
<path d="M80.144 49.5H63.8676C61.9017 49.5 60.3023 51.0994 60.3023 53.0653V54.2518H60.0496C58.9194 54.2518 58 55.1712 58 56.3014C58 57.4316 58.9194 58.3511 60.0496 58.3511H60.3023V59.7175H60.0496C58.9194 59.7175 58 60.6369 58 61.7671C58 62.8973 58.9194 63.8167 60.0496 63.8167H60.3023V65.1831H60.0496C58.9194 65.1831 58 66.1026 58 67.2328C58 68.363 58.9194 69.2824 60.0496 69.2824H60.3023V70.6488H60.0496C58.9194 70.6488 58 71.5682 58 72.6985C58 73.8287 58.9194 74.7481 60.0496 74.7481H60.3023V75.9346C60.3023 77.9007 61.9017 79.5001 63.8676 79.5001H65.2477C65.4938 79.5001 65.6934 79.3005 65.6934 79.0545C65.6934 78.8084 65.4938 78.6088 65.2477 78.6088H63.8676C62.3931 78.6088 61.1936 77.4093 61.1936 75.9346V74.7481H61.6536C62.7838 74.7481 63.7033 73.8287 63.7033 72.6985C63.7033 71.5682 62.7838 70.6488 61.6536 70.6488H61.1936V69.2824H61.6536C62.7838 69.2824 63.7033 68.363 63.7033 67.2328C63.7033 66.1026 62.7838 65.1831 61.6536 65.1831H61.1936V63.8167H61.6536C62.7838 63.8167 63.7033 62.8973 63.7033 61.7671C63.7033 60.6369 62.7838 59.7175 61.6536 59.7175H61.1936V58.3511H61.6536C62.7838 58.3511 63.7033 57.4316 63.7033 56.3014C63.7033 55.1714 62.7838 54.2518 61.6536 54.2518H61.1936V53.0653C61.1936 51.5908 62.3931 50.3913 63.8676 50.3913H80.144C81.6185 50.3913 82.818 51.5908 82.818 53.0653V57.0679C82.818 57.314 83.0176 57.5136 83.2636 57.5136C83.5097 57.5136 83.7093 57.314 83.7093 57.0679V53.0653C83.7093 51.0994 82.1099 49.5 80.144 49.5ZM62.812 72.6982C62.812 73.337 62.2924 73.8568 61.6536 73.8568H60.0496C59.4108 73.8568 58.8913 73.337 58.8913 72.6982C58.8913 72.0594 59.4108 71.5399 60.0496 71.5399H61.6536C62.2924 71.5399 62.812 72.0594 62.812 72.6982ZM62.812 67.2328C62.812 67.8714 62.2924 68.3911 61.6536 68.3911H60.7484C60.7482 68.3911 60.7475 68.3911 60.7473 68.3911H60.0496C59.4108 68.3911 58.8913 67.8716 58.8913 67.2328C58.8913 66.594 59.4108 66.0742 60.0496 66.0742H61.6536C62.2924 66.0742 62.812 66.594 62.812 67.2328ZM62.812 61.7671C62.812 62.4059 62.2924 62.9257 61.6536 62.9257H60.0496C59.4108 62.9257 58.8913 62.4059 58.8913 61.7671C58.8913 61.1283 59.4108 60.6087 60.0496 60.6087H61.6536C62.2924 60.6087 62.812 61.1283 62.812 61.7671ZM62.812 56.3014C62.812 56.9402 62.2924 57.46 61.6536 57.46H60.0496C59.4108 57.46 58.8913 56.9402 58.8913 56.3014C58.8913 55.6628 59.4108 55.1431 60.0496 55.1431H61.6536C62.2924 55.1431 62.812 55.6626 62.812 56.3014Z" fill="#6175BD"/>
<path d="M67.4019 70.03C67.4019 70.276 67.6015 70.4756 67.8476 70.4756H77.2162C77.4622 70.4756 77.6618 70.276 77.6618 70.03C77.6618 68.4068 76.893 66.8929 75.6167 65.9312C76.893 64.9694 77.6618 63.4556 77.6618 61.8324C77.6618 59.0038 75.3604 56.7024 72.5319 56.7024C69.7031 56.7024 67.4019 59.0038 67.4019 61.8324C67.4019 63.4554 68.1705 64.9694 69.4468 65.9312C68.1705 66.8929 67.4019 68.4068 67.4019 70.03ZM70.479 65.5416C69.1307 64.7936 68.293 63.3723 68.293 61.8324C68.293 59.495 70.1945 57.5937 72.5319 57.5937C74.869 57.5937 76.7705 59.495 76.7705 61.8324C76.7705 63.3723 75.9328 64.7936 74.5847 65.5416C74.443 65.6201 74.3551 65.7693 74.3551 65.9312C74.3551 66.0932 74.443 66.2422 74.5847 66.321C75.8019 66.9962 76.6028 68.22 76.7472 69.5844H68.3166C68.461 68.22 69.2618 66.9962 70.479 66.321C70.6207 66.2424 70.7084 66.0932 70.7084 65.9312C70.7084 65.7693 70.6207 65.6201 70.479 65.5416Z" fill="#6175BD"/>
<path d="M78.1905 73.1083C78.4366 73.1083 78.6362 72.9088 78.6362 72.6627C78.6362 72.4167 78.4366 72.2171 78.1905 72.2171H66.8732C66.6272 72.2171 66.4276 72.4167 66.4276 72.6627C66.4276 72.9088 66.6272 73.1083 66.8732 73.1083H78.1905Z" fill="#6175BD"/>
<path d="M83.2636 58.4048C83.0176 58.4048 82.818 58.6043 82.818 58.8504V75.9345C82.818 77.409 81.6184 78.6085 80.144 78.6085H67.0302C66.7842 78.6085 66.5846 78.8081 66.5846 79.0542C66.5846 79.3002 66.7842 79.4998 67.0302 79.4998H80.144C82.1098 79.4998 83.7093 77.9004 83.7093 75.9345V58.8504C83.7093 58.6043 83.5097 58.4048 83.2636 58.4048Z" stroke="#6175BD"/>
<path d="M80.144 49.5H63.8676C61.9017 49.5 60.3023 51.0994 60.3023 53.0653V54.2518H60.0496C58.9194 54.2518 58 55.1712 58 56.3014C58 57.4316 58.9194 58.3511 60.0496 58.3511H60.3023V59.7175H60.0496C58.9194 59.7175 58 60.6369 58 61.7671C58 62.8973 58.9194 63.8167 60.0496 63.8167H60.3023V65.1831H60.0496C58.9194 65.1831 58 66.1026 58 67.2328C58 68.363 58.9194 69.2824 60.0496 69.2824H60.3023V70.6488H60.0496C58.9194 70.6488 58 71.5682 58 72.6985C58 73.8287 58.9194 74.7481 60.0496 74.7481H60.3023V75.9346C60.3023 77.9007 61.9017 79.5001 63.8676 79.5001H65.2477C65.4938 79.5001 65.6934 79.3005 65.6934 79.0545C65.6934 78.8084 65.4938 78.6088 65.2477 78.6088H63.8676C62.3931 78.6088 61.1936 77.4093 61.1936 75.9346V74.7481H61.6536C62.7838 74.7481 63.7033 73.8287 63.7033 72.6985C63.7033 71.5682 62.7838 70.6488 61.6536 70.6488H61.1936V69.2824H61.6536C62.7838 69.2824 63.7033 68.363 63.7033 67.2328C63.7033 66.1026 62.7838 65.1831 61.6536 65.1831H61.1936V63.8167H61.6536C62.7838 63.8167 63.7033 62.8973 63.7033 61.7671C63.7033 60.6369 62.7838 59.7175 61.6536 59.7175H61.1936V58.3511H61.6536C62.7838 58.3511 63.7033 57.4316 63.7033 56.3014C63.7033 55.1714 62.7838 54.2518 61.6536 54.2518H61.1936V53.0653C61.1936 51.5908 62.3931 50.3913 63.8676 50.3913H80.144C81.6185 50.3913 82.818 51.5908 82.818 53.0653V57.0679C82.818 57.314 83.0176 57.5136 83.2636 57.5136C83.5097 57.5136 83.7093 57.314 83.7093 57.0679V53.0653C83.7093 51.0994 82.1099 49.5 80.144 49.5ZM62.812 72.6982C62.812 73.337 62.2924 73.8568 61.6536 73.8568H60.0496C59.4108 73.8568 58.8913 73.337 58.8913 72.6982C58.8913 72.0594 59.4108 71.5399 60.0496 71.5399H61.6536C62.2924 71.5399 62.812 72.0594 62.812 72.6982ZM62.812 67.2328C62.812 67.8714 62.2924 68.3911 61.6536 68.3911H60.7484C60.7482 68.3911 60.7475 68.3911 60.7473 68.3911H60.0496C59.4108 68.3911 58.8913 67.8716 58.8913 67.2328C58.8913 66.594 59.4108 66.0742 60.0496 66.0742H61.6536C62.2924 66.0742 62.812 66.594 62.812 67.2328ZM62.812 61.7671C62.812 62.4059 62.2924 62.9257 61.6536 62.9257H60.0496C59.4108 62.9257 58.8913 62.4059 58.8913 61.7671C58.8913 61.1283 59.4108 60.6087 60.0496 60.6087H61.6536C62.2924 60.6087 62.812 61.1283 62.812 61.7671ZM62.812 56.3014C62.812 56.9402 62.2924 57.46 61.6536 57.46H60.0496C59.4108 57.46 58.8913 56.9402 58.8913 56.3014C58.8913 55.6628 59.4108 55.1431 60.0496 55.1431H61.6536C62.2924 55.1431 62.812 55.6626 62.812 56.3014Z" stroke="#6175BD"/>
<path d="M67.4019 70.03C67.4019 70.276 67.6015 70.4756 67.8476 70.4756H77.2162C77.4622 70.4756 77.6618 70.276 77.6618 70.03C77.6618 68.4068 76.893 66.8929 75.6167 65.9312C76.893 64.9694 77.6618 63.4556 77.6618 61.8324C77.6618 59.0038 75.3604 56.7024 72.5319 56.7024C69.7031 56.7024 67.4019 59.0038 67.4019 61.8324C67.4019 63.4554 68.1705 64.9694 69.4468 65.9312C68.1705 66.8929 67.4019 68.4068 67.4019 70.03ZM70.479 65.5416C69.1307 64.7936 68.293 63.3723 68.293 61.8324C68.293 59.495 70.1945 57.5937 72.5319 57.5937C74.869 57.5937 76.7705 59.495 76.7705 61.8324C76.7705 63.3723 75.9328 64.7936 74.5847 65.5416C74.443 65.6201 74.3551 65.7693 74.3551 65.9312C74.3551 66.0932 74.443 66.2422 74.5847 66.321C75.8019 66.9962 76.6028 68.22 76.7472 69.5844H68.3166C68.461 68.22 69.2618 66.9962 70.479 66.321C70.6207 66.2424 70.7084 66.0932 70.7084 65.9312C70.7084 65.7693 70.6207 65.6201 70.479 65.5416Z" stroke="#6175BD"/>
<path d="M78.1905 73.1083C78.4366 73.1083 78.6362 72.9088 78.6362 72.6627C78.6362 72.4167 78.4366 72.2171 78.1905 72.2171H66.8732C66.6272 72.2171 66.4276 72.4167 66.4276 72.6627C66.4276 72.9088 66.6272 73.1083 66.8732 73.1083H78.1905Z" stroke="#6175BD"/>
<defs>
<filter id="filter0_d_81_1818" x="0" y="0.5" width="143" height="143" filterUnits="userSpaceOnUse" color-interpolation-filters="sRGB">
<feFlood flood-opacity="0" result="BackgroundImageFix"/>
<feColorMatrix in="SourceAlpha" type="matrix" values="0 0 0 0 0 0 0 0 0 0 0 0 0 0 0 0 0 0 127 0" result="hardAlpha"/>
<feOffset dy="8"/>
<feGaussianBlur stdDeviation="15"/>
<feColorMatrix type="matrix" values="0 0 0 0 0.260486 0 0 0 0 0.31346 0 0 0 0 0.504167 0 0 0 0.09 0"/>
<feBlend mode="normal" in2="BackgroundImageFix" result="effect1_dropShadow_81_1818"/>
<feBlend mode="normal" in="SourceGraphic" in2="effect1_dropShadow_81_1818" result="shape"/>
</filter>
</defs>
</svg>
