<svg width="28" height="31" viewBox="0 0 28 31" fill="none" xmlns="http://www.w3.org/2000/svg">
<path d="M26.2636 9.40476C26.0176 9.40476 25.818 9.60435 25.818 9.85039V26.9345C25.818 28.409 24.6184 29.6085 23.144 29.6085H10.0302C9.7842 29.6085 9.58461 29.8081 9.58461 30.0542C9.58461 30.3002 9.7842 30.4998 10.0302 30.4998H23.144C25.1098 30.4998 26.7093 28.9004 26.7093 26.9345V9.85039C26.7093 9.60435 26.5097 9.40476 26.2636 9.40476Z" fill="#6175BD"/>
<path d="M23.144 0.5H6.86759C4.90173 0.5 3.30231 2.09942 3.30231 4.06528V5.2518H3.04963C1.91941 5.2518 1 6.17121 1 7.30142C1 8.43164 1.91941 9.35105 3.04963 9.35105H3.30231V10.7175H3.04963C1.91941 10.7175 1 11.6369 1 12.7671C1 13.8973 1.91941 14.8167 3.04963 14.8167H3.30231V16.1831H3.04963C1.91941 16.1831 1 17.1026 1 18.2328C1 19.363 1.91941 20.2824 3.04963 20.2824H3.30231V21.6488H3.04963C1.91941 21.6488 1 22.5682 1 23.6985C1 24.8287 1.91941 25.7481 3.04963 25.7481H3.30231V26.9346C3.30231 28.9007 4.90173 30.5001 6.86759 30.5001H8.24774C8.49379 30.5001 8.69337 30.3005 8.69337 30.0545C8.69337 29.8084 8.49379 29.6088 8.24774 29.6088H6.86759C5.39314 29.6088 4.19358 28.4093 4.19358 26.9346V25.7481H4.65363C5.78384 25.7481 6.70325 24.8287 6.70325 23.6985C6.70325 22.5682 5.78384 21.6488 4.65363 21.6488H4.19358V20.2824H4.65363C5.78384 20.2824 6.70325 19.363 6.70325 18.2328C6.70325 17.1026 5.78384 16.1831 4.65363 16.1831H4.19358V14.8167H4.65363C5.78384 14.8167 6.70325 13.8973 6.70325 12.7671C6.70325 11.6369 5.78384 10.7175 4.65363 10.7175H4.19358V9.35105H4.65363C5.78384 9.35105 6.70325 8.43164 6.70325 7.30142C6.70325 6.17144 5.78384 5.2518 4.65363 5.2518H4.19358V4.06528C4.19358 2.59083 5.39314 1.39126 6.86759 1.39126H23.144C24.6185 1.39126 25.818 2.59083 25.818 4.06528V8.06795C25.818 8.31399 26.0176 8.51358 26.2636 8.51358C26.5097 8.51358 26.7093 8.31399 26.7093 8.06795V4.06528C26.7093 2.09942 25.1099 0.5 23.144 0.5ZM5.81199 23.6982C5.81199 24.337 5.29243 24.8568 4.65363 24.8568H3.04963C2.41082 24.8568 1.89126 24.337 1.89126 23.6982C1.89126 23.0594 2.41082 22.5399 3.04963 22.5399H4.65363C5.29243 22.5399 5.81199 23.0594 5.81199 23.6982ZM5.81199 18.2328C5.81199 18.8714 5.29243 19.3911 4.65363 19.3911H3.7484C3.74817 19.3911 3.74749 19.3911 3.74726 19.3911H3.04963C2.41082 19.3911 1.89126 18.8716 1.89126 18.2328C1.89126 17.594 2.41082 17.0742 3.04963 17.0742H4.65363C5.29243 17.0742 5.81199 17.594 5.81199 18.2328ZM5.81199 12.7671C5.81199 13.4059 5.29243 13.9257 4.65363 13.9257H3.04963C2.41082 13.9257 1.89126 13.4059 1.89126 12.7671C1.89126 12.1283 2.41082 11.6087 3.04963 11.6087H4.65363C5.29243 11.6087 5.81199 12.1283 5.81199 12.7671ZM5.81199 7.30142C5.81199 7.94023 5.29243 8.46002 4.65363 8.46002H3.04963C2.41082 8.46002 1.89126 7.94023 1.89126 7.30142C1.89126 6.66285 2.41082 6.14306 3.04963 6.14306H4.65363C5.29243 6.14306 5.81199 6.66262 5.81199 7.30142Z" fill="#6175BD"/>
<path d="M10.4019 21.03C10.4019 21.276 10.6015 21.4756 10.8476 21.4756H20.2162C20.4622 21.4756 20.6618 21.276 20.6618 21.03C20.6618 19.4068 19.893 17.8929 18.6167 16.9312C19.893 15.9694 20.6618 14.4556 20.6618 12.8324C20.6618 10.0038 18.3604 7.70242 15.5319 7.70242C12.7031 7.70242 10.4019 10.0038 10.4019 12.8324C10.4019 14.4554 11.1705 15.9694 12.4468 16.9312C11.1705 17.8929 10.4019 19.4068 10.4019 21.03ZM13.479 16.5416C12.1307 15.7936 11.293 14.3723 11.293 12.8324C11.293 10.495 13.1945 8.59369 15.5319 8.59369C17.869 8.59369 19.7705 10.495 19.7705 12.8324C19.7705 14.3723 18.9328 15.7936 17.5847 16.5416C17.443 16.6201 17.3551 16.7693 17.3551 16.9312C17.3551 17.0932 17.443 17.2422 17.5847 17.321C18.8019 17.9962 19.6028 19.22 19.7472 20.5844H11.3166C11.461 19.22 12.2618 17.9962 13.479 17.321C13.6207 17.2424 13.7084 17.0932 13.7084 16.9312C13.7084 16.7693 13.6207 16.6201 13.479 16.5416Z" fill="#6175BD"/>
<path d="M21.1905 24.1083C21.4366 24.1083 21.6362 23.9088 21.6362 23.6627C21.6362 23.4167 21.4366 23.2171 21.1905 23.2171H9.87324C9.6272 23.2171 9.42761 23.4167 9.42761 23.6627C9.42761 23.9088 9.6272 24.1083 9.87324 24.1083H21.1905Z" fill="#6175BD"/>
<path d="M26.2636 9.40476C26.0176 9.40476 25.818 9.60435 25.818 9.85039V26.9345C25.818 28.409 24.6184 29.6085 23.144 29.6085H10.0302C9.7842 29.6085 9.58461 29.8081 9.58461 30.0542C9.58461 30.3002 9.7842 30.4998 10.0302 30.4998H23.144C25.1098 30.4998 26.7093 28.9004 26.7093 26.9345V9.85039C26.7093 9.60435 26.5097 9.40476 26.2636 9.40476Z" stroke="#6175BD"/>
<path d="M23.144 0.5H6.86759C4.90173 0.5 3.30231 2.09942 3.30231 4.06528V5.2518H3.04963C1.91941 5.2518 1 6.17121 1 7.30142C1 8.43164 1.91941 9.35105 3.04963 9.35105H3.30231V10.7175H3.04963C1.91941 10.7175 1 11.6369 1 12.7671C1 13.8973 1.91941 14.8167 3.04963 14.8167H3.30231V16.1831H3.04963C1.91941 16.1831 1 17.1026 1 18.2328C1 19.363 1.91941 20.2824 3.04963 20.2824H3.30231V21.6488H3.04963C1.91941 21.6488 1 22.5682 1 23.6985C1 24.8287 1.91941 25.7481 3.04963 25.7481H3.30231V26.9346C3.30231 28.9007 4.90173 30.5001 6.86759 30.5001H8.24774C8.49379 30.5001 8.69337 30.3005 8.69337 30.0545C8.69337 29.8084 8.49379 29.6088 8.24774 29.6088H6.86759C5.39314 29.6088 4.19358 28.4093 4.19358 26.9346V25.7481H4.65363C5.78384 25.7481 6.70325 24.8287 6.70325 23.6985C6.70325 22.5682 5.78384 21.6488 4.65363 21.6488H4.19358V20.2824H4.65363C5.78384 20.2824 6.70325 19.363 6.70325 18.2328C6.70325 17.1026 5.78384 16.1831 4.65363 16.1831H4.19358V14.8167H4.65363C5.78384 14.8167 6.70325 13.8973 6.70325 12.7671C6.70325 11.6369 5.78384 10.7175 4.65363 10.7175H4.19358V9.35105H4.65363C5.78384 9.35105 6.70325 8.43164 6.70325 7.30142C6.70325 6.17144 5.78384 5.2518 4.65363 5.2518H4.19358V4.06528C4.19358 2.59083 5.39314 1.39126 6.86759 1.39126H23.144C24.6185 1.39126 25.818 2.59083 25.818 4.06528V8.06795C25.818 8.31399 26.0176 8.51358 26.2636 8.51358C26.5097 8.51358 26.7093 8.31399 26.7093 8.06795V4.06528C26.7093 2.09942 25.1099 0.5 23.144 0.5ZM5.81199 23.6982C5.81199 24.337 5.29243 24.8568 4.65363 24.8568H3.04963C2.41082 24.8568 1.89126 24.337 1.89126 23.6982C1.89126 23.0594 2.41082 22.5399 3.04963 22.5399H4.65363C5.29243 22.5399 5.81199 23.0594 5.81199 23.6982ZM5.81199 18.2328C5.81199 18.8714 5.29243 19.3911 4.65363 19.3911H3.7484C3.74817 19.3911 3.74749 19.3911 3.74726 19.3911H3.04963C2.41082 19.3911 1.89126 18.8716 1.89126 18.2328C1.89126 17.594 2.41082 17.0742 3.04963 17.0742H4.65363C5.29243 17.0742 5.81199 17.594 5.81199 18.2328ZM5.81199 12.7671C5.81199 13.4059 5.29243 13.9257 4.65363 13.9257H3.04963C2.41082 13.9257 1.89126 13.4059 1.89126 12.7671C1.89126 12.1283 2.41082 11.6087 3.04963 11.6087H4.65363C5.29243 11.6087 5.81199 12.1283 5.81199 12.7671ZM5.81199 7.30142C5.81199 7.94023 5.29243 8.46002 4.65363 8.46002H3.04963C2.41082 8.46002 1.89126 7.94023 1.89126 7.30142C1.89126 6.66285 2.41082 6.14306 3.04963 6.14306H4.65363C5.29243 6.14306 5.81199 6.66262 5.81199 7.30142Z" stroke="#6175BD"/>
<path d="M10.4019 21.03C10.4019 21.276 10.6015 21.4756 10.8476 21.4756H20.2162C20.4622 21.4756 20.6618 21.276 20.6618 21.03C20.6618 19.4068 19.893 17.8929 18.6167 16.9312C19.893 15.9694 20.6618 14.4556 20.6618 12.8324C20.6618 10.0038 18.3604 7.70242 15.5319 7.70242C12.7031 7.70242 10.4019 10.0038 10.4019 12.8324C10.4019 14.4554 11.1705 15.9694 12.4468 16.9312C11.1705 17.8929 10.4019 19.4068 10.4019 21.03ZM13.479 16.5416C12.1307 15.7936 11.293 14.3723 11.293 12.8324C11.293 10.495 13.1945 8.59369 15.5319 8.59369C17.869 8.59369 19.7705 10.495 19.7705 12.8324C19.7705 14.3723 18.9328 15.7936 17.5847 16.5416C17.443 16.6201 17.3551 16.7693 17.3551 16.9312C17.3551 17.0932 17.443 17.2422 17.5847 17.321C18.8019 17.9962 19.6028 19.22 19.7472 20.5844H11.3166C11.461 19.22 12.2618 17.9962 13.479 17.321C13.6207 17.2424 13.7084 17.0932 13.7084 16.9312C13.7084 16.7693 13.6207 16.6201 13.479 16.5416Z" stroke="#6175BD"/>
<path d="M21.1905 24.1083C21.4366 24.1083 21.6362 23.9088 21.6362 23.6627C21.6362 23.4167 21.4366 23.2171 21.1905 23.2171H9.87324C9.6272 23.2171 9.42761 23.4167 9.42761 23.6627C9.42761 23.9088 9.6272 24.1083 9.87324 24.1083H21.1905Z" stroke="#6175BD"/>
</svg>
