<svg width="143" height="144" viewBox="0 0 143 144" fill="none" xmlns="http://www.w3.org/2000/svg">
<g filter="url(#filter0_d_81_1825)">
<circle cx="71.5" cy="64" r="41.5" fill="white"/>
</g>
<path d="M84.4193 56.5897L74.769 55.3113V49.1734C76.2617 48.357 77.2571 46.7405 77.1738 44.9046C77.0664 42.5381 75.1471 40.6159 72.7808 40.5052C70.1342 40.3813 67.9417 42.4987 67.9417 45.1185C67.9417 46.8654 68.9169 48.3889 70.3513 49.1734V54.7263L61.5869 53.5653C60.9056 53.4749 60.2803 53.9551 60.1902 54.6352L57.511 74.8615C57.4673 75.191 57.5546 75.5178 57.7567 75.7816C57.9589 76.0454 58.2516 76.2147 58.581 76.2582L73.1536 78.1886C73.2043 78.1954 73.255 78.1985 73.3054 78.1991C73.3633 78.217 73.4233 78.2271 73.4841 78.2271C73.605 78.2271 73.7271 78.1907 73.8332 78.1152L74.039 77.9686L74.0392 77.9684L83.5471 71.1917C83.723 71.0663 83.8106 70.8637 83.798 70.6629C83.8122 70.6107 83.824 70.5578 83.8312 70.5037L84.6146 64.5899C84.6622 64.2292 84.3814 63.9086 84.0172 63.9086C83.715 63.9086 83.4597 64.1323 83.4201 64.4319L82.6652 70.1311L75.1396 69.1342C74.4599 69.0441 73.833 69.5242 73.7429 70.2041L72.8516 76.9333L58.739 75.0639C58.7349 75.0633 58.7229 75.0618 58.713 75.0488C58.7031 75.0359 58.7047 75.0238 58.7052 75.0197L61.3843 54.7934C61.3872 54.7718 61.4076 54.7565 61.4285 54.7595L70.3513 55.9414V56.3161C70.3513 57.5346 71.318 58.5591 72.5365 58.5719C73.7103 58.5843 74.6783 57.6757 74.7624 56.5257L84.2611 57.7839C84.2651 57.7845 84.2771 57.786 84.287 57.799C84.2969 57.812 84.2953 57.8242 84.2948 57.8281L83.8556 61.1437C83.8078 61.5047 84.0887 61.8252 84.4528 61.8252C84.755 61.8252 85.0103 61.6014 85.0499 61.3019L85.4891 57.9863C85.5793 57.3064 85.0993 56.6797 84.4193 56.5897ZM74.9374 70.3625C74.9379 70.3584 74.9395 70.3463 74.9525 70.3365C74.9654 70.3265 74.9776 70.3281 74.9814 70.3287L81.4753 71.1889L74.1348 76.4207L74.9374 70.3625ZM73.5642 56.3635C73.5642 56.9172 73.1139 57.3675 72.5602 57.3675C72.0065 57.3675 71.5562 56.9172 71.5562 56.3635V55.4342C71.5564 55.4295 71.5561 55.4249 71.5562 55.4202V49.6258C71.8797 49.6978 72.2154 49.7371 72.5602 49.7371C72.905 49.7371 73.2407 49.6979 73.5642 49.6258V56.3635ZM72.5602 48.5322C70.6779 48.5322 69.1465 47.0009 69.1465 45.1186C69.1465 43.2363 70.6779 41.7049 72.5602 41.7049C74.4425 41.7049 75.9738 43.2363 75.9738 45.1186C75.9738 47.0009 74.4425 48.5322 72.5602 48.5322Z" fill="#6175BD"/>
<path d="M78.7433 61.5094L66.0033 59.8219C65.6745 59.778 65.3707 60.0101 65.3271 60.34C65.2834 60.6698 65.5154 60.9726 65.8452 61.0163L78.5851 62.7039C78.612 62.7074 78.6386 62.7092 78.6651 62.7092C78.9625 62.7092 79.2214 62.4888 79.2615 62.1858C79.3051 61.8559 79.0731 61.5531 78.7433 61.5094Z" fill="#6175BD"/>
<path d="M78.216 65.4907L65.4759 63.8031C65.1458 63.759 64.8433 63.9913 64.7997 64.3212C64.756 64.651 64.9879 64.9538 65.3177 64.9975L78.0577 66.6851C78.0846 66.6886 78.1112 66.6904 78.1377 66.6904C78.4352 66.6904 78.694 66.47 78.7341 66.167C78.7777 65.8372 78.5458 65.5344 78.216 65.4907Z" fill="#6175BD"/>
<path d="M84.4193 56.5897L74.769 55.3113V49.1734C76.2617 48.357 77.2571 46.7405 77.1738 44.9046C77.0664 42.5381 75.1471 40.6159 72.7808 40.5052C70.1342 40.3813 67.9417 42.4987 67.9417 45.1185C67.9417 46.8654 68.9169 48.3889 70.3513 49.1734V54.7263L61.5869 53.5653C60.9056 53.4749 60.2803 53.9551 60.1902 54.6352L57.511 74.8615C57.4673 75.191 57.5546 75.5178 57.7567 75.7816C57.9589 76.0454 58.2516 76.2147 58.581 76.2582L73.1536 78.1886C73.2043 78.1954 73.255 78.1985 73.3054 78.1991C73.3633 78.217 73.4233 78.2271 73.4841 78.2271C73.605 78.2271 73.7271 78.1907 73.8332 78.1152L74.039 77.9686L74.0392 77.9684L83.5471 71.1917C83.723 71.0663 83.8106 70.8637 83.798 70.6629C83.8122 70.6107 83.824 70.5578 83.8312 70.5037L84.6146 64.5899C84.6622 64.2292 84.3814 63.9086 84.0172 63.9086C83.715 63.9086 83.4597 64.1323 83.4201 64.4319L82.6652 70.1311L75.1396 69.1342C74.4599 69.0441 73.833 69.5242 73.7429 70.2041L72.8516 76.9333L58.739 75.0639C58.7349 75.0633 58.7229 75.0618 58.713 75.0488C58.7031 75.0359 58.7047 75.0238 58.7052 75.0197L61.3843 54.7934C61.3872 54.7718 61.4076 54.7565 61.4285 54.7595L70.3513 55.9414V56.3161C70.3513 57.5346 71.318 58.5591 72.5365 58.5719C73.7103 58.5843 74.6783 57.6757 74.7624 56.5257L84.2611 57.7839C84.2651 57.7845 84.2771 57.786 84.287 57.799C84.2969 57.812 84.2953 57.8242 84.2948 57.8281L83.8556 61.1437C83.8078 61.5047 84.0887 61.8252 84.4528 61.8252C84.755 61.8252 85.0103 61.6014 85.0499 61.3019L85.4891 57.9863C85.5793 57.3064 85.0993 56.6797 84.4193 56.5897ZM74.9374 70.3625C74.9379 70.3584 74.9395 70.3463 74.9525 70.3365C74.9654 70.3265 74.9776 70.3281 74.9814 70.3287L81.4753 71.1889L74.1348 76.4207L74.9374 70.3625ZM73.5642 56.3635C73.5642 56.9172 73.1139 57.3675 72.5602 57.3675C72.0065 57.3675 71.5562 56.9172 71.5562 56.3635V55.4342C71.5564 55.4295 71.5561 55.4249 71.5562 55.4202V49.6258C71.8797 49.6978 72.2154 49.7371 72.5602 49.7371C72.905 49.7371 73.2407 49.6979 73.5642 49.6258V56.3635ZM72.5602 48.5322C70.6779 48.5322 69.1465 47.0009 69.1465 45.1186C69.1465 43.2363 70.6779 41.7049 72.5602 41.7049C74.4425 41.7049 75.9738 43.2363 75.9738 45.1186C75.9738 47.0009 74.4425 48.5322 72.5602 48.5322Z" stroke="#6175BD"/>
<path d="M78.7433 61.5094L66.0033 59.8219C65.6745 59.778 65.3707 60.0101 65.3271 60.34C65.2834 60.6698 65.5154 60.9726 65.8452 61.0163L78.5851 62.7039C78.612 62.7074 78.6386 62.7092 78.6651 62.7092C78.9625 62.7092 79.2214 62.4888 79.2615 62.1858C79.3051 61.8559 79.0731 61.5531 78.7433 61.5094Z" stroke="#6175BD"/>
<path d="M78.216 65.4907L65.4759 63.8031C65.1458 63.759 64.8433 63.9913 64.7997 64.3212C64.756 64.651 64.9879 64.9538 65.3177 64.9975L78.0577 66.6851C78.0846 66.6886 78.1112 66.6904 78.1377 66.6904C78.4352 66.6904 78.694 66.47 78.7341 66.167C78.7777 65.8372 78.5458 65.5344 78.216 65.4907Z" stroke="#6175BD"/>
<defs>
<filter id="filter0_d_81_1825" x="0" y="0.5" width="143" height="143" filterUnits="userSpaceOnUse" color-interpolation-filters="sRGB">
<feFlood flood-opacity="0" result="BackgroundImageFix"/>
<feColorMatrix in="SourceAlpha" type="matrix" values="0 0 0 0 0 0 0 0 0 0 0 0 0 0 0 0 0 0 127 0" result="hardAlpha"/>
<feOffset dy="8"/>
<feGaussianBlur stdDeviation="15"/>
<feColorMatrix type="matrix" values="0 0 0 0 0.260486 0 0 0 0 0.31346 0 0 0 0 0.504167 0 0 0 0.09 0"/>
<feBlend mode="normal" in2="BackgroundImageFix" result="effect1_dropShadow_81_1825"/>
<feBlend mode="normal" in="SourceGraphic" in2="effect1_dropShadow_81_1825" result="shape"/>
</filter>
</defs>
</svg>
