<svg width="29" height="39" viewBox="0 0 29 39" fill="none" xmlns="http://www.w3.org/2000/svg">
<path d="M27.4193 16.5897L17.769 15.3113V9.17336C19.2617 8.35699 20.2571 6.74055 20.1738 4.90459C20.0664 2.53809 18.1471 0.615921 15.7808 0.505172C13.1342 0.381306 10.9417 2.49867 10.9417 5.1185C10.9417 6.86544 11.9169 8.3889 13.3513 9.17343V14.7263L4.58695 13.5653C3.90557 13.4749 3.28028 13.9551 3.19016 14.6352L0.511012 34.8615C0.467316 35.191 0.55456 35.5178 0.756681 35.7816C0.958875 36.0454 1.25156 36.2147 1.58101 36.2582L16.1536 38.1886C16.2043 38.1954 16.255 38.1985 16.3054 38.1991C16.3633 38.217 16.4233 38.2271 16.4841 38.2271C16.605 38.2271 16.7271 38.1907 16.8332 38.1152L17.039 37.9686L17.0392 37.9684L26.5471 31.1917C26.723 31.0663 26.8106 30.8637 26.798 30.6629C26.8122 30.6107 26.824 30.5578 26.8312 30.5037L27.6146 24.5899C27.6622 24.2292 27.3814 23.9086 27.0172 23.9086C26.715 23.9086 26.4597 24.1323 26.4201 24.4319L25.6652 30.1311L18.1396 29.1342C17.4599 29.0441 16.833 29.5242 16.7429 30.2041L15.8516 36.9333L1.73899 35.0639C1.73493 35.0633 1.72285 35.0618 1.71298 35.0488C1.7031 35.0359 1.70472 35.0238 1.70517 35.0197L4.38431 14.7934C4.38719 14.7718 4.4076 14.7565 4.42852 14.7595L13.3513 15.9414V16.3161C13.3513 17.5346 14.318 18.5591 15.5365 18.5719C16.7103 18.5843 17.6783 17.6757 17.7624 16.5257L27.2611 17.7839C27.2651 17.7845 27.2771 17.786 27.287 17.799C27.2969 17.812 27.2953 17.8242 27.2948 17.8281L26.8556 21.1437C26.8078 21.5047 27.0887 21.8252 27.4528 21.8252C27.755 21.8252 28.0103 21.6014 28.0499 21.3019L28.4891 17.9863C28.5793 17.3064 28.0993 16.6797 27.4193 16.5897ZM17.9374 30.3625C17.9379 30.3584 17.9395 30.3463 17.9525 30.3365C17.9654 30.3265 17.9776 30.3281 17.9814 30.3287L24.4753 31.1889L17.1348 36.4207L17.9374 30.3625ZM16.5642 16.3635C16.5642 16.9172 16.1139 17.3675 15.5602 17.3675C15.0065 17.3675 14.5562 16.9172 14.5562 16.3635V15.4342C14.5564 15.4295 14.5561 15.4249 14.5562 15.4202V9.62579C14.8797 9.69778 15.2154 9.73706 15.5602 9.73706C15.905 9.73706 16.2407 9.69786 16.5642 9.62579V16.3635ZM15.5602 8.53222C13.6779 8.53222 12.1465 7.00088 12.1465 5.11857C12.1465 3.23627 13.6779 1.70493 15.5602 1.70493C17.4425 1.70493 18.9738 3.23627 18.9738 5.11857C18.9738 7.00088 17.4425 8.53222 15.5602 8.53222Z" fill="#6175BD"/>
<path d="M21.7433 21.5094L9.00331 19.8219C8.67445 19.778 8.37072 20.0101 8.3271 20.34C8.2834 20.6698 8.51536 20.9726 8.84518 21.0163L21.5851 22.7039C21.612 22.7074 21.6386 22.7092 21.6651 22.7092C21.9625 22.7092 22.2214 22.4888 22.2615 22.1858C22.3051 21.8559 22.0731 21.5531 21.7433 21.5094Z" fill="#6175BD"/>
<path d="M21.216 25.4907L8.47594 23.8031C8.14583 23.759 7.84328 23.9913 7.79965 24.3212C7.75596 24.651 7.98792 24.9538 8.31767 24.9975L21.0577 26.6851C21.0846 26.6886 21.1112 26.6904 21.1377 26.6904C21.4352 26.6904 21.694 26.47 21.7341 26.167C21.7777 25.8372 21.5458 25.5344 21.216 25.4907Z" fill="#6175BD"/>
<path d="M27.4193 16.5897L17.769 15.3113V9.17336C19.2617 8.35699 20.2571 6.74055 20.1738 4.90459C20.0664 2.53809 18.1471 0.615921 15.7808 0.505172C13.1342 0.381306 10.9417 2.49867 10.9417 5.1185C10.9417 6.86544 11.9169 8.3889 13.3513 9.17343V14.7263L4.58695 13.5653C3.90557 13.4749 3.28028 13.9551 3.19016 14.6352L0.511012 34.8615C0.467316 35.191 0.55456 35.5178 0.756681 35.7816C0.958875 36.0454 1.25156 36.2147 1.58101 36.2582L16.1536 38.1886C16.2043 38.1954 16.255 38.1985 16.3054 38.1991C16.3633 38.217 16.4233 38.2271 16.4841 38.2271C16.605 38.2271 16.7271 38.1907 16.8332 38.1152L17.039 37.9686L17.0392 37.9684L26.5471 31.1917C26.723 31.0663 26.8106 30.8637 26.798 30.6629C26.8122 30.6107 26.824 30.5578 26.8312 30.5037L27.6146 24.5899C27.6622 24.2292 27.3814 23.9086 27.0172 23.9086C26.715 23.9086 26.4597 24.1323 26.4201 24.4319L25.6652 30.1311L18.1396 29.1342C17.4599 29.0441 16.833 29.5242 16.7429 30.2041L15.8516 36.9333L1.73899 35.0639C1.73493 35.0633 1.72285 35.0618 1.71298 35.0488C1.7031 35.0359 1.70472 35.0238 1.70517 35.0197L4.38431 14.7934C4.38719 14.7718 4.4076 14.7565 4.42852 14.7595L13.3513 15.9414V16.3161C13.3513 17.5346 14.318 18.5591 15.5365 18.5719C16.7103 18.5843 17.6783 17.6757 17.7624 16.5257L27.2611 17.7839C27.2651 17.7845 27.2771 17.786 27.287 17.799C27.2969 17.812 27.2953 17.8242 27.2948 17.8281L26.8556 21.1437C26.8078 21.5047 27.0887 21.8252 27.4528 21.8252C27.755 21.8252 28.0103 21.6014 28.0499 21.3019L28.4891 17.9863C28.5793 17.3064 28.0993 16.6797 27.4193 16.5897ZM17.9374 30.3625C17.9379 30.3584 17.9395 30.3463 17.9525 30.3365C17.9654 30.3265 17.9776 30.3281 17.9814 30.3287L24.4753 31.1889L17.1348 36.4207L17.9374 30.3625ZM16.5642 16.3635C16.5642 16.9172 16.1139 17.3675 15.5602 17.3675C15.0065 17.3675 14.5562 16.9172 14.5562 16.3635V15.4342C14.5564 15.4295 14.5561 15.4249 14.5562 15.4202V9.62579C14.8797 9.69778 15.2154 9.73706 15.5602 9.73706C15.905 9.73706 16.2407 9.69786 16.5642 9.62579V16.3635ZM15.5602 8.53222C13.6779 8.53222 12.1465 7.00088 12.1465 5.11857C12.1465 3.23627 13.6779 1.70493 15.5602 1.70493C17.4425 1.70493 18.9738 3.23627 18.9738 5.11857C18.9738 7.00088 17.4425 8.53222 15.5602 8.53222Z" stroke="#6175BD"/>
<path d="M21.7433 21.5094L9.00331 19.8219C8.67445 19.778 8.37072 20.0101 8.3271 20.34C8.2834 20.6698 8.51536 20.9726 8.84518 21.0163L21.5851 22.7039C21.612 22.7074 21.6386 22.7092 21.6651 22.7092C21.9625 22.7092 22.2214 22.4888 22.2615 22.1858C22.3051 21.8559 22.0731 21.5531 21.7433 21.5094Z" stroke="#6175BD"/>
<path d="M21.216 25.4907L8.47594 23.8031C8.14583 23.759 7.84328 23.9913 7.79965 24.3212C7.75596 24.651 7.98792 24.9538 8.31767 24.9975L21.0577 26.6851C21.0846 26.6886 21.1112 26.6904 21.1377 26.6904C21.4352 26.6904 21.694 26.47 21.7341 26.167C21.7777 25.8372 21.5458 25.5344 21.216 25.4907Z" stroke="#6175BD"/>
</svg>
