<svg width="143" height="143" viewBox="0 0 143 143" fill="none" xmlns="http://www.w3.org/2000/svg">
<g filter="url(#filter0_d_81_1832)">
<circle cx="71.5" cy="63.5" r="41.5" fill="white"/>
</g>
<path d="M80.4591 71.115C80.2131 71.115 80.0135 71.3146 80.0135 71.5607V75.3228C80.0135 76.859 78.7634 78.109 77.2269 78.109H61.1772C59.641 78.109 58.391 76.859 58.391 75.3228V68.4122C58.391 68.1661 58.1917 67.9665 57.9456 67.9665C57.6996 67.9665 57.5 68.1661 57.5 68.4122V75.3228C57.5 77.3504 59.1496 79 61.1772 79H77.2269C79.2548 79 80.9045 77.3504 80.9045 75.3228V71.5607C80.9045 71.3146 80.7052 71.115 80.4591 71.115Z" fill="#6175BD"/>
<path d="M84.4602 59.6867L84.1487 59.3757L84.8889 58.6357C85.3876 58.1367 85.3876 57.3251 84.8889 56.8262L84.0464 55.9836C83.5474 55.4849 82.7358 55.4849 82.2371 55.9836L80.9045 57.3162V52.6772C80.9045 50.6496 79.2548 49 77.2266 49H66.6141C66.496 49 66.3827 49.0469 66.2991 49.1305L57.6305 57.7984C57.5469 57.882 57.5 57.9953 57.5 58.1134V66.6299C57.5 66.8759 57.6996 67.0753 57.9456 67.0753C58.1917 67.0753 58.391 66.8759 58.391 66.6299V58.559H63.3823C65.4099 58.559 67.0597 56.9095 67.0597 54.8818V49.891H77.2269C78.7634 49.891 80.0135 51.141 80.0135 52.6772V57.3732C79.8345 57.3963 79.6567 57.4386 79.4832 57.5016C77.802 58.1122 75.8685 59.432 74.1784 61.122C72.5771 62.7233 71.3327 64.4994 70.6744 66.1233C70.2386 67.1986 70.0896 68.1421 70.2247 68.8942L69.436 69.6829C69.2018 69.9171 69.073 70.2283 69.073 70.5595C69.073 70.8909 69.2018 71.2022 69.436 71.4364C69.6777 71.6781 69.9951 71.7989 70.3126 71.7989C70.63 71.7989 70.9475 71.6778 71.1892 71.4364L71.98 70.6454C72.1583 70.6772 72.3469 70.6936 72.5458 70.6936C73.375 70.6934 74.3745 70.4176 75.4768 69.8688C75.697 69.7591 75.7867 69.4916 75.6771 69.2714C75.5675 69.051 75.2999 68.9612 75.0797 69.0711C73.7923 69.712 72.6902 69.9395 71.974 69.7346C71.964 69.7312 71.9537 69.7287 71.9434 69.7262C71.7419 69.6639 71.5723 69.5666 71.4389 69.4334C70.9212 68.9157 70.9436 67.8313 71.5002 66.4582C72.1148 64.9423 73.2896 63.271 74.8085 61.7522C75.1232 61.4374 75.4464 61.1367 75.7744 60.8517L80.0206 65.0982C79.7359 65.4259 79.4351 65.7491 79.1202 66.0641C78.2582 66.926 77.3516 67.6742 76.426 68.2879C76.2209 68.4238 76.1649 68.7001 76.3008 68.9054C76.4368 69.1105 76.7133 69.1665 76.9183 69.0306C77.8936 68.3842 78.8464 67.598 79.7505 66.6942C81.4406 65.0039 82.7603 63.0703 83.371 61.3891C83.5289 60.954 83.5577 60.4917 83.4715 60.0532L83.5188 60.0058L83.8303 60.3171C84.2947 60.7815 84.539 61.3988 84.5181 62.0552C84.4973 62.7119 84.2142 63.3127 83.7239 63.7443L79.198 67.6555C79.1451 67.6976 79.0941 67.7424 79.0456 67.791C79.043 67.7935 79.0408 67.7962 79.0382 67.7988C79.0355 67.8015 79.033 67.8042 79.0302 67.807C78.3562 68.498 78.361 69.6085 79.0456 70.2931C79.3797 70.6273 79.824 70.8113 80.2964 70.8113C80.769 70.8113 81.2133 70.6273 81.5475 70.2931C81.8816 69.9589 82.0657 69.5147 82.0657 69.042C82.0657 68.5694 81.8816 68.1251 81.5475 67.791C81.358 67.6015 81.1327 67.4602 80.8871 67.3735L84.3096 64.4159C84.9896 63.8171 85.3801 62.9888 85.4087 62.0833C85.4373 61.1783 85.1006 60.3271 84.4602 59.6867ZM63.3823 57.668H59.0214L66.1684 50.5211V54.8818C66.1684 56.4181 64.9187 57.668 63.3823 57.668ZM70.5591 70.806C70.4231 70.9422 70.2018 70.9422 70.0658 70.806C70.0002 70.7403 69.964 70.6529 69.964 70.5595C69.964 70.4664 70.0002 70.3789 70.0658 70.313L70.5847 69.7944C70.6513 69.8903 70.7257 69.9805 70.8088 70.0635C70.8919 70.1464 70.9818 70.2208 71.0777 70.2874L70.5591 70.806ZM82.8672 56.6138C82.9404 56.5405 83.0379 56.5 83.1416 56.5C83.2455 56.5 83.343 56.5405 83.4163 56.6138L84.2588 57.4563C84.3323 57.5297 84.3726 57.6272 84.3726 57.7309C84.3726 57.8346 84.3323 57.9321 84.2588 58.0054L83.1057 59.1587C83.0153 59.0216 82.9114 58.892 82.7928 58.7735L82.0991 58.0797C81.9805 57.9612 81.851 57.8573 81.7141 57.7669L82.8672 56.6138ZM82.5333 61.085C82.1547 62.1266 81.4756 63.2804 80.5907 64.4081L76.4645 60.2816C77.5922 59.3967 78.7457 58.7176 79.7876 58.3393C80.3717 58.1271 81.0318 58.2725 81.469 58.7099L82.1627 59.4036C82.5999 59.8408 82.7454 60.5009 82.5333 61.085ZM81.1744 69.042C81.1744 69.2764 81.0831 69.4971 80.9171 69.6628C80.7514 69.8287 80.5308 69.92 80.2964 69.92C80.0618 69.92 79.8412 69.8287 79.6754 69.6628C79.3346 69.3222 79.3333 68.769 79.6709 68.4261L79.7599 68.3478C79.913 68.229 80.0996 68.1638 80.2964 68.1638C80.531 68.1638 80.7514 68.2551 80.9174 68.4211C81.0831 68.587 81.1744 68.8074 81.1744 69.042Z" fill="#6175BD"/>
<path d="M63.1644 61.4319H72.7882C73.0342 61.4319 73.2336 61.2324 73.2336 60.9863C73.2336 60.7403 73.0342 60.5407 72.7882 60.5407H63.1644C62.9183 60.5407 62.719 60.7403 62.719 60.9863C62.719 61.2324 62.9183 61.4319 63.1644 61.4319Z" fill="#6175BD"/>
<path d="M63.1644 64.0195H70.2336C70.4797 64.0195 70.6792 63.8201 70.6792 63.5741C70.6792 63.328 70.4797 63.1284 70.2336 63.1284H63.1644C62.9183 63.1284 62.719 63.328 62.719 63.5741C62.719 63.8201 62.9183 64.0195 63.1644 64.0195Z" fill="#6175BD"/>
<path d="M80.4591 71.115C80.2131 71.115 80.0135 71.3146 80.0135 71.5607V75.3228C80.0135 76.859 78.7634 78.109 77.2269 78.109H61.1772C59.641 78.109 58.391 76.859 58.391 75.3228V68.4122C58.391 68.1661 58.1917 67.9665 57.9456 67.9665C57.6996 67.9665 57.5 68.1661 57.5 68.4122V75.3228C57.5 77.3504 59.1496 79 61.1772 79H77.2269C79.2548 79 80.9045 77.3504 80.9045 75.3228V71.5607C80.9045 71.3146 80.7052 71.115 80.4591 71.115Z" stroke="#6175BD"/>
<path d="M84.4602 59.6867L84.1487 59.3757L84.8889 58.6357C85.3876 58.1367 85.3876 57.3251 84.8889 56.8262L84.0464 55.9836C83.5474 55.4849 82.7358 55.4849 82.2371 55.9836L80.9045 57.3162V52.6772C80.9045 50.6496 79.2548 49 77.2266 49H66.6141C66.496 49 66.3827 49.0469 66.2991 49.1305L57.6305 57.7984C57.5469 57.882 57.5 57.9953 57.5 58.1134V66.6299C57.5 66.8759 57.6996 67.0753 57.9456 67.0753C58.1917 67.0753 58.391 66.8759 58.391 66.6299V58.559H63.3823C65.4099 58.559 67.0597 56.9095 67.0597 54.8818V49.891H77.2269C78.7634 49.891 80.0135 51.141 80.0135 52.6772V57.3732C79.8345 57.3963 79.6567 57.4386 79.4832 57.5016C77.802 58.1122 75.8685 59.432 74.1784 61.122C72.5771 62.7233 71.3327 64.4994 70.6744 66.1233C70.2386 67.1986 70.0896 68.1421 70.2247 68.8942L69.436 69.6829C69.2018 69.9171 69.073 70.2283 69.073 70.5595C69.073 70.8909 69.2018 71.2022 69.436 71.4364C69.6777 71.6781 69.9951 71.7989 70.3126 71.7989C70.63 71.7989 70.9475 71.6778 71.1892 71.4364L71.98 70.6454C72.1583 70.6772 72.3469 70.6936 72.5458 70.6936C73.375 70.6934 74.3745 70.4176 75.4768 69.8688C75.697 69.7591 75.7867 69.4916 75.6771 69.2714C75.5675 69.051 75.2999 68.9612 75.0797 69.0711C73.7923 69.712 72.6902 69.9395 71.974 69.7346C71.964 69.7312 71.9537 69.7287 71.9434 69.7262C71.7419 69.6639 71.5723 69.5666 71.4389 69.4334C70.9212 68.9157 70.9436 67.8313 71.5002 66.4582C72.1148 64.9423 73.2896 63.271 74.8085 61.7522C75.1232 61.4374 75.4464 61.1367 75.7744 60.8517L80.0206 65.0982C79.7359 65.4259 79.4351 65.7491 79.1202 66.0641C78.2582 66.926 77.3516 67.6742 76.426 68.2879C76.2209 68.4238 76.1649 68.7001 76.3008 68.9054C76.4368 69.1105 76.7133 69.1665 76.9183 69.0306C77.8936 68.3842 78.8464 67.598 79.7505 66.6942C81.4406 65.0039 82.7603 63.0703 83.371 61.3891C83.5289 60.954 83.5577 60.4917 83.4715 60.0532L83.5188 60.0058L83.8303 60.3171C84.2947 60.7815 84.539 61.3988 84.5181 62.0552C84.4973 62.7119 84.2142 63.3127 83.7239 63.7443L79.198 67.6555C79.1451 67.6976 79.0941 67.7424 79.0456 67.791C79.043 67.7935 79.0408 67.7962 79.0382 67.7988C79.0355 67.8015 79.033 67.8042 79.0302 67.807C78.3562 68.498 78.361 69.6085 79.0456 70.2931C79.3797 70.6273 79.824 70.8113 80.2964 70.8113C80.769 70.8113 81.2133 70.6273 81.5475 70.2931C81.8816 69.9589 82.0657 69.5147 82.0657 69.042C82.0657 68.5694 81.8816 68.1251 81.5475 67.791C81.358 67.6015 81.1327 67.4602 80.8871 67.3735L84.3096 64.4159C84.9896 63.8171 85.3801 62.9888 85.4087 62.0833C85.4373 61.1783 85.1006 60.3271 84.4602 59.6867ZM63.3823 57.668H59.0214L66.1684 50.5211V54.8818C66.1684 56.4181 64.9187 57.668 63.3823 57.668ZM70.5591 70.806C70.4231 70.9422 70.2018 70.9422 70.0658 70.806C70.0002 70.7403 69.964 70.6529 69.964 70.5595C69.964 70.4664 70.0002 70.3789 70.0658 70.313L70.5847 69.7944C70.6513 69.8903 70.7257 69.9805 70.8088 70.0635C70.8919 70.1464 70.9818 70.2208 71.0777 70.2874L70.5591 70.806ZM82.8672 56.6138C82.9404 56.5405 83.0379 56.5 83.1416 56.5C83.2455 56.5 83.343 56.5405 83.4163 56.6138L84.2588 57.4563C84.3323 57.5297 84.3726 57.6272 84.3726 57.7309C84.3726 57.8346 84.3323 57.9321 84.2588 58.0054L83.1057 59.1587C83.0153 59.0216 82.9114 58.892 82.7928 58.7735L82.0991 58.0797C81.9805 57.9612 81.851 57.8573 81.7141 57.7669L82.8672 56.6138ZM82.5333 61.085C82.1547 62.1266 81.4756 63.2804 80.5907 64.4081L76.4645 60.2816C77.5922 59.3967 78.7457 58.7176 79.7876 58.3393C80.3717 58.1271 81.0318 58.2725 81.469 58.7099L82.1627 59.4036C82.5999 59.8408 82.7454 60.5009 82.5333 61.085ZM81.1744 69.042C81.1744 69.2764 81.0831 69.4971 80.9171 69.6628C80.7514 69.8287 80.5308 69.92 80.2964 69.92C80.0618 69.92 79.8412 69.8287 79.6754 69.6628C79.3346 69.3222 79.3333 68.769 79.6709 68.4261L79.7599 68.3478C79.913 68.229 80.0996 68.1638 80.2964 68.1638C80.531 68.1638 80.7514 68.2551 80.9174 68.4211C81.0831 68.587 81.1744 68.8074 81.1744 69.042Z" stroke="#6175BD"/>
<path d="M63.1644 61.4319H72.7882C73.0342 61.4319 73.2336 61.2324 73.2336 60.9863C73.2336 60.7403 73.0342 60.5407 72.7882 60.5407H63.1644C62.9183 60.5407 62.719 60.7403 62.719 60.9863C62.719 61.2324 62.9183 61.4319 63.1644 61.4319Z" stroke="#6175BD"/>
<path d="M63.1644 64.0195H70.2336C70.4797 64.0195 70.6792 63.8201 70.6792 63.5741C70.6792 63.328 70.4797 63.1284 70.2336 63.1284H63.1644C62.9183 63.1284 62.719 63.328 62.719 63.5741C62.719 63.8201 62.9183 64.0195 63.1644 64.0195Z" stroke="#6175BD"/>
<defs>
<filter id="filter0_d_81_1832" x="0" y="0" width="143" height="143" filterUnits="userSpaceOnUse" color-interpolation-filters="sRGB">
<feFlood flood-opacity="0" result="BackgroundImageFix"/>
<feColorMatrix in="SourceAlpha" type="matrix" values="0 0 0 0 0 0 0 0 0 0 0 0 0 0 0 0 0 0 127 0" result="hardAlpha"/>
<feOffset dy="8"/>
<feGaussianBlur stdDeviation="15"/>
<feColorMatrix type="matrix" values="0 0 0 0 0.260486 0 0 0 0 0.31346 0 0 0 0 0.504167 0 0 0 0.09 0"/>
<feBlend mode="normal" in2="BackgroundImageFix" result="effect1_dropShadow_81_1832"/>
<feBlend mode="normal" in="SourceGraphic" in2="effect1_dropShadow_81_1832" result="shape"/>
</filter>
</defs>
</svg>
