<svg width="29" height="32" viewBox="0 0 29 32" fill="none" xmlns="http://www.w3.org/2000/svg">
<path d="M23.4591 23.115C23.2131 23.115 23.0135 23.3146 23.0135 23.5607V27.3228C23.0135 28.859 21.7634 30.109 20.2269 30.109H4.17722C2.64096 30.109 1.39104 28.859 1.39104 27.3228V20.4122C1.39104 20.1661 1.19168 19.9665 0.945633 19.9665C0.699585 19.9665 0.5 20.1661 0.5 20.4122V27.3228C0.5 29.3504 2.14955 31 4.17722 31H20.2269C22.2548 31 23.9045 29.3504 23.9045 27.3228V23.5607C23.9045 23.3146 23.7052 23.115 23.4591 23.115Z" fill="#6175BD"/>
<path d="M27.4602 11.6867L27.1487 11.3757L27.8889 10.6357C28.3876 10.1367 28.3876 9.32512 27.8889 8.82616L27.0464 7.98364C26.5474 7.48491 25.7358 7.48491 25.2371 7.98364L23.9045 9.31619V4.67722C23.9045 2.64955 22.2548 1 20.2266 1H9.61407C9.49597 1 9.38268 1.04692 9.29913 1.13046L0.630463 9.79845C0.546921 9.88199 0.5 9.99529 0.5 10.1134V18.6299C0.5 18.8759 0.699585 19.0753 0.945633 19.0753C1.19168 19.0753 1.39104 18.8759 1.39104 18.6299V10.559H6.38226C8.40993 10.559 10.0597 8.90947 10.0597 6.88181V1.89104H20.2269C21.7634 1.89104 23.0135 3.14096 23.0135 4.67722V9.37318C22.8345 9.3963 22.6567 9.43864 22.4832 9.50159C20.802 10.1122 18.8685 11.432 17.1784 13.122C15.5771 14.7233 14.3327 16.4994 13.6744 18.1233C13.2386 19.1986 13.0896 20.1421 13.2247 20.8942L12.436 21.6829C12.2018 21.9171 12.073 22.2283 12.073 22.5595C12.073 22.8909 12.2018 23.2022 12.436 23.4364C12.6777 23.6781 12.9951 23.7989 13.3126 23.7989C13.63 23.7989 13.9475 23.6778 14.1892 23.4364L14.98 22.6454C15.1583 22.6772 15.3469 22.6936 15.5458 22.6936C16.375 22.6934 17.3745 22.4176 18.4768 21.8688C18.697 21.7591 18.7867 21.4916 18.6771 21.2714C18.5675 21.051 18.2999 20.9612 18.0797 21.0711C16.7923 21.712 15.6902 21.9395 14.974 21.7346C14.964 21.7312 14.9537 21.7287 14.9434 21.7262C14.7419 21.6639 14.5723 21.5666 14.4389 21.4334C13.9212 20.9157 13.9436 19.8313 14.5002 18.4582C15.1148 16.9423 16.2896 15.271 17.8085 13.7522C18.1232 13.4374 18.4464 13.1367 18.7744 12.8517L23.0206 17.0982C22.7359 17.4259 22.4351 17.7491 22.1202 18.0641C21.2582 18.926 20.3516 19.6742 19.426 20.2879C19.2209 20.4238 19.1649 20.7001 19.3008 20.9054C19.4368 21.1105 19.7133 21.1665 19.9183 21.0306C20.8936 20.3842 21.8464 19.598 22.7505 18.6942C24.4406 17.0039 25.7603 15.0703 26.371 13.3891C26.5289 12.954 26.5577 12.4917 26.4715 12.0532L26.5188 12.0058L26.8303 12.3171C27.2947 12.7815 27.539 13.3988 27.5181 14.0552C27.4973 14.7119 27.2142 15.3127 26.7239 15.7443L22.198 19.6555C22.1451 19.6976 22.0941 19.7424 22.0456 19.791C22.043 19.7935 22.0408 19.7962 22.0382 19.7988C22.0355 19.8015 22.033 19.8042 22.0302 19.807C21.3562 20.498 21.361 21.6085 22.0456 22.2931C22.3797 22.6273 22.824 22.8113 23.2964 22.8113C23.769 22.8113 24.2133 22.6273 24.5475 22.2931C24.8816 21.9589 25.0657 21.5147 25.0657 21.042C25.0657 20.5694 24.8816 20.1251 24.5475 19.791C24.358 19.6015 24.1327 19.4602 23.8871 19.3735L27.3096 16.4159C27.9896 15.8171 28.3801 14.9888 28.4087 14.0833C28.4373 13.1783 28.1006 12.3271 27.4602 11.6867ZM6.38226 9.66798H2.02138L9.16844 2.52115V6.88181C9.16844 8.41806 7.91875 9.66798 6.38226 9.66798ZM13.5591 22.806C13.4231 22.9422 13.2018 22.9422 13.0658 22.806C13.0002 22.7403 12.964 22.6529 12.964 22.5595C12.964 22.4664 13.0002 22.3789 13.0658 22.313L13.5847 21.7944C13.6513 21.8903 13.7257 21.9805 13.8088 22.0635C13.8919 22.1464 13.9818 22.2208 14.0777 22.2874L13.5591 22.806ZM25.8672 8.61375C25.9404 8.54051 26.0379 8.5 26.1416 8.5C26.2455 8.5 26.343 8.54051 26.4163 8.61375L27.2588 9.45627C27.3323 9.52974 27.3726 9.62724 27.3726 9.73093C27.3726 9.83461 27.3323 9.93211 27.2588 10.0054L26.1057 11.1587C26.0153 11.0216 25.9114 10.892 25.7928 10.7735L25.0991 10.0797C24.9805 9.96118 24.851 9.85727 24.7141 9.76686L25.8672 8.61375ZM25.5333 13.085C25.1547 14.1266 24.4756 15.2804 23.5907 16.4081L19.4645 12.2816C20.5922 11.3967 21.7457 10.7176 22.7876 10.3393C23.3717 10.1271 24.0318 10.2725 24.469 10.7099L25.1627 11.4036C25.5999 11.8408 25.7454 12.5009 25.5333 13.085ZM24.1744 21.042C24.1744 21.2764 24.0831 21.4971 23.9171 21.6628C23.7514 21.8287 23.5308 21.92 23.2964 21.92C23.0618 21.92 22.8412 21.8287 22.6754 21.6628C22.3346 21.3222 22.3333 20.769 22.6709 20.4261L22.7599 20.3478C22.913 20.229 23.0996 20.1638 23.2964 20.1638C23.531 20.1638 23.7514 20.2551 23.9174 20.4211C24.0831 20.587 24.1744 20.8074 24.1744 21.042Z" fill="#6175BD"/>
<path d="M6.16437 13.4319H15.7882C16.0342 13.4319 16.2336 13.2324 16.2336 12.9863C16.2336 12.7403 16.0342 12.5407 15.7882 12.5407H6.16437C5.91832 12.5407 5.71896 12.7403 5.71896 12.9863C5.71896 13.2324 5.91832 13.4319 6.16437 13.4319Z" fill="#6175BD"/>
<path d="M6.16437 16.0195H13.2336C13.4797 16.0195 13.6792 15.8201 13.6792 15.5741C13.6792 15.328 13.4797 15.1284 13.2336 15.1284H6.16437C5.91832 15.1284 5.71896 15.328 5.71896 15.5741C5.71896 15.8201 5.91832 16.0195 6.16437 16.0195Z" fill="#6175BD"/>
<path d="M23.4591 23.115C23.2131 23.115 23.0135 23.3146 23.0135 23.5607V27.3228C23.0135 28.859 21.7634 30.109 20.2269 30.109H4.17722C2.64096 30.109 1.39104 28.859 1.39104 27.3228V20.4122C1.39104 20.1661 1.19168 19.9665 0.945633 19.9665C0.699585 19.9665 0.5 20.1661 0.5 20.4122V27.3228C0.5 29.3504 2.14955 31 4.17722 31H20.2269C22.2548 31 23.9045 29.3504 23.9045 27.3228V23.5607C23.9045 23.3146 23.7052 23.115 23.4591 23.115Z" stroke="#6175BD"/>
<path d="M27.4602 11.6867L27.1487 11.3757L27.8889 10.6357C28.3876 10.1367 28.3876 9.32512 27.8889 8.82616L27.0464 7.98364C26.5474 7.48491 25.7358 7.48491 25.2371 7.98364L23.9045 9.31619V4.67722C23.9045 2.64955 22.2548 1 20.2266 1H9.61407C9.49597 1 9.38268 1.04692 9.29913 1.13046L0.630463 9.79845C0.546921 9.88199 0.5 9.99529 0.5 10.1134V18.6299C0.5 18.8759 0.699585 19.0753 0.945633 19.0753C1.19168 19.0753 1.39104 18.8759 1.39104 18.6299V10.559H6.38226C8.40993 10.559 10.0597 8.90947 10.0597 6.88181V1.89104H20.2269C21.7634 1.89104 23.0135 3.14096 23.0135 4.67722V9.37318C22.8345 9.3963 22.6567 9.43864 22.4832 9.50159C20.802 10.1122 18.8685 11.432 17.1784 13.122C15.5771 14.7233 14.3327 16.4994 13.6744 18.1233C13.2386 19.1986 13.0896 20.1421 13.2247 20.8942L12.436 21.6829C12.2018 21.9171 12.073 22.2283 12.073 22.5595C12.073 22.8909 12.2018 23.2022 12.436 23.4364C12.6777 23.6781 12.9951 23.7989 13.3126 23.7989C13.63 23.7989 13.9475 23.6778 14.1892 23.4364L14.98 22.6454C15.1583 22.6772 15.3469 22.6936 15.5458 22.6936C16.375 22.6934 17.3745 22.4176 18.4768 21.8688C18.697 21.7591 18.7867 21.4916 18.6771 21.2714C18.5675 21.051 18.2999 20.9612 18.0797 21.0711C16.7923 21.712 15.6902 21.9395 14.974 21.7346C14.964 21.7312 14.9537 21.7287 14.9434 21.7262C14.7419 21.6639 14.5723 21.5666 14.4389 21.4334C13.9212 20.9157 13.9436 19.8313 14.5002 18.4582C15.1148 16.9423 16.2896 15.271 17.8085 13.7522C18.1232 13.4374 18.4464 13.1367 18.7744 12.8517L23.0206 17.0982C22.7359 17.4259 22.4351 17.7491 22.1202 18.0641C21.2582 18.926 20.3516 19.6742 19.426 20.2879C19.2209 20.4238 19.1649 20.7001 19.3008 20.9054C19.4368 21.1105 19.7133 21.1665 19.9183 21.0306C20.8936 20.3842 21.8464 19.598 22.7505 18.6942C24.4406 17.0039 25.7603 15.0703 26.371 13.3891C26.5289 12.954 26.5577 12.4917 26.4715 12.0532L26.5188 12.0058L26.8303 12.3171C27.2947 12.7815 27.539 13.3988 27.5181 14.0552C27.4973 14.7119 27.2142 15.3127 26.7239 15.7443L22.198 19.6555C22.1451 19.6976 22.0941 19.7424 22.0456 19.791C22.043 19.7935 22.0408 19.7962 22.0382 19.7988C22.0355 19.8015 22.033 19.8042 22.0302 19.807C21.3562 20.498 21.361 21.6085 22.0456 22.2931C22.3797 22.6273 22.824 22.8113 23.2964 22.8113C23.769 22.8113 24.2133 22.6273 24.5475 22.2931C24.8816 21.9589 25.0657 21.5147 25.0657 21.042C25.0657 20.5694 24.8816 20.1251 24.5475 19.791C24.358 19.6015 24.1327 19.4602 23.8871 19.3735L27.3096 16.4159C27.9896 15.8171 28.3801 14.9888 28.4087 14.0833C28.4373 13.1783 28.1006 12.3271 27.4602 11.6867ZM6.38226 9.66798H2.02138L9.16844 2.52115V6.88181C9.16844 8.41806 7.91875 9.66798 6.38226 9.66798ZM13.5591 22.806C13.4231 22.9422 13.2018 22.9422 13.0658 22.806C13.0002 22.7403 12.964 22.6529 12.964 22.5595C12.964 22.4664 13.0002 22.3789 13.0658 22.313L13.5847 21.7944C13.6513 21.8903 13.7257 21.9805 13.8088 22.0635C13.8919 22.1464 13.9818 22.2208 14.0777 22.2874L13.5591 22.806ZM25.8672 8.61375C25.9404 8.54051 26.0379 8.5 26.1416 8.5C26.2455 8.5 26.343 8.54051 26.4163 8.61375L27.2588 9.45627C27.3323 9.52974 27.3726 9.62724 27.3726 9.73093C27.3726 9.83461 27.3323 9.93211 27.2588 10.0054L26.1057 11.1587C26.0153 11.0216 25.9114 10.892 25.7928 10.7735L25.0991 10.0797C24.9805 9.96118 24.851 9.85727 24.7141 9.76686L25.8672 8.61375ZM25.5333 13.085C25.1547 14.1266 24.4756 15.2804 23.5907 16.4081L19.4645 12.2816C20.5922 11.3967 21.7457 10.7176 22.7876 10.3393C23.3717 10.1271 24.0318 10.2725 24.469 10.7099L25.1627 11.4036C25.5999 11.8408 25.7454 12.5009 25.5333 13.085ZM24.1744 21.042C24.1744 21.2764 24.0831 21.4971 23.9171 21.6628C23.7514 21.8287 23.5308 21.92 23.2964 21.92C23.0618 21.92 22.8412 21.8287 22.6754 21.6628C22.3346 21.3222 22.3333 20.769 22.6709 20.4261L22.7599 20.3478C22.913 20.229 23.0996 20.1638 23.2964 20.1638C23.531 20.1638 23.7514 20.2551 23.9174 20.4211C24.0831 20.587 24.1744 20.8074 24.1744 21.042Z" stroke="#6175BD"/>
<path d="M6.16437 13.4319H15.7882C16.0342 13.4319 16.2336 13.2324 16.2336 12.9863C16.2336 12.7403 16.0342 12.5407 15.7882 12.5407H6.16437C5.91832 12.5407 5.71896 12.7403 5.71896 12.9863C5.71896 13.2324 5.91832 13.4319 6.16437 13.4319Z" stroke="#6175BD"/>
<path d="M6.16437 16.0195H13.2336C13.4797 16.0195 13.6792 15.8201 13.6792 15.5741C13.6792 15.328 13.4797 15.1284 13.2336 15.1284H6.16437C5.91832 15.1284 5.71896 15.328 5.71896 15.5741C5.71896 15.8201 5.91832 16.0195 6.16437 16.0195Z" stroke="#6175BD"/>
</svg>
