<svg width="143" height="144" viewBox="0 0 143 144" fill="none" xmlns="http://www.w3.org/2000/svg">
<g filter="url(#filter0_d_81_1840)">
<circle cx="71.5" cy="64" r="41.5" fill="white"/>
</g>
<path d="M83.1154 48.785C82.6497 48.4614 82.0643 48.4101 81.5491 48.6479L80.6047 49.0845L54.4865 61.23C53.8897 61.5073 53.5118 62.0886 53.5003 62.7464C53.4887 63.4044 53.846 63.9984 54.4327 64.2966L56.9272 65.5648C57.1482 65.6771 57.4186 65.5891 57.531 65.3679C57.6435 65.1469 57.5555 64.8765 57.3343 64.7642L54.8397 63.496C54.5577 63.3527 54.3927 63.0785 54.3982 62.7621C54.4038 62.4459 54.5783 62.1776 54.8651 62.0442L80.9826 49.8995L81.9258 49.4633C82.1486 49.3605 82.4017 49.3824 82.603 49.5225C82.8041 49.6621 82.9132 49.8916 82.8945 50.1362L82.8117 51.2195L80.9008 75.4918C80.8793 75.765 80.7297 75.9987 80.4907 76.1328C80.2515 76.2668 79.9744 76.2724 79.7301 76.1483L70.7202 71.5481L75.3901 62.8506C75.5076 62.632 75.4255 62.3599 75.2069 62.2425C74.9884 62.1253 74.7162 62.2072 74.5988 62.4258L69.7129 71.5254L66.8062 76.7755L65.2149 69.1406L78.7538 54.6878L75.4024 60.9293C75.2852 61.1477 75.3673 61.4199 75.5857 61.5374C75.8041 61.6545 76.0764 61.5725 76.1938 61.3541L81.1698 52.0864C81.2766 51.8879 81.2193 51.6408 81.0362 51.5093C80.8529 51.3776 80.6007 51.4023 80.4466 51.5671L64.6162 68.4659L58.7626 65.4901C58.5415 65.3778 58.2713 65.4659 58.1589 65.6871C58.0464 65.908 58.1344 66.1784 58.3556 66.2908L64.337 69.3315L66.1736 78.1427C66.2053 78.2943 66.3127 78.4189 66.4581 78.4723C66.5085 78.491 66.561 78.5 66.6132 78.5C66.7114 78.5 66.8085 78.4676 66.8885 78.4057L72.9448 73.7066L79.3231 76.9489C79.5667 77.0728 79.8315 77.1345 80.096 77.1345C80.3835 77.1345 80.6708 77.0614 80.9299 76.9163C81.4275 76.6373 81.7513 76.1311 81.7962 75.5623L83.7071 51.289L83.7899 50.2048C83.8333 49.6392 83.5812 49.1083 83.1154 48.785ZM68.0649 76.3563L70.2903 72.3371L72.0746 73.2453L68.0649 76.3563Z" fill="#6175BD" stroke="#6175BD"/>
<defs>
<filter id="filter0_d_81_1840" x="0" y="0.5" width="143" height="143" filterUnits="userSpaceOnUse" color-interpolation-filters="sRGB">
<feFlood flood-opacity="0" result="BackgroundImageFix"/>
<feColorMatrix in="SourceAlpha" type="matrix" values="0 0 0 0 0 0 0 0 0 0 0 0 0 0 0 0 0 0 127 0" result="hardAlpha"/>
<feOffset dy="8"/>
<feGaussianBlur stdDeviation="15"/>
<feColorMatrix type="matrix" values="0 0 0 0 0.260486 0 0 0 0 0.31346 0 0 0 0 0.504167 0 0 0 0.09 0"/>
<feBlend mode="normal" in2="BackgroundImageFix" result="effect1_dropShadow_81_1840"/>
<feBlend mode="normal" in="SourceGraphic" in2="effect1_dropShadow_81_1840" result="shape"/>
</filter>
</defs>
</svg>
