<svg width="32" height="31" viewBox="0 0 32 31" fill="none" xmlns="http://www.w3.org/2000/svg">
<path d="M30.1154 0.784976C29.6497 0.461394 29.0643 0.410083 28.5491 0.647916L27.6047 1.08452L1.4865 13.23C0.889726 13.5073 0.511829 14.0886 0.500272 14.7464C0.488716 15.4044 0.846043 15.9984 1.43265 16.2966L3.92724 17.5648C4.1482 17.6771 4.41862 17.5891 4.53095 17.3679C4.64351 17.1469 4.55545 16.8765 4.33426 16.7642L1.83967 15.496C1.55769 15.3527 1.39267 15.0785 1.39821 14.7621C1.40376 14.4459 1.57826 14.1776 1.8651 14.0442L27.9826 1.89949L28.9258 1.46334C29.1486 1.36049 29.4017 1.38245 29.603 1.52251C29.8041 1.66212 29.9132 1.89163 29.8945 2.13616L29.8117 3.21947L27.9008 27.4918C27.8793 27.765 27.7297 27.9987 27.4907 28.1328C27.2515 28.2668 26.9744 28.2724 26.7301 28.1483L17.7202 23.5481L22.3901 14.8506C22.5076 14.632 22.4255 14.3599 22.2069 14.2425C21.9884 14.1253 21.7162 14.2072 21.5988 14.4258L16.7129 23.5254L13.8062 28.7755L12.2149 21.1406L25.7538 6.68781L22.4024 12.9293C22.2852 13.1477 22.3673 13.4199 22.5857 13.5374C22.8041 13.6545 23.0764 13.5725 23.1938 13.3541L28.1698 4.08644C28.2766 3.8879 28.2193 3.64082 28.0362 3.50931C27.8529 3.37756 27.6007 3.40229 27.4466 3.56709L11.6162 20.4659L5.76264 17.4901C5.54145 17.3778 5.27126 17.4659 5.15893 17.6871C5.04637 17.908 5.13443 18.1784 5.35562 18.2908L11.337 21.3315L13.1736 30.1427C13.2053 30.2943 13.3127 30.4189 13.4581 30.4723C13.5085 30.491 13.561 30.5 13.6132 30.5C13.7114 30.5 13.8085 30.4676 13.8885 30.4057L19.9448 25.7066L26.3231 28.9489C26.5667 29.0728 26.8315 29.1345 27.096 29.1345C27.3835 29.1345 27.6708 29.0614 27.9299 28.9163C28.4275 28.6373 28.7513 28.1311 28.7962 27.5623L30.7071 3.28904L30.7899 2.20481C30.8333 1.63923 30.5812 1.10833 30.1154 0.784976ZM15.0649 28.3563L17.2903 24.3371L19.0746 25.2453L15.0649 28.3563Z" fill="#6175BD" stroke="#6175BD"/>
</svg>
