<svg width="143" height="144" viewBox="0 0 143 144" fill="none" xmlns="http://www.w3.org/2000/svg">
<g filter="url(#filter0_d_81_1847)">
<circle cx="71.5" cy="64" r="41.5" fill="white"/>
</g>
<path d="M83.0535 77.1369C83.1368 77.2063 83.2378 77.2401 83.3383 77.2401C83.466 77.2401 83.5928 77.1854 83.6809 77.0795C83.8384 76.8904 83.8127 76.6096 83.6234 76.4521L76.5201 70.5378C76.331 70.3803 76.0502 70.406 75.8925 70.5953C75.7353 70.7843 75.7609 71.0652 75.9499 71.2226L83.0535 77.1369Z" fill="#6175BD"/>
<path d="M59.6585 77.2401C59.759 77.2401 59.8602 77.2064 59.9435 77.1371L67.0471 71.2225C67.2361 71.0653 67.2618 70.7842 67.1043 70.5952C66.9468 70.4061 66.666 70.3805 66.4769 70.538L59.3736 76.4523C59.1843 76.6097 59.1587 76.8906 59.3161 77.0796C59.404 77.1856 59.531 77.2401 59.6585 77.2401Z" fill="#6175BD"/>
<path d="M64.9647 62.7314H74.3498C74.5959 62.7314 74.7952 62.5318 74.7952 62.2857C74.7952 62.0397 74.5959 61.8403 74.3498 61.8403H64.9647C64.7187 61.8403 64.5191 62.0397 64.5191 62.2857C64.5191 62.5318 64.7187 62.7314 64.9647 62.7314Z" fill="#6175BD"/>
<path d="M78.0323 64.4276H64.9647C64.7187 64.4276 64.5191 64.6272 64.5191 64.8732C64.5191 65.1193 64.7187 65.3186 64.9647 65.3186H78.0323C78.2786 65.3186 78.4779 65.1193 78.4779 64.8732C78.4779 64.6272 78.2783 64.4276 78.0323 64.4276Z" fill="#6175BD"/>
<path d="M64.9647 57.5566H71.4986C71.7447 57.5566 71.944 57.357 71.944 57.1109C71.944 56.8651 71.7447 56.6655 71.4986 56.6655H64.9647C64.7187 56.6655 64.5191 56.8651 64.5191 57.1109C64.5191 57.357 64.7187 57.5566 64.9647 57.5566Z" fill="#6175BD"/>
<path d="M68.8994 59.6985C68.8994 59.9445 69.099 60.1439 69.3451 60.1439H72.5677C72.8138 60.1439 73.0131 59.9445 73.0131 59.6985C73.0131 59.4524 72.8138 59.2528 72.5677 59.2528H69.3451C69.099 59.2528 68.8994 59.4524 68.8994 59.6985Z" fill="#6175BD"/>
<path d="M64.9647 60.1439H67.8599C68.1059 60.1439 68.3055 59.9445 68.3055 59.6985C68.3055 59.4524 68.1059 59.2528 67.8599 59.2528H64.9647C64.7187 59.2528 64.5191 59.4524 64.5191 59.6985C64.5191 59.9445 64.7187 60.1439 64.9647 60.1439Z" fill="#6175BD"/>
<path d="M81.4838 53.1428L79.0961 58.7143L76.978 56.192C76.8199 56.0036 76.539 55.9791 76.3504 56.1373C76.1621 56.2957 76.1376 56.5767 76.296 56.7651L78.8793 59.8415C78.9647 59.9431 79.0899 60.0006 79.2204 60.0006C79.2419 60.0006 79.2636 59.999 79.2856 59.9958C79.4385 59.9731 79.569 59.8729 79.6299 59.7305L82.3027 53.4937C82.3998 53.2676 82.2949 53.0057 82.0688 52.9087C81.8427 52.8118 81.5808 52.9167 81.4838 53.1428Z" fill="#6175BD"/>
<path d="M86.1134 59.9505L85.1867 59.1789C85.6454 58.2721 85.9026 57.2517 85.9026 56.1826C85.9026 54.9737 85.5749 53.7896 84.9553 52.759C84.8282 52.548 84.5545 52.48 84.3437 52.6068C84.1329 52.7336 84.0647 53.0073 84.1915 53.2181C84.728 54.1101 85.0116 55.1352 85.0116 56.1824C85.0116 58.9299 83.0585 61.3077 80.3673 61.836C80.0014 61.9081 79.6253 61.9447 79.2499 61.9447C76.0728 61.9447 73.4881 59.3597 73.4881 56.1824C73.4881 53.0055 76.0728 50.4207 79.2499 50.4207C79.6253 50.4207 80.0011 50.4574 80.3673 50.5295C81.4104 50.7343 82.3762 51.2259 83.1608 51.9517C83.3414 52.1186 83.6234 52.1076 83.7905 51.927C83.9576 51.7464 83.9464 51.4644 83.7658 51.2974C82.8599 50.4596 81.7441 49.8918 80.5395 49.6551C80.1167 49.572 79.683 49.5297 79.2499 49.5297C77.7395 49.5297 76.3457 50.036 75.2276 50.8872L75.1486 50.8213C73.0337 49.0596 69.9633 49.0596 67.8477 50.8213L67.6475 50.9884H63.4749C61.4473 50.9884 59.7975 52.6377 59.7975 54.6651V57.5541L56.7834 60.0635C56.7744 60.0672 56.7655 60.0709 56.7566 60.0752C56.6 60.1484 56.5002 60.3057 56.5002 60.4785V72.7312C56.5002 72.9773 56.6996 73.1766 56.9456 73.1766C57.1917 73.1766 57.3913 72.9773 57.3913 72.7312V61.4293L67.848 70.1359C68.9056 71.0167 70.202 71.4573 71.4984 71.457C72.7948 71.457 74.0912 71.0167 75.1484 70.1359L85.6055 61.4293V76.2601C85.6055 77.5554 84.552 78.6089 83.2567 78.6089H59.7398C58.4446 78.6089 57.391 77.5554 57.391 76.2601V74.5133C57.391 74.2672 57.1915 74.0679 56.9454 74.0679C56.6996 74.0679 56.5 74.2672 56.5 74.5133V76.2601C56.5 78.0465 57.9534 79.4999 59.7398 79.4999H83.2567C85.0432 79.4999 86.4966 78.0465 86.4966 76.2601V60.4906C86.4966 60.4904 86.4966 60.4908 86.4966 60.4906C86.5021 60.2748 86.4352 60.2185 86.1134 59.9505ZM73.8193 50.9884H69.1773C70.6199 50.193 72.3771 50.193 73.8193 50.9884ZM59.7975 58.7134V62.2734L57.6597 60.4934L59.7975 58.7134ZM74.5782 69.4513C72.7939 70.9377 70.2032 70.9377 68.4181 69.4511L60.6885 63.0152V54.6651C60.6885 53.1289 61.9385 51.8792 63.4749 51.8792H74.1807C73.1937 53.0401 72.5973 54.5429 72.5973 56.1826C72.5973 59.8511 75.5816 62.8357 79.2499 62.8357C79.683 62.8357 80.1169 62.7936 80.5392 62.7103C81.168 62.5869 81.7612 62.3748 82.3085 62.0905V63.015L74.5782 69.4513ZM83.1995 62.2732V61.5348C83.7932 61.0953 84.3094 60.5607 84.7266 59.9553C84.9214 60.1173 85.1572 60.3137 85.3551 60.4785L83.1995 62.2732Z" fill="#6175BD"/>
<path d="M86.4966 60.4906V76.2601C86.4966 78.0465 85.0432 79.4999 83.2567 79.4999H59.7398C57.9534 79.4999 56.5 78.0465 56.5 76.2601V74.5133C56.5 74.2672 56.6996 74.0679 56.9454 74.0679C57.1915 74.0679 57.391 74.2672 57.391 74.5133V76.2601C57.391 77.5554 58.4446 78.6089 59.7398 78.6089H83.2567C84.552 78.6089 85.6055 77.5554 85.6055 76.2601V61.4293L75.1484 70.1359C74.0912 71.0167 72.7948 71.457 71.4984 71.457C70.202 71.4573 68.9056 71.0167 67.848 70.1359L57.3913 61.4293V72.7312C57.3913 72.9773 57.1917 73.1766 56.9456 73.1766C56.6996 73.1766 56.5002 72.9773 56.5002 72.7312V60.4785C56.5002 60.3057 56.6 60.1484 56.7566 60.0752C56.7655 60.0709 56.7744 60.0672 56.7834 60.0635L59.7975 57.5541V54.6651C59.7975 52.6377 61.4473 50.9884 63.4749 50.9884H67.6475L67.8477 50.8213C69.9633 49.0596 73.0337 49.0596 75.1486 50.8213L75.2276 50.8872C76.3457 50.036 77.7395 49.5297 79.2499 49.5297C79.683 49.5297 80.1167 49.572 80.5395 49.6551C81.7441 49.8918 82.8599 50.4596 83.7658 51.2974C83.9464 51.4644 83.9576 51.7464 83.7905 51.927C83.6234 52.1076 83.3414 52.1186 83.1608 51.9517C82.3762 51.2259 81.4104 50.7343 80.3673 50.5295C80.0011 50.4574 79.6253 50.4207 79.2499 50.4207C76.0728 50.4207 73.4881 53.0055 73.4881 56.1824C73.4881 59.3597 76.0728 61.9447 79.2499 61.9447C79.6253 61.9447 80.0014 61.9081 80.3673 61.836C83.0585 61.3077 85.0116 58.9299 85.0116 56.1824C85.0116 55.1352 84.728 54.1101 84.1915 53.2181C84.0647 53.0073 84.1329 52.7336 84.3437 52.6068C84.5545 52.48 84.8282 52.548 84.9553 52.759C85.5749 53.7896 85.9026 54.9737 85.9026 56.1826C85.9026 57.2517 85.6454 58.2721 85.1867 59.1789L86.1134 59.9505C86.4352 60.2185 86.5021 60.2748 86.4966 60.4906ZM86.4966 60.4906C86.4966 60.4904 86.4966 60.4908 86.4966 60.4906ZM83.0535 77.1369C83.1368 77.2063 83.2378 77.2401 83.3383 77.2401C83.466 77.2401 83.5928 77.1854 83.6809 77.0795C83.8384 76.8904 83.8127 76.6096 83.6234 76.4521L76.5201 70.5378C76.331 70.3803 76.0502 70.406 75.8925 70.5953C75.7353 70.7843 75.7609 71.0652 75.9499 71.2226L83.0535 77.1369ZM59.6585 77.2401C59.759 77.2401 59.8602 77.2064 59.9435 77.1371L67.0471 71.2225C67.2361 71.0653 67.2618 70.7842 67.1043 70.5952C66.9468 70.4061 66.666 70.3805 66.4769 70.538L59.3736 76.4523C59.1843 76.6097 59.1587 76.8906 59.3161 77.0796C59.404 77.1856 59.531 77.2401 59.6585 77.2401ZM64.9647 62.7314H74.3498C74.5959 62.7314 74.7952 62.5318 74.7952 62.2857C74.7952 62.0397 74.5959 61.8403 74.3498 61.8403H64.9647C64.7187 61.8403 64.5191 62.0397 64.5191 62.2857C64.5191 62.5318 64.7187 62.7314 64.9647 62.7314ZM78.0323 64.4276H64.9647C64.7187 64.4276 64.5191 64.6272 64.5191 64.8732C64.5191 65.1193 64.7187 65.3186 64.9647 65.3186H78.0323C78.2786 65.3186 78.4779 65.1193 78.4779 64.8732C78.4779 64.6272 78.2783 64.4276 78.0323 64.4276ZM64.9647 57.5566H71.4986C71.7447 57.5566 71.944 57.357 71.944 57.1109C71.944 56.8651 71.7447 56.6655 71.4986 56.6655H64.9647C64.7187 56.6655 64.5191 56.8651 64.5191 57.1109C64.5191 57.357 64.7187 57.5566 64.9647 57.5566ZM68.8994 59.6985C68.8994 59.9445 69.099 60.1439 69.3451 60.1439H72.5677C72.8138 60.1439 73.0131 59.9445 73.0131 59.6985C73.0131 59.4524 72.8138 59.2528 72.5677 59.2528H69.3451C69.099 59.2528 68.8994 59.4524 68.8994 59.6985ZM64.9647 60.1439H67.8599C68.1059 60.1439 68.3055 59.9445 68.3055 59.6985C68.3055 59.4524 68.1059 59.2528 67.8599 59.2528H64.9647C64.7187 59.2528 64.5191 59.4524 64.5191 59.6985C64.5191 59.9445 64.7187 60.1439 64.9647 60.1439ZM81.4838 53.1428L79.0961 58.7143L76.978 56.192C76.8199 56.0036 76.539 55.9791 76.3504 56.1373C76.1621 56.2957 76.1376 56.5767 76.296 56.7651L78.8793 59.8415C78.9647 59.9431 79.0899 60.0006 79.2204 60.0006C79.2419 60.0006 79.2636 59.999 79.2856 59.9958C79.4385 59.9731 79.569 59.8729 79.6299 59.7305L82.3027 53.4937C82.3998 53.2676 82.2949 53.0057 82.0688 52.9087C81.8427 52.8118 81.5808 52.9167 81.4838 53.1428ZM73.8193 50.9884H69.1773C70.6199 50.193 72.3771 50.193 73.8193 50.9884ZM59.7975 58.7134V62.2734L57.6597 60.4934L59.7975 58.7134ZM74.5782 69.4513C72.7939 70.9377 70.2032 70.9377 68.4181 69.4511L60.6885 63.0152V54.6651C60.6885 53.1289 61.9385 51.8792 63.4749 51.8792H74.1807C73.1937 53.0401 72.5973 54.5429 72.5973 56.1826C72.5973 59.8511 75.5816 62.8357 79.2499 62.8357C79.683 62.8357 80.1169 62.7936 80.5392 62.7103C81.168 62.5869 81.7612 62.3748 82.3085 62.0905V63.015L74.5782 69.4513ZM83.1995 62.2732V61.5348C83.7932 61.0953 84.3094 60.5607 84.7266 59.9553C84.9214 60.1173 85.1572 60.3137 85.3551 60.4785L83.1995 62.2732Z" stroke="#6175BD"/>
<defs>
<filter id="filter0_d_81_1847" x="0" y="0.5" width="143" height="143" filterUnits="userSpaceOnUse" color-interpolation-filters="sRGB">
<feFlood flood-opacity="0" result="BackgroundImageFix"/>
<feColorMatrix in="SourceAlpha" type="matrix" values="0 0 0 0 0 0 0 0 0 0 0 0 0 0 0 0 0 0 127 0" result="hardAlpha"/>
<feOffset dy="8"/>
<feGaussianBlur stdDeviation="15"/>
<feColorMatrix type="matrix" values="0 0 0 0 0.260486 0 0 0 0 0.31346 0 0 0 0 0.504167 0 0 0 0.09 0"/>
<feBlend mode="normal" in2="BackgroundImageFix" result="effect1_dropShadow_81_1847"/>
<feBlend mode="normal" in="SourceGraphic" in2="effect1_dropShadow_81_1847" result="shape"/>
</filter>
</defs>
</svg>
