<svg width="31" height="31" viewBox="0 0 31 31" fill="none" xmlns="http://www.w3.org/2000/svg">
<path d="M27.0535 28.1369C27.1368 28.2063 27.2378 28.2401 27.3383 28.2401C27.466 28.2401 27.5928 28.1854 27.6809 28.0795C27.8384 27.8904 27.8127 27.6096 27.6234 27.4521L20.5201 21.5378C20.331 21.3803 20.0502 21.406 19.8925 21.5953C19.7353 21.7843 19.7609 22.0652 19.9499 22.2226L27.0535 28.1369Z" fill="#6175BD"/>
<path d="M3.65853 28.2401C3.75901 28.2401 3.86017 28.2064 3.94349 28.1371L11.0471 22.2225C11.2361 22.0653 11.2618 21.7842 11.1043 21.5952C10.9468 21.4061 10.666 21.3805 10.4769 21.538L3.37357 27.4523C3.18429 27.6097 3.15865 27.8906 3.31612 28.0796C3.40401 28.1856 3.53104 28.2401 3.65853 28.2401Z" fill="#6175BD"/>
<path d="M8.96474 13.7314H18.3498C18.5959 13.7314 18.7952 13.5318 18.7952 13.2857C18.7952 13.0397 18.5959 12.8403 18.3498 12.8403H8.96474C8.71869 12.8403 8.5191 13.0397 8.5191 13.2857C8.5191 13.5318 8.71869 13.7314 8.96474 13.7314Z" fill="#6175BD"/>
<path d="M22.0323 15.4276H8.96474C8.71869 15.4276 8.5191 15.6272 8.5191 15.8732C8.5191 16.1193 8.71869 16.3186 8.96474 16.3186H22.0323C22.2786 16.3186 22.4779 16.1193 22.4779 15.8732C22.4779 15.6272 22.2783 15.4276 22.0323 15.4276Z" fill="#6175BD"/>
<path d="M8.96474 8.55658H15.4986C15.7447 8.55658 15.944 8.35699 15.944 8.11095C15.944 7.86513 15.7447 7.66554 15.4986 7.66554H8.96474C8.71869 7.66554 8.5191 7.86513 8.5191 8.11095C8.5191 8.35699 8.71869 8.55658 8.96474 8.55658Z" fill="#6175BD"/>
<path d="M12.8994 10.6985C12.8994 10.9445 13.099 11.1439 13.3451 11.1439H16.5677C16.8138 11.1439 17.0131 10.9445 17.0131 10.6985C17.0131 10.4524 16.8138 10.2528 16.5677 10.2528H13.3451C13.099 10.2528 12.8994 10.4524 12.8994 10.6985Z" fill="#6175BD"/>
<path d="M8.96474 11.1439H11.8599C12.1059 11.1439 12.3055 10.9445 12.3055 10.6985C12.3055 10.4524 12.1059 10.2528 11.8599 10.2528H8.96474C8.71869 10.2528 8.5191 10.4524 8.5191 10.6985C8.5191 10.9445 8.71869 11.1439 8.96474 11.1439Z" fill="#6175BD"/>
<path d="M25.4838 4.14281L23.0961 9.71425L20.978 7.19198C20.8199 7.00361 20.539 6.97912 20.3504 7.13727C20.1621 7.29566 20.1376 7.57673 20.296 7.7651L22.8793 10.8415C22.9647 10.9431 23.0899 11.0006 23.2204 11.0006C23.2419 11.0006 23.2636 10.999 23.2856 10.9958C23.4385 10.9731 23.569 10.8729 23.6299 10.7305L26.3027 4.49369C26.3998 4.26755 26.2949 4.00571 26.0688 3.90867C25.8427 3.81185 25.5808 3.91668 25.4838 4.14281Z" fill="#6175BD"/>
<path d="M30.1134 10.9505L29.1867 10.1789C29.6454 9.27207 29.9026 8.25171 29.9026 7.18261C29.9026 5.97365 29.5749 4.78965 28.9553 3.75899C28.8282 3.54796 28.5545 3.47998 28.3437 3.60678C28.1329 3.73359 28.0647 4.00733 28.1915 4.21813C28.728 5.11008 29.0116 6.13524 29.0116 7.18238C29.0116 9.92987 27.0585 12.3077 24.3673 12.836C24.0014 12.9081 23.6253 12.9447 23.2499 12.9447C20.0728 12.9447 17.4881 10.3597 17.4881 7.18238C17.4881 4.0055 20.0728 1.42073 23.2499 1.42073C23.6253 1.42073 24.0011 1.45736 24.3673 1.52945C25.4104 1.7343 26.3762 2.22594 27.1608 2.95173C27.3414 3.11858 27.6234 3.10759 27.7905 2.92701C27.9576 2.74642 27.9464 2.46444 27.7658 2.29735C26.8599 1.45964 25.7441 0.891788 24.5395 0.655125C24.1167 0.572041 23.683 0.529697 23.2499 0.529697C21.7395 0.529697 20.3457 1.03598 19.2276 1.8872L19.1486 1.82128C17.0337 0.0595741 13.9633 0.0595741 11.8477 1.82128L11.6475 1.98836H7.47495C5.44728 1.98836 3.7975 3.63768 3.7975 5.66512V8.55407L0.783356 11.0635C0.774429 11.0672 0.765503 11.0709 0.756577 11.0752C0.600021 11.1484 0.500229 11.3057 0.500229 11.4785V23.7312C0.500229 23.9773 0.699585 24.1766 0.945633 24.1766C1.19168 24.1766 1.39127 23.9773 1.39127 23.7312V12.4293L11.848 21.1359C12.9056 22.0167 14.202 22.4573 15.4984 22.457C16.7948 22.457 18.0912 22.0167 19.1484 21.1359L29.6055 12.4293V27.2601C29.6055 28.5554 28.552 29.6089 27.2567 29.6089H3.73982C2.44458 29.6089 1.39104 28.5554 1.39104 27.2601V25.5133C1.39104 25.2672 1.19145 25.0679 0.945404 25.0679C0.699585 25.0679 0.5 25.2672 0.5 25.5133V27.2601C0.5 29.0465 1.9534 30.4999 3.73982 30.4999H27.2567C29.0432 30.4999 30.4966 29.0465 30.4966 27.2601V11.4906C30.4966 11.4904 30.4966 11.4908 30.4966 11.4906C30.5021 11.2748 30.4352 11.2185 30.1134 10.9505ZM17.8193 1.98836H13.1773C14.6199 1.193 16.3771 1.193 17.8193 1.98836ZM3.7975 9.71335V13.2734L1.65974 11.4934L3.7975 9.71335ZM18.5782 20.4513C16.7939 21.9377 14.2032 21.9377 12.4181 20.4511L4.68854 14.0152V5.66512C4.68854 4.12886 5.93846 2.87917 7.47495 2.87917H18.1807C17.1937 4.04006 16.5973 5.5429 16.5973 7.18261C16.5973 10.8511 19.5816 13.8357 23.2499 13.8357C23.683 13.8357 24.1169 13.7936 24.5392 13.7103C25.168 13.5869 25.7612 13.3748 26.3085 13.0905V14.015L18.5782 20.4513ZM27.1995 13.2732V12.5348C27.7932 12.0953 28.3094 11.5607 28.7266 10.9553C28.9214 11.1173 29.1572 11.3137 29.3551 11.4785L27.1995 13.2732Z" fill="#6175BD"/>
<path d="M30.4966 11.4906V27.2601C30.4966 29.0465 29.0432 30.4999 27.2567 30.4999H3.73982C1.9534 30.4999 0.5 29.0465 0.5 27.2601V25.5133C0.5 25.2672 0.699585 25.0679 0.945404 25.0679C1.19145 25.0679 1.39104 25.2672 1.39104 25.5133V27.2601C1.39104 28.5554 2.44458 29.6089 3.73982 29.6089H27.2567C28.552 29.6089 29.6055 28.5554 29.6055 27.2601V12.4293L19.1484 21.1359C18.0912 22.0167 16.7948 22.457 15.4984 22.457C14.202 22.4573 12.9056 22.0167 11.848 21.1359L1.39127 12.4293V23.7312C1.39127 23.9773 1.19168 24.1766 0.945633 24.1766C0.699585 24.1766 0.500229 23.9773 0.500229 23.7312V11.4785C0.500229 11.3057 0.600021 11.1484 0.756577 11.0752C0.765503 11.0709 0.774429 11.0672 0.783356 11.0635L3.7975 8.55407V5.66512C3.7975 3.63768 5.44728 1.98836 7.47495 1.98836H11.6475L11.8477 1.82128C13.9633 0.0595741 17.0337 0.0595741 19.1486 1.82128L19.2276 1.8872C20.3457 1.03598 21.7395 0.529697 23.2499 0.529697C23.683 0.529697 24.1167 0.572041 24.5395 0.655125C25.7441 0.891788 26.8599 1.45964 27.7658 2.29735C27.9464 2.46444 27.9576 2.74642 27.7905 2.92701C27.6234 3.10759 27.3414 3.11858 27.1608 2.95173C26.3762 2.22594 25.4104 1.7343 24.3673 1.52945C24.0011 1.45736 23.6253 1.42073 23.2499 1.42073C20.0728 1.42073 17.4881 4.0055 17.4881 7.18238C17.4881 10.3597 20.0728 12.9447 23.2499 12.9447C23.6253 12.9447 24.0014 12.9081 24.3673 12.836C27.0585 12.3077 29.0116 9.92987 29.0116 7.18238C29.0116 6.13524 28.728 5.11008 28.1915 4.21813C28.0647 4.00733 28.1329 3.73359 28.3437 3.60678C28.5545 3.47998 28.8282 3.54796 28.9553 3.75899C29.5749 4.78965 29.9026 5.97365 29.9026 7.18261C29.9026 8.25171 29.6454 9.27207 29.1867 10.1789L30.1134 10.9505C30.4352 11.2185 30.5021 11.2748 30.4966 11.4906ZM30.4966 11.4906C30.4966 11.4904 30.4966 11.4908 30.4966 11.4906ZM27.0535 28.1369C27.1368 28.2063 27.2378 28.2401 27.3383 28.2401C27.466 28.2401 27.5928 28.1854 27.6809 28.0795C27.8384 27.8904 27.8127 27.6096 27.6234 27.4521L20.5201 21.5378C20.331 21.3803 20.0502 21.406 19.8925 21.5953C19.7353 21.7843 19.7609 22.0652 19.9499 22.2226L27.0535 28.1369ZM3.65853 28.2401C3.75901 28.2401 3.86017 28.2064 3.94349 28.1371L11.0471 22.2225C11.2361 22.0653 11.2618 21.7842 11.1043 21.5952C10.9468 21.4061 10.666 21.3805 10.4769 21.538L3.37357 27.4523C3.18429 27.6097 3.15865 27.8906 3.31612 28.0796C3.40401 28.1856 3.53104 28.2401 3.65853 28.2401ZM8.96474 13.7314H18.3498C18.5959 13.7314 18.7952 13.5318 18.7952 13.2857C18.7952 13.0397 18.5959 12.8403 18.3498 12.8403H8.96474C8.71869 12.8403 8.5191 13.0397 8.5191 13.2857C8.5191 13.5318 8.71869 13.7314 8.96474 13.7314ZM22.0323 15.4276H8.96474C8.71869 15.4276 8.5191 15.6272 8.5191 15.8732C8.5191 16.1193 8.71869 16.3186 8.96474 16.3186H22.0323C22.2786 16.3186 22.4779 16.1193 22.4779 15.8732C22.4779 15.6272 22.2783 15.4276 22.0323 15.4276ZM8.96474 8.55658H15.4986C15.7447 8.55658 15.944 8.35699 15.944 8.11095C15.944 7.86513 15.7447 7.66554 15.4986 7.66554H8.96474C8.71869 7.66554 8.5191 7.86513 8.5191 8.11095C8.5191 8.35699 8.71869 8.55658 8.96474 8.55658ZM12.8994 10.6985C12.8994 10.9445 13.099 11.1439 13.3451 11.1439H16.5677C16.8138 11.1439 17.0131 10.9445 17.0131 10.6985C17.0131 10.4524 16.8138 10.2528 16.5677 10.2528H13.3451C13.099 10.2528 12.8994 10.4524 12.8994 10.6985ZM8.96474 11.1439H11.8599C12.1059 11.1439 12.3055 10.9445 12.3055 10.6985C12.3055 10.4524 12.1059 10.2528 11.8599 10.2528H8.96474C8.71869 10.2528 8.5191 10.4524 8.5191 10.6985C8.5191 10.9445 8.71869 11.1439 8.96474 11.1439ZM25.4838 4.14281L23.0961 9.71425L20.978 7.19198C20.8199 7.00361 20.539 6.97911 20.3504 7.13727C20.1621 7.29566 20.1376 7.57673 20.296 7.7651L22.8793 10.8415C22.9647 10.9431 23.0899 11.0006 23.2204 11.0006C23.2419 11.0006 23.2636 10.999 23.2856 10.9958C23.4385 10.9731 23.569 10.8729 23.6299 10.7305L26.3027 4.49369C26.3998 4.26755 26.2949 4.00571 26.0688 3.90867C25.8427 3.81185 25.5808 3.91668 25.4838 4.14281ZM17.8193 1.98836H13.1773C14.6199 1.193 16.3771 1.193 17.8193 1.98836ZM3.7975 9.71335V13.2734L1.65974 11.4934L3.7975 9.71335ZM18.5782 20.4513C16.7939 21.9377 14.2032 21.9377 12.4181 20.4511L4.68854 14.0152V5.66512C4.68854 4.12886 5.93846 2.87917 7.47495 2.87917H18.1807C17.1937 4.04006 16.5973 5.5429 16.5973 7.18261C16.5973 10.8511 19.5816 13.8357 23.2499 13.8357C23.683 13.8357 24.1169 13.7936 24.5392 13.7103C25.168 13.5869 25.7612 13.3748 26.3085 13.0905V14.015L18.5782 20.4513ZM27.1995 13.2732V12.5348C27.7932 12.0953 28.3094 11.5607 28.7266 10.9553C28.9214 11.1173 29.1572 11.3137 29.3551 11.4785L27.1995 13.2732Z" stroke="#6175BD"/>
</svg>
