<svg width="143" height="144" viewBox="0 0 143 144" fill="none" xmlns="http://www.w3.org/2000/svg">
<g filter="url(#filter0_d_81_1854)">
<circle cx="71.5" cy="64" r="41.5" fill="white"/>
</g>
<path d="M83.6264 76.0133L76.5222 70.0983C76.3331 69.9409 76.052 69.9665 75.8946 70.1556C75.7373 70.3446 75.763 70.6257 75.952 70.7832L83.0563 76.6982C83.1396 76.7675 83.2408 76.8014 83.3412 76.8014C83.4689 76.8014 83.5957 76.7467 83.6839 76.6409C83.8413 76.4516 83.8157 76.1708 83.6264 76.0133Z" fill="#6175BD"/>
<path d="M66.4778 70.0983L59.3736 76.0133C59.1843 76.1708 59.1587 76.4516 59.3161 76.6409C59.4042 76.7467 59.531 76.8014 59.6588 76.8014C59.7592 76.8014 59.8604 76.7675 59.9437 76.6982L67.048 70.7832C67.237 70.6257 67.2627 70.3448 67.1052 70.1556C66.948 69.9665 66.6669 69.9409 66.4778 70.0983Z" fill="#6175BD"/>
<path d="M83.178 56.6207H79.8418C80.0629 55.4896 79.9512 54.3809 79.4939 53.337C78.4736 51.0079 76.4617 50.3572 74.9184 50.5249C73.4318 50.6865 72.1722 51.5531 71.4998 52.7982C70.8275 51.5531 69.568 50.6865 68.0814 50.5249C66.5381 50.3572 64.526 51.0079 63.5058 53.337C63.0472 54.3841 62.9323 55.4901 63.1536 56.6207H59.8213C57.99 56.6207 56.5 58.1108 56.5 59.9425V75.82C56.5 77.6069 57.9534 79.0605 59.7401 79.0605H83.2595C85.0464 79.0605 86.5 77.6069 86.5 75.82V59.9425C86.5 58.111 85.0098 56.6207 83.178 56.6207ZM83.2595 78.1695H59.7401C58.4448 78.1695 57.391 77.1155 57.391 75.82V60.9876L59.9582 63.1249C60.0413 63.1942 60.1424 63.2281 60.2429 63.2281C60.3706 63.2281 60.4974 63.1734 60.5855 63.0677C60.743 62.8786 60.7174 62.5975 60.5283 62.4401L57.394 59.8304C57.4528 58.542 58.519 57.5118 59.8213 57.5118H63.3958C63.6635 58.2813 64.0833 59.0583 64.6544 59.8324C66.103 61.796 68.4655 63.6296 71.3068 64.9948C71.3677 65.0241 71.4339 65.0388 71.4998 65.0388C71.5659 65.0388 71.6318 65.0241 71.6927 64.9948C73.4354 64.1574 75.0394 63.1178 76.3315 61.9883C76.5169 61.8262 76.5356 61.5449 76.3736 61.3595C76.2118 61.1743 75.9302 61.1553 75.7451 61.3174C74.5602 62.3531 73.0958 63.3119 71.4998 64.0979C68.8738 62.8054 66.7029 61.1082 65.3715 59.3035C64.3678 57.943 63.371 55.8654 64.3218 53.6945C65.024 52.0914 66.3939 51.2377 67.9851 51.4107C69.27 51.5506 70.72 52.4633 71.0628 54.1873C71.1043 54.3958 71.2874 54.5462 71.4998 54.5462C71.7124 54.5462 71.8953 54.3958 71.9367 54.1873C72.2796 52.4633 73.7295 51.5506 75.0145 51.4107C76.6059 51.2379 77.9755 52.0914 78.6777 53.6945C79.1311 54.73 79.1831 55.8407 78.8322 56.9963C78.4953 58.1053 77.8032 59.2252 76.775 60.3247C76.607 60.5044 76.6164 60.7864 76.7961 60.9544C76.9758 61.1226 77.2578 61.113 77.4258 60.9333C78.4756 59.8107 79.2039 58.6557 79.5999 57.5118H83.178C84.4808 57.5118 85.5472 58.542 85.6062 59.8304L74.5803 69.0106C72.7955 70.4972 70.2045 70.4972 68.4193 69.0103L61.7972 63.4968C61.6084 63.3393 61.3273 63.365 61.1699 63.5543C61.0124 63.7433 61.038 64.0242 61.2271 64.1816L67.8489 69.6954C68.9068 70.5764 70.2032 71.0167 71.4998 71.0167C72.7962 71.0167 74.093 70.5761 75.1504 69.6954L85.609 60.9876V75.82C85.609 77.1155 84.555 78.1695 83.2595 78.1695Z" fill="#6175BD"/>
<path d="M83.6264 76.0133L76.5222 70.0983C76.3331 69.9409 76.052 69.9665 75.8946 70.1556C75.7373 70.3446 75.763 70.6257 75.952 70.7832L83.0563 76.6982C83.1396 76.7675 83.2408 76.8014 83.3412 76.8014C83.4689 76.8014 83.5957 76.7467 83.6839 76.6409C83.8413 76.4516 83.8157 76.1708 83.6264 76.0133Z" stroke="#6175BD"/>
<path d="M66.4778 70.0983L59.3736 76.0133C59.1843 76.1708 59.1587 76.4516 59.3161 76.6409C59.4042 76.7467 59.531 76.8014 59.6588 76.8014C59.7592 76.8014 59.8604 76.7675 59.9437 76.6982L67.048 70.7832C67.237 70.6257 67.2627 70.3448 67.1052 70.1556C66.948 69.9665 66.6669 69.9409 66.4778 70.0983Z" stroke="#6175BD"/>
<path d="M83.178 56.6207H79.8418C80.0629 55.4896 79.9512 54.3809 79.4939 53.337C78.4736 51.0079 76.4617 50.3572 74.9184 50.5249C73.4318 50.6865 72.1722 51.5531 71.4998 52.7982C70.8275 51.5531 69.568 50.6865 68.0814 50.5249C66.5381 50.3572 64.526 51.0079 63.5058 53.337C63.0472 54.3841 62.9323 55.4901 63.1536 56.6207H59.8213C57.99 56.6207 56.5 58.1108 56.5 59.9425V75.82C56.5 77.6069 57.9534 79.0605 59.7401 79.0605H83.2595C85.0464 79.0605 86.5 77.6069 86.5 75.82V59.9425C86.5 58.111 85.0098 56.6207 83.178 56.6207ZM83.2595 78.1695H59.7401C58.4448 78.1695 57.391 77.1155 57.391 75.82V60.9876L59.9582 63.1249C60.0413 63.1942 60.1424 63.2281 60.2429 63.2281C60.3706 63.2281 60.4974 63.1734 60.5855 63.0677C60.743 62.8786 60.7174 62.5975 60.5283 62.4401L57.394 59.8304C57.4528 58.542 58.519 57.5118 59.8213 57.5118H63.3958C63.6635 58.2813 64.0833 59.0583 64.6544 59.8324C66.103 61.796 68.4655 63.6296 71.3068 64.9948C71.3677 65.0241 71.4339 65.0388 71.4998 65.0388C71.5659 65.0388 71.6318 65.0241 71.6927 64.9948C73.4354 64.1574 75.0394 63.1178 76.3315 61.9883C76.5169 61.8262 76.5356 61.5449 76.3736 61.3595C76.2118 61.1743 75.9302 61.1553 75.7451 61.3174C74.5602 62.3531 73.0958 63.3119 71.4998 64.0979C68.8738 62.8054 66.7029 61.1082 65.3715 59.3035C64.3678 57.943 63.371 55.8654 64.3218 53.6945C65.024 52.0914 66.3939 51.2377 67.9851 51.4107C69.27 51.5506 70.72 52.4633 71.0628 54.1873C71.1043 54.3958 71.2874 54.5462 71.4998 54.5462C71.7124 54.5462 71.8953 54.3958 71.9367 54.1873C72.2796 52.4633 73.7295 51.5506 75.0145 51.4107C76.6059 51.2379 77.9755 52.0914 78.6777 53.6945C79.1311 54.73 79.1831 55.8407 78.8322 56.9963C78.4953 58.1053 77.8032 59.2252 76.775 60.3247C76.607 60.5044 76.6164 60.7864 76.7961 60.9544C76.9758 61.1226 77.2578 61.113 77.4258 60.9333C78.4756 59.8107 79.2039 58.6557 79.5999 57.5118H83.178C84.4808 57.5118 85.5472 58.542 85.6062 59.8304L74.5803 69.0106C72.7955 70.4972 70.2045 70.4972 68.4193 69.0103L61.7972 63.4968C61.6084 63.3393 61.3273 63.365 61.1699 63.5543C61.0124 63.7433 61.038 64.0242 61.2271 64.1816L67.8489 69.6954C68.9068 70.5764 70.2032 71.0167 71.4998 71.0167C72.7962 71.0167 74.093 70.5761 75.1504 69.6954L85.609 60.9876V75.82C85.609 77.1155 84.555 78.1695 83.2595 78.1695Z" stroke="#6175BD"/>
<defs>
<filter id="filter0_d_81_1854" x="0" y="0.5" width="143" height="143" filterUnits="userSpaceOnUse" color-interpolation-filters="sRGB">
<feFlood flood-opacity="0" result="BackgroundImageFix"/>
<feColorMatrix in="SourceAlpha" type="matrix" values="0 0 0 0 0 0 0 0 0 0 0 0 0 0 0 0 0 0 127 0" result="hardAlpha"/>
<feOffset dy="8"/>
<feGaussianBlur stdDeviation="15"/>
<feColorMatrix type="matrix" values="0 0 0 0 0.260486 0 0 0 0 0.31346 0 0 0 0 0.504167 0 0 0 0.09 0"/>
<feBlend mode="normal" in2="BackgroundImageFix" result="effect1_dropShadow_81_1854"/>
<feBlend mode="normal" in="SourceGraphic" in2="effect1_dropShadow_81_1854" result="shape"/>
</filter>
</defs>
</svg>
