<svg width="31" height="30" viewBox="0 0 31 30" fill="none" xmlns="http://www.w3.org/2000/svg">
<path d="M27.6264 26.0133L20.5222 20.0983C20.3331 19.9409 20.052 19.9665 19.8946 20.1556C19.7373 20.3446 19.763 20.6257 19.952 20.7832L27.0563 26.6982C27.1396 26.7675 27.2408 26.8014 27.3412 26.8014C27.4689 26.8014 27.5957 26.7467 27.6839 26.6409C27.8413 26.4516 27.8157 26.1708 27.6264 26.0133Z" fill="#6175BD"/>
<path d="M10.4778 20.0983L3.37357 26.0133C3.18429 26.1708 3.15865 26.4516 3.31612 26.6409C3.40424 26.7467 3.53104 26.8014 3.65876 26.8014C3.75924 26.8014 3.8604 26.7675 3.94372 26.6982L11.048 20.7832C11.237 20.6257 11.2627 20.3448 11.1052 20.1556C10.948 19.9665 10.6669 19.9409 10.4778 20.0983Z" fill="#6175BD"/>
<path d="M27.178 6.62074H23.8418C24.0629 5.48961 23.9512 4.38091 23.4939 3.33698C22.4736 1.00787 20.4617 0.357163 18.9184 0.524934C17.4318 0.686524 16.1722 1.55307 15.4998 2.79819C14.8275 1.55307 13.568 0.686524 12.0814 0.524934C10.5381 0.357163 8.52597 1.00787 7.50584 3.33698C7.04716 4.38411 6.93227 5.49007 7.15359 6.62074H3.8213C1.99002 6.62074 0.5 8.11076 0.5 9.9425V25.82C0.5 27.6069 1.9534 29.0605 3.74005 29.0605H27.2595C29.0464 29.0605 30.5 27.6069 30.5 25.82V9.9425C30.5 8.11099 29.0098 6.62074 27.178 6.62074ZM27.2595 28.1695H3.74005C2.44481 28.1695 1.39104 27.1155 1.39104 25.82V10.9876L3.95818 13.1249C4.04126 13.1942 4.14243 13.2281 4.2429 13.2281C4.37062 13.2281 4.49742 13.1734 4.58554 13.0677C4.74301 12.8786 4.71738 12.5975 4.52832 12.4401L1.39401 9.83035C1.45284 8.54198 2.51897 7.51178 3.8213 7.51178H7.39575C7.66354 8.28128 8.08331 9.05833 8.65437 9.83241C10.103 11.796 12.4655 13.6296 15.3068 14.9948C15.3677 15.0241 15.4339 15.0388 15.4998 15.0388C15.5659 15.0388 15.6318 15.0241 15.6927 14.9948C17.4354 14.1574 19.0394 13.1178 20.3315 11.9883C20.5169 11.8262 20.5356 11.5449 20.3736 11.3595C20.2118 11.1743 19.9302 11.1553 19.7451 11.3174C18.5602 12.3531 17.0958 13.3119 15.4998 14.0979C12.8738 12.8054 10.7029 11.1082 9.37146 9.30347C8.36781 7.94299 7.37103 5.86543 8.32181 3.69449C9.02402 2.0914 10.3939 1.23767 11.9851 1.41071C13.27 1.55055 14.72 2.46333 15.0628 4.18727C15.1043 4.39578 15.2874 4.54616 15.4998 4.54616C15.7124 4.54616 15.8953 4.39578 15.9367 4.18727C16.2796 2.46333 17.7295 1.55055 19.0145 1.41071C20.6059 1.2379 21.9755 2.0914 22.6777 3.69449C23.1311 4.72995 23.1831 5.84071 22.8322 6.99634C22.4953 8.10527 21.8032 9.22519 20.775 10.3247C20.607 10.5044 20.6164 10.7864 20.7961 10.9544C20.9758 11.1226 21.2578 11.113 21.4258 10.9333C22.4756 9.81067 23.2039 8.65573 23.5999 7.51178H27.178C28.4808 7.51178 29.5472 8.54198 29.6062 9.83035L18.5803 19.0106C16.7955 20.4972 14.2045 20.4972 12.4193 19.0103L5.79724 13.4968C5.60841 13.3393 5.32735 13.365 5.16988 13.5543C5.01241 13.7433 5.03804 14.0242 5.2271 14.1816L11.8489 19.6954C12.9068 20.5764 14.2032 21.0167 15.4998 21.0167C16.7962 21.0167 18.093 20.5761 19.1504 19.6954L29.609 10.9876V25.82C29.609 27.1155 28.555 28.1695 27.2595 28.1695Z" fill="#6175BD"/>
<path d="M27.6264 26.0133L20.5222 20.0983C20.3331 19.9409 20.052 19.9665 19.8946 20.1556C19.7373 20.3446 19.763 20.6257 19.952 20.7832L27.0563 26.6982C27.1396 26.7675 27.2408 26.8014 27.3412 26.8014C27.4689 26.8014 27.5957 26.7467 27.6839 26.6409C27.8413 26.4516 27.8157 26.1708 27.6264 26.0133Z" stroke="#6175BD"/>
<path d="M10.4778 20.0983L3.37357 26.0133C3.18429 26.1708 3.15865 26.4516 3.31612 26.6409C3.40424 26.7467 3.53104 26.8014 3.65876 26.8014C3.75924 26.8014 3.8604 26.7675 3.94372 26.6982L11.048 20.7832C11.237 20.6257 11.2627 20.3448 11.1052 20.1556C10.948 19.9665 10.6669 19.9409 10.4778 20.0983Z" stroke="#6175BD"/>
<path d="M27.178 6.62074H23.8418C24.0629 5.48961 23.9512 4.38091 23.4939 3.33698C22.4736 1.00787 20.4617 0.357163 18.9184 0.524934C17.4318 0.686524 16.1722 1.55307 15.4998 2.79819C14.8275 1.55307 13.568 0.686524 12.0814 0.524934C10.5381 0.357163 8.52597 1.00787 7.50584 3.33698C7.04716 4.38411 6.93227 5.49007 7.15359 6.62074H3.8213C1.99002 6.62074 0.5 8.11076 0.5 9.9425V25.82C0.5 27.6069 1.9534 29.0605 3.74005 29.0605H27.2595C29.0464 29.0605 30.5 27.6069 30.5 25.82V9.9425C30.5 8.11099 29.0098 6.62074 27.178 6.62074ZM27.2595 28.1695H3.74005C2.44481 28.1695 1.39104 27.1155 1.39104 25.82V10.9876L3.95818 13.1249C4.04126 13.1942 4.14243 13.2281 4.2429 13.2281C4.37062 13.2281 4.49742 13.1734 4.58554 13.0677C4.74301 12.8786 4.71738 12.5975 4.52832 12.4401L1.39401 9.83035C1.45284 8.54198 2.51897 7.51178 3.8213 7.51178H7.39575C7.66354 8.28128 8.08331 9.05833 8.65437 9.83241C10.103 11.796 12.4655 13.6296 15.3068 14.9948C15.3677 15.0241 15.4339 15.0388 15.4998 15.0388C15.5659 15.0388 15.6318 15.0241 15.6927 14.9948C17.4354 14.1574 19.0394 13.1178 20.3315 11.9883C20.5169 11.8262 20.5356 11.5449 20.3736 11.3595C20.2118 11.1743 19.9302 11.1553 19.7451 11.3174C18.5602 12.3531 17.0958 13.3119 15.4998 14.0979C12.8738 12.8054 10.7029 11.1082 9.37146 9.30347C8.36781 7.94299 7.37103 5.86543 8.32181 3.69449C9.02402 2.0914 10.3939 1.23767 11.9851 1.41071C13.27 1.55055 14.72 2.46333 15.0628 4.18727C15.1043 4.39578 15.2874 4.54616 15.4998 4.54616C15.7124 4.54616 15.8953 4.39578 15.9367 4.18727C16.2796 2.46333 17.7295 1.55055 19.0145 1.41071C20.6059 1.2379 21.9755 2.0914 22.6777 3.69449C23.1311 4.72995 23.1831 5.84071 22.8322 6.99634C22.4953 8.10527 21.8032 9.22519 20.775 10.3247C20.607 10.5044 20.6164 10.7864 20.7961 10.9544C20.9758 11.1226 21.2578 11.113 21.4258 10.9333C22.4756 9.81067 23.2039 8.65573 23.5999 7.51178H27.178C28.4808 7.51178 29.5472 8.54198 29.6062 9.83035L18.5803 19.0106C16.7955 20.4972 14.2045 20.4972 12.4193 19.0103L5.79724 13.4968C5.60841 13.3393 5.32735 13.365 5.16988 13.5543C5.01241 13.7433 5.03804 14.0242 5.2271 14.1816L11.8489 19.6954C12.9068 20.5764 14.2032 21.0167 15.4998 21.0167C16.7962 21.0167 18.093 20.5761 19.1504 19.6954L29.609 10.9876V25.82C29.609 27.1155 28.555 28.1695 27.2595 28.1695Z" stroke="#6175BD"/>
</svg>
