<svg width="218" height="65" viewBox="0 0 218 65" fill="none" xmlns="http://www.w3.org/2000/svg">
<g clip-path="url(#clip0_81_1663)">
<path d="M209.4 63.1998H8.20005C4.10005 63.1998 0.800049 59.8998 0.800049 55.7998V8.1998C0.800049 4.0998 4.10005 0.799805 8.20005 0.799805H209.4C213.5 0.799805 216.8 4.0998 216.8 8.1998V55.8998C216.8 59.8998 213.5 63.1998 209.4 63.1998Z" fill="black"/>
<path d="M209.4 64.1H8.2C3.7 64.1 0 60.4 0 55.9V8.2C0 3.7 3.7 0 8.2 0H209.4C213.9 0 217.6 3.7 217.6 8.2V55.9C217.6 60.4 213.9 64.1 209.4 64.1ZM8.2 1.6C4.6 1.6 1.6 4.5 1.6 8.2V55.9C1.6 59.5 4.5 62.5 8.2 62.5H209.4C213 62.5 216 59.6 216 55.9V8.2C216 4.6 213.1 1.6 209.4 1.6H8.2V1.6Z" fill="#A6A8AA"/>
<path d="M72.4 18.2002L71.5 21.2002H69.5L72.9 10.7002H75.4L78.8 21.2002H76.7L75.7 18.2002H72.4ZM75.5 16.8002L74.7 14.2002C74.5 13.6002 74.3 12.8002 74.2 12.2002C74 12.8002 73.9 13.5002 73.7 14.2002L72.9 16.8002H75.5Z" fill="white"/>
<path d="M81.7 13.6001L82.9 17.5001C83.1 18.2001 83.3 18.8001 83.4 19.4001C83.5 18.8001 83.7 18.2001 83.9 17.5001L85.1 13.6001H87.1L84.2 21.2001H82.3L79.5 13.6001H81.7Z" fill="white"/>
<path d="M94.9 19.3999C94.9 20.0999 94.9 20.7999 95 21.1999H93.3L93.2 20.3999C92.7 20.9999 92 21.3999 91 21.3999C89.5 21.3999 88.6 20.2999 88.6 19.0999C88.6 17.1999 90.3 16.1999 93.1 16.1999V16.0999C93.1 15.5999 92.9 14.7999 91.6 14.7999C90.9 14.7999 90.1 14.9999 89.6 15.3999L89 14.0999C89.6 13.7999 90.5 13.3999 91.7 13.3999C94.1 13.3999 94.8 14.8999 94.8 16.5999V19.3999H94.9ZM93 17.4999C91.6 17.4999 90.3 17.7999 90.3 18.8999C90.3 19.5999 90.8 19.9999 91.4 19.9999C92.2 19.9999 92.7 19.4999 92.9 18.9999C92.9 18.8999 92.9 18.6999 92.9 18.5999V17.4999H93Z" fill="white"/>
<path d="M98.5 12.5C97.9 12.5 97.4 12 97.4 11.5C97.4 10.9 97.8 10.5 98.5 10.5C99.2 10.5 99.6 11 99.6 11.5C99.6 12 99.2 12.5 98.5 12.5ZM97.6 21.2V13.6H99.5V21.2H97.6Z" fill="white"/>
<path d="M102.3 10.1001H104.2V21.2001H102.3V10.1001Z" fill="white"/>
<path d="M112.9 19.4C112.9 20.1 112.9 20.8 113 21.2H111.3L111.2 20.4C110.7 21 110 21.4 109 21.4C107.5 21.4 106.6 20.3 106.6 19.1C106.6 17.2 108.3 16.2 111.1 16.2V16.1C111.1 15.6 110.9 14.8 109.6 14.8C108.9 14.8 108.1 15 107.6 15.4L107.2 14.2C107.8 13.9 108.7 13.5 109.9 13.5C112.3 13.5 113 15 113 16.7V19.4H112.9ZM111 17.5C109.6 17.5 108.3 17.8 108.3 18.9C108.3 19.6 108.8 20 109.4 20C110.2 20 110.7 19.5 110.9 19C110.9 18.9 110.9 18.7 110.9 18.6V17.5H111Z" fill="white"/>
<path d="M115.6 10.1001H117.5V14.6001C118 13.9001 118.8 13.4001 119.9 13.4001C121.8 13.4001 123.1 14.9001 123.1 17.3001C123.1 20.0001 121.4 21.4001 119.7 21.4001C118.7 21.4001 117.8 21.0001 117.3 20.1001L117.2 21.2001H115.6C115.6 20.7001 115.7 19.8001 115.7 19.1001V10.1001H115.6ZM117.5 18.1001C117.5 18.3001 117.5 18.4001 117.5 18.6001C117.7 19.4001 118.4 19.9001 119.2 19.9001C120.4 19.9001 121.1 18.9001 121.1 17.4001C121.1 16.1001 120.5 15.0001 119.2 15.0001C118.4 15.0001 117.7 15.6001 117.5 16.4001C117.5 16.5001 117.4 16.7001 117.4 16.9001V18.1001H117.5Z" fill="white"/>
<path d="M125.4 10.1001H127.3V21.2001H125.4V10.1001Z" fill="white"/>
<path d="M131.5 17.9C131.5 19.3 132.6 19.9 133.8 19.9C134.7 19.9 135.3 19.8 135.9 19.6L136.2 20.9C135.5 21.2 134.6 21.4 133.5 21.4C131 21.4 129.6 19.9 129.6 17.6C129.6 15.5 130.9 13.5 133.3 13.5C135.8 13.5 136.6 15.5 136.6 17.2C136.6 17.6 136.6 17.8 136.5 18H131.5V17.9ZM134.8 16.6C134.8 15.9 134.5 14.7 133.2 14.7C132 14.7 131.5 15.8 131.4 16.6H134.8Z" fill="white"/>
<path d="M146.1 21.4C144 21.4 142.3 19.9 142.3 17.5C142.3 15 143.9 13.5 146.2 13.5C148.5 13.5 150 15.1 150 17.4C150 20.1 148 21.4 146.1 21.4ZM146.1 20C147.2 20 148 18.9 148 17.4C148 16.2 147.5 14.8 146.2 14.8C144.8 14.8 144.3 16.1 144.3 17.4C144.2 18.9 145 20 146.1 20Z" fill="white"/>
<path d="M152.2 15.8999C152.2 14.9999 152.2 14.2999 152.1 13.5999H153.8L153.9 14.6999C154.2 14.0999 155.1 13.3999 156.3 13.3999C157.6 13.3999 159 14.2999 159 16.6999V21.1999H157.1V16.8999C157.1 15.7999 156.7 14.9999 155.6 14.9999C154.8 14.9999 154.3 15.4999 154.1 16.0999C154 16.2999 154 16.4999 154 16.6999V21.1999H152.1V15.8999H152.2Z" fill="white"/>
<path d="M168 11.6001V13.6001H169.8V15.0001H168V18.3001C168 19.2001 168.3 19.7001 169 19.7001C169.3 19.7001 169.5 19.7001 169.7 19.6001V21.1001C169.4 21.2001 168.9 21.3001 168.3 21.3001C167.6 21.3001 167 21.1001 166.6 20.7001C166.2 20.3001 166 19.6001 166 18.6001V15.0001H165V13.6001H166.1V12.2001L168 11.6001Z" fill="white"/>
<path d="M171.9 10.1001H173.8V14.6001C174 14.2001 174.4 13.9001 174.8 13.7001C175.2 13.5001 175.6 13.4001 176.1 13.4001C177.4 13.4001 178.8 14.3001 178.8 16.7001V21.2001H176.9V16.9001C176.9 15.8001 176.5 15.0001 175.4 15.0001C174.7 15.0001 174.1 15.5001 173.9 16.1001C173.8 16.3001 173.8 16.5001 173.8 16.7001V21.3001H171.9V10.1001Z" fill="white"/>
<path d="M182.9 17.9C182.9 19.3 184 19.9 185.2 19.9C186.1 19.9 186.7 19.8 187.3 19.6L187.6 20.9C186.9 21.2 186 21.4 184.9 21.4C182.4 21.4 181 19.9 181 17.6C181 15.5 182.3 13.5 184.7 13.5C187.2 13.5 188 15.5 188 17.2C188 17.6 188 17.8 187.9 18H182.9V17.9ZM186.2 16.6C186.2 15.9 185.9 14.7 184.6 14.7C183.4 14.7 182.9 15.8 182.8 16.6H186.2Z" fill="white"/>
<path d="M48.6 31.4002C48.6 26.2002 52.9 23.7002 53.1 23.5002C50.7 19.9002 46.9 19.5002 45.5 19.4002C42.3 19.1002 39.2 21.3002 37.6 21.3002C35.9 21.3002 33.5 19.4002 30.8 19.5002C27.3 19.6002 24.1 21.6002 22.3 24.7002C18.6 31.0002 21.4 40.4002 24.9 45.5002C26.7 48.0002 28.7 50.8002 31.4 50.7002C34 50.6002 35 49.0002 38.1 49.0002C41.2 49.0002 42.2001 50.7002 44.9001 50.6002C47.7001 50.6002 49.5 48.1002 51.2001 45.5002C53.2001 42.6002 54 39.8002 54.1 39.6002C54 39.7002 48.6 37.6002 48.6 31.4002Z" fill="white"/>
<path d="M43.4001 16.1C44.8001 14.3 45.8001 11.9 45.5001 9.5C43.5001 9.6 40.9001 10.9 39.4001 12.6C38.1001 14.1 36.9001 16.6 37.2001 19C39.6001 19.2 41.9001 17.8 43.4001 16.1Z" fill="white"/>
<path d="M86.5 50.3004H82.8L80.8 44.0004H73.8L72 50.3004H68.4L75.3 28.9004H79.6L86.5 50.3004ZM80.2 41.3004L78.4 35.7004C78.2 35.1004 77.8 33.8004 77.3 31.7004H77.2C77 32.6004 76.6 34.0004 76.2 35.7004L74.4 41.3004H80.2Z" fill="white"/>
<path d="M104.3 42.4004C104.3 45.0004 103.6 47.1004 102.2 48.6004C100.9 50.0004 99.3 50.6004 97.5 50.6004C95.5 50.6004 94 49.9004 93.1 48.4004H93V56.5004H89.6V39.9004C89.6 38.2004 89.6 36.6004 89.5 34.8004H92.5L92.7 37.2004H92.8C93.9 35.4004 95.7 34.4004 98 34.4004C99.8 34.4004 101.3 35.1004 102.6 36.6004C103.6 38.1004 104.3 40.0004 104.3 42.4004ZM100.8 42.5004C100.8 41.0004 100.5 39.8004 99.8 38.8004C99.1 37.8004 98.1 37.3004 96.8 37.3004C96 37.3004 95.2 37.6004 94.5 38.1004C93.8 38.7004 93.4 39.4004 93.1 40.3004C93 40.7004 92.9 41.1004 92.9 41.3004V43.9004C92.9 45.0004 93.2 46.0004 93.9 46.7004C94.6 47.5004 95.5 47.9004 96.6 47.9004C97.9 47.9004 98.9 47.4004 99.6 46.4004C100.4 45.4004 100.8 44.1004 100.8 42.5004Z" fill="white"/>
<path d="M122 42.4004C122 45.0004 121.3 47.1004 119.9 48.6004C118.6 50.0004 117.1 50.6004 115.2 50.6004C113.2 50.6004 111.7 49.9004 110.8 48.4004H110.7V56.5004H107.3V39.9004C107.3 38.2004 107.3 36.6004 107.2 34.8004H110.2L110.4 37.2004H110.5C111.6 35.4004 113.4 34.4004 115.7 34.4004C117.5 34.4004 119 35.1004 120.3 36.6004C121.4 38.1004 122 40.0004 122 42.4004ZM118.5 42.5004C118.5 41.0004 118.2 39.8004 117.5 38.8004C116.8 37.8004 115.8 37.3004 114.5 37.3004C113.7 37.3004 112.9 37.6004 112.2 38.1004C111.5 38.7004 111.1 39.4004 110.9 40.3004C110.8 40.7004 110.7 41.1004 110.7 41.3004V43.9004C110.7 45.0004 111 46.0004 111.7 46.7004C112.4 47.5004 113.3 47.9004 114.4 47.9004C115.7 47.9004 116.7 47.4004 117.4 46.4004C118.2 45.4004 118.5 44.1004 118.5 42.5004Z" fill="white"/>
<path d="M141.9 44.3002C141.9 46.1002 141.3 47.6002 140 48.8002C138.6 50.1002 136.7 50.7002 134.2 50.7002C131.9 50.7002 130 50.3002 128.6 49.4002L129.4 46.5002C130.9 47.4002 132.6 47.9002 134.4 47.9002C135.7 47.9002 136.7 47.6002 137.4 47.0002C138.1 46.4002 138.5 45.6002 138.5 44.7002C138.5 43.8002 138.2 43.1002 137.6 42.5002C137 41.9002 136 41.4002 134.6 40.8002C130.8 39.4002 129 37.3002 129 34.7002C129 32.9002 129.7 31.5002 131 30.4002C132.3 29.3002 134.1 28.7002 136.2 28.7002C138.2 28.7002 139.8 29.0002 141.1 29.7002L140.2 32.5002C139 31.8002 137.6 31.5002 136.1 31.5002C134.9 31.5002 133.9 31.8002 133.3 32.4002C132.7 32.9002 132.4 33.6002 132.4 34.3002C132.4 35.1002 132.7 35.8002 133.4 36.4002C134 36.9002 135 37.5002 136.5 38.1002C138.3 38.8002 139.7 39.7002 140.6 40.7002C141.5 41.5002 141.9 42.8002 141.9 44.3002Z" fill="white"/>
<path d="M153.3 37.4H149.5V44.9C149.5 46.8 150.2 47.8 151.5 47.8C152.1 47.8 152.6 47.7 153 47.6L153.1 50.2C152.4 50.5 151.5 50.6 150.4 50.6C149 50.6 148 50.2 147.2 49.4C146.4 48.6 146.1 47.2 146.1 45.2V37.4H143.8V34.8H146.1V32L149.5 31V34.8H153.3V37.4Z" fill="white"/>
<path d="M170.4 42.4C170.4 44.8 169.7 46.7 168.4 48.3C167 49.9 165.1 50.7 162.7 50.7C160.4 50.7 158.6 49.9 157.3 48.4C156 46.9 155.3 45 155.3 42.7C155.3 40.3 156 38.3 157.4 36.8C158.8 35.3 160.7 34.5 163 34.5C165.3 34.5 167.1 35.3 168.5 36.8C169.7 38.2 170.4 40.1 170.4 42.4ZM166.8 42.5C166.8 41.1 166.5 39.9 165.9 38.8C165.2 37.6 164.2 36.9 162.8 36.9C161.4 36.9 160.4 37.5 159.7 38.8C159.1 39.8 158.8 41.1 158.8 42.5C158.8 43.9 159.1 45.1 159.7 46.2C160.4 47.4 161.5 48 162.8 48C164.1 48 165.1 47.4 165.9 46.1C166.5 45.2 166.8 44 166.8 42.5Z" fill="white"/>
<path d="M181.5 37.8001C181.2 37.7001 180.8 37.7001 180.4 37.7001C179.2 37.7001 178.3 38.2001 177.6 39.1001C177 39.9001 176.7 40.9001 176.7 42.2001V50.3001H173.3V39.7001C173.3 37.9001 173.3 36.3001 173.2 34.8001H176.2L176.3 37.8001H176.4C176.8 36.8001 177.3 36.0001 178.1 35.4001C178.9 34.8001 179.7 34.6001 180.6 34.6001C180.9 34.6001 181.2 34.6001 181.5 34.7001V37.8001Z" fill="white"/>
<path d="M196.9 41.8001C196.9 42.4001 196.9 42.9001 196.8 43.4001H186.5C186.5 44.9001 187 46.1001 188 46.9001C188.9 47.6001 190 48.0001 191.4 48.0001C192.9 48.0001 194.3 47.8001 195.6 47.3001L196.1 49.7001C194.6 50.3001 192.9 50.7001 190.9 50.7001C188.5 50.7001 186.6 50.0001 185.3 48.6001C183.9 47.2001 183.2 45.3001 183.2 42.9001C183.2 40.6001 183.8 38.6001 185.1 37.1001C186.4 35.4001 188.2 34.6001 190.5 34.6001C192.7 34.6001 194.4 35.4001 195.6 37.1001C196.4 38.3001 196.9 39.9001 196.9 41.8001ZM193.6 40.9001C193.6 39.9001 193.4 39.0001 192.9 38.3001C192.3 37.3001 191.4 36.9001 190.2 36.9001C189.1 36.9001 188.2 37.4001 187.5 38.3001C186.9 39.0001 186.6 39.9001 186.5 41.0001H193.6V40.9001Z" fill="white"/>
</g>
<defs>
<clipPath id="clip0_81_1663">
<rect width="217.6" height="64.1" fill="white"/>
</clipPath>
</defs>
</svg>
