<svg width="218" height="65" viewBox="0 0 218 65" fill="none" xmlns="http://www.w3.org/2000/svg">
<g clip-path="url(#clip0_81_1696)">
<path d="M209.4 63.1998H8.20005C4.10005 63.1998 0.800049 59.8998 0.800049 55.7998V8.1998C0.800049 4.0998 4.10005 0.799805 8.20005 0.799805H209.4C213.5 0.799805 216.8 4.0998 216.8 8.1998V55.8998C216.8 59.8998 213.5 63.1998 209.4 63.1998Z" fill="black"/>
<path d="M209.4 64.1H8.2C3.7 64.1 0 60.4 0 55.9V8.2C0 3.7 3.7 0 8.2 0H209.4C213.9 0 217.6 3.7 217.6 8.2V55.9C217.6 60.4 213.9 64.1 209.4 64.1ZM8.2 1.6C4.6 1.6 1.6 4.5 1.6 8.2V55.9C1.6 59.5 4.5 62.5 8.2 62.5H209.4C213 62.5 216 59.6 216 55.9V8.2C216 4.6 213.1 1.6 209.4 1.6H8.2V1.6Z" fill="#A6A8AA"/>
<path d="M109.8 35.0001C106 35.0001 102.9 37.9001 102.9 41.8001C102.9 45.7001 106 48.6001 109.8 48.6001C113.6 48.6001 116.7 45.7001 116.7 41.8001C116.6 37.9001 113.6 35.0001 109.8 35.0001ZM109.8 46.0001C107.7 46.0001 105.9 44.3001 105.9 41.9001C105.9 39.4001 107.7 37.8001 109.8 37.8001C111.9 37.8001 113.7 39.5001 113.7 41.9001C113.6 44.3001 111.8 46.0001 109.8 46.0001ZM94.8 35.0001C91 35.0001 87.9 37.9001 87.9 41.8001C87.9 45.7001 91 48.6001 94.8 48.6001C98.6 48.6001 101.7 45.7001 101.7 41.8001C101.7 37.9001 98.6 35.0001 94.8 35.0001ZM94.8 46.0001C92.7 46.0001 90.9 44.3001 90.9 41.9001C90.9 39.4001 92.7 37.8001 94.8 37.8001C96.9 37.8001 98.7 39.5001 98.7 41.9001C98.7 44.3001 96.9 46.0001 94.8 46.0001ZM77 37.1001V40.0001H83.9C83.7 41.6001 83.1 42.8001 82.3 43.7001C81.3 44.7001 79.7 45.8001 76.9 45.8001C72.6 45.8001 69.3 42.4001 69.3 38.1001C69.3 33.8001 72.6 30.4001 76.9 30.4001C79.2 30.4001 80.9 31.3001 82.1 32.5001L84.1 30.5001C82.4 28.8001 80.1 27.6001 76.8 27.6001C70.9 27.6001 66 32.4001 66 38.2001C66 44.1001 70.9 48.8001 76.8 48.8001C80 48.8001 82.3 47.8001 84.2 45.8001C86.1 43.9001 86.7 41.2001 86.7 39.0001C86.7 38.3001 86.6 37.7001 86.5 37.2001H77V37.1001ZM149.9 39.4001C149.3 37.9001 147.6 35.0001 144 35.0001C140.5 35.0001 137.5 37.8001 137.5 41.8001C137.5 45.6001 140.4 48.6001 144.3 48.6001C147.4 48.6001 149.2 46.7001 150 45.6001L147.7 44.0001C146.9 45.1001 145.9 45.9001 144.3 45.9001C142.8 45.9001 141.7 45.2001 141 43.8001L150.1 40.0001L149.9 39.4001ZM140.5 41.7001C140.4 39.1001 142.5 37.7001 144.1 37.7001C145.3 37.7001 146.3 38.3001 146.6 39.2001L140.5 41.7001ZM133.1 48.3001H136.1V28.2001H133.1V48.3001ZM128.2 36.6001H128.1C127.4 35.8001 126.1 35.1001 124.5 35.1001C121.1 35.1001 117.9 38.1001 117.9 42.0001C117.9 45.8001 121 48.8001 124.5 48.8001C126.1 48.8001 127.4 48.1001 128.1 47.2001H128.2V48.2001C128.2 50.8001 126.8 52.2001 124.5 52.2001C122.7 52.2001 121.5 50.9001 121.1 49.8001L118.5 50.9001C119.3 52.7001 121.2 54.9001 124.6 54.9001C128.1 54.9001 131.1 52.8001 131.1 47.8001V35.4001H128.2V36.6001ZM124.7 46.0001C122.6 46.0001 120.9 44.3001 120.9 41.9001C120.9 39.5001 122.6 37.7001 124.7 37.7001C126.7 37.7001 128.4 39.5001 128.4 41.9001C128.4 44.3001 126.8 46.0001 124.7 46.0001ZM163.9 28.2001H156.7V48.3001H159.7V40.7001H163.9C167.2 40.7001 170.5 38.3001 170.5 34.5001C170.5 30.7001 167.3 28.2001 163.9 28.2001ZM164 37.9001H159.7V31.0001H164C166.2 31.0001 167.5 32.9001 167.5 34.4001C167.5 36.0001 166.3 37.9001 164 37.9001ZM182.6 35.0001C180.4 35.0001 178.2 36.0001 177.2 38.1001L179.9 39.2001C180.5 38.1001 181.5 37.7001 182.6 37.7001C184.2 37.7001 185.7 38.6001 185.8 40.3001V40.5001C185.3 40.2001 184.1 39.7001 182.7 39.7001C179.8 39.7001 176.9 41.3001 176.9 44.2001C176.9 46.9001 179.3 48.6001 181.9 48.6001C183.9 48.6001 185 47.7001 185.7 46.6001H185.8V48.2001H188.7V40.5001C188.7 37.0001 186 35.0001 182.6 35.0001ZM182.2 46.0001C181.2 46.0001 179.8 45.5001 179.8 44.3001C179.8 42.7001 181.5 42.2001 183 42.2001C184.3 42.2001 184.9 42.5001 185.7 42.9001C185.5 44.7001 183.9 46.0001 182.2 46.0001ZM199.2 35.4001L195.8 44.1001H195.7L192.1 35.4001H188.9L194.3 47.6001L191.2 54.4001H194.3L202.6 35.4001H199.2ZM172.2 48.3001H175.2V28.2001H172.2V48.3001Z" fill="white"/>
<path d="M17 12.2001C16.5 12.7001 16.3 13.5001 16.3 14.5001V50.0001C16.3 51.0001 16.6 51.8001 17 52.3001L17.1 52.4001L37 32.4001V32.2001V32.0001L17.1 12.1001L17 12.2001Z" fill="#85C7F2"/>
<path d="M43.6 39.1004L37 32.4004V32.2004V32.0004L43.6 25.4004L43.7 25.5004L51.6 30.0004C53.8 31.3004 53.8 33.4004 51.6 34.6004L43.8 39.0004L43.6 39.1004Z" fill="url(#paint0_linear_81_1696)"/>
<path d="M43.8 39.0002L37 32.2002L17 52.2002C17.7 53.0002 19 53.1002 20.3 52.3002L43.8 39.0002Z" fill="url(#paint1_linear_81_1696)"/>
<path d="M43.8 25.4002L20.3 12.1002C18.9 11.3002 17.7 11.4002 17 12.2002L37 32.2002L43.8 25.4002Z" fill="url(#paint2_linear_81_1696)"/>
<path d="M73.9 13.3002C73.3 12.8002 72.5 12.4002 71.6 12.4002C69.6 12.4002 68.1 14.0002 68.1 16.0002C68.1 18.0002 69.6 19.6002 71.6 19.6002C73.3 19.6002 74.5 18.6002 74.6 17.0002H72V16.0002H76.1C76.1 19.3002 74.3 20.9002 71.6 20.9002C68.9 20.9002 66.8 18.7002 66.8 16.1002C66.8 13.4002 68.9 11.2002 71.6 11.2002C72.8 11.2002 74 11.7002 74.8 12.5002L73.9 13.3002Z" fill="white"/>
<path d="M83.5 11.3003V12.5003H79.2V15.5003H83V16.7003H79.2V19.6003H83.7V20.8003H78V11.3003H83.5Z" fill="white"/>
<path d="M91.8001 11.3003V12.5003H88.9001V20.8003H87.6001V12.5003H84.7001V11.3003H91.8001Z" fill="white"/>
<path d="M97.9001 11.3003V20.8003H96.6001V11.3003H97.9001Z" fill="white"/>
<path d="M106.6 11.3003V12.5003H103.7V20.8003H102.4V12.5003H99.5V11.3003H106.6Z" fill="white"/>
<path d="M115.6 11.2002C118.3 11.2002 120.4 13.4002 120.4 16.1002C120.4 18.8002 118.3 20.9002 115.6 20.9002C112.9 20.9002 110.8 18.7002 110.8 16.1002C110.8 13.4002 112.9 11.2002 115.6 11.2002ZM115.6 19.7002C117.6 19.7002 119.1 18.1002 119.1 16.1002C119.1 14.1002 117.6 12.5002 115.6 12.5002C113.6 12.5002 112.1 14.1002 112.1 16.1002C112.1 18.1002 113.6 19.7002 115.6 19.7002Z" fill="white"/>
<path d="M128 20.8003L123.7 13.7003V20.8003H122.4V11.3003H123.7L128 18.4003V11.3003H129.3V20.8003H128Z" fill="white"/>
</g>
<defs>
<linearGradient id="paint0_linear_81_1696" x1="50.1902" y1="32.213" x2="11.3046" y2="32.213" gradientUnits="userSpaceOnUse">
<stop stop-color="#F6DF32"/>
<stop offset="0.1941" stop-color="#F0CD32"/>
<stop offset="0.5469" stop-color="#E8B131"/>
<stop offset="0.8279" stop-color="#E4A02F"/>
<stop offset="1" stop-color="#E29A2F"/>
</linearGradient>
<linearGradient id="paint1_linear_81_1696" x1="40.0989" y1="35.9005" x2="3.5253" y2="72.4741" gradientUnits="userSpaceOnUse">
<stop stop-color="#D04649"/>
<stop offset="1" stop-color="#A91D6A"/>
</linearGradient>
<linearGradient id="paint2_linear_81_1696" x1="3.3623" y1="-8.21281" x2="33.2237" y2="21.6486" gradientUnits="userSpaceOnUse">
<stop stop-color="#5E9D71"/>
<stop offset="0.3168" stop-color="#71A970"/>
<stop offset="0.7398" stop-color="#86B96E"/>
<stop offset="1" stop-color="#8EC06E"/>
</linearGradient>
<clipPath id="clip0_81_1696">
<rect width="217.6" height="64.1" fill="white"/>
</clipPath>
</defs>
</svg>
