<svg width="93" height="73" viewBox="0 0 93 73" fill="none" xmlns="http://www.w3.org/2000/svg">
<rect x="20" y="49" width="9" height="22" rx="4.5" fill="url(#paint0_linear_1302_126)"/>
<rect x="66" y="49" width="9" height="22" rx="4.5" fill="url(#paint1_linear_1302_126)"/>
<g filter="url(#filter0_bdi_1302_126)">
<rect x="8" y="4" width="77" height="57" rx="10" fill="#23EAA4" fill-opacity="0.5" shape-rendering="crispEdges"/>
</g>
<circle cx="60.5" cy="32.5" r="12.5" fill="url(#paint2_linear_1302_126)"/>
<circle cx="60.5" cy="32.5" r="7" stroke="url(#paint3_linear_1302_126)"/>
<rect x="15" y="21" width="7" height="7" rx="2" fill="url(#paint4_linear_1302_126)"/>
<rect x="23.5" y="21.5" width="6" height="6" rx="1.5" stroke="#23EAA4"/>
<rect x="31.5" y="21.5" width="6" height="6" rx="1.5" stroke="#23EAA4"/>
<rect x="15.5" y="29.5" width="6" height="6" rx="1.5" stroke="#23EAA4"/>
<rect x="23.5" y="29.5" width="6" height="6" rx="1.5" stroke="#23EAA4"/>
<rect x="31.5" y="29.5" width="6" height="6" rx="1.5" stroke="#23EAA4"/>
<rect x="15.5" y="37.5" width="6" height="6" rx="1.5" stroke="#23EAA4"/>
<rect x="23.5" y="37.5" width="6" height="6" rx="1.5" stroke="#23EAA4"/>
<rect x="31.5" y="37.5" width="6" height="6" rx="1.5" stroke="#23EAA4"/>
<defs>
<filter id="filter0_bdi_1302_126" x="0" y="-2" width="93" height="75" filterUnits="userSpaceOnUse" color-interpolation-filters="sRGB">
<feFlood flood-opacity="0" result="BackgroundImageFix"/>
<feGaussianBlur in="BackgroundImageFix" stdDeviation="3"/>
<feComposite in2="SourceAlpha" operator="in" result="effect1_backgroundBlur_1302_126"/>
<feColorMatrix in="SourceAlpha" type="matrix" values="0 0 0 0 0 0 0 0 0 0 0 0 0 0 0 0 0 0 127 0" result="hardAlpha"/>
<feOffset dy="4"/>
<feGaussianBlur stdDeviation="4"/>
<feComposite in2="hardAlpha" operator="out"/>
<feColorMatrix type="matrix" values="0 0 0 0 0 0 0 0 0 0 0 0 0 0 0 0 0 0 0.2 0"/>
<feBlend mode="normal" in2="effect1_backgroundBlur_1302_126" result="effect2_dropShadow_1302_126"/>
<feBlend mode="normal" in="SourceGraphic" in2="effect2_dropShadow_1302_126" result="shape"/>
<feColorMatrix in="SourceAlpha" type="matrix" values="0 0 0 0 0 0 0 0 0 0 0 0 0 0 0 0 0 0 127 0" result="hardAlpha"/>
<feOffset dx="-1" dy="-1"/>
<feGaussianBlur stdDeviation="2"/>
<feComposite in2="hardAlpha" operator="arithmetic" k2="-1" k3="1"/>
<feColorMatrix type="matrix" values="0 0 0 0 0.137255 0 0 0 0 0.917647 0 0 0 0 0.643137 0 0 0 0.6 0"/>
<feBlend mode="normal" in2="shape" result="effect3_innerShadow_1302_126"/>
</filter>
<linearGradient id="paint0_linear_1302_126" x1="24.5" y1="49" x2="44.0778" y2="64.9692" gradientUnits="userSpaceOnUse">
<stop stop-color="#23EAA4"/>
<stop offset="1" stop-color="#23EAA4" stop-opacity="0"/>
</linearGradient>
<linearGradient id="paint1_linear_1302_126" x1="70.5" y1="49" x2="90.0778" y2="64.9692" gradientUnits="userSpaceOnUse">
<stop stop-color="#23EAA4"/>
<stop offset="1" stop-color="#23EAA4" stop-opacity="0"/>
</linearGradient>
<linearGradient id="paint2_linear_1302_126" x1="60.5" y1="20" x2="78.7021" y2="56.2927" gradientUnits="userSpaceOnUse">
<stop stop-color="#23EAA4"/>
<stop offset="1" stop-color="#23EAA4" stop-opacity="0"/>
</linearGradient>
<linearGradient id="paint3_linear_1302_126" x1="68.6215" y1="37.2558" x2="48.7262" y2="36.0239" gradientUnits="userSpaceOnUse">
<stop stop-color="white"/>
<stop offset="1" stop-color="#23EAA4" stop-opacity="0"/>
</linearGradient>
<linearGradient id="paint4_linear_1302_126" x1="22.29" y1="26.7194" x2="13.0056" y2="26.1445" gradientUnits="userSpaceOnUse">
<stop stop-color="white"/>
<stop offset="1" stop-color="#23EAA4" stop-opacity="0"/>
</linearGradient>
</defs>
</svg>
