<svg width="88" height="85" viewBox="0 0 88 85" fill="none" xmlns="http://www.w3.org/2000/svg">
<g filter="url(#filter0_bdi_27_130)">
<rect x="80" y="4" width="69" height="56.5417" rx="10" transform="rotate(90 80 4)" fill="#23EAA4" fill-opacity="0.5" shape-rendering="crispEdges"/>
</g>
<path d="M16.4976 56.9608C19.0607 59.5239 22.2163 61.4153 25.685 62.4676C29.1537 63.5198 32.8284 63.7003 36.3835 62.9931C39.9386 62.286 43.2645 60.713 46.0665 58.4134C48.8684 56.1139 51.0601 53.1588 52.4472 49.81C53.8344 46.4611 54.3742 42.8219 54.0189 39.2145C53.6636 35.6072 52.4242 32.1432 50.4103 29.1293C48.3965 26.1154 45.6705 23.6447 42.4737 21.936C39.277 20.2273 35.7081 19.3333 32.0834 19.3333L32.0834 41.375L16.4976 56.9608Z" fill="url(#paint0_linear_27_130)"/>
<path d="M54.125 41.375C54.125 37.7502 53.2311 34.1814 51.5224 30.9846C49.8137 27.7879 47.3429 25.0618 44.3291 23.048C41.3152 21.0342 37.8511 19.7948 34.2438 19.4395C30.6365 19.0842 26.9972 19.624 23.6484 21.0111C20.2995 22.3983 17.3445 24.5899 15.0449 27.3919C12.7454 30.1939 11.1724 33.5198 10.4652 37.0749C9.75806 40.63 9.93858 44.3047 10.9908 47.7734C12.043 51.242 13.9344 54.3977 16.4975 56.9608L32.0834 41.375H54.125Z" fill="url(#paint1_linear_27_130)"/>
<rect x="37.8333" y="25.0834" width="32.5833" height="1.91667" fill="url(#paint2_linear_27_130)"/>
<rect x="37.8333" y="32.75" width="32.5833" height="1.91667" fill="url(#paint3_linear_27_130)"/>
<rect x="37.8333" y="40.4167" width="32.5833" height="1.91667" fill="url(#paint4_linear_27_130)"/>
<rect x="37.8333" y="48.0834" width="32.5833" height="1.91667" fill="url(#paint5_linear_27_130)"/>
<defs>
<filter id="filter0_bdi_27_130" x="15.4583" y="-2" width="72.5417" height="87" filterUnits="userSpaceOnUse" color-interpolation-filters="sRGB">
<feFlood flood-opacity="0" result="BackgroundImageFix"/>
<feGaussianBlur in="BackgroundImageFix" stdDeviation="3"/>
<feComposite in2="SourceAlpha" operator="in" result="effect1_backgroundBlur_27_130"/>
<feColorMatrix in="SourceAlpha" type="matrix" values="0 0 0 0 0 0 0 0 0 0 0 0 0 0 0 0 0 0 127 0" result="hardAlpha"/>
<feOffset dy="4"/>
<feGaussianBlur stdDeviation="4"/>
<feComposite in2="hardAlpha" operator="out"/>
<feColorMatrix type="matrix" values="0 0 0 0 0 0 0 0 0 0 0 0 0 0 0 0 0 0 0.2 0"/>
<feBlend mode="normal" in2="effect1_backgroundBlur_27_130" result="effect2_dropShadow_27_130"/>
<feBlend mode="normal" in="SourceGraphic" in2="effect2_dropShadow_27_130" result="shape"/>
<feColorMatrix in="SourceAlpha" type="matrix" values="0 0 0 0 0 0 0 0 0 0 0 0 0 0 0 0 0 0 127 0" result="hardAlpha"/>
<feOffset dx="-1" dy="-1"/>
<feGaussianBlur stdDeviation="2"/>
<feComposite in2="hardAlpha" operator="arithmetic" k2="-1" k3="1"/>
<feColorMatrix type="matrix" values="0 0 0 0 0.137255 0 0 0 0 0.917647 0 0 0 0 0.643137 0 0 0 0.6 0"/>
<feBlend mode="normal" in2="shape" result="effect3_innerShadow_27_130"/>
</filter>
<linearGradient id="paint0_linear_27_130" x1="5.32288" y1="48.3694" x2="49.2274" y2="9.58468" gradientUnits="userSpaceOnUse">
<stop stop-color="white"/>
<stop offset="1" stop-color="#23EAA4" stop-opacity="0"/>
</linearGradient>
<linearGradient id="paint1_linear_27_130" x1="32.0834" y1="19.3333" x2="64.1797" y2="83.3295" gradientUnits="userSpaceOnUse">
<stop stop-color="#23EAA4"/>
<stop offset="1" stop-color="#23EAA4" stop-opacity="0"/>
</linearGradient>
<linearGradient id="paint2_linear_27_130" x1="71.7668" y1="26.6494" x2="51.1862" y2="4.98649" gradientUnits="userSpaceOnUse">
<stop stop-color="white"/>
<stop offset="1" stop-color="#23EAA4" stop-opacity="0"/>
</linearGradient>
<linearGradient id="paint3_linear_27_130" x1="71.7668" y1="34.3161" x2="51.1862" y2="12.6532" gradientUnits="userSpaceOnUse">
<stop stop-color="white"/>
<stop offset="1" stop-color="#23EAA4" stop-opacity="0"/>
</linearGradient>
<linearGradient id="paint4_linear_27_130" x1="71.7668" y1="41.9827" x2="51.1862" y2="20.3198" gradientUnits="userSpaceOnUse">
<stop stop-color="white"/>
<stop offset="1" stop-color="#23EAA4" stop-opacity="0"/>
</linearGradient>
<linearGradient id="paint5_linear_27_130" x1="71.7668" y1="49.6494" x2="51.1862" y2="27.9865" gradientUnits="userSpaceOnUse">
<stop stop-color="white"/>
<stop offset="1" stop-color="#23EAA4" stop-opacity="0"/>
</linearGradient>
</defs>
</svg>
