<svg width="85" height="97" viewBox="0 0 85 97" fill="none" xmlns="http://www.w3.org/2000/svg">
<path d="M37.6071 40.6698L37.6072 40.6699L37.6179 40.663C39.814 39.2489 43.1088 39.2347 45.5767 40.6723L73.6254 57.7428C74.7353 58.8635 75.1944 59.765 75.1944 60.5898C75.1944 61.4146 74.7353 62.3162 73.6254 63.4369L45.5785 80.5063C44.061 81.3724 42.8719 81.7719 41.6851 81.7719C40.4955 81.7719 39.2417 81.3708 37.5941 80.502L9.55432 63.4369C8.44444 62.3162 7.98528 61.4146 7.98528 60.5898C7.98528 59.765 8.44444 58.8635 9.55432 57.7428L37.6071 40.6698Z" stroke="white"/>
<path d="M9.24264 51.8325C6.8995 49.4893 6.8995 47.6903 9.24264 45.3472L37.3472 28.2426C39.7168 26.7168 43.2168 26.7168 45.8325 28.2426L73.9371 45.3472C76.2802 47.6904 76.2802 49.4893 73.9371 51.8325L45.8325 68.9371C42.7168 70.7168 40.7168 70.7168 37.3472 68.9371L9.24264 51.8325Z" fill="#23EAA4"/>
<g filter="url(#filter0_bdi_1302_184)">
<path d="M10.5258 38.8325C8.1827 36.4893 8.1827 34.6903 10.5258 32.3472L38.6304 15.2426C41 13.7168 44.5 13.7168 47.1157 15.2426L75.2203 32.3472C77.5634 34.6904 77.5634 36.4893 75.2203 38.8325L47.1157 55.9371C44 57.7168 42 57.7168 38.6304 55.9371L10.5258 38.8325Z" fill="#23EAA4" fill-opacity="0.4" shape-rendering="crispEdges"/>
</g>
<defs>
<filter id="filter0_bdi_1302_184" x="0.768486" y="8.09827" width="84.2091" height="61.1736" filterUnits="userSpaceOnUse" color-interpolation-filters="sRGB">
<feFlood flood-opacity="0" result="BackgroundImageFix"/>
<feGaussianBlur in="BackgroundImageFix" stdDeviation="3"/>
<feComposite in2="SourceAlpha" operator="in" result="effect1_backgroundBlur_1302_184"/>
<feColorMatrix in="SourceAlpha" type="matrix" values="0 0 0 0 0 0 0 0 0 0 0 0 0 0 0 0 0 0 127 0" result="hardAlpha"/>
<feOffset dy="4"/>
<feGaussianBlur stdDeviation="4"/>
<feComposite in2="hardAlpha" operator="out"/>
<feColorMatrix type="matrix" values="0 0 0 0 0 0 0 0 0 0 0 0 0 0 0 0 0 0 0.2 0"/>
<feBlend mode="normal" in2="effect1_backgroundBlur_1302_184" result="effect2_dropShadow_1302_184"/>
<feBlend mode="normal" in="SourceGraphic" in2="effect2_dropShadow_1302_184" result="shape"/>
<feColorMatrix in="SourceAlpha" type="matrix" values="0 0 0 0 0 0 0 0 0 0 0 0 0 0 0 0 0 0 127 0" result="hardAlpha"/>
<feOffset dx="-1" dy="-1"/>
<feGaussianBlur stdDeviation="2"/>
<feComposite in2="hardAlpha" operator="arithmetic" k2="-1" k3="1"/>
<feColorMatrix type="matrix" values="0 0 0 0 0.137255 0 0 0 0 0.917647 0 0 0 0 0.643137 0 0 0 0.6 0"/>
<feBlend mode="normal" in2="shape" result="effect3_innerShadow_1302_184"/>
</filter>
</defs>
</svg>
