<svg width="98" height="75" viewBox="0 0 98 75" fill="none" xmlns="http://www.w3.org/2000/svg">
<g filter="url(#filter0_bdi_1302_204)">
<rect x="8" y="4" width="82" height="59" rx="10" fill="#23EAA4" fill-opacity="0.5" shape-rendering="crispEdges"/>
</g>
<path fill-rule="evenodd" clip-rule="evenodd" d="M31.5 13H33C35.2091 13 37 14.7909 37 17H31.5V13ZM30.5 13H23.5V29H30.5V13ZM31.5 29H33C35.2091 29 37 27.2091 37 25V24.5H31.5V29ZM37 23.5V18H31.5V23.5H37ZM22.5 29V24.5H17V25C17 27.2091 18.7909 29 21 29H22.5ZM17 23.5H22.5V18H17V23.5ZM17 17H22.5V13H21C18.7909 13 17 14.7909 17 17ZM16 17C16 14.2386 18.2386 12 21 12H33C35.7614 12 38 14.2386 38 17V25C38 27.7614 35.7614 30 33 30H21C18.2386 30 16 27.7614 16 25V17Z" fill="url(#paint0_linear_1302_204)"/>
<rect x="8" y="39" width="82" height="8" fill="url(#paint1_linear_1302_204)"/>
<defs>
<filter id="filter0_bdi_1302_204" x="0" y="-2" width="98" height="77" filterUnits="userSpaceOnUse" color-interpolation-filters="sRGB">
<feFlood flood-opacity="0" result="BackgroundImageFix"/>
<feGaussianBlur in="BackgroundImageFix" stdDeviation="3"/>
<feComposite in2="SourceAlpha" operator="in" result="effect1_backgroundBlur_1302_204"/>
<feColorMatrix in="SourceAlpha" type="matrix" values="0 0 0 0 0 0 0 0 0 0 0 0 0 0 0 0 0 0 127 0" result="hardAlpha"/>
<feOffset dy="4"/>
<feGaussianBlur stdDeviation="4"/>
<feComposite in2="hardAlpha" operator="out"/>
<feColorMatrix type="matrix" values="0 0 0 0 0 0 0 0 0 0 0 0 0 0 0 0 0 0 0.2 0"/>
<feBlend mode="normal" in2="effect1_backgroundBlur_1302_204" result="effect2_dropShadow_1302_204"/>
<feBlend mode="normal" in="SourceGraphic" in2="effect2_dropShadow_1302_204" result="shape"/>
<feColorMatrix in="SourceAlpha" type="matrix" values="0 0 0 0 0 0 0 0 0 0 0 0 0 0 0 0 0 0 127 0" result="hardAlpha"/>
<feOffset dx="-1" dy="-1"/>
<feGaussianBlur stdDeviation="2"/>
<feComposite in2="hardAlpha" operator="arithmetic" k2="-1" k3="1"/>
<feColorMatrix type="matrix" values="0 0 0 0 0.137255 0 0 0 0 0.917647 0 0 0 0 0.643137 0 0 0 0.6 0"/>
<feBlend mode="normal" in2="shape" result="effect3_innerShadow_1302_204"/>
</filter>
<linearGradient id="paint0_linear_1302_204" x1="50.5" y1="24" x2="9.91373" y2="24.9626" gradientUnits="userSpaceOnUse">
<stop stop-color="#23EAA4" stop-opacity="0"/>
<stop offset="1" stop-color="white"/>
</linearGradient>
<linearGradient id="paint1_linear_1302_204" x1="49" y1="39" x2="49.7095" y2="53.5002" gradientUnits="userSpaceOnUse">
<stop stop-color="#23EAA4"/>
<stop offset="1" stop-color="#23EAA4" stop-opacity="0"/>
</linearGradient>
</defs>
</svg>
