<svg width="554" height="554" viewBox="0 0 554 554" fill="none" xmlns="http://www.w3.org/2000/svg">
<g filter="url(#filter0_ddd_18_166)">
<circle cx="277" cy="277" r="207" fill="#19192A"/>
</g>
<g filter="url(#filter1_d_18_166)">
<mask id="path-2-inside-1_18_166" fill="white">
<path d="M146.62 146.62C144.818 144.818 141.891 144.814 140.133 146.66C111.101 177.145 93.045 216.492 88.9101 258.475C84.6242 301.99 95.5593 345.646 119.852 382.003C144.145 418.36 180.293 445.169 222.136 457.862C263.979 470.555 308.929 468.346 349.327 451.613C389.725 434.88 423.071 404.657 443.683 366.094C464.295 327.531 470.899 283.014 462.368 240.128C453.838 197.242 430.701 158.641 396.9 130.901C364.29 104.139 323.701 89.0836 281.615 88.0563C279.067 87.9941 277 90.0662 277 92.615C277 95.1637 279.067 97.2237 281.615 97.2891C321.565 98.3144 360.086 112.628 391.045 138.036C423.195 164.421 445.202 201.137 453.316 241.929C461.43 282.72 455.149 325.063 435.543 361.743C415.937 398.423 384.22 427.17 345.795 443.086C307.37 459.002 264.615 461.102 224.815 449.029C185.016 436.956 150.633 411.456 127.527 376.875C104.42 342.293 94.019 300.77 98.0956 259.379C102.021 219.522 119.138 182.162 146.662 153.189C148.417 151.341 148.422 148.422 146.62 146.62Z"/>
</mask>
<path d="M146.62 146.62C144.818 144.818 141.891 144.814 140.133 146.66C111.101 177.145 93.045 216.492 88.9101 258.475C84.6242 301.99 95.5593 345.646 119.852 382.003C144.145 418.36 180.293 445.169 222.136 457.862C263.979 470.555 308.929 468.346 349.327 451.613C389.725 434.88 423.071 404.657 443.683 366.094C464.295 327.531 470.899 283.014 462.368 240.128C453.838 197.242 430.701 158.641 396.9 130.901C364.29 104.139 323.701 89.0836 281.615 88.0563C279.067 87.9941 277 90.0662 277 92.615C277 95.1637 279.067 97.2237 281.615 97.2891C321.565 98.3144 360.086 112.628 391.045 138.036C423.195 164.421 445.202 201.137 453.316 241.929C461.43 282.72 455.149 325.063 435.543 361.743C415.937 398.423 384.22 427.17 345.795 443.086C307.37 459.002 264.615 461.102 224.815 449.029C185.016 436.956 150.633 411.456 127.527 376.875C104.42 342.293 94.019 300.77 98.0956 259.379C102.021 219.522 119.138 182.162 146.662 153.189C148.417 151.341 148.422 148.422 146.62 146.62Z" fill="#19192A"/>
<path d="M146.62 146.62C144.818 144.818 141.891 144.814 140.133 146.66C111.101 177.145 93.045 216.492 88.9101 258.475C84.6242 301.99 95.5593 345.646 119.852 382.003C144.145 418.36 180.293 445.169 222.136 457.862C263.979 470.555 308.929 468.346 349.327 451.613C389.725 434.88 423.071 404.657 443.683 366.094C464.295 327.531 470.899 283.014 462.368 240.128C453.838 197.242 430.701 158.641 396.9 130.901C364.29 104.139 323.701 89.0836 281.615 88.0563C279.067 87.9941 277 90.0662 277 92.615C277 95.1637 279.067 97.2237 281.615 97.2891C321.565 98.3144 360.086 112.628 391.045 138.036C423.195 164.421 445.202 201.137 453.316 241.929C461.43 282.72 455.149 325.063 435.543 361.743C415.937 398.423 384.22 427.17 345.795 443.086C307.37 459.002 264.615 461.102 224.815 449.029C185.016 436.956 150.633 411.456 127.527 376.875C104.42 342.293 94.019 300.77 98.0956 259.379C102.021 219.522 119.138 182.162 146.662 153.189C148.417 151.341 148.422 148.422 146.62 146.62Z" stroke="#23EAA4" stroke-width="10" mask="url(#path-2-inside-1_18_166)"/>
</g>
<path d="M237.187 257.24H222.915V271.64H218.755V257.24H204.547V253.4H218.755V239H222.915V253.4H237.187V257.24ZM254.869 255.192C252.223 254.339 250.197 252.995 248.789 251.16C247.423 249.325 246.741 247.107 246.741 244.504C246.741 242.2 247.317 240.152 248.469 238.36C249.663 236.525 251.391 235.096 253.653 234.072C255.914 233.005 258.623 232.472 261.781 232.472C264.938 232.472 267.647 233.005 269.909 234.072C272.17 235.096 273.877 236.525 275.029 238.36C276.223 240.152 276.821 242.2 276.821 244.504C276.821 247.064 276.117 249.283 274.708 251.16C273.343 253.037 271.338 254.381 268.693 255.192C271.594 255.917 273.877 257.304 275.541 259.352C277.205 261.4 278.037 263.896 278.037 266.84C278.037 269.571 277.354 271.96 275.989 274.008C274.666 276.013 272.767 277.571 270.293 278.68C267.861 279.789 265.023 280.344 261.781 280.344C258.538 280.344 255.679 279.789 253.205 278.68C250.773 277.571 248.874 276.013 247.509 274.008C246.186 271.96 245.525 269.571 245.525 266.84C245.525 263.896 246.357 261.4 248.021 259.352C249.685 257.304 251.967 255.917 254.869 255.192ZM272.469 245.016C272.469 242.2 271.509 240.024 269.589 238.488C267.669 236.952 265.066 236.184 261.781 236.184C258.495 236.184 255.893 236.952 253.973 238.488C252.053 239.981 251.093 242.157 251.093 245.016C251.093 247.661 252.074 249.773 254.037 251.352C255.999 252.931 258.581 253.72 261.781 253.72C264.981 253.72 267.562 252.931 269.525 251.352C271.487 249.773 272.469 247.661 272.469 245.016ZM261.781 257.176C258.282 257.176 255.423 257.965 253.205 259.544C250.986 261.123 249.877 263.512 249.877 266.712C249.877 269.784 250.943 272.195 253.077 273.944C255.21 275.693 258.111 276.568 261.781 276.568C265.407 276.568 268.287 275.693 270.421 273.944C272.554 272.152 273.621 269.741 273.621 266.712C273.621 263.555 272.511 261.187 270.293 259.608C268.117 257.987 265.279 257.176 261.781 257.176ZM283.926 268.12V264.728L307.222 233.368H312.534V264.216H319.382V268.12H312.534V279H308.118V268.12H283.926ZM308.31 238.296L289.11 264.216H308.31V238.296ZM352.616 236.632L334.76 279H330.216L348.264 237.016H322.664V233.176H352.616V236.632Z" fill="#23EAA4"/>
<path d="M196.949 312.6C196.949 310.952 197.309 309.48 198.029 308.184C198.749 306.872 199.733 305.856 200.981 305.136C202.229 304.4 203.621 304.032 205.157 304.032C207.029 304.032 208.629 304.48 209.957 305.376C211.301 306.256 212.277 307.504 212.885 309.12H210.917C210.437 307.984 209.701 307.096 208.709 306.456C207.733 305.816 206.549 305.496 205.157 305.496C203.925 305.496 202.813 305.784 201.821 306.36C200.845 306.936 200.077 307.768 199.517 308.856C198.957 309.928 198.677 311.176 198.677 312.6C198.677 314.024 198.957 315.272 199.517 316.344C200.077 317.416 200.845 318.24 201.821 318.816C202.813 319.392 203.925 319.68 205.157 319.68C206.549 319.68 207.733 319.368 208.709 318.744C209.701 318.104 210.437 317.224 210.917 316.104H212.885C212.277 317.704 211.301 318.944 209.957 319.824C208.613 320.704 207.013 321.144 205.157 321.144C203.621 321.144 202.229 320.784 200.981 320.064C199.733 319.328 198.749 318.312 198.029 317.016C197.309 315.72 196.949 314.248 196.949 312.6ZM217.913 310.224C218.281 309.408 218.841 308.776 219.593 308.328C220.361 307.88 221.297 307.656 222.401 307.656V309.408H221.945C220.729 309.408 219.753 309.736 219.017 310.392C218.281 311.048 217.913 312.144 217.913 313.68V321H216.233V307.896H217.913V310.224ZM235.728 307.896L227.952 327.168H226.2L228.744 320.928L223.368 307.896H225.216L229.68 319.08L234 307.896H235.728ZM239.662 310.776C240.078 309.896 240.734 309.168 241.63 308.592C242.542 308 243.622 307.704 244.87 307.704C246.054 307.704 247.118 307.984 248.062 308.544C249.022 309.088 249.766 309.872 250.294 310.896C250.838 311.904 251.11 313.08 251.11 314.424C251.11 315.768 250.838 316.952 250.294 317.976C249.766 319 249.022 319.792 248.062 320.352C247.118 320.912 246.054 321.192 244.87 321.192C243.638 321.192 242.566 320.904 241.654 320.328C240.742 319.736 240.078 319 239.662 318.12V327.192H238.006V307.896H239.662V310.776ZM249.406 314.424C249.406 313.336 249.19 312.4 248.758 311.616C248.342 310.816 247.766 310.208 247.03 309.792C246.294 309.376 245.462 309.168 244.534 309.168C243.638 309.168 242.814 309.384 242.062 309.816C241.326 310.248 240.742 310.864 240.31 311.664C239.878 312.464 239.662 313.392 239.662 314.448C239.662 315.504 239.878 316.432 240.31 317.232C240.742 318.032 241.326 318.648 242.062 319.08C242.814 319.512 243.638 319.728 244.534 319.728C245.462 319.728 246.294 319.52 247.03 319.104C247.766 318.672 248.342 318.056 248.758 317.256C249.19 316.44 249.406 315.496 249.406 314.424ZM256.385 309.312V317.448C256.385 318.248 256.537 318.8 256.841 319.104C257.145 319.408 257.681 319.56 258.449 319.56H259.985V321H258.185C257.001 321 256.121 320.728 255.545 320.184C254.969 319.624 254.681 318.712 254.681 317.448V309.312H252.857V307.896H254.681V304.608H256.385V307.896H259.985V309.312H256.385ZM268.492 321.192C267.26 321.192 266.148 320.92 265.156 320.376C264.18 319.816 263.404 319.032 262.828 318.024C262.268 317 261.988 315.808 261.988 314.448C261.988 313.088 262.276 311.904 262.852 310.896C263.428 309.872 264.212 309.088 265.204 308.544C266.196 307.984 267.308 307.704 268.54 307.704C269.772 307.704 270.884 307.984 271.876 308.544C272.884 309.088 273.668 309.872 274.228 310.896C274.804 311.904 275.092 313.088 275.092 314.448C275.092 315.792 274.804 316.976 274.228 318C273.652 319.024 272.86 319.816 271.852 320.376C270.844 320.92 269.724 321.192 268.492 321.192ZM268.492 319.728C269.356 319.728 270.156 319.536 270.892 319.152C271.628 318.752 272.22 318.16 272.668 317.376C273.132 316.576 273.364 315.6 273.364 314.448C273.364 313.296 273.14 312.328 272.692 311.544C272.244 310.744 271.652 310.152 270.916 309.768C270.18 309.368 269.38 309.168 268.516 309.168C267.652 309.168 266.852 309.368 266.116 309.768C265.38 310.152 264.788 310.744 264.34 311.544C263.908 312.328 263.692 313.296 263.692 314.448C263.692 315.6 263.908 316.576 264.34 317.376C264.788 318.16 265.372 318.752 266.092 319.152C266.828 319.536 267.628 319.728 268.492 319.728ZM283.972 314.424C283.972 313.08 284.236 311.904 284.764 310.896C285.308 309.872 286.052 309.088 286.996 308.544C287.956 307.984 289.036 307.704 290.236 307.704C291.484 307.704 292.556 307.992 293.452 308.568C294.364 309.144 295.02 309.88 295.42 310.776V307.896H297.1V321H295.42V318.096C295.004 318.992 294.34 319.736 293.428 320.328C292.532 320.904 291.46 321.192 290.212 321.192C289.028 321.192 287.956 320.912 286.996 320.352C286.052 319.792 285.308 319 284.764 317.976C284.236 316.952 283.972 315.768 283.972 314.424ZM295.42 314.448C295.42 313.392 295.204 312.464 294.772 311.664C294.34 310.864 293.748 310.248 292.996 309.816C292.26 309.384 291.444 309.168 290.548 309.168C289.62 309.168 288.788 309.376 288.052 309.792C287.316 310.208 286.732 310.816 286.3 311.616C285.884 312.4 285.676 313.336 285.676 314.424C285.676 315.496 285.884 316.44 286.3 317.256C286.732 318.056 287.316 318.672 288.052 319.104C288.788 319.52 289.62 319.728 290.548 319.728C291.444 319.728 292.26 319.512 292.996 319.08C293.748 318.648 294.34 318.032 294.772 317.232C295.204 316.432 295.42 315.504 295.42 314.448ZM305.448 321.192C303.944 321.192 302.712 320.848 301.752 320.16C300.808 319.456 300.28 318.504 300.168 317.304H301.896C301.976 318.04 302.32 318.64 302.928 319.104C303.552 319.552 304.384 319.776 305.424 319.776C306.336 319.776 307.048 319.56 307.56 319.128C308.088 318.696 308.352 318.16 308.352 317.52C308.352 317.072 308.208 316.704 307.92 316.416C307.632 316.128 307.264 315.904 306.816 315.744C306.384 315.568 305.792 315.384 305.04 315.192C304.064 314.936 303.272 314.68 302.664 314.424C302.056 314.168 301.536 313.792 301.104 313.296C300.688 312.784 300.48 312.104 300.48 311.256C300.48 310.616 300.672 310.024 301.056 309.48C301.44 308.936 301.984 308.504 302.688 308.184C303.392 307.864 304.192 307.704 305.088 307.704C306.496 307.704 307.632 308.064 308.496 308.784C309.36 309.488 309.824 310.464 309.888 311.712H308.208C308.16 310.944 307.856 310.328 307.296 309.864C306.752 309.384 306 309.144 305.04 309.144C304.192 309.144 303.504 309.344 302.976 309.744C302.448 310.144 302.184 310.64 302.184 311.232C302.184 311.744 302.336 312.168 302.64 312.504C302.96 312.824 303.352 313.08 303.816 313.272C304.28 313.448 304.904 313.648 305.688 313.872C306.632 314.128 307.384 314.376 307.944 314.616C308.504 314.856 308.984 315.208 309.384 315.672C309.784 316.136 309.992 316.752 310.008 317.52C310.008 318.224 309.816 318.856 309.432 319.416C309.048 319.96 308.512 320.392 307.824 320.712C307.136 321.032 306.344 321.192 305.448 321.192ZM317.682 321.192C316.178 321.192 314.946 320.848 313.986 320.16C313.042 319.456 312.514 318.504 312.402 317.304H314.13C314.21 318.04 314.554 318.64 315.162 319.104C315.786 319.552 316.618 319.776 317.658 319.776C318.57 319.776 319.282 319.56 319.794 319.128C320.322 318.696 320.586 318.16 320.586 317.52C320.586 317.072 320.442 316.704 320.154 316.416C319.866 316.128 319.498 315.904 319.05 315.744C318.618 315.568 318.026 315.384 317.274 315.192C316.298 314.936 315.506 314.68 314.898 314.424C314.29 314.168 313.77 313.792 313.338 313.296C312.922 312.784 312.714 312.104 312.714 311.256C312.714 310.616 312.906 310.024 313.29 309.48C313.674 308.936 314.218 308.504 314.922 308.184C315.626 307.864 316.426 307.704 317.322 307.704C318.73 307.704 319.866 308.064 320.73 308.784C321.594 309.488 322.058 310.464 322.122 311.712H320.442C320.394 310.944 320.09 310.328 319.53 309.864C318.986 309.384 318.234 309.144 317.274 309.144C316.426 309.144 315.738 309.344 315.21 309.744C314.682 310.144 314.418 310.64 314.418 311.232C314.418 311.744 314.57 312.168 314.874 312.504C315.194 312.824 315.586 313.08 316.05 313.272C316.514 313.448 317.138 313.648 317.922 313.872C318.866 314.128 319.618 314.376 320.178 314.616C320.738 314.856 321.218 315.208 321.618 315.672C322.018 316.136 322.226 316.752 322.242 317.52C322.242 318.224 322.05 318.856 321.666 319.416C321.282 319.96 320.746 320.392 320.058 320.712C319.37 321.032 318.578 321.192 317.682 321.192ZM337.26 313.776C337.26 314.352 337.244 314.792 337.212 315.096H326.34C326.388 316.088 326.628 316.936 327.06 317.64C327.492 318.344 328.06 318.88 328.764 319.248C329.468 319.6 330.236 319.776 331.068 319.776C332.156 319.776 333.068 319.512 333.804 318.984C334.556 318.456 335.052 317.744 335.292 316.848H337.068C336.748 318.128 336.06 319.176 335.004 319.992C333.964 320.792 332.652 321.192 331.068 321.192C329.836 321.192 328.732 320.92 327.756 320.376C326.78 319.816 326.012 319.032 325.452 318.024C324.908 317 324.636 315.808 324.636 314.448C324.636 313.088 324.908 311.896 325.452 310.872C325.996 309.848 326.756 309.064 327.732 308.52C328.708 307.976 329.82 307.704 331.068 307.704C332.316 307.704 333.404 307.976 334.332 308.52C335.276 309.064 335.996 309.8 336.492 310.728C337.004 311.64 337.26 312.656 337.26 313.776ZM335.556 313.728C335.572 312.752 335.372 311.92 334.956 311.232C334.556 310.544 334.004 310.024 333.3 309.672C332.596 309.32 331.828 309.144 330.996 309.144C329.748 309.144 328.684 309.544 327.804 310.344C326.924 311.144 326.436 312.272 326.34 313.728H335.556ZM342.518 309.312V317.448C342.518 318.248 342.67 318.8 342.974 319.104C343.278 319.408 343.814 319.56 344.582 319.56H346.118V321H344.318C343.134 321 342.254 320.728 341.678 320.184C341.102 319.624 340.814 318.712 340.814 317.448V309.312H338.99V307.896H340.814V304.608H342.518V307.896H346.118V309.312H342.518ZM353.401 321.192C351.897 321.192 350.665 320.848 349.705 320.16C348.761 319.456 348.233 318.504 348.121 317.304H349.849C349.929 318.04 350.273 318.64 350.881 319.104C351.505 319.552 352.337 319.776 353.377 319.776C354.289 319.776 355.001 319.56 355.513 319.128C356.041 318.696 356.305 318.16 356.305 317.52C356.305 317.072 356.161 316.704 355.873 316.416C355.585 316.128 355.217 315.904 354.769 315.744C354.337 315.568 353.745 315.384 352.993 315.192C352.017 314.936 351.225 314.68 350.617 314.424C350.009 314.168 349.489 313.792 349.057 313.296C348.641 312.784 348.433 312.104 348.433 311.256C348.433 310.616 348.625 310.024 349.009 309.48C349.393 308.936 349.937 308.504 350.641 308.184C351.345 307.864 352.145 307.704 353.041 307.704C354.449 307.704 355.585 308.064 356.449 308.784C357.313 309.488 357.777 310.464 357.841 311.712H356.161C356.113 310.944 355.809 310.328 355.249 309.864C354.705 309.384 353.953 309.144 352.993 309.144C352.145 309.144 351.457 309.344 350.929 309.744C350.401 310.144 350.137 310.64 350.137 311.232C350.137 311.744 350.289 312.168 350.593 312.504C350.913 312.824 351.305 313.08 351.769 313.272C352.233 313.448 352.857 313.648 353.641 313.872C354.585 314.128 355.337 314.376 355.897 314.616C356.457 314.856 356.937 315.208 357.337 315.672C357.737 316.136 357.945 316.752 357.961 317.52C357.961 318.224 357.769 318.856 357.385 319.416C357.001 319.96 356.465 320.392 355.777 320.712C355.089 321.032 354.297 321.192 353.401 321.192Z" fill="white"/>
<defs>
<filter id="filter0_ddd_18_166" x="0" y="0" width="554" height="554" filterUnits="userSpaceOnUse" color-interpolation-filters="sRGB">
<feFlood flood-opacity="0" result="BackgroundImageFix"/>
<feColorMatrix in="SourceAlpha" type="matrix" values="0 0 0 0 0 0 0 0 0 0 0 0 0 0 0 0 0 0 127 0" result="hardAlpha"/>
<feMorphology radius="10" operator="erode" in="SourceAlpha" result="effect1_dropShadow_18_166"/>
<feOffset/>
<feGaussianBlur stdDeviation="40"/>
<feComposite in2="hardAlpha" operator="out"/>
<feColorMatrix type="matrix" values="0 0 0 0 0.137255 0 0 0 0 0.917647 0 0 0 0 0.643137 0 0 0 0.6 0"/>
<feBlend mode="normal" in2="BackgroundImageFix" result="effect1_dropShadow_18_166"/>
<feColorMatrix in="SourceAlpha" type="matrix" values="0 0 0 0 0 0 0 0 0 0 0 0 0 0 0 0 0 0 127 0" result="hardAlpha"/>
<feOffset/>
<feGaussianBlur stdDeviation="8"/>
<feComposite in2="hardAlpha" operator="out"/>
<feColorMatrix type="matrix" values="0 0 0 0 0.137255 0 0 0 0 0.917647 0 0 0 0 0.643137 0 0 0 0.4 0"/>
<feBlend mode="normal" in2="effect1_dropShadow_18_166" result="effect2_dropShadow_18_166"/>
<feColorMatrix in="SourceAlpha" type="matrix" values="0 0 0 0 0 0 0 0 0 0 0 0 0 0 0 0 0 0 127 0" result="hardAlpha"/>
<feMorphology radius="5" operator="erode" in="SourceAlpha" result="effect3_dropShadow_18_166"/>
<feOffset/>
<feGaussianBlur stdDeviation="10"/>
<feComposite in2="hardAlpha" operator="out"/>
<feColorMatrix type="matrix" values="0 0 0 0 0.137255 0 0 0 0 0.917647 0 0 0 0 0.643137 0 0 0 0.2 0"/>
<feBlend mode="normal" in2="effect2_dropShadow_18_166" result="effect3_dropShadow_18_166"/>
<feBlend mode="normal" in="SourceGraphic" in2="effect3_dropShadow_18_166" result="shape"/>
</filter>
<filter id="filter1_d_18_166" x="75.9997" y="76.0549" width="402.001" height="401.945" filterUnits="userSpaceOnUse" color-interpolation-filters="sRGB">
<feFlood flood-opacity="0" result="BackgroundImageFix"/>
<feColorMatrix in="SourceAlpha" type="matrix" values="0 0 0 0 0 0 0 0 0 0 0 0 0 0 0 0 0 0 127 0" result="hardAlpha"/>
<feOffset/>
<feGaussianBlur stdDeviation="6"/>
<feComposite in2="hardAlpha" operator="out"/>
<feColorMatrix type="matrix" values="0 0 0 0 0.137255 0 0 0 0 0.917647 0 0 0 0 0.643137 0 0 0 0.6 0"/>
<feBlend mode="normal" in2="BackgroundImageFix" result="effect1_dropShadow_18_166"/>
<feBlend mode="normal" in="SourceGraphic" in2="effect1_dropShadow_18_166" result="shape"/>
</filter>
</defs>
</svg>
