<svg width="554" height="554" viewBox="0 0 554 554" fill="none" xmlns="http://www.w3.org/2000/svg">
<g filter="url(#filter0_ddd_18_167)">
<circle cx="277" cy="277" r="207" fill="#19192A"/>
</g>
<g filter="url(#filter1_d_18_167)">
<mask id="path-2-inside-1_18_167" fill="white">
<path d="M94.6185 304.108C92.0974 304.483 90.3518 306.832 90.7879 309.343C96.7198 343.497 111.938 375.394 134.815 401.517C158.707 428.799 189.943 448.631 224.797 458.647C259.65 468.664 296.649 468.442 331.38 458.008C366.111 447.574 397.107 427.368 420.669 399.802C444.231 372.235 459.366 338.472 464.266 302.54C469.167 266.609 463.627 230.026 448.307 197.156C432.987 164.287 408.534 136.519 377.866 117.165C348.5 98.6337 314.623 88.5662 279.962 88.0232C277.413 87.9833 275.364 90.0733 275.387 92.622C275.409 95.1707 277.494 97.2125 280.042 97.2556C312.932 97.8121 345.072 107.384 372.94 124.971C402.11 143.38 425.369 169.791 439.941 201.056C454.513 232.32 459.782 267.116 455.121 301.293C450.46 335.47 436.065 367.584 413.653 393.804C391.241 420.025 361.759 439.244 328.724 449.168C295.69 459.093 260.497 459.304 227.346 449.777C194.195 440.249 164.484 421.386 141.759 395.436C120.049 370.646 105.59 340.388 99.9204 307.986C99.4811 305.475 97.1396 303.733 94.6185 304.108Z"/>
</mask>
<path d="M94.6185 304.108C92.0974 304.483 90.3518 306.832 90.7879 309.343C96.7198 343.497 111.938 375.394 134.815 401.517C158.707 428.799 189.943 448.631 224.797 458.647C259.65 468.664 296.649 468.442 331.38 458.008C366.111 447.574 397.107 427.368 420.669 399.802C444.231 372.235 459.366 338.472 464.266 302.54C469.167 266.609 463.627 230.026 448.307 197.156C432.987 164.287 408.534 136.519 377.866 117.165C348.5 98.6337 314.623 88.5662 279.962 88.0232C277.413 87.9833 275.364 90.0733 275.387 92.622C275.409 95.1707 277.494 97.2125 280.042 97.2556C312.932 97.8121 345.072 107.384 372.94 124.971C402.11 143.38 425.369 169.791 439.941 201.056C454.513 232.32 459.782 267.116 455.121 301.293C450.46 335.47 436.065 367.584 413.653 393.804C391.241 420.025 361.759 439.244 328.724 449.168C295.69 459.093 260.497 459.304 227.346 449.777C194.195 440.249 164.484 421.386 141.759 395.436C120.049 370.646 105.59 340.388 99.9204 307.986C99.4811 305.475 97.1396 303.733 94.6185 304.108Z" fill="#19192A"/>
<path d="M94.6185 304.108C92.0974 304.483 90.3518 306.832 90.7879 309.343C96.7198 343.497 111.938 375.394 134.815 401.517C158.707 428.799 189.943 448.631 224.797 458.647C259.65 468.664 296.649 468.442 331.38 458.008C366.111 447.574 397.107 427.368 420.669 399.802C444.231 372.235 459.366 338.472 464.266 302.54C469.167 266.609 463.627 230.026 448.307 197.156C432.987 164.287 408.534 136.519 377.866 117.165C348.5 98.6337 314.623 88.5662 279.962 88.0232C277.413 87.9833 275.364 90.0733 275.387 92.622C275.409 95.1707 277.494 97.2125 280.042 97.2556C312.932 97.8121 345.072 107.384 372.94 124.971C402.11 143.38 425.369 169.791 439.941 201.056C454.513 232.32 459.782 267.116 455.121 301.293C450.46 335.47 436.065 367.584 413.653 393.804C391.241 420.025 361.759 439.244 328.724 449.168C295.69 459.093 260.497 459.304 227.346 449.777C194.195 440.249 164.484 421.386 141.759 395.436C120.049 370.646 105.59 340.388 99.9204 307.986C99.4811 305.475 97.1396 303.733 94.6185 304.108Z" stroke="#23EAA4" stroke-width="10" mask="url(#path-2-inside-1_18_167)"/>
</g>
<path d="M236.093 257.24H221.821V271.64H217.661V257.24H203.453V253.4H217.661V239H221.821V253.4H236.093V257.24ZM243.983 275.48C251.833 269.592 257.892 264.323 262.159 259.672C266.468 254.979 268.623 250.392 268.623 245.912C268.623 242.968 267.876 240.621 266.383 238.872C264.932 237.08 262.543 236.184 259.215 236.184C255.972 236.184 253.455 237.208 251.663 239.256C249.913 241.261 248.932 243.949 248.719 247.32H244.367C244.623 242.584 246.073 238.915 248.719 236.312C251.407 233.667 254.905 232.344 259.215 232.344C263.353 232.344 266.703 233.517 269.263 235.864C271.823 238.168 273.103 241.453 273.103 245.72C273.103 250.883 270.948 255.896 266.639 260.76C262.372 265.581 257.103 270.296 250.831 274.904H274.511V278.68H243.983V275.48ZM281.504 255.64C281.504 248.301 282.634 242.605 284.896 238.552C287.157 234.499 291.21 232.472 297.056 232.472C302.901 232.472 306.954 234.499 309.216 238.552C311.477 242.605 312.608 248.301 312.608 255.64C312.608 263.107 311.477 268.888 309.216 272.984C306.954 277.08 302.901 279.128 297.056 279.128C291.168 279.128 287.093 277.08 284.832 272.984C282.613 268.888 281.504 263.107 281.504 255.64ZM308.192 255.64C308.192 251.672 307.914 248.323 307.36 245.592C306.805 242.861 305.717 240.664 304.096 239C302.474 237.336 300.128 236.504 297.056 236.504C293.984 236.504 291.637 237.336 290.016 239C288.394 240.664 287.306 242.861 286.752 245.592C286.197 248.323 285.92 251.672 285.92 255.64C285.92 259.736 286.197 263.171 286.752 265.944C287.306 268.675 288.394 270.872 290.016 272.536C291.637 274.2 293.984 275.032 297.056 275.032C300.128 275.032 302.474 274.2 304.096 272.536C305.717 270.872 306.805 268.675 307.36 265.944C307.914 263.171 308.192 259.736 308.192 255.64ZM320.941 255.64C320.941 248.301 322.072 242.605 324.333 238.552C326.595 234.499 330.648 232.472 336.493 232.472C342.339 232.472 346.392 234.499 348.653 238.552C350.915 242.605 352.045 248.301 352.045 255.64C352.045 263.107 350.915 268.888 348.653 272.984C346.392 277.08 342.339 279.128 336.493 279.128C330.605 279.128 326.531 277.08 324.269 272.984C322.051 268.888 320.941 263.107 320.941 255.64ZM347.629 255.64C347.629 251.672 347.352 248.323 346.797 245.592C346.243 242.861 345.155 240.664 343.533 239C341.912 237.336 339.565 236.504 336.493 236.504C333.421 236.504 331.075 237.336 329.453 239C327.832 240.664 326.744 242.861 326.189 245.592C325.635 248.323 325.357 251.672 325.357 255.64C325.357 259.736 325.635 263.171 326.189 265.944C326.744 268.675 327.832 270.872 329.453 272.536C331.075 274.2 333.421 275.032 336.493 275.032C339.565 275.032 341.912 274.2 343.533 272.536C345.155 270.872 346.243 268.675 346.797 265.944C347.352 263.171 347.629 259.736 347.629 255.64Z" fill="#23EAA4"/>
<path d="M164.652 312.6C164.652 310.952 165.012 309.48 165.732 308.184C166.452 306.872 167.436 305.856 168.684 305.136C169.932 304.4 171.324 304.032 172.86 304.032C174.732 304.032 176.332 304.48 177.66 305.376C179.004 306.256 179.98 307.504 180.588 309.12H178.62C178.14 307.984 177.404 307.096 176.412 306.456C175.436 305.816 174.252 305.496 172.86 305.496C171.628 305.496 170.516 305.784 169.524 306.36C168.548 306.936 167.78 307.768 167.22 308.856C166.66 309.928 166.38 311.176 166.38 312.6C166.38 314.024 166.66 315.272 167.22 316.344C167.78 317.416 168.548 318.24 169.524 318.816C170.516 319.392 171.628 319.68 172.86 319.68C174.252 319.68 175.436 319.368 176.412 318.744C177.404 318.104 178.14 317.224 178.62 316.104H180.588C179.98 317.704 179.004 318.944 177.66 319.824C176.316 320.704 174.716 321.144 172.86 321.144C171.324 321.144 169.932 320.784 168.684 320.064C167.436 319.328 166.452 318.312 165.732 317.016C165.012 315.72 164.652 314.248 164.652 312.6ZM189.672 321.192C188.44 321.192 187.328 320.92 186.336 320.376C185.36 319.816 184.584 319.032 184.008 318.024C183.448 317 183.168 315.808 183.168 314.448C183.168 313.088 183.456 311.904 184.032 310.896C184.608 309.872 185.392 309.088 186.384 308.544C187.376 307.984 188.488 307.704 189.72 307.704C190.952 307.704 192.064 307.984 193.056 308.544C194.064 309.088 194.848 309.872 195.408 310.896C195.984 311.904 196.272 313.088 196.272 314.448C196.272 315.792 195.984 316.976 195.408 318C194.832 319.024 194.04 319.816 193.032 320.376C192.024 320.92 190.904 321.192 189.672 321.192ZM189.672 319.728C190.536 319.728 191.336 319.536 192.072 319.152C192.808 318.752 193.4 318.16 193.848 317.376C194.312 316.576 194.544 315.6 194.544 314.448C194.544 313.296 194.32 312.328 193.872 311.544C193.424 310.744 192.832 310.152 192.096 309.768C191.36 309.368 190.56 309.168 189.696 309.168C188.832 309.168 188.032 309.368 187.296 309.768C186.56 310.152 185.968 310.744 185.52 311.544C185.088 312.328 184.872 313.296 184.872 314.448C184.872 315.6 185.088 316.576 185.52 317.376C185.968 318.16 186.552 318.752 187.272 319.152C188.008 319.536 188.808 319.728 189.672 319.728ZM210.686 307.896V321H209.006V318.696C208.622 319.512 208.03 320.136 207.23 320.568C206.43 321 205.534 321.216 204.542 321.216C202.974 321.216 201.694 320.736 200.702 319.776C199.71 318.8 199.214 317.392 199.214 315.552V307.896H200.87V315.36C200.87 316.784 201.222 317.872 201.926 318.624C202.646 319.376 203.622 319.752 204.854 319.752C206.118 319.752 207.126 319.352 207.878 318.552C208.63 317.752 209.006 316.576 209.006 315.024V307.896H210.686ZM220.666 307.656C222.234 307.656 223.514 308.144 224.506 309.12C225.498 310.08 225.994 311.48 225.994 313.32V321H224.338V313.512C224.338 312.088 223.978 311 223.258 310.248C222.554 309.496 221.586 309.12 220.354 309.12C219.09 309.12 218.082 309.52 217.33 310.32C216.578 311.12 216.202 312.296 216.202 313.848V321H214.522V307.896H216.202V310.128C216.618 309.328 217.218 308.72 218.002 308.304C218.786 307.872 219.674 307.656 220.666 307.656ZM231.893 309.312V317.448C231.893 318.248 232.045 318.8 232.349 319.104C232.653 319.408 233.189 319.56 233.957 319.56H235.493V321H233.693C232.509 321 231.629 320.728 231.053 320.184C230.477 319.624 230.189 318.712 230.189 317.448V309.312H228.365V307.896H230.189V304.608H231.893V307.896H235.493V309.312H231.893ZM239.944 310.224C240.312 309.408 240.872 308.776 241.624 308.328C242.392 307.88 243.328 307.656 244.432 307.656V309.408H243.976C242.76 309.408 241.784 309.736 241.048 310.392C240.312 311.048 239.944 312.144 239.944 313.68V321H238.264V307.896H239.944V310.224ZM247.799 305.424C247.463 305.424 247.175 305.304 246.935 305.064C246.695 304.824 246.575 304.528 246.575 304.176C246.575 303.824 246.695 303.536 246.935 303.312C247.175 303.072 247.463 302.952 247.799 302.952C248.135 302.952 248.423 303.072 248.663 303.312C248.903 303.536 249.023 303.824 249.023 304.176C249.023 304.528 248.903 304.824 248.663 305.064C248.423 305.304 248.135 305.424 247.799 305.424ZM248.639 307.896V321H246.959V307.896H248.639ZM264.299 313.776C264.299 314.352 264.283 314.792 264.251 315.096H253.379C253.427 316.088 253.667 316.936 254.099 317.64C254.531 318.344 255.099 318.88 255.803 319.248C256.507 319.6 257.275 319.776 258.107 319.776C259.195 319.776 260.107 319.512 260.843 318.984C261.595 318.456 262.091 317.744 262.331 316.848H264.107C263.787 318.128 263.099 319.176 262.043 319.992C261.003 320.792 259.691 321.192 258.107 321.192C256.875 321.192 255.771 320.92 254.795 320.376C253.819 319.816 253.051 319.032 252.491 318.024C251.947 317 251.675 315.808 251.675 314.448C251.675 313.088 251.947 311.896 252.491 310.872C253.035 309.848 253.795 309.064 254.771 308.52C255.747 307.976 256.859 307.704 258.107 307.704C259.355 307.704 260.443 307.976 261.371 308.52C262.315 309.064 263.035 309.8 263.531 310.728C264.043 311.64 264.299 312.656 264.299 313.776ZM262.595 313.728C262.611 312.752 262.411 311.92 261.995 311.232C261.595 310.544 261.043 310.024 260.339 309.672C259.635 309.32 258.867 309.144 258.035 309.144C256.787 309.144 255.723 309.544 254.843 310.344C253.963 311.144 253.475 312.272 253.379 313.728H262.595ZM271.885 321.192C270.381 321.192 269.149 320.848 268.189 320.16C267.245 319.456 266.717 318.504 266.605 317.304H268.333C268.413 318.04 268.757 318.64 269.365 319.104C269.989 319.552 270.821 319.776 271.861 319.776C272.773 319.776 273.485 319.56 273.997 319.128C274.525 318.696 274.789 318.16 274.789 317.52C274.789 317.072 274.645 316.704 274.357 316.416C274.069 316.128 273.701 315.904 273.253 315.744C272.821 315.568 272.229 315.384 271.477 315.192C270.501 314.936 269.709 314.68 269.101 314.424C268.493 314.168 267.973 313.792 267.541 313.296C267.125 312.784 266.917 312.104 266.917 311.256C266.917 310.616 267.109 310.024 267.493 309.48C267.877 308.936 268.421 308.504 269.125 308.184C269.829 307.864 270.629 307.704 271.525 307.704C272.933 307.704 274.069 308.064 274.933 308.784C275.797 309.488 276.261 310.464 276.325 311.712H274.645C274.597 310.944 274.293 310.328 273.733 309.864C273.189 309.384 272.437 309.144 271.477 309.144C270.629 309.144 269.941 309.344 269.413 309.744C268.885 310.144 268.621 310.64 268.621 311.232C268.621 311.744 268.773 312.168 269.077 312.504C269.397 312.824 269.789 313.08 270.253 313.272C270.717 313.448 271.341 313.648 272.125 313.872C273.069 314.128 273.821 314.376 274.381 314.616C274.941 314.856 275.421 315.208 275.821 315.672C276.221 316.136 276.429 316.752 276.445 317.52C276.445 318.224 276.253 318.856 275.869 319.416C275.485 319.96 274.949 320.392 274.261 320.712C273.573 321.032 272.781 321.192 271.885 321.192ZM303.473 307.896L299.369 321H297.689L294.065 310.008L290.441 321H288.737L284.633 307.896H286.337L289.601 319.296L293.273 307.896H294.953L298.577 319.32L301.817 307.896H303.473ZM306.604 305.424C306.268 305.424 305.98 305.304 305.74 305.064C305.5 304.824 305.38 304.528 305.38 304.176C305.38 303.824 305.5 303.536 305.74 303.312C305.98 303.072 306.268 302.952 306.604 302.952C306.94 302.952 307.228 303.072 307.468 303.312C307.708 303.536 307.828 303.824 307.828 304.176C307.828 304.528 307.708 304.824 307.468 305.064C307.228 305.304 306.94 305.424 306.604 305.424ZM307.444 307.896V321H305.764V307.896H307.444ZM313.432 309.312V317.448C313.432 318.248 313.584 318.8 313.888 319.104C314.192 319.408 314.728 319.56 315.496 319.56H317.032V321H315.232C314.048 321 313.168 320.728 312.592 320.184C312.016 319.624 311.728 318.712 311.728 317.448V309.312H309.904V307.896H311.728V304.608H313.432V307.896H317.032V309.312H313.432ZM326.043 307.656C327.035 307.656 327.923 307.864 328.707 308.28C329.507 308.696 330.131 309.336 330.579 310.2C331.043 311.048 331.275 312.088 331.275 313.32V321H329.619V313.512C329.619 312.088 329.259 311 328.539 310.248C327.835 309.496 326.867 309.12 325.635 309.12C324.371 309.12 323.363 309.52 322.611 310.32C321.859 311.12 321.483 312.296 321.483 313.848V321H319.803V303.24H321.483V310.128C321.899 309.344 322.507 308.736 323.307 308.304C324.123 307.872 325.035 307.656 326.043 307.656ZM340.88 319.68C343.824 317.472 346.096 315.496 347.696 313.752C349.312 311.992 350.12 310.272 350.12 308.592C350.12 307.488 349.84 306.608 349.28 305.952C348.736 305.28 347.84 304.944 346.592 304.944C345.376 304.944 344.432 305.328 343.76 306.096C343.104 306.848 342.736 307.856 342.656 309.12H341.024C341.12 307.344 341.664 305.968 342.656 304.992C343.664 304 344.976 303.504 346.592 303.504C348.144 303.504 349.4 303.944 350.36 304.824C351.32 305.688 351.8 306.92 351.8 308.52C351.8 310.456 350.992 312.336 349.376 314.16C347.776 315.968 345.8 317.736 343.448 319.464H352.328V320.88H340.88V319.68ZM354.207 316.92V315.648L362.943 303.888H364.935V315.456H367.503V316.92H364.935V321H363.279V316.92H354.207ZM363.351 305.736L356.151 315.456H363.351V305.736ZM377.493 298.44L370.869 324.984H369.213L375.789 298.44H377.493ZM390.559 305.112L383.863 321H382.159L388.927 305.256H379.327V303.816H390.559V305.112ZM237.702 353.192C236.198 353.192 234.966 352.848 234.006 352.16C233.062 351.456 232.534 350.504 232.422 349.304H234.15C234.23 350.04 234.574 350.64 235.182 351.104C235.806 351.552 236.638 351.776 237.678 351.776C238.59 351.776 239.302 351.56 239.814 351.128C240.342 350.696 240.606 350.16 240.606 349.52C240.606 349.072 240.462 348.704 240.174 348.416C239.886 348.128 239.518 347.904 239.07 347.744C238.638 347.568 238.046 347.384 237.294 347.192C236.318 346.936 235.526 346.68 234.918 346.424C234.31 346.168 233.79 345.792 233.358 345.296C232.942 344.784 232.734 344.104 232.734 343.256C232.734 342.616 232.926 342.024 233.31 341.48C233.694 340.936 234.238 340.504 234.942 340.184C235.646 339.864 236.446 339.704 237.342 339.704C238.75 339.704 239.886 340.064 240.75 340.784C241.614 341.488 242.078 342.464 242.142 343.712H240.462C240.414 342.944 240.11 342.328 239.55 341.864C239.006 341.384 238.254 341.144 237.294 341.144C236.446 341.144 235.758 341.344 235.23 341.744C234.702 342.144 234.438 342.64 234.438 343.232C234.438 343.744 234.59 344.168 234.894 344.504C235.214 344.824 235.606 345.08 236.07 345.272C236.534 345.448 237.158 345.648 237.942 345.872C238.886 346.128 239.638 346.376 240.198 346.616C240.758 346.856 241.238 347.208 241.638 347.672C242.038 348.136 242.246 348.752 242.262 349.52C242.262 350.224 242.07 350.856 241.686 351.416C241.302 351.96 240.766 352.392 240.078 352.712C239.39 353.032 238.598 353.192 237.702 353.192ZM256.776 339.896V353H255.096V350.696C254.712 351.512 254.12 352.136 253.32 352.568C252.52 353 251.624 353.216 250.632 353.216C249.064 353.216 247.784 352.736 246.792 351.776C245.8 350.8 245.304 349.392 245.304 347.552V339.896H246.96V347.36C246.96 348.784 247.312 349.872 248.016 350.624C248.736 351.376 249.712 351.752 250.944 351.752C252.208 351.752 253.216 351.352 253.968 350.552C254.72 349.752 255.096 348.576 255.096 347.024V339.896H256.776ZM262.267 342.776C262.683 341.896 263.339 341.168 264.235 340.592C265.147 340 266.227 339.704 267.475 339.704C268.659 339.704 269.723 339.984 270.667 340.544C271.627 341.088 272.371 341.872 272.899 342.896C273.443 343.904 273.715 345.08 273.715 346.424C273.715 347.768 273.443 348.952 272.899 349.976C272.371 351 271.627 351.792 270.667 352.352C269.723 352.912 268.659 353.192 267.475 353.192C266.243 353.192 265.171 352.904 264.259 352.328C263.347 351.736 262.683 351 262.267 350.12V359.192H260.611V339.896H262.267V342.776ZM272.011 346.424C272.011 345.336 271.795 344.4 271.363 343.616C270.947 342.816 270.371 342.208 269.635 341.792C268.899 341.376 268.067 341.168 267.139 341.168C266.243 341.168 265.419 341.384 264.667 341.816C263.931 342.248 263.347 342.864 262.915 343.664C262.483 344.464 262.267 345.392 262.267 346.448C262.267 347.504 262.483 348.432 262.915 349.232C263.347 350.032 263.931 350.648 264.667 351.08C265.419 351.512 266.243 351.728 267.139 351.728C268.067 351.728 268.899 351.52 269.635 351.104C270.371 350.672 270.947 350.056 271.363 349.256C271.795 348.44 272.011 347.496 272.011 346.424ZM278.463 342.776C278.879 341.896 279.535 341.168 280.431 340.592C281.343 340 282.423 339.704 283.671 339.704C284.855 339.704 285.919 339.984 286.863 340.544C287.823 341.088 288.567 341.872 289.095 342.896C289.639 343.904 289.911 345.08 289.911 346.424C289.911 347.768 289.639 348.952 289.095 349.976C288.567 351 287.823 351.792 286.863 352.352C285.919 352.912 284.855 353.192 283.671 353.192C282.439 353.192 281.367 352.904 280.455 352.328C279.543 351.736 278.879 351 278.463 350.12V359.192H276.807V339.896H278.463V342.776ZM288.207 346.424C288.207 345.336 287.991 344.4 287.559 343.616C287.143 342.816 286.567 342.208 285.831 341.792C285.095 341.376 284.263 341.168 283.335 341.168C282.439 341.168 281.615 341.384 280.863 341.816C280.127 342.248 279.543 342.864 279.111 343.664C278.679 344.464 278.463 345.392 278.463 346.448C278.463 347.504 278.679 348.432 279.111 349.232C279.543 350.032 280.127 350.648 280.863 351.08C281.615 351.512 282.439 351.728 283.335 351.728C284.263 351.728 285.095 351.52 285.831 351.104C286.567 350.672 287.143 350.056 287.559 349.256C287.991 348.44 288.207 347.496 288.207 346.424ZM298.738 353.192C297.506 353.192 296.394 352.92 295.402 352.376C294.426 351.816 293.65 351.032 293.074 350.024C292.514 349 292.234 347.808 292.234 346.448C292.234 345.088 292.522 343.904 293.098 342.896C293.674 341.872 294.458 341.088 295.45 340.544C296.442 339.984 297.554 339.704 298.786 339.704C300.018 339.704 301.13 339.984 302.122 340.544C303.13 341.088 303.914 341.872 304.474 342.896C305.05 343.904 305.338 345.088 305.338 346.448C305.338 347.792 305.05 348.976 304.474 350C303.898 351.024 303.106 351.816 302.098 352.376C301.09 352.92 299.97 353.192 298.738 353.192ZM298.738 351.728C299.602 351.728 300.402 351.536 301.138 351.152C301.874 350.752 302.466 350.16 302.914 349.376C303.378 348.576 303.61 347.6 303.61 346.448C303.61 345.296 303.386 344.328 302.938 343.544C302.49 342.744 301.898 342.152 301.162 341.768C300.426 341.368 299.626 341.168 298.762 341.168C297.898 341.168 297.098 341.368 296.362 341.768C295.626 342.152 295.034 342.744 294.586 343.544C294.154 344.328 293.938 345.296 293.938 346.448C293.938 347.6 294.154 348.576 294.586 349.376C295.034 350.16 295.618 350.752 296.338 351.152C297.074 351.536 297.874 351.728 298.738 351.728ZM310.08 342.224C310.448 341.408 311.008 340.776 311.76 340.328C312.528 339.88 313.464 339.656 314.568 339.656V341.408H314.112C312.896 341.408 311.92 341.736 311.184 342.392C310.448 343.048 310.08 344.144 310.08 345.68V353H308.4V339.896H310.08V342.224ZM319.28 341.312V349.448C319.28 350.248 319.432 350.8 319.736 351.104C320.04 351.408 320.576 351.56 321.344 351.56H322.88V353H321.08C319.896 353 319.016 352.728 318.44 352.184C317.864 351.624 317.576 350.712 317.576 349.448V341.312H315.752V339.896H317.576V336.608H319.28V339.896H322.88V341.312H319.28Z" fill="white"/>
<defs>
<filter id="filter0_ddd_18_167" x="0" y="0" width="554" height="554" filterUnits="userSpaceOnUse" color-interpolation-filters="sRGB">
<feFlood flood-opacity="0" result="BackgroundImageFix"/>
<feColorMatrix in="SourceAlpha" type="matrix" values="0 0 0 0 0 0 0 0 0 0 0 0 0 0 0 0 0 0 127 0" result="hardAlpha"/>
<feMorphology radius="10" operator="erode" in="SourceAlpha" result="effect1_dropShadow_18_167"/>
<feOffset/>
<feGaussianBlur stdDeviation="40"/>
<feComposite in2="hardAlpha" operator="out"/>
<feColorMatrix type="matrix" values="0 0 0 0 0.137255 0 0 0 0 0.917647 0 0 0 0 0.643137 0 0 0 0.6 0"/>
<feBlend mode="normal" in2="BackgroundImageFix" result="effect1_dropShadow_18_167"/>
<feColorMatrix in="SourceAlpha" type="matrix" values="0 0 0 0 0 0 0 0 0 0 0 0 0 0 0 0 0 0 127 0" result="hardAlpha"/>
<feOffset/>
<feGaussianBlur stdDeviation="8"/>
<feComposite in2="hardAlpha" operator="out"/>
<feColorMatrix type="matrix" values="0 0 0 0 0.137255 0 0 0 0 0.917647 0 0 0 0 0.643137 0 0 0 0.4 0"/>
<feBlend mode="normal" in2="effect1_dropShadow_18_167" result="effect2_dropShadow_18_167"/>
<feColorMatrix in="SourceAlpha" type="matrix" values="0 0 0 0 0 0 0 0 0 0 0 0 0 0 0 0 0 0 127 0" result="hardAlpha"/>
<feMorphology radius="5" operator="erode" in="SourceAlpha" result="effect3_dropShadow_18_167"/>
<feOffset/>
<feGaussianBlur stdDeviation="10"/>
<feComposite in2="hardAlpha" operator="out"/>
<feColorMatrix type="matrix" values="0 0 0 0 0.137255 0 0 0 0 0.917647 0 0 0 0 0.643137 0 0 0 0.2 0"/>
<feBlend mode="normal" in2="effect2_dropShadow_18_167" result="effect3_dropShadow_18_167"/>
<feBlend mode="normal" in="SourceGraphic" in2="effect3_dropShadow_18_167" result="shape"/>
</filter>
<filter id="filter1_d_18_167" x="78.7211" y="76.0227" width="399.279" height="401.977" filterUnits="userSpaceOnUse" color-interpolation-filters="sRGB">
<feFlood flood-opacity="0" result="BackgroundImageFix"/>
<feColorMatrix in="SourceAlpha" type="matrix" values="0 0 0 0 0 0 0 0 0 0 0 0 0 0 0 0 0 0 127 0" result="hardAlpha"/>
<feOffset/>
<feGaussianBlur stdDeviation="6"/>
<feComposite in2="hardAlpha" operator="out"/>
<feColorMatrix type="matrix" values="0 0 0 0 0.137255 0 0 0 0 0.917647 0 0 0 0 0.643137 0 0 0 0.6 0"/>
<feBlend mode="normal" in2="BackgroundImageFix" result="effect1_dropShadow_18_167"/>
<feBlend mode="normal" in="SourceGraphic" in2="effect1_dropShadow_18_167" result="shape"/>
</filter>
</defs>
</svg>
