<svg width="554" height="554" viewBox="0 0 554 554" fill="none" xmlns="http://www.w3.org/2000/svg">
<g filter="url(#filter0_ddd_18_168)">
<circle cx="277" cy="277" r="207" fill="#19192A"/>
</g>
<g filter="url(#filter1_d_18_168)">
<mask id="path-2-inside-1_18_168" fill="white">
<path d="M366.356 438.286C367.592 440.516 370.404 441.327 372.603 440.037C407.342 419.667 434.705 388.707 450.639 351.635C467.182 313.148 470.469 270.256 459.985 229.698C449.501 189.14 425.839 153.214 392.717 127.566C360.813 102.86 321.874 89.0391 281.615 88.0563C279.067 87.9941 277 90.0662 277 92.615C277 95.1637 279.067 97.2237 281.615 97.2891C319.828 98.2699 356.78 111.411 387.066 134.864C418.57 159.259 441.077 193.431 451.049 232.008C461.021 270.586 457.894 311.383 442.16 347.99C427.033 383.182 401.078 412.585 368.128 431.961C365.931 433.253 365.121 436.057 366.356 438.286Z"/>
</mask>
<path d="M366.356 438.286C367.592 440.516 370.404 441.327 372.603 440.037C407.342 419.667 434.705 388.707 450.639 351.635C467.182 313.148 470.469 270.256 459.985 229.698C449.501 189.14 425.839 153.214 392.717 127.566C360.813 102.86 321.874 89.0391 281.615 88.0563C279.067 87.9941 277 90.0662 277 92.615C277 95.1637 279.067 97.2237 281.615 97.2891C319.828 98.2699 356.78 111.411 387.066 134.864C418.57 159.259 441.077 193.431 451.049 232.008C461.021 270.586 457.894 311.383 442.16 347.99C427.033 383.182 401.078 412.585 368.128 431.961C365.931 433.253 365.121 436.057 366.356 438.286Z" fill="#19192A"/>
<path d="M366.356 438.286C367.592 440.516 370.404 441.327 372.603 440.037C407.342 419.667 434.705 388.707 450.639 351.635C467.182 313.148 470.469 270.256 459.985 229.698C449.501 189.14 425.839 153.214 392.717 127.566C360.813 102.86 321.874 89.0391 281.615 88.0563C279.067 87.9941 277 90.0662 277 92.615C277 95.1637 279.067 97.2237 281.615 97.2891C319.828 98.2699 356.78 111.411 387.066 134.864C418.57 159.259 441.077 193.431 451.049 232.008C461.021 270.586 457.894 311.383 442.16 347.99C427.033 383.182 401.078 412.585 368.128 431.961C365.931 433.253 365.121 436.057 366.356 438.286Z" stroke="#23EAA4" stroke-width="10" mask="url(#path-2-inside-1_18_168)"/>
</g>
<path d="M203.816 255.64C203.816 248.301 204.947 242.605 207.208 238.552C209.47 234.499 213.523 232.472 219.368 232.472C225.214 232.472 229.267 234.499 231.528 238.552C233.79 242.605 234.92 248.301 234.92 255.64C234.92 263.107 233.79 268.888 231.528 272.984C229.267 277.08 225.214 279.128 219.368 279.128C213.48 279.128 209.406 277.08 207.144 272.984C204.926 268.888 203.816 263.107 203.816 255.64ZM230.504 255.64C230.504 251.672 230.227 248.323 229.672 245.592C229.118 242.861 228.03 240.664 226.408 239C224.787 237.336 222.44 236.504 219.368 236.504C216.296 236.504 213.95 237.336 212.328 239C210.707 240.664 209.619 242.861 209.064 245.592C208.51 248.323 208.232 251.672 208.232 255.64C208.232 259.736 208.51 263.171 209.064 265.944C209.619 268.675 210.707 270.872 212.328 272.536C213.95 274.2 216.296 275.032 219.368 275.032C222.44 275.032 224.787 274.2 226.408 272.536C228.03 270.872 229.118 268.675 229.672 265.944C230.227 263.171 230.504 259.736 230.504 255.64ZM244.982 279.32C244.043 279.32 243.254 279 242.614 278.36C242.016 277.72 241.718 276.931 241.718 275.992C241.718 275.053 242.016 274.285 242.614 273.688C243.254 273.048 244.043 272.728 244.982 272.728C245.878 272.728 246.624 273.048 247.222 273.688C247.862 274.285 248.182 275.053 248.182 275.992C248.182 276.931 247.862 277.72 247.222 278.36C246.624 279 245.878 279.32 244.982 279.32ZM252.703 237.144V233.112H263.583V279H259.039V237.144H252.703ZM302.494 236.952H279.07V253.336C280.137 251.843 281.694 250.627 283.742 249.688C285.79 248.707 288.009 248.216 290.398 248.216C293.897 248.216 296.756 248.941 298.974 250.392C301.193 251.8 302.793 253.656 303.774 255.96C304.756 258.221 305.246 260.653 305.246 263.256C305.246 266.243 304.67 268.952 303.518 271.384C302.409 273.773 300.681 275.672 298.334 277.08C296.03 278.488 293.15 279.192 289.694 279.192C285.3 279.192 281.737 278.061 279.006 275.8C276.276 273.496 274.612 270.403 274.014 266.52H278.43C278.985 269.336 280.265 271.512 282.27 273.048C284.276 274.584 286.75 275.352 289.694 275.352C293.406 275.352 296.201 274.264 298.078 272.088C299.998 269.869 300.958 266.947 300.958 263.32C300.958 259.779 299.998 257.027 298.078 255.064C296.158 253.059 293.406 252.056 289.822 252.056C287.348 252.056 285.172 252.632 283.294 253.784C281.417 254.936 280.03 256.493 279.134 258.456H274.91V233.048H302.494V236.952ZM311.658 242.712C311.658 239.981 312.49 237.784 314.154 236.12C315.861 234.413 318.016 233.56 320.618 233.56C323.264 233.56 325.418 234.413 327.082 236.12C328.789 237.784 329.642 239.981 329.642 242.712C329.642 245.485 328.789 247.725 327.082 249.432C325.418 251.096 323.264 251.928 320.618 251.928C318.016 251.928 315.861 251.096 314.154 249.432C312.49 247.725 311.658 245.485 311.658 242.712ZM347.498 234.2L321.258 279H316.714L343.018 234.2H347.498ZM320.618 236.44C318.997 236.44 317.696 236.995 316.714 238.104C315.776 239.171 315.306 240.707 315.306 242.712C315.306 244.717 315.776 246.275 316.714 247.384C317.696 248.493 318.997 249.048 320.618 249.048C322.24 249.048 323.541 248.493 324.522 247.384C325.504 246.275 325.994 244.717 325.994 242.712C325.994 240.749 325.504 239.213 324.522 238.104C323.541 236.995 322.24 236.44 320.618 236.44ZM334.698 270.488C334.698 267.715 335.53 265.496 337.194 263.832C338.901 262.125 341.056 261.272 343.658 261.272C346.261 261.272 348.394 262.125 350.058 263.832C351.765 265.496 352.618 267.715 352.618 270.488C352.618 273.261 351.765 275.501 350.058 277.208C348.394 278.872 346.261 279.704 343.658 279.704C341.056 279.704 338.901 278.872 337.194 277.208C335.53 275.501 334.698 273.261 334.698 270.488ZM343.658 264.216C342.037 264.216 340.736 264.771 339.754 265.88C338.773 266.989 338.282 268.525 338.282 270.488C338.282 272.451 338.773 273.987 339.754 275.096C340.736 276.205 342.037 276.76 343.658 276.76C345.28 276.76 346.56 276.227 347.498 275.16C348.48 274.051 348.97 272.493 348.97 270.488C348.97 268.483 348.48 266.947 347.498 265.88C346.56 264.771 345.28 264.216 343.658 264.216Z" fill="#23EAA4"/>
<path d="M167.602 304.08V305.448H160.114V311.904H166.594V313.224H160.114V321H158.41V304.08H167.602ZM176.028 319.776C177.212 319.776 178.204 319.48 179.004 318.888C179.804 318.296 180.284 317.496 180.444 316.488H182.22C181.98 317.88 181.316 319.008 180.228 319.872C179.14 320.736 177.764 321.168 176.1 321.168C174.852 321.168 173.74 320.904 172.764 320.376C171.804 319.832 171.052 319.056 170.508 318.048C169.964 317.024 169.692 315.824 169.692 314.448C169.692 313.072 169.964 311.88 170.508 310.872C171.052 309.848 171.804 309.072 172.764 308.544C173.74 308 174.852 307.728 176.1 307.728C177.38 307.728 178.484 308 179.412 308.544C180.356 309.072 181.068 309.784 181.548 310.68C182.044 311.576 182.292 312.552 182.292 313.608C182.292 314.056 182.26 314.464 182.196 314.832H171.348C171.364 315.936 171.588 316.864 172.02 317.616C172.468 318.352 173.044 318.896 173.748 319.248C174.452 319.6 175.212 319.776 176.028 319.776ZM176.1 309.096C175.252 309.096 174.476 309.272 173.772 309.624C173.068 309.976 172.492 310.52 172.044 311.256C171.612 311.976 171.38 312.88 171.348 313.968H180.612C180.676 312.896 180.5 311.992 180.084 311.256C179.668 310.52 179.108 309.976 178.404 309.624C177.7 309.272 176.932 309.096 176.1 309.096ZM191.028 319.776C192.212 319.776 193.204 319.48 194.004 318.888C194.804 318.296 195.284 317.496 195.444 316.488H197.22C196.98 317.88 196.316 319.008 195.228 319.872C194.14 320.736 192.764 321.168 191.1 321.168C189.852 321.168 188.74 320.904 187.764 320.376C186.804 319.832 186.052 319.056 185.508 318.048C184.964 317.024 184.692 315.824 184.692 314.448C184.692 313.072 184.964 311.88 185.508 310.872C186.052 309.848 186.804 309.072 187.764 308.544C188.74 308 189.852 307.728 191.1 307.728C192.38 307.728 193.484 308 194.412 308.544C195.356 309.072 196.068 309.784 196.548 310.68C197.044 311.576 197.292 312.552 197.292 313.608C197.292 314.056 197.26 314.464 197.196 314.832H186.348C186.364 315.936 186.588 316.864 187.02 317.616C187.468 318.352 188.044 318.896 188.748 319.248C189.452 319.6 190.212 319.776 191.028 319.776ZM191.1 309.096C190.252 309.096 189.476 309.272 188.772 309.624C188.068 309.976 187.492 310.52 187.044 311.256C186.612 311.976 186.38 312.88 186.348 313.968H195.612C195.676 312.896 195.5 311.992 195.084 311.256C194.668 310.52 194.108 309.976 193.404 309.624C192.7 309.272 191.932 309.096 191.1 309.096ZM204.276 307.728C205.7 307.728 206.844 308.104 207.708 308.856C208.572 309.608 209.1 310.624 209.292 311.904H207.684C207.588 311.056 207.236 310.36 206.628 309.816C206.036 309.256 205.236 308.976 204.228 308.976C203.364 308.976 202.684 309.192 202.188 309.624C201.708 310.04 201.468 310.6 201.468 311.304C201.468 311.832 201.62 312.256 201.924 312.576C202.244 312.896 202.636 313.144 203.1 313.32C203.564 313.48 204.188 313.648 204.972 313.824C205.932 314.048 206.7 314.28 207.276 314.52C207.868 314.744 208.372 315.104 208.788 315.6C209.204 316.096 209.412 316.768 209.412 317.616C209.412 318.656 209.02 319.512 208.236 320.184C207.468 320.84 206.444 321.168 205.164 321.168C203.66 321.168 202.428 320.8 201.468 320.064C200.508 319.312 199.94 318.288 199.764 316.992H201.396C201.492 317.856 201.868 318.56 202.524 319.104C203.18 319.648 204.068 319.92 205.188 319.92C206.02 319.92 206.668 319.704 207.132 319.272C207.596 318.84 207.828 318.28 207.828 317.592C207.828 317.032 207.668 316.584 207.348 316.248C207.028 315.912 206.628 315.664 206.148 315.504C205.684 315.328 205.044 315.144 204.228 314.952C203.284 314.728 202.524 314.504 201.948 314.28C201.388 314.056 200.908 313.712 200.508 313.248C200.108 312.768 199.908 312.12 199.908 311.304C199.908 310.232 200.3 309.368 201.084 308.712C201.868 308.056 202.932 307.728 204.276 307.728ZM224.235 307.728C225.563 307.728 226.691 308.072 227.619 308.76C228.563 309.448 229.211 310.36 229.563 311.496V307.896H231.219V321H229.563V317.4C229.211 318.536 228.563 319.448 227.619 320.136C226.691 320.824 225.563 321.168 224.235 321.168C223.051 321.168 221.987 320.896 221.043 320.352C220.115 319.808 219.387 319.032 218.859 318.024C218.347 317 218.091 315.808 218.091 314.448C218.091 313.072 218.347 311.88 218.859 310.872C219.387 309.848 220.115 309.072 221.043 308.544C221.971 308 223.035 307.728 224.235 307.728ZM224.667 309.216C223.195 309.216 222.011 309.688 221.115 310.632C220.235 311.56 219.795 312.832 219.795 314.448C219.795 316.064 220.235 317.344 221.115 318.288C222.011 319.216 223.195 319.68 224.667 319.68C225.595 319.68 226.427 319.464 227.163 319.032C227.915 318.6 228.499 317.992 228.915 317.208C229.347 316.408 229.563 315.488 229.563 314.448C229.563 313.408 229.347 312.496 228.915 311.712C228.499 310.912 227.915 310.296 227.163 309.864C226.427 309.432 225.595 309.216 224.667 309.216ZM238.823 307.728C240.247 307.728 241.391 308.104 242.255 308.856C243.119 309.608 243.647 310.624 243.839 311.904H242.231C242.135 311.056 241.783 310.36 241.175 309.816C240.583 309.256 239.783 308.976 238.775 308.976C237.911 308.976 237.231 309.192 236.735 309.624C236.255 310.04 236.015 310.6 236.015 311.304C236.015 311.832 236.167 312.256 236.471 312.576C236.791 312.896 237.183 313.144 237.647 313.32C238.111 313.48 238.735 313.648 239.519 313.824C240.479 314.048 241.247 314.28 241.823 314.52C242.415 314.744 242.919 315.104 243.335 315.6C243.751 316.096 243.959 316.768 243.959 317.616C243.959 318.656 243.567 319.512 242.783 320.184C242.015 320.84 240.991 321.168 239.711 321.168C238.207 321.168 236.975 320.8 236.015 320.064C235.055 319.312 234.487 318.288 234.311 316.992H235.943C236.039 317.856 236.415 318.56 237.071 319.104C237.727 319.648 238.615 319.92 239.735 319.92C240.567 319.92 241.215 319.704 241.679 319.272C242.143 318.84 242.375 318.28 242.375 317.592C242.375 317.032 242.215 316.584 241.895 316.248C241.575 315.912 241.175 315.664 240.695 315.504C240.231 315.328 239.591 315.144 238.775 314.952C237.831 314.728 237.071 314.504 236.495 314.28C235.935 314.056 235.455 313.712 235.055 313.248C234.655 312.768 234.455 312.12 234.455 311.304C234.455 310.232 234.847 309.368 235.631 308.712C236.415 308.056 237.479 307.728 238.823 307.728ZM254.965 303.24V321H253.262V303.24H254.965ZM264.533 307.728C265.781 307.728 266.893 308 267.869 308.544C268.861 309.072 269.637 309.848 270.197 310.872C270.757 311.88 271.037 313.072 271.037 314.448C271.037 315.824 270.757 317.016 270.197 318.024C269.637 319.032 268.861 319.808 267.869 320.352C266.893 320.896 265.781 321.168 264.533 321.168C263.285 321.168 262.165 320.896 261.173 320.352C260.181 319.808 259.397 319.032 258.821 318.024C258.261 317 257.981 315.808 257.981 314.448C257.981 313.072 258.261 311.88 258.821 310.872C259.397 309.848 260.181 309.072 261.173 308.544C262.165 308 263.285 307.728 264.533 307.728ZM264.533 309.192C263.669 309.192 262.869 309.384 262.133 309.768C261.397 310.152 260.805 310.744 260.357 311.544C259.909 312.328 259.685 313.296 259.685 314.448C259.685 315.6 259.909 316.568 260.357 317.352C260.805 318.136 261.397 318.72 262.133 319.104C262.869 319.488 263.669 319.68 264.533 319.68C265.381 319.68 266.165 319.488 266.885 319.104C267.621 318.72 268.213 318.136 268.661 317.352C269.109 316.568 269.333 315.6 269.333 314.448C269.333 313.296 269.109 312.328 268.661 311.544C268.213 310.744 267.621 310.152 266.885 309.768C266.165 309.384 265.381 309.192 264.533 309.192ZM291.763 307.896L287.899 321H286.123L282.187 309.864L278.203 321H276.451L272.587 307.896H274.291L277.411 319.248L281.347 307.896H283.075L287.035 319.248L290.131 307.896H291.763ZM305.68 307.728C307.008 307.728 308.136 308.072 309.064 308.76C310.008 309.448 310.656 310.36 311.008 311.496V307.896H312.664V321H311.008V317.4C310.656 318.536 310.008 319.448 309.064 320.136C308.136 320.824 307.008 321.168 305.68 321.168C304.496 321.168 303.432 320.896 302.488 320.352C301.56 319.808 300.832 319.032 300.304 318.024C299.792 317 299.536 315.808 299.536 314.448C299.536 313.072 299.792 311.88 300.304 310.872C300.832 309.848 301.56 309.072 302.488 308.544C303.416 308 304.48 307.728 305.68 307.728ZM306.112 309.216C304.64 309.216 303.456 309.688 302.56 310.632C301.68 311.56 301.24 312.832 301.24 314.448C301.24 316.064 301.68 317.344 302.56 318.288C303.456 319.216 304.64 319.68 306.112 319.68C307.04 319.68 307.872 319.464 308.608 319.032C309.36 318.6 309.944 317.992 310.36 317.208C310.792 316.408 311.008 315.488 311.008 314.448C311.008 313.408 310.792 312.496 310.36 311.712C309.944 310.912 309.36 310.296 308.608 309.864C307.872 309.432 307.04 309.216 306.112 309.216ZM320.268 307.728C321.692 307.728 322.836 308.104 323.7 308.856C324.564 309.608 325.092 310.624 325.284 311.904H323.676C323.58 311.056 323.228 310.36 322.62 309.816C322.028 309.256 321.228 308.976 320.22 308.976C319.356 308.976 318.676 309.192 318.18 309.624C317.7 310.04 317.46 310.6 317.46 311.304C317.46 311.832 317.612 312.256 317.916 312.576C318.236 312.896 318.628 313.144 319.092 313.32C319.556 313.48 320.18 313.648 320.964 313.824C321.924 314.048 322.692 314.28 323.268 314.52C323.86 314.744 324.364 315.104 324.78 315.6C325.196 316.096 325.404 316.768 325.404 317.616C325.404 318.656 325.012 319.512 324.228 320.184C323.46 320.84 322.436 321.168 321.156 321.168C319.652 321.168 318.42 320.8 317.46 320.064C316.5 319.312 315.932 318.288 315.756 316.992H317.388C317.484 317.856 317.86 318.56 318.516 319.104C319.172 319.648 320.06 319.92 321.18 319.92C322.012 319.92 322.66 319.704 323.124 319.272C323.588 318.84 323.82 318.28 323.82 317.592C323.82 317.032 323.66 316.584 323.34 316.248C323.02 315.912 322.62 315.664 322.14 315.504C321.676 315.328 321.036 315.144 320.22 314.952C319.276 314.728 318.516 314.504 317.94 314.28C317.38 314.056 316.9 313.712 316.5 313.248C316.1 312.768 315.9 312.12 315.9 311.304C315.9 310.232 316.292 309.368 317.076 308.712C317.86 308.056 318.924 307.728 320.268 307.728ZM333.219 305.64V304.08H337.515V321H335.763V305.64H333.219ZM351.88 305.424H342.904V311.688C343.336 311.112 343.952 310.648 344.752 310.296C345.552 309.944 346.416 309.768 347.344 309.768C349.152 309.768 350.496 310.288 351.376 311.328C352.272 312.368 352.72 313.672 352.72 315.24C352.72 316.952 352.24 318.36 351.28 319.464C350.32 320.568 348.896 321.12 347.008 321.12C345.36 321.12 344.008 320.672 342.952 319.776C341.912 318.88 341.312 317.664 341.152 316.128H342.808C343.016 317.248 343.48 318.112 344.2 318.72C344.92 319.328 345.824 319.632 346.912 319.632C348.288 319.632 349.32 319.232 350.008 318.432C350.712 317.616 351.064 316.544 351.064 315.216C351.064 313.936 350.712 312.936 350.008 312.216C349.304 311.496 348.296 311.136 346.984 311.136C346.072 311.136 345.264 311.328 344.56 311.712C343.872 312.096 343.344 312.624 342.976 313.296H341.344V303.936H351.88V305.424ZM362.785 307.728C363.985 307.728 365.041 308 365.953 308.544C366.881 309.072 367.601 309.848 368.113 310.872C368.641 311.88 368.905 313.072 368.905 314.448C368.905 315.808 368.641 317 368.113 318.024C367.601 319.032 366.881 319.808 365.953 320.352C365.025 320.896 363.969 321.168 362.785 321.168C361.441 321.168 360.305 320.824 359.377 320.136C358.449 319.448 357.809 318.536 357.457 317.4V321H355.777V303.24H357.457V311.496C357.809 310.36 358.449 309.448 359.377 308.76C360.305 308.072 361.441 307.728 362.785 307.728ZM362.329 309.216C361.401 309.216 360.561 309.432 359.809 309.864C359.073 310.296 358.497 310.912 358.081 311.712C357.665 312.496 357.457 313.408 357.457 314.448C357.457 315.488 357.665 316.408 358.081 317.208C358.497 317.992 359.073 318.6 359.809 319.032C360.561 319.464 361.401 319.68 362.329 319.68C363.817 319.68 365.001 319.216 365.881 318.288C366.761 317.344 367.201 316.064 367.201 314.448C367.201 312.832 366.761 311.56 365.881 310.632C365.001 309.688 363.817 309.216 362.329 309.216ZM378.934 307.728C380.134 307.728 381.19 308 382.102 308.544C383.03 309.072 383.75 309.848 384.262 310.872C384.79 311.88 385.054 313.072 385.054 314.448C385.054 315.808 384.79 317 384.262 318.024C383.75 319.032 383.03 319.808 382.102 320.352C381.174 320.896 380.118 321.168 378.934 321.168C377.59 321.168 376.454 320.824 375.526 320.136C374.598 319.448 373.958 318.536 373.606 317.4V327.192H371.926V307.896H373.606V311.496C373.958 310.36 374.598 309.448 375.526 308.76C376.454 308.072 377.59 307.728 378.934 307.728ZM378.478 309.216C377.55 309.216 376.71 309.432 375.958 309.864C375.222 310.296 374.646 310.912 374.23 311.712C373.814 312.496 373.606 313.408 373.606 314.448C373.606 315.488 373.814 316.408 374.23 317.208C374.646 317.992 375.222 318.6 375.958 319.032C376.71 319.464 377.55 319.68 378.478 319.68C379.966 319.68 381.15 319.216 382.03 318.288C382.91 317.344 383.35 316.064 383.35 314.448C383.35 312.832 382.91 311.56 382.03 310.632C381.15 309.688 379.966 309.216 378.478 309.216ZM392.034 307.728C393.458 307.728 394.602 308.104 395.466 308.856C396.33 309.608 396.858 310.624 397.05 311.904H395.442C395.346 311.056 394.994 310.36 394.386 309.816C393.794 309.256 392.994 308.976 391.986 308.976C391.122 308.976 390.442 309.192 389.946 309.624C389.466 310.04 389.226 310.6 389.226 311.304C389.226 311.832 389.378 312.256 389.682 312.576C390.002 312.896 390.394 313.144 390.858 313.32C391.322 313.48 391.946 313.648 392.73 313.824C393.69 314.048 394.458 314.28 395.034 314.52C395.626 314.744 396.13 315.104 396.546 315.6C396.962 316.096 397.17 316.768 397.17 317.616C397.17 318.656 396.778 319.512 395.994 320.184C395.226 320.84 394.202 321.168 392.922 321.168C391.418 321.168 390.186 320.8 389.226 320.064C388.266 319.312 387.698 318.288 387.522 316.992H389.154C389.25 317.856 389.626 318.56 390.282 319.104C390.938 319.648 391.826 319.92 392.946 319.92C393.778 319.92 394.426 319.704 394.89 319.272C395.354 318.84 395.586 318.28 395.586 317.592C395.586 317.032 395.426 316.584 395.106 316.248C394.786 315.912 394.386 315.664 393.906 315.504C393.442 315.328 392.802 315.144 391.986 314.952C391.042 314.728 390.282 314.504 389.706 314.28C389.146 314.056 388.666 313.712 388.266 313.248C387.866 312.768 387.666 312.12 387.666 311.304C387.666 310.232 388.058 309.368 388.842 308.712C389.626 308.056 390.69 307.728 392.034 307.728Z" fill="white"/>
<defs>
<filter id="filter0_ddd_18_168" x="0" y="0" width="554" height="554" filterUnits="userSpaceOnUse" color-interpolation-filters="sRGB">
<feFlood flood-opacity="0" result="BackgroundImageFix"/>
<feColorMatrix in="SourceAlpha" type="matrix" values="0 0 0 0 0 0 0 0 0 0 0 0 0 0 0 0 0 0 127 0" result="hardAlpha"/>
<feMorphology radius="10" operator="erode" in="SourceAlpha" result="effect1_dropShadow_18_168"/>
<feOffset/>
<feGaussianBlur stdDeviation="40"/>
<feComposite in2="hardAlpha" operator="out"/>
<feColorMatrix type="matrix" values="0 0 0 0 0.137255 0 0 0 0 0.917647 0 0 0 0 0.643137 0 0 0 0.6 0"/>
<feBlend mode="normal" in2="BackgroundImageFix" result="effect1_dropShadow_18_168"/>
<feColorMatrix in="SourceAlpha" type="matrix" values="0 0 0 0 0 0 0 0 0 0 0 0 0 0 0 0 0 0 127 0" result="hardAlpha"/>
<feOffset/>
<feGaussianBlur stdDeviation="8"/>
<feComposite in2="hardAlpha" operator="out"/>
<feColorMatrix type="matrix" values="0 0 0 0 0.137255 0 0 0 0 0.917647 0 0 0 0 0.643137 0 0 0 0.4 0"/>
<feBlend mode="normal" in2="effect1_dropShadow_18_168" result="effect2_dropShadow_18_168"/>
<feColorMatrix in="SourceAlpha" type="matrix" values="0 0 0 0 0 0 0 0 0 0 0 0 0 0 0 0 0 0 127 0" result="hardAlpha"/>
<feMorphology radius="5" operator="erode" in="SourceAlpha" result="effect3_dropShadow_18_168"/>
<feOffset/>
<feGaussianBlur stdDeviation="10"/>
<feComposite in2="hardAlpha" operator="out"/>
<feColorMatrix type="matrix" values="0 0 0 0 0.137255 0 0 0 0 0.917647 0 0 0 0 0.643137 0 0 0 0.2 0"/>
<feBlend mode="normal" in2="effect2_dropShadow_18_168" result="effect3_dropShadow_18_168"/>
<feBlend mode="normal" in="SourceGraphic" in2="effect3_dropShadow_18_168" result="shape"/>
</filter>
<filter id="filter1_d_18_168" x="265" y="76.0549" width="213" height="376.597" filterUnits="userSpaceOnUse" color-interpolation-filters="sRGB">
<feFlood flood-opacity="0" result="BackgroundImageFix"/>
<feColorMatrix in="SourceAlpha" type="matrix" values="0 0 0 0 0 0 0 0 0 0 0 0 0 0 0 0 0 0 127 0" result="hardAlpha"/>
<feOffset/>
<feGaussianBlur stdDeviation="6"/>
<feComposite in2="hardAlpha" operator="out"/>
<feColorMatrix type="matrix" values="0 0 0 0 0.137255 0 0 0 0 0.917647 0 0 0 0 0.643137 0 0 0 0.6 0"/>
<feBlend mode="normal" in2="BackgroundImageFix" result="effect1_dropShadow_18_168"/>
<feBlend mode="normal" in="SourceGraphic" in2="effect1_dropShadow_18_168" result="shape"/>
</filter>
</defs>
</svg>
