<svg width="149" height="42" fill="none" xmlns="http://www.w3.org/2000/svg"><path d="M23.862 19.69c-.05-4.503 3.56-6.729 3.76-6.832-2.055-3.106-5.214-3.52-6.317-3.52-2.657-.31-5.265 1.657-6.618 1.657-1.404 0-3.46-1.605-5.716-1.553-2.908.052-5.615 1.76-7.12 4.45-3.058 5.487-.802 13.56 2.157 18.012 1.454 2.174 3.208 4.606 5.464 4.503 2.207-.104 3.009-1.45 5.666-1.45 2.657 0 3.41 1.45 5.716 1.398 2.356-.052 3.86-2.174 5.264-4.4 1.705-2.484 2.407-4.968 2.407-5.072-.1 0-4.663-1.76-4.663-7.194zM19.5 6.44c1.203-1.553 2.005-3.623 1.755-5.745-1.705.104-3.861 1.242-5.114 2.743-1.103 1.294-2.056 3.468-1.805 5.486 1.955.155 3.91-.983 5.164-2.484zm30.934 21.892l-1.504-4.865c-.15-.517-.45-1.656-.902-3.519h-.05c-.2.776-.451 1.967-.852 3.52l-1.505 4.864h4.813zm5.265 7.764H52.64l-1.704-5.486H45.07l-1.605 5.486h-3.008l5.816-18.632h3.61l5.816 18.632zm12.033-6.78c0-1.294-.301-2.38-.853-3.209-.601-.88-1.454-1.346-2.506-1.346-.702 0-1.354.26-1.956.725-.601.466-.952 1.139-1.153 1.915-.1.362-.15.673-.15.931v2.226c0 .983.3 1.812.852 2.484.602.673 1.354.984 2.256.984 1.103 0 1.955-.415 2.557-1.295.602-.827.953-1.966.953-3.415zm2.908-.104c0 2.278-.602 4.09-1.805 5.434-1.053 1.191-2.407 1.76-4.011 1.76-1.705 0-2.958-.621-3.71-1.914h-.05v7.09h-2.908V27.09c0-1.449-.05-2.898-.1-4.399h2.556l.15 2.122h.05c.954-1.604 2.407-2.38 4.413-2.38 1.554 0 2.808.62 3.86 1.862 1.053 1.243 1.555 2.899 1.555 4.917zm12.032.104c0-1.294-.3-2.38-.852-3.209-.602-.88-1.454-1.346-2.507-1.346-.702 0-1.354.26-1.956.725-.6.466-.952 1.139-1.152 1.915-.101.362-.15.673-.15.931v2.226c0 .983.3 1.812.851 2.484.602.673 1.354.984 2.257.984 1.103 0 1.955-.415 2.556-1.295.652-.827.953-1.966.953-3.415zm2.958-.104c0 2.278-.601 4.09-1.805 5.434-1.052 1.191-2.407 1.76-4.01 1.76-1.705 0-2.959-.621-3.71-1.914h-.05v7.09h-2.909V27.09c0-1.449-.05-2.898-.1-4.399h2.557l.15 2.122h.05c.953-1.604 2.407-2.38 4.412-2.38 1.555 0 2.808.62 3.86 1.862 1.004 1.243 1.555 2.899 1.555 4.917zm16.696 1.657c0 1.604-.551 2.898-1.604 3.882-1.153 1.086-2.808 1.603-4.914 1.603-1.955 0-3.51-.362-4.663-1.138l.652-2.484a7.81 7.81 0 004.162 1.19c1.103 0 1.955-.259 2.556-.776.602-.518.903-1.19.903-2.019 0-.776-.25-1.397-.752-1.915-.501-.517-1.303-.983-2.507-1.449-3.159-1.19-4.713-3.002-4.713-5.33 0-1.553.552-2.795 1.655-3.779 1.103-.983 2.557-1.449 4.412-1.449 1.654 0 3.008.31 4.111.88l-.702 2.432c-1.002-.569-2.156-.88-3.46-.88-1.002 0-1.804.26-2.356.777-.501.466-.702 1.035-.702 1.708 0 .724.251 1.345.853 1.811.501.466 1.353.932 2.607 1.45 1.554.62 2.707 1.397 3.409 2.277.702.828 1.053 1.914 1.053 3.209zm9.577-5.952h-3.209v6.52c0 1.657.551 2.485 1.705 2.485.501 0 .952-.051 1.303-.155l.1 2.277c-.551.207-1.303.31-2.256.31-1.153 0-2.055-.362-2.657-1.086-.652-.725-.953-1.915-.953-3.623v-6.78h-1.905v-2.226h1.905v-2.484l2.858-.88v3.364h3.209v2.278h-.1zm11.38 4.451c0-1.242-.25-2.277-.751-3.21-.602-1.086-1.455-1.604-2.608-1.604s-2.055.518-2.657 1.605c-.501.88-.752 1.967-.752 3.26 0 1.243.251 2.278.752 3.21.602 1.086 1.504 1.604 2.607 1.604 1.103 0 1.956-.57 2.607-1.656.502-.88.802-1.967.802-3.21zm3.009-.104c0 2.07-.552 3.778-1.705 5.072-1.203 1.346-2.808 2.07-4.763 2.07-1.905 0-3.409-.672-4.562-1.966-1.154-1.294-1.705-2.95-1.705-4.969 0-2.07.602-3.778 1.755-5.124 1.153-1.345 2.757-1.966 4.713-1.966 1.905 0 3.459.673 4.612 1.966 1.103 1.294 1.655 2.899 1.655 4.917zm9.375-3.985a5.318 5.318 0 00-.902-.104c-1.003 0-1.805.414-2.356 1.19-.502.726-.702 1.605-.702 2.64v7.04h-2.908l.05-9.213c0-1.553-.05-2.95-.101-4.244h2.507l.1 2.587h.101c.301-.88.802-1.604 1.454-2.122.652-.465 1.354-.724 2.106-.724.25 0 .501 0 .701.052v2.898h-.05zm10.178 2.691c0-.88-.15-1.656-.552-2.277-.501-.828-1.253-1.242-2.306-1.242-.952 0-1.704.414-2.306 1.19-.501.622-.752 1.398-.852 2.33h6.016zm2.758.777c0 .517-.05.983-.101 1.345h-8.673c.05 1.346.451 2.33 1.253 3.054.752.62 1.655.931 2.858.931 1.304 0 2.457-.206 3.51-.62l.451 2.07c-1.254.569-2.708.827-4.362.827-2.006 0-3.61-.62-4.763-1.81-1.154-1.243-1.705-2.847-1.705-4.918 0-2.018.551-3.726 1.605-5.072 1.103-1.449 2.657-2.173 4.562-2.173 1.855 0 3.309.724 4.262 2.173.702 1.087 1.103 2.537 1.103 4.193zM47.977 6.078c0-1.087-.25-1.863-.802-2.433-.551-.569-1.353-.88-2.406-.88a6.8 6.8 0 00-1.154.104v6.832c.151.051.502.051.953.051 1.103 0 1.906-.31 2.507-.931.602-.673.902-1.553.902-2.743zm1.505-.052c0 1.656-.502 2.898-1.454 3.726-.903.777-2.156 1.139-3.76 1.139-.803 0-1.505-.052-2.056-.104V1.782c.752-.104 1.554-.207 2.456-.207 1.554 0 2.708.362 3.51 1.035.853.828 1.303 1.967 1.303 3.416zm6.468 1.501c0-.621-.15-1.139-.401-1.553-.301-.518-.702-.776-1.254-.776-.551 0-1.003.258-1.303.776-.251.414-.401.983-.401 1.605 0 .62.15 1.138.4 1.552.301.518.753.777 1.304.777.552 0 .953-.26 1.254-.829.3-.414.4-.983.4-1.552zm1.504-.052c0 1.035-.301 1.863-.852 2.484-.602.673-1.354.984-2.357.984-.953 0-1.705-.31-2.256-.984-.552-.62-.852-1.45-.852-2.432 0-1.035.3-1.864.852-2.536.551-.673 1.354-.983 2.306-.983.953 0 1.705.31 2.256.983.602.672.903 1.5.903 2.484zm10.629-3.26l-2.006 6.572h-1.303l-.853-2.846c-.2-.725-.4-1.45-.5-2.122h-.051c-.1.724-.3 1.449-.501 2.122l-.903 2.846h-1.304l-1.905-6.572h1.454l.702 3.156c.15.725.3 1.45.451 2.123h.05c.1-.57.301-1.243.552-2.123l.903-3.156h1.153l.852 3.105c.2.776.4 1.449.501 2.174h.05c.1-.673.251-1.398.452-2.174l.752-3.105h1.454zm7.37 6.572h-1.404V7.01c0-1.139-.451-1.76-1.304-1.76-.4 0-.752.156-1.002.466-.251.31-.401.673-.401 1.14v3.932h-1.404v-4.71c0-.569 0-1.19-.05-1.862h1.253l.05 1.034h.05c.15-.31.401-.569.752-.776.401-.258.802-.362 1.304-.362.602 0 1.103.207 1.504.62.501.467.752 1.243.752 2.175v3.881h-.1zm2.507-9.575h1.403v9.627H77.96V1.212zm8.272 6.315c0-.621-.15-1.139-.4-1.553-.302-.518-.703-.776-1.254-.776-.552 0-1.003.258-1.304.776-.25.414-.401.983-.401 1.605 0 .62.15 1.138.401 1.552.301.518.752.777 1.304.777.551 0 .952-.26 1.253-.829.301-.414.401-.983.401-1.552zm1.504-.052c0 1.035-.3 1.863-.852 2.484-.602.673-1.354.984-2.356.984-.953 0-1.705-.31-2.257-.984-.551-.62-.852-1.45-.852-2.432 0-1.035.3-1.864.852-2.536.552-.673 1.354-.983 2.307-.983.952 0 1.704.31 2.256.983.601.672.902 1.5.902 2.484zm5.414 1.087V7.527c-1.554-.052-2.356.414-2.356 1.346 0 .362.1.62.25.776.202.155.402.259.703.259.3 0 .602-.104.852-.311.25-.207.451-.466.502-.776l.05-.259zm1.455 2.225H93.35l-.1-.776h-.05c-.451.621-1.053.932-1.855.932-.602 0-1.103-.207-1.454-.621-.351-.363-.502-.828-.502-1.346 0-.828.301-1.397 1.003-1.863.652-.414 1.554-.621 2.758-.621v-.104c0-.88-.451-1.294-1.304-1.294-.652 0-1.203.155-1.655.466l-.3-.983c.601-.363 1.303-.57 2.206-.57 1.654 0 2.507.932 2.507 2.743v2.433c-.1.725-.05 1.242 0 1.604zm6.618-2.743V6.957c0-.207 0-.362-.05-.465-.1-.363-.25-.673-.501-.88-.251-.26-.602-.363-.953-.363-.551 0-.952.207-1.253.673-.301.414-.451.984-.451 1.657 0 .672.15 1.19.451 1.604.3.414.702.673 1.254.673.451 0 .852-.155 1.102-.518.251-.414.401-.828.401-1.294zm1.454 2.743h-1.253l-.05-1.035h-.05c-.401.828-1.103 1.19-2.056 1.19-.752 0-1.404-.31-1.905-.931-.501-.621-.752-1.449-.752-2.432 0-1.087.25-1.916.852-2.589.552-.62 1.204-.931 1.956-.931.852 0 1.453.31 1.804.88h.051V1.161h1.403v7.867a10.3 10.3 0 000 1.76zm10.679-3.26c0-.621-.15-1.139-.401-1.553-.301-.518-.702-.776-1.253-.776-.552 0-1.003.258-1.304.776-.251.414-.401.983-.401 1.605 0 .62.15 1.138.401 1.552.301.518.752.777 1.304.777.551 0 .952-.26 1.253-.829.251-.414.401-.983.401-1.552zm1.454-.052c0 1.035-.301 1.863-.852 2.484-.602.673-1.354.984-2.356.984-.953 0-1.705-.31-2.257-.984-.551-.62-.852-1.45-.852-2.432 0-1.035.301-1.864.852-2.536.552-.673 1.354-.983 2.307-.983.952 0 1.704.31 2.256.983.652.672.902 1.5.902 2.484zm7.671 3.312h-1.404V7.01c0-1.139-.451-1.76-1.303-1.76-.401 0-.752.156-1.003.466-.251.31-.401.673-.401 1.14v3.932h-1.404v-4.71c0-.569 0-1.19-.05-1.862h1.253l.051 1.034h.05c.15-.31.401-.569.752-.776.401-.258.802-.362 1.303-.362.602 0 1.103.207 1.504.62.502.467.752 1.243.752 2.175v3.881h-.1zm9.527-5.486h-1.555V8.51c0 .828.301 1.242.853 1.242.25 0 .451 0 .651-.051l.051 1.086c-.301.104-.653.155-1.103.155-.552 0-1.003-.155-1.304-.517-.301-.362-.452-.931-.452-1.76V5.353h-1.002V4.266h.953v-1.19l1.403-.414v1.656h1.554l-.049.983zm7.52 5.486h-1.404V7.061c0-1.19-.452-1.76-1.304-1.76-.652 0-1.103.362-1.354 1.035-.05.156-.05.31-.05.518v3.985h-1.404V1.212h1.404v3.986h.05c.452-.725 1.103-1.087 1.906-1.087.601 0 1.053.207 1.454.62.501.518.702 1.243.702 2.226v3.83zm6.418-3.985c0-.414-.101-.828-.251-1.139-.251-.414-.602-.62-1.153-.62-.452 0-.853.206-1.154.62-.25.311-.35.673-.401 1.14h2.959zm1.353.414c0 .26 0 .466-.05.673h-4.262c0 .673.201 1.139.602 1.501.351.31.802.466 1.404.466.652 0 1.203-.104 1.704-.31l.201 1.034c-.602.26-1.304.415-2.156.415-1.002 0-1.755-.311-2.356-.88-.552-.621-.853-1.398-.853-2.433 0-.983.251-1.812.803-2.484.551-.725 1.303-1.035 2.256-1.035.902 0 1.604.362 2.105 1.035.401.465.602 1.19.602 2.018z" fill="#fff"/></svg>