<svg width="153" height="39" fill="none" xmlns="http://www.w3.org/2000/svg"><path d="M49.522 5.34c0 1.174-.327 2.108-.982 2.804-.744.829-1.714 1.243-2.907 1.243-1.142 0-2.112-.42-2.911-1.26-.8-.841-1.199-1.884-1.199-3.127 0-1.244.4-2.286 1.199-3.127.799-.84 1.77-1.261 2.911-1.261.567 0 1.11.118 1.624.352.515.235.929.548 1.238.939l-.696.739c-.523-.665-1.245-.997-2.166-.997-.833 0-1.552.31-2.16.932-.608.622-.912 1.43-.912 2.423 0 .993.304 1.8.912 2.423.608.622 1.327.932 2.16.932.884 0 1.62-.312 2.21-.938.383-.407.604-.974.663-1.702h-2.873V4.707h3.834c.037.22.055.43.055.634z" fill="#fff"/><path d="M49.522 5.34h-.047c0 1.164-.323 2.083-.969 2.77-.736.819-1.69 1.227-2.873 1.227-1.131 0-2.087-.413-2.878-1.245-.791-.833-1.184-1.86-1.185-3.092 0-1.233.394-2.26 1.185-3.091.79-.833 1.747-1.246 2.878-1.247.56 0 1.096.116 1.606.348.509.233.916.54 1.22.925l.036-.032-.034-.035-.695.738.033.036.036-.033c-.532-.676-1.27-1.014-2.202-1.014-.844 0-1.578.316-2.193.946-.617.632-.926 1.455-.926 2.459s.309 1.827.926 2.458c.616.63 1.35.947 2.193.947.894 0 1.645-.318 2.243-.953.392-.417.617-.997.677-1.732l.004-.054H45.68v-.91h3.787v-.05l-.047.01c.037.216.055.424.055.625h.094c0-.208-.018-.421-.056-.643l-.007-.041h-3.92v1.108h2.92v-.05l-.047-.003c-.059.719-.276 1.272-.65 1.67-.581.616-1.303.923-2.176.923-.822 0-1.527-.304-2.128-.918-.598-.613-.897-1.404-.897-2.387 0-.982.299-1.774.897-2.387.6-.614 1.306-.918 2.128-.918.91 0 1.615.326 2.13.979l.033.041.762-.81-.028-.034c-.314-.398-.734-.715-1.254-.953a3.927 3.927 0 00-1.643-.356c-1.153 0-2.138.426-2.944 1.276-.808.85-1.213 1.907-1.213 3.162s.405 2.313 1.213 3.162c.806.85 1.791 1.276 2.944 1.275 1.202 0 2.188-.42 2.94-1.258l-.033-.035.032.036c.666-.707.997-1.657.997-2.84h-.047zM55.6 1.832h-3.603v2.663h3.248v1.01h-3.248v2.663h3.602V9.2h-4.618V.8h4.618v1.032z" fill="#fff"/><path d="M55.6 1.832v-.05h-3.65v2.763h3.249v.91h-3.25v2.762h3.604v.933h-4.525V.85h4.525v.982h.093V.75h-4.712v8.5h4.712V8.118h-3.602V5.554h3.248V4.446h-3.248V1.882h3.602v-.05H55.6zM59.886 9.2H58.87V1.832h-2.21V.8h5.437v1.032h-2.21V9.2z" fill="#fff"/><path d="M59.886 9.2v-.05h-.97V1.782h-2.21V.85h5.343v.932h-2.21V9.2h.094V1.882h2.21V.75h-5.53v1.132h2.209V9.25h1.11V9.2h-.046zm6.143 0V.8h1.016v8.4H66.03z" fill="#fff"/><path d="M66.029 9.2h.047V.85h.922v8.3h-.969v.1h1.063V.75h-1.11v8.5h.047V9.2zm5.525 0h-1.017V1.832h-2.209V.8h5.436v1.032h-2.21V9.2z" fill="#fff"/><path d="M71.554 9.2v-.05h-.97V1.782h-2.21V.85h5.343v.932h-2.21V9.2h.094V1.882h2.21V.75h-5.53v1.132h2.21V9.25h1.11V9.2h-.047zm7.452-1.79c.585.63 1.301.945 2.148.945.848 0 1.565-.314 2.15-.944.585-.63.879-1.434.879-2.411 0-.977-.294-1.782-.88-2.411-.584-.63-1.301-.944-2.149-.944-.847 0-1.563.314-2.148.944-.585.63-.879 1.434-.879 2.411 0 .977.294 1.782.879 2.41zm5.05.705c-.778.848-1.745 1.272-2.902 1.272-1.156 0-2.123-.424-2.9-1.272C77.478 7.266 77.09 6.228 77.09 5c0-1.228.388-2.266 1.166-3.115.776-.849 1.743-1.273 2.9-1.273 1.15 0 2.114.426 2.895 1.279.78.852 1.171 1.889 1.171 3.109 0 1.228-.39 2.266-1.165 3.115z" fill="#fff"/><path d="M79.005 7.41l-.033.036c.593.639 1.324.96 2.182.959.858 0 1.59-.32 2.183-.96.595-.638.893-1.457.892-2.445 0-.988-.297-1.807-.892-2.446-.593-.639-1.325-.96-2.183-.959-.858 0-1.589.32-2.182.959-.594.639-.892 1.458-.892 2.446 0 .988.298 1.807.892 2.446l.033-.035.034-.035c-.576-.62-.865-1.409-.865-2.376 0-.967.289-1.756.865-2.376.578-.62 1.279-.929 2.115-.93.837.001 1.54.31 2.116.93.577.62.866 1.409.866 2.376 0 .967-.29 1.756-.866 2.376-.577.62-1.28.929-2.116.93-.836-.001-1.537-.31-2.115-.93l-.034.035zm5.05.705l-.033-.035c-.77.84-1.722 1.257-2.868 1.257s-2.098-.417-2.866-1.257c-.77-.84-1.151-1.863-1.152-3.08 0-1.216.383-2.24 1.152-3.08.768-.84 1.72-1.257 2.866-1.258 1.14 0 2.089.42 2.862 1.264.772.844 1.157 1.865 1.158 3.074 0 1.216-.384 2.24-1.152 3.08l.033.035.034.034c.784-.857 1.179-1.91 1.179-3.149 0-1.231-.396-2.283-1.184-3.144-.79-.861-1.769-1.295-2.93-1.294-1.167 0-2.149.43-2.933 1.29-.786.856-1.18 1.91-1.179 3.148 0 1.239.393 2.292 1.179 3.15.784.857 1.766 1.288 2.933 1.287 1.167 0 2.15-.43 2.935-1.288l-.034-.034zM86.647 9.2V.8h1.237l3.845 6.535h.044l-.044-1.62V.8h1.017v8.4h-1.06l-4.023-6.851h-.044l.044 1.619V9.2h-1.016z" fill="#fff"/><path d="M86.647 9.2h.047V.85h1.165l3.844 6.534h.119l-.046-1.67V.85h.924v8.3h-.989L87.69 2.3h-.119l.045 1.668V9.15h-.969v.1h1.063V3.967l-.044-1.62-.047.002v.05h.018l4.022 6.85h1.134V.75h-1.11v4.966l.043 1.62.047-.001v-.05h-.017L87.91.75H86.6v8.5h.046V9.2zM127.998 33h2.46V15.498h-2.46V33zm22.16-11.197l-2.82 7.588h-.085l-2.927-7.588h-2.65l4.389 10.605-2.502 5.9h2.566l6.764-16.505h-2.735zm-13.954 9.21c-.806 0-1.929-.429-1.929-1.487 0-1.351 1.399-1.869 2.608-1.869 1.081 0 1.59.248 2.248.586-.191 1.62-1.506 2.77-2.927 2.77zm.297-9.593c-1.781 0-3.626.833-4.389 2.68l2.184.968c.466-.969 1.336-1.284 2.248-1.284 1.272 0 2.566.81 2.587 2.252v.18c-.445-.27-1.4-.676-2.566-.676-2.354 0-4.75 1.374-4.75 3.941 0 2.342 1.929 3.85 4.093 3.85 1.654 0 2.565-.788 3.138-1.71h.085v1.35h2.375v-6.71c0-3.107-2.184-4.84-5.005-4.84zm-15.204 2.513h-3.499v-5.999h3.499c1.839 0 2.884 1.617 2.884 3 0 1.356-1.045 3-2.884 3zm-.064-8.435h-5.895V33h2.46v-6.63h3.435c2.727 0 5.408-2.097 5.408-5.436 0-3.34-2.681-5.436-5.408-5.436zM89.086 31.015c-1.699 0-3.122-1.511-3.122-3.586 0-2.098 1.423-3.631 3.122-3.631 1.678 0 2.995 1.534 2.995 3.631 0 2.075-1.317 3.586-2.995 3.586zm2.825-8.232h-.085c-.552-.7-1.614-1.33-2.952-1.33-2.804 0-5.375 2.616-5.375 5.976 0 3.338 2.57 5.932 5.375 5.932 1.338 0 2.4-.632 2.953-1.354h.084v.858c0 2.278-1.147 3.496-2.995 3.496-1.508 0-2.442-1.15-2.825-2.12l-2.146.947c.617 1.579 2.252 3.519 4.971 3.519 2.889 0 5.332-1.805 5.332-6.203V21.813h-2.337v.97zM95.947 33h2.465V15.498h-2.465V33zm6.097-5.774c-.064-2.3 1.678-3.473 2.931-3.473.977 0 1.806.518 2.082 1.263l-5.013 2.21zm7.647-1.985c-.467-1.33-1.891-3.789-4.801-3.789-2.889 0-5.289 2.414-5.289 5.955 0 3.338 2.379 5.954 5.565 5.954 2.571 0 4.058-1.67 4.673-2.639l-1.911-1.353c-.637.992-1.508 1.646-2.762 1.646-1.253 0-2.145-.609-2.719-1.804l7.499-3.293-.255-.677zm-59.74-1.962v2.526h5.693c-.17 1.421-.616 2.459-1.296 3.18-.828.88-2.124 1.85-4.397 1.85-3.505 0-6.245-3-6.245-6.722 0-3.72 2.74-6.72 6.245-6.72 1.89 0 3.271.789 4.29 1.804l1.68-1.782c-1.424-1.443-3.314-2.549-5.97-2.549-4.8 0-8.837 4.15-8.837 9.247 0 5.098 4.036 9.248 8.837 9.248 2.592 0 4.546-.902 6.075-2.594 1.572-1.669 2.06-4.014 2.06-5.91 0-.585-.041-1.127-.127-1.578h-8.008zm14.608 7.736c-1.7 0-3.165-1.488-3.165-3.608 0-2.143 1.465-3.61 3.165-3.61s3.165 1.467 3.165 3.61c0 2.12-1.466 3.608-3.165 3.608zm0-9.563c-3.102 0-5.63 2.504-5.63 5.955 0 3.428 2.528 5.954 5.63 5.954 3.1 0 5.628-2.526 5.628-5.954 0-3.451-2.527-5.955-5.628-5.955zm12.28 9.563c-1.7 0-3.165-1.488-3.165-3.608 0-2.143 1.465-3.61 3.164-3.61 1.7 0 3.165 1.467 3.165 3.61 0 2.12-1.465 3.608-3.165 3.608zm0-9.563c-3.102 0-5.63 2.504-5.63 5.955 0 3.428 2.528 5.954 5.63 5.954 3.1 0 5.629-2.526 5.629-5.954 0-3.451-2.528-5.955-5.63-5.955z" fill="#fff"/><mask id="a" style="mask-type:luminance" maskUnits="userSpaceOnUse" x="0" y="1" width="18" height="36"><path d="M.857 36.345l-.098-.1c-.383-.43-.61-1.1-.61-1.966v.204V3.512v.213c0-.938.265-1.645.707-2.07l16.336 17.346L.857 36.345z" fill="#fff"/></mask><g mask="url(#a)"><path d="M.857 36.345l-.098-.1c-.383-.43-.61-1.1-.61-1.966v.204V3.512v.213c0-.938.265-1.645.707-2.07l16.336 17.346L.857 36.345z" fill="url(#paint0_linear_107_162)"/></g><mask id="b" style="mask-type:luminance" maskUnits="userSpaceOnUse" x="17" y="13" width="14" height="12"><path d="M22.637 24.99l.124-.075 6.451-3.892c.594-.358.996-.79 1.207-1.248-.21.458-.613.89-1.207 1.248l-6.451 3.893-.124.074zm.001-.205L17.192 19l5.446-5.783 6.574 3.966c.835.504 1.304 1.153 1.382 1.816v.003c-.078.662-.547 1.311-1.382 1.815l-6.574 3.967z" fill="#fff"/></mask><g mask="url(#b)"><path d="M22.637 24.99l.124-.075 6.451-3.892c.594-.358.996-.79 1.207-1.248-.21.458-.613.89-1.207 1.248l-6.451 3.893-.124.074zm.001-.205L17.192 19l5.446-5.783 6.574 3.966c.835.504 1.304 1.153 1.382 1.816v.003c-.078.662-.547 1.311-1.382 1.815l-6.574 3.967z" fill="url(#paint1_linear_107_162)"/></g><mask id="c" style="mask-type:luminance" maskUnits="userSpaceOnUse" x="0" y="19" width="23" height="19"><path d="M2.022 37.006a1.64 1.64 0 00.001 0 2.035 2.035 0 00-.001 0zm0-.205c-.456 0-.854-.158-1.165-.455L17.192 19l5.446 5.784L3.499 36.33c-.53.319-1.03.47-1.477.47zm-1.17-.256a1.58 1.58 0 01-.084-.086l.084.086z" fill="#fff"/></mask><g mask="url(#c)"><path d="M2.022 37.006a1.64 1.64 0 00.001 0 2.035 2.035 0 00-.001 0zm0-.205c-.456 0-.854-.158-1.165-.455L17.192 19l5.446 5.784L3.499 36.33c-.53.319-1.03.47-1.477.47zm-1.17-.256a1.58 1.58 0 01-.084-.086l.084.086z" fill="url(#paint2_linear_107_162)"/></g><mask id="d" style="mask-type:luminance" maskUnits="userSpaceOnUse" x="0" y="0" width="23" height="20"><path d="M17.192 19.001L.856 1.656c.31-.298.708-.455 1.164-.455.446 0 .949.151 1.48.471l19.138 11.546-5.446 5.783zm5.569-5.913L3.498 1.468c-.53-.32-1.033-.472-1.48-.472h-.01.012c.446 0 .948.152 1.478.471l19.262 11.62" fill="#fff"/></mask><g mask="url(#d)"><path d="M17.192 19.001L.856 1.656c.31-.298.708-.455 1.164-.455.446 0 .949.151 1.48.471l19.138 11.546-5.446 5.783zm5.569-5.913L3.498 1.468c-.53-.32-1.033-.472-1.48-.472h-.01.012c.446 0 .948.152 1.478.471l19.262 11.62" fill="url(#paint3_linear_107_162)"/></g><path d="M2.236 36.995c.39-.04.817-.19 1.263-.46L22.637 24.99 3.498 36.535c-.446.27-.873.42-1.263.46zm-1.38-.444l-.004-.006c.001.003.003.004.005.006zm-.088-.092l-.009-.009.009.009z" fill="#100F0D"/><mask id="e" style="mask-type:luminance" maskUnits="userSpaceOnUse" x="22" y="24" width="1" height="1"><path d="M22.637 24.99l.124-.074-.124.074" fill="#fff"/></mask><g mask="url(#e)"><path d="M22.637 24.99l.124-.074-.124.074" fill="url(#paint4_linear_107_162)"/></g><mask id="f" style="mask-type:luminance" maskUnits="userSpaceOnUse" x="0" y="24" width="23" height="14"><path d="M2.023 37.006a1.64 1.64 0 01-1.165-.456H.857l-.005-.005-.084-.086-.008-.01.098-.103c.31.297.708.455 1.165.455.446 0 .947-.151 1.476-.47l19.139-11.547.123.13-.124.076L3.498 36.535c-.446.27-.873.42-1.263.46a2.035 2.035 0 01-.213.01z" fill="#fff"/></mask><g mask="url(#f)"><path d="M2.023 37.006a1.64 1.64 0 01-1.165-.456H.857l-.005-.005-.084-.086-.008-.01.098-.103c.31.297.708.455 1.165.455.446 0 .947-.151 1.476-.47l19.139-11.547.123.13-.124.076L3.498 36.535c-.446.27-.873.42-1.263.46a2.035 2.035 0 01-.213.01z" fill="url(#paint5_linear_107_162)"/></g><path d="M.76 36.45c-.384-.431-.611-1.1-.611-1.967 0 .867.227 1.535.61 1.967z" fill="#100F0D"/><mask id="g" style="mask-type:luminance" maskUnits="userSpaceOnUse" x="0" y="34" width="1" height="3"><path d="M.76 36.45c-.384-.432-.611-1.1-.611-1.967v-.204c0 .867.227 1.536.61 1.967l.098.1-.098.104z" fill="#fff"/></mask><g mask="url(#g)"><path d="M.76 36.45c-.384-.432-.611-1.1-.611-1.967v-.204c0 .867.227 1.536.61 1.967l.098.1-.098.104z" fill="url(#paint6_linear_107_162)"/></g><mask id="h" style="mask-type:luminance" maskUnits="userSpaceOnUse" x="0" y="36" width="1" height="1"><path d="M.76 36.45l.098-.104-.098.104z" fill="#fff"/></mask><g mask="url(#h)"><path d="M.76 36.45l.098-.104-.098.104z" fill="url(#paint7_linear_107_162)"/></g><mask id="i" style="mask-type:luminance" maskUnits="userSpaceOnUse" x="22" y="19" width="9" height="6"><path d="M22.76 24.915l-.122-.13 6.574-3.967c.835-.504 1.303-1.153 1.382-1.815 0 .26-.059.52-.175.772-.211.458-.614.89-1.207 1.248l-6.451 3.892z" fill="#fff"/></mask><g mask="url(#i)"><path d="M22.76 24.915l-.122-.13 6.574-3.967c.835-.504 1.303-1.153 1.382-1.815 0 .26-.059.52-.175.772-.211.458-.614.89-1.207 1.248l-6.451 3.892z" fill="url(#paint8_linear_107_162)"/></g><path d="M30.594 19.001c0-.733-.462-1.465-1.382-2.02l-6.451-3.893 6.45 3.892c.922.555 1.384 1.289 1.383 2.021z" fill="#3A3A3B"/><mask id="j" style="mask-type:luminance" maskUnits="userSpaceOnUse" x="22" y="13" width="9" height="6"><path d="M30.594 19c-.079-.663-.547-1.312-1.382-1.816l-6.574-3.966.122-.13 6.452 3.892c.92.556 1.381 1.288 1.382 2.02z" fill="#fff"/></mask><g mask="url(#j)"><path d="M30.594 19c-.079-.663-.547-1.312-1.382-1.816l-6.574-3.966.122-.13 6.452 3.892c.92.556 1.381 1.288 1.382 2.02z" fill="url(#paint9_linear_107_162)"/></g><path d="M.156 3.266v-.002.002zm0-.024C.242 1.822.975 1.002 2.01.997c-.451.003-.845.16-1.152.455l-.005.004C.82 1.487.79 1.52.76 1.553c-.342.384-.56.957-.603 1.69z" fill="#3A3A3B"/><mask id="k" style="mask-type:luminance" maskUnits="userSpaceOnUse" x="0" y="1" width="1" height="3"><path d="M.149 3.725v-.213c0-.084.003-.166.007-.246v-.015l.001-.008c.044-.734.26-1.306.602-1.69l.097.103C.414 2.079.15 2.786.15 3.726zm.703-2.269l.005-.004-.005.004z" fill="#fff"/></mask><g mask="url(#k)"><path d="M.149 3.725v-.213c0-.084.003-.166.007-.246v-.015l.001-.008c.044-.734.26-1.306.602-1.69l.097.103C.414 2.079.15 2.786.15 3.726zm.703-2.269l.005-.004-.005.004z" fill="url(#paint10_linear_107_162)"/></g><mask id="l" style="mask-type:luminance" maskUnits="userSpaceOnUse" x="0" y="0" width="23" height="14"><path d="M22.638 13.218L3.499 1.672c-.53-.32-1.032-.47-1.479-.47a1.64 1.64 0 00-1.164.454L.76 1.553a1.71 1.71 0 01.093-.097l.005-.004A1.638 1.638 0 012.009.997h.01c.448 0 .95.151 1.48.471l19.262 11.62-.123.13z" fill="#fff"/></mask><g mask="url(#l)"><path d="M22.638 13.218L3.499 1.672c-.53-.32-1.032-.47-1.479-.47a1.64 1.64 0 00-1.164.454L.76 1.553a1.71 1.71 0 01.093-.097l.005-.004A1.638 1.638 0 012.009.997h.01c.448 0 .95.151 1.48.471l19.262 11.62-.123.13z" fill="url(#paint11_linear_107_162)"/></g><defs><linearGradient id="paint0_linear_107_162" x1="15.743" y1="3.193" x2="-7.71" y2="25.282" gradientUnits="userSpaceOnUse"><stop stop-color="#5797D7"/><stop offset=".007" stop-color="#5898D8"/><stop offset=".26" stop-color="#60BFEE"/><stop offset=".512" stop-color="#63CDF4"/><stop offset=".76" stop-color="#6CCFEC"/><stop offset="1" stop-color="#6FD0EA"/></linearGradient><linearGradient id="paint1_linear_107_162" x1="31.611" y1="19.002" x2="-.293" y2="19.002" gradientUnits="userSpaceOnUse"><stop stop-color="#F9E105"/><stop offset=".409" stop-color="#FAB60A"/><stop offset=".775" stop-color="#F89B0F"/><stop offset="1" stop-color="#F79110"/></linearGradient><linearGradient id="paint2_linear_107_162" x1="19.735" y1="22.214" x2="-12.07" y2="52.168" gradientUnits="userSpaceOnUse"><stop stop-color="#EF2A43"/><stop offset="1" stop-color="#C31362"/></linearGradient><linearGradient id="paint3_linear_107_162" x1="-3.379" y1="-8.753" x2="10.823" y2="4.622" gradientUnits="userSpaceOnUse"><stop stop-color="#3DA56B"/><stop offset=".069" stop-color="#3CAD6A"/><stop offset=".476" stop-color="#4EBF65"/><stop offset=".801" stop-color="#5AC35D"/><stop offset="1" stop-color="#60C55A"/></linearGradient><linearGradient id="paint4_linear_107_162" x1="31.655" y1="19.052" x2="-.406" y2="19.052" gradientUnits="userSpaceOnUse"><stop stop-color="#C3B218"/><stop offset=".409" stop-color="#C6931A"/><stop offset=".775" stop-color="#C97D1B"/><stop offset="1" stop-color="#C9741B"/></linearGradient><linearGradient id="paint5_linear_107_162" x1="19.735" y1="22.214" x2="-12.069" y2="52.168" gradientUnits="userSpaceOnUse"><stop stop-color="#CD2334"/><stop offset="1" stop-color="#99164D"/></linearGradient><linearGradient id="paint6_linear_107_162" x1="15.743" y1="3.194" x2="-7.71" y2="25.282" gradientUnits="userSpaceOnUse"><stop stop-color="#4688CF"/><stop offset=".007" stop-color="#4688CF"/><stop offset=".26" stop-color="#4AAAE3"/><stop offset=".512" stop-color="#4CBEE4"/><stop offset=".76" stop-color="#53C7DF"/><stop offset="1" stop-color="#54C7DC"/></linearGradient><linearGradient id="paint7_linear_107_162" x1="19.828" y1="22.266" x2="-11.877" y2="52.381" gradientUnits="userSpaceOnUse"><stop stop-color="#E12439"/><stop offset="1" stop-color="#AB1556"/></linearGradient><linearGradient id="paint8_linear_107_162" x1="31.611" y1="19.002" x2="-.293" y2="19.002" gradientUnits="userSpaceOnUse"><stop stop-color="#D8C411"/><stop offset=".409" stop-color="#DBA114"/><stop offset=".775" stop-color="#DD8917"/><stop offset="1" stop-color="#DE7F18"/></linearGradient><linearGradient id="paint9_linear_107_162" x1="31.611" y1="19.002" x2="-.293" y2="19.002" gradientUnits="userSpaceOnUse"><stop stop-color="#F8EA27"/><stop offset=".409" stop-color="#FCCB28"/><stop offset=".775" stop-color="#FAB42A"/><stop offset="1" stop-color="#F9AB2B"/></linearGradient><linearGradient id="paint10_linear_107_162" x1="15.743" y1="3.193" x2="-7.71" y2="25.281" gradientUnits="userSpaceOnUse"><stop stop-color="#6CB7E8"/><stop offset=".007" stop-color="#6CB8E8"/><stop offset=".26" stop-color="#6CD0F6"/><stop offset=".512" stop-color="#75D2F0"/><stop offset=".76" stop-color="#7DD5EB"/><stop offset="1" stop-color="#7ED5E9"/></linearGradient><linearGradient id="paint11_linear_107_162" x1="-3.378" y1="-8.753" x2="10.824" y2="4.622" gradientUnits="userSpaceOnUse"><stop stop-color="#64BF8C"/><stop offset=".069" stop-color="#63C58C"/><stop offset=".476" stop-color="#69C982"/><stop offset=".801" stop-color="#6FCB7D"/><stop offset="1" stop-color="#70CB79"/></linearGradient></defs></svg>