<svg width="19" height="20" fill="none" xmlns="http://www.w3.org/2000/svg"><path d="M16.234 5.627v-.605l-.427.428L2.424 18.87c-.256.257-.551.38-.898.38-.346 0-.64-.123-.897-.38a1.219 1.219 0 01-.379-.898c0-.345.123-.64.38-.896L14.05 3.693l.428-.427H2.413c-.365 0-.658-.12-.899-.36-.239-.24-.36-.534-.36-.898s.121-.658.36-.898c.24-.24.534-.36.899-.36h15.08c.364 0 .657.12.896.36.24.24.361.534.361.898v15.08c0 .363-.12.657-.36.896h-.001c-.24.24-.533.361-.897.361s-.657-.12-.896-.36l-.001-.001c-.24-.24-.36-.533-.36-.897V5.627z" fill="#0A0F2B" stroke="#fff" stroke-width=".5"/></svg>