<svg width="90" height="91" fill="none" xmlns="http://www.w3.org/2000/svg"><path d="M87.164 35.828l-5.952-1.116c-.744-2.232-1.488-4.464-2.976-6.696l3.72-4.836c1.116-1.488.744-3.348-.372-4.836l-8.556-8.556c-1.116-1.116-3.348-1.488-4.836-.372l-4.836 3.348c-2.232-1.116-4.836-2.232-7.44-2.976L54.8 3.836C54.428 1.976 52.94.86 51.08.86H38.804c-1.86 0-3.348 1.488-3.72 2.976l-.744 5.952c-2.232.372-4.836 1.488-7.068 2.976l-4.464-3.348C21.32 8.3 19.46 8.3 17.972 9.788l-8.556 8.556C8.3 19.46 7.928 21.692 9.044 23.18l3.348 4.464c-1.488 2.232-2.232 4.836-2.976 7.44l-5.58.744C1.976 36.2.86 37.688.86 39.548v12.276c0 1.86 1.488 3.348 2.976 3.72l5.58.744c.744 2.604 1.86 4.836 2.976 7.44l-2.976 4.464C8.3 69.68 8.3 71.54 9.788 73.028l8.556 8.556c1.116 1.116 3.348 1.488 4.836.372l4.464-3.348c2.232 1.116 4.464 2.232 6.696 2.976l.744 5.58c.372 1.86 1.86 2.976 3.72 2.976H51.08c1.86 0 3.348-1.488 3.72-2.976l.744-5.58c2.604-.744 4.836-1.86 7.068-2.976l4.836 3.348c1.488 1.116 3.72.744 4.836-.372l8.556-8.556c1.116-1.116 1.488-3.348.372-4.836l-3.348-4.836c1.116-2.232 2.232-4.464 2.976-6.696l5.952-1.116c1.86-.372 2.976-1.86 2.976-3.72V39.548c.372-1.86-1.116-3.348-2.604-3.72zM67.076 62.984c-3.348-4.092-7.44-7.068-12.648-8.928-.744-.372-1.488 0-1.86 0-2.232.744-4.464 1.488-6.696 1.488-2.232 0-4.836-.372-6.696-1.488-.744-.372-1.488-.372-1.86 0-5.208 1.86-9.672 4.836-12.648 8.928-3.72-4.836-5.952-10.788-5.952-17.112 0-15.252 12.276-27.9 27.9-27.9 15.252 0 27.528 12.276 27.528 27.9-1.116 6.324-3.348 12.276-7.068 17.112z" fill="#43319E"/></svg>