<svg width="96" height="96" fill="none" xmlns="http://www.w3.org/2000/svg"><path d="M27 7.77L16.77 18H27V7.77z" fill="#43319E"/><path d="M24 69v-6h12v-9H24v-6h12.93a9.002 9.002 0 015.22-4.53l18-6a8.7 8.7 0 015.7 0H66V6a3 3 0 00-3-3H33v18a3 3 0 01-3 3H12v54a3 3 0 003 3h24.81a35.668 35.668 0 01-3.57-12H24zm0-36h24v6H24v-6z" fill="#43319E"/><path d="M81.96 49.14l-18-6a3.48 3.48 0 00-1.92 0l-18 6A3 3 0 0042 51.99v13.05A29.31 29.31 0 0062.04 93a3 3 0 001.92 0A29.31 29.31 0 0084 65.04V51.99a3 3 0 00-2.04-2.85zM63.21 70.86a3 3 0 01-4.23 0l-5.82-5.79 4.23-4.26 3.72 3.69 7.5-7.5 4.23 4.26-9.63 9.6z" fill="#43319E"/></svg>