<svg width="79" height="68" fill="none" xmlns="http://www.w3.org/2000/svg"><g clip-path="url(#clip0_177_3700)"><path d="M5.76.75h24.688c2.872 0 5.01 1.99 5.01 4.208v12.75c0 2.219-2.138 4.209-5.01 4.209H5.76c-2.871 0-5.01-1.99-5.01-4.209V4.958C.75 2.74 2.889.75 5.76.75zm0 28.333h24.688c2.872 0 5.01 1.99 5.01 4.209v29.75c0 2.218-2.138 4.208-5.01 4.208H5.76c-2.871 0-5.01-1.99-5.01-4.208v-29.75c0-2.219 2.139-4.209 5.01-4.209zm42.792 17H73.24c2.871 0 5.01 1.99 5.01 4.209v12.75c0 2.218-2.139 4.208-5.01 4.208H48.552c-2.872 0-5.01-1.99-5.01-4.208v-12.75c0-2.219 2.138-4.209 5.01-4.209zm0-45.333H73.24c2.871 0 5.01 1.99 5.01 4.208v29.75c0 2.219-2.139 4.209-5.01 4.209H48.552c-2.872 0-5.01-1.99-5.01-4.209V4.958c0-2.218 2.138-4.208 5.01-4.208z" fill="#43319E" stroke="#060D19" stroke-width="1.5"/></g><defs><clipPath id="clip0_177_3700"><path fill="#fff" d="M0 0h79v68H0z"/></clipPath></defs></svg>