<svg width="83" height="83" fill="none" xmlns="http://www.w3.org/2000/svg"><g clip-path="url(#clip0_177_3689)" fill="#fff"><path d="M82.869 57.012L78.215 41.5l4.654-15.512c.468-1.56-.7-3.13-2.33-3.13H2.46a2.432 2.432 0 00-2.329 3.13L4.785 41.5.131 57.012c-.468 1.56.7 3.13 2.33 3.13H80.54a2.432 2.432 0 002.329-3.13zm-67.128-5.38a2.027 2.027 0 01-2.026-2.026V33.394c0-1.118.907-2.026 2.026-2.026h6.57a2.027 2.027 0 010 4.053h-4.544v3.9h4.023a2.027 2.027 0 010 4.052h-4.023v6.233a2.026 2.026 0 01-2.026 2.026zm23.99-.505a2.019 2.019 0 01-2.173.326 2.021 2.021 0 01-.687-.509l-5.217-5.927v4.589a2.027 2.027 0 01-4.053 0V33.395c0-1.12.908-2.027 2.027-2.027h4.313c3.572 0 6.478 2.8 6.478 6.24 0 2.82-1.954 5.208-4.626 5.978l4.12 4.68c.74.84.658 2.121-.182 2.86zm12.938.505h-6.83a2.027 2.027 0 01-2.027-2.026V33.395c0-1.12.908-2.027 2.027-2.027h6.83a2.027 2.027 0 010 4.053h-4.804v4.053h4.3a2.027 2.027 0 010 4.053h-4.3v4.053h4.804a2.027 2.027 0 010 4.052zm14.59 0h-6.83a2.027 2.027 0 01-2.027-2.026V33.394c0-1.118.908-2.026 2.027-2.026h6.83a2.027 2.027 0 010 4.053h-4.804v4.053h4.3a2.027 2.027 0 010 4.053h-4.3v4.052h4.804a2.027 2.027 0 010 4.053z"/><path d="M33.94 35.421h-2.274c.002.856.008 3.563.012 4.381.839-.004 1.736-.007 2.263-.007 1.315 0 2.425-1.002 2.425-2.187 0-1.185-1.11-2.187-2.425-2.187z"/></g><defs><clipPath id="clip0_177_3689"><path fill="#fff" d="M0 0h83v83H0z"/></clipPath></defs></svg>