<svg width="87" height="87" fill="none" xmlns="http://www.w3.org/2000/svg"><g clip-path="url(#clip0_177_3671)"><path d="M57.208 58.24c.202-2.12.14-4.233-.166-6.296l4.768-2.125a31.492 31.492 0 00-2.14-6.793 31.668 31.668 0 00-3.616-6.135l-4.771 2.124a26.128 26.128 0 00-4.568-4.333l1.87-4.873a31.603 31.603 0 00-13.21-5.076l-1.872 4.877a26.042 26.042 0 00-6.296.166l-2.113-4.744A31.524 31.524 0 0012.18 30.82l2.098 4.713a26.09 26.09 0 00-4.336 4.568l-4.86-1.864a30.986 30.986 0 00-3.305 6.313A31.898 31.898 0 000 51.443l4.873 1.87a26.04 26.04 0 00.166 6.296L.27 61.732a31.467 31.467 0 002.14 6.793 31.63 31.63 0 003.617 6.135l4.768-2.124a26.035 26.035 0 004.57 4.335l-1.87 4.876a31.523 31.523 0 0013.21 5.076l1.872-4.877c2.12.2 4.234.139 6.296-.168l2.113 4.743a31.519 31.519 0 0012.917-5.789l-2.1-4.713a26.087 26.087 0 004.336-4.568l4.857 1.864a31.016 31.016 0 003.304-6.311 31.55 31.55 0 001.782-6.895l-4.875-1.869zm-12.953 2.607a14.156 14.156 0 01-26.43-10.14 14.154 14.154 0 0126.43 10.14zm39.353-41.464c0-.944-.097-1.869-.263-2.766L87 14.506a19.181 19.181 0 00-5.046-8.76L78.29 7.864A15.058 15.058 0 0073.5 5.1V.874a19.07 19.07 0 00-5.054-.696c-1.75 0-3.44.257-5.055.696v4.229a15.106 15.106 0 00-4.79 2.761l-3.665-2.116a19.224 19.224 0 00-5.046 8.76l3.656 2.11c-.166.9-.264 1.82-.264 2.767 0 .946.098 1.868.264 2.766l-3.656 2.111a19.215 19.215 0 005.046 8.759l3.664-2.116a15.074 15.074 0 004.79 2.762v4.228c1.615.441 3.304.696 5.054.696 1.75 0 3.442-.256 5.054-.696v-4.228a15.088 15.088 0 004.79-2.762l3.664 2.116a19.181 19.181 0 005.046-8.759l-3.654-2.11c.173-.914.261-1.84.264-2.769zm-15.16 7.078a7.078 7.078 0 11-.004-14.156 7.078 7.078 0 01.003 14.156z" fill="#43319E"/></g><defs><clipPath id="clip0_177_3671"><path fill="#fff" d="M0 0h87v87H0z"/></clipPath></defs></svg>