<svg width="20" height="21" fill="none" xmlns="http://www.w3.org/2000/svg"><path d="M10 20.52a9.67 9.67 0 01-3.875-.788 10.124 10.124 0 01-3.187-2.15 10.125 10.125 0 01-2.15-3.188A9.67 9.67 0 010 10.52a9.64 9.64 0 01.788-3.887 10.164 10.164 0 012.15-3.175 10.14 10.14 0 013.187-2.151A9.681 9.681 0 0110 .52a9.65 9.65 0 013.887.787 10.178 10.178 0 013.175 2.15 10.164 10.164 0 012.15 3.176A9.64 9.64 0 0120 10.52v1.45c0 .983-.337 1.82-1.012 2.511-.675.693-1.505 1.039-2.488 1.039-.6 0-1.158-.134-1.675-.4a3.752 3.752 0 01-1.275-1.05A4.97 4.97 0 0110 15.52c-1.383 0-2.562-.488-3.537-1.463C5.488 13.082 5 11.902 5 10.52c0-1.384.488-2.563 1.463-3.538C7.438 6.007 8.617 5.52 10 5.52s2.563.487 3.538 1.462C14.513 7.957 15 9.136 15 10.52v1.45c0 .483.15.862.45 1.136.3.276.65.414 1.05.414s.75-.138 1.05-.413c.3-.275.45-.654.45-1.137v-1.45c0-2.184-.788-4.063-2.363-5.638C14.062 3.307 12.183 2.52 10 2.52c-2.183 0-4.063.787-5.638 2.362C2.787 6.457 2 8.336 2 10.52c0 2.183.787 4.062 2.362 5.637C5.937 17.732 7.817 18.52 10 18.52h5v2h-5zm0-7c.833 0 1.542-.292 2.125-.875A2.893 2.893 0 0013 10.52c0-.834-.292-1.542-.875-2.125A2.893 2.893 0 0010 7.52a2.89 2.89 0 00-2.125.875A2.893 2.893 0 007 10.52c0 .833.292 1.541.875 2.125A2.893 2.893 0 0010 13.52z" fill="#0A0F2B"/></svg>