<svg width="16" height="15" viewBox="0 0 16 15" fill="none" xmlns="http://www.w3.org/2000/svg">
<path d="M16 9.19343V14.9963H12.5701V9.58394C12.5701 8.22263 12.0753 7.29562 10.8328 7.29562C9.88421 7.29562 9.32248 7.91971 9.07324 8.52555C8.98396 8.74088 8.95792 9.0438 8.95792 9.34671V15H5.52802C5.52802 15 5.57266 5.82847 5.52802 4.87956H8.95792V6.31387C8.95048 6.32482 8.94304 6.33577 8.9356 6.34671H8.95792V6.31387C9.41549 5.62409 10.2265 4.64234 12.0493 4.64234C14.3074 4.63869 16 6.08759 16 9.19343ZM1.94187 0C0.766333 0 0 0.755474 0 1.74818C0 2.71898 0.744013 3.49635 1.89723 3.49635H1.91955C3.11741 3.49635 3.86143 2.71898 3.86143 1.74818C3.83539 0.755474 3.11369 0 1.94187 0ZM0.204604 15H3.6345V4.87591H0.204604V15Z" fill="#1F1F31"/>
</svg>
