<svg width="270" height="45" viewBox="0 0 270 45" fill="none" xmlns="http://www.w3.org/2000/svg">
<path fill-rule="evenodd" clip-rule="evenodd" d="M42.2426 28.6846C39.5682 37.563 31.3284 44.0296 21.5783 44.0296C9.66093 44.0296 0 34.3687 0 22.4513C0 21.8403 0.0253989 21.2352 0.0751985 20.637C1.59633 20.0534 3.06511 19.5328 4.48154 19.0823C12.0832 16.6643 17.3388 16.5474 20.9093 18.6088C22.3441 19.4372 24.1789 18.9456 25.0073 17.5107C25.8358 16.0758 25.3441 14.241 23.9092 13.4126C18.013 10.0084 10.5767 10.8472 2.66278 13.3646C2.40512 13.4465 2.14606 13.5306 1.88562 13.6166C5.26102 6.1044 12.8087 0.873047 21.5783 0.873047C33.3149 0.873047 42.863 10.2431 43.1499 21.9107C41.0759 22.7432 39.0948 23.4683 37.2068 24.0689C29.6052 26.4869 24.3495 26.6037 20.7791 24.5424C19.3442 23.7139 17.5095 24.2056 16.681 25.6404C15.8526 27.0753 16.3442 28.9101 17.7791 29.7385C23.6754 33.1427 31.1117 32.3039 39.0256 29.7866C40.075 29.4528 41.1476 29.0844 42.2426 28.6846Z" fill="#49495A"/>
<path d="M81.9326 30.8775C82.0189 31.0717 82.0621 31.2982 82.0621 31.5572C82.0621 32.0966 81.8463 32.539 81.4147 32.8842C81.0047 33.2295 80.5408 33.4021 80.0229 33.4021C79.6561 33.4021 79.3216 33.305 79.0195 33.1108C78.7174 32.9166 78.5016 32.6145 78.3722 32.2045L76.8509 27.8997H65.6518L63.4508 32.2693C63.2566 32.6361 63.0084 32.9166 62.7063 33.1108C62.4042 33.305 62.0698 33.4021 61.703 33.4021C61.2067 33.4021 60.7643 33.2403 60.3759 32.9166C59.9875 32.5714 59.7933 32.1506 59.7933 31.6543C59.7933 31.2875 59.8796 30.9638 60.0522 30.6833L70.2156 11.5865C70.4529 11.1549 70.7766 10.8205 71.1866 10.5831C71.5966 10.3457 72.0389 10.2271 72.5137 10.2271C72.9884 10.2271 73.42 10.3565 73.8084 10.6155C74.2184 10.8528 74.5097 11.1873 74.6823 11.6188L81.9326 30.8775ZM67.3025 24.6629H75.6857L72.2547 14.9203L67.3025 24.6629Z" fill="#49495A"/>
<path d="M90.8721 13.7551L90.3866 19.9696H98.9963C100.205 19.9696 100.809 20.4875 100.809 21.5233C100.809 22.1275 100.636 22.5806 100.291 22.8827C99.9457 23.1632 99.4279 23.3035 98.7374 23.3035H90.1276L89.4803 31.363C89.4371 31.9887 89.2105 32.4958 88.8006 32.8842C88.4121 33.2511 87.9051 33.4345 87.2793 33.4345C86.6751 33.4345 86.1896 33.2403 85.8227 32.8519C85.4775 32.4635 85.3265 31.9564 85.3696 31.3306L86.8585 12.3633C86.9017 11.7375 87.1067 11.2628 87.4735 10.9391C87.8619 10.5939 88.369 10.4213 88.9948 10.4213H100.388C100.971 10.4213 101.413 10.5615 101.715 10.842C102.039 11.101 102.201 11.4894 102.201 12.0073C102.201 13.1725 101.521 13.7551 100.162 13.7551H90.8721Z" fill="#49495A"/>
<path d="M122.423 30.8775C122.51 31.0717 122.553 31.2982 122.553 31.5572C122.553 32.0966 122.337 32.539 121.906 32.8842C121.496 33.2295 121.032 33.4021 120.514 33.4021C120.147 33.4021 119.813 33.305 119.51 33.1108C119.208 32.9166 118.993 32.6145 118.863 32.2045L117.342 27.8997H106.143L103.942 32.2693C103.747 32.6361 103.499 32.9166 103.197 33.1108C102.895 33.305 102.561 33.4021 102.194 33.4021C101.698 33.4021 101.255 33.2403 100.867 32.9166C100.478 32.5714 100.284 32.1506 100.284 31.6543C100.284 31.2875 100.37 30.9638 100.543 30.6833L110.706 11.5865C110.944 11.1549 111.268 10.8205 111.677 10.5831C112.087 10.3457 112.53 10.2271 113.005 10.2271C113.479 10.2271 113.911 10.3565 114.299 10.6155C114.709 10.8528 115.001 11.1873 115.173 11.6188L122.423 30.8775ZM107.793 24.6629H116.177L112.746 14.9203L107.793 24.6629Z" fill="#49495A"/>
<path d="M149.455 10.4213C149.714 10.4213 149.919 10.5076 150.07 10.6802C150.242 10.8312 150.329 11.0254 150.329 11.2628C150.329 11.5217 150.242 11.7375 150.07 11.9102C149.919 12.0612 149.703 12.1367 149.422 12.1367H137.997L137.317 20.7788H147.998C148.257 20.7788 148.462 20.8651 148.613 21.0378C148.786 21.1888 148.872 21.3938 148.872 21.6528C148.872 21.9117 148.786 22.1275 148.613 22.3001C148.462 22.4511 148.246 22.5267 147.966 22.5267H137.188L136.475 31.5248H147.804C148.063 31.5248 148.268 31.6111 148.419 31.7838C148.592 31.9348 148.678 32.129 148.678 32.3664C148.678 32.6253 148.592 32.8411 148.419 33.0137C148.268 33.1648 148.052 33.2403 147.772 33.2403H135.407C135.062 33.2403 134.803 33.154 134.631 32.9813C134.479 32.7871 134.415 32.5174 134.436 32.1722L136.055 11.3923C136.098 10.7449 136.454 10.4213 137.123 10.4213H149.455Z" fill="#49495A"/>
<path d="M164.671 17.7039C164.887 17.4881 165.124 17.3803 165.383 17.3803C165.62 17.3803 165.836 17.4666 166.03 17.6392C166.224 17.8118 166.322 18.0168 166.322 18.2542C166.322 18.4915 166.235 18.6965 166.063 18.8692L160.236 25.1808L165.383 31.8809C165.534 32.0535 165.609 32.2477 165.609 32.4635C165.609 32.7008 165.502 32.9166 165.286 33.1108C165.07 33.305 164.833 33.4021 164.574 33.4021C164.272 33.4021 164.034 33.2834 163.862 33.0461L158.942 26.605L152.921 33.1108C152.727 33.3266 152.501 33.4345 152.242 33.4345C152.004 33.4345 151.789 33.3482 151.594 33.1756C151.422 32.9813 151.335 32.7656 151.335 32.5282C151.335 32.2908 151.433 32.0751 151.627 31.8809L157.841 25.1161L153.019 18.9015C152.867 18.7289 152.792 18.5455 152.792 18.3513C152.792 18.0708 152.9 17.8334 153.116 17.6392C153.331 17.445 153.569 17.3479 153.828 17.3479C154.13 17.3479 154.367 17.4666 154.54 17.7039L159.104 23.6919L164.671 17.7039Z" fill="#49495A"/>
<path d="M175.609 33.4669C174.207 33.4669 172.966 33.154 171.887 32.5282C170.83 31.9024 170.01 31.0177 169.427 29.8741C168.866 28.7304 168.586 27.4034 168.586 25.8929C168.586 24.145 168.899 22.613 169.524 21.2967C170.15 19.9804 171.046 18.9663 172.211 18.2542C173.398 17.5205 174.779 17.1537 176.354 17.1537C177.433 17.1537 178.436 17.3155 179.364 17.6392C180.314 17.9629 181.058 18.3729 181.597 18.8692C181.856 19.1065 181.986 19.387 181.986 19.7107C181.986 19.9696 181.9 20.1962 181.727 20.3904C181.576 20.5846 181.392 20.6817 181.177 20.6817C181.026 20.6817 180.864 20.617 180.691 20.4875C179.332 19.4086 177.875 18.8692 176.322 18.8692C174.531 18.8692 173.139 19.4949 172.146 20.7465C171.154 21.998 170.657 23.7351 170.657 25.9576C170.657 27.7486 171.1 29.162 171.984 30.1978C172.891 31.2119 174.164 31.719 175.804 31.719C176.602 31.719 177.325 31.5896 177.972 31.3306C178.641 31.0501 179.299 30.6509 179.947 30.133C180.141 30.0035 180.314 29.9388 180.465 29.9388C180.68 29.9388 180.864 30.0251 181.015 30.1978C181.187 30.3704 181.274 30.5646 181.274 30.7804C181.274 31.0177 181.177 31.2335 180.982 31.4277C180.335 32.0751 179.537 32.5822 178.587 32.949C177.638 33.2942 176.645 33.4669 175.609 33.4669Z" fill="#49495A"/>
<path d="M192.752 17.1537C194.499 17.1537 195.837 17.596 196.765 18.4807C197.693 19.3655 198.157 20.6817 198.157 22.4296C198.157 22.818 198.146 23.1093 198.125 23.3035L197.445 32.3987C197.423 32.744 197.305 33.0029 197.089 33.1756C196.895 33.3266 196.657 33.4021 196.377 33.4021C196.096 33.4021 195.87 33.3266 195.697 33.1756C195.524 33.0029 195.449 32.744 195.47 32.3987L196.15 23.433C196.172 23.2603 196.183 23.0122 196.183 22.6885C196.183 20.1639 194.931 18.9015 192.428 18.9015C190.831 18.9015 189.558 19.3655 188.609 20.2933C187.681 21.2212 187.152 22.5051 187.023 24.145L186.375 32.3987C186.332 32.744 186.213 33.0029 186.019 33.1756C185.825 33.3266 185.588 33.4021 185.307 33.4021C185.005 33.4021 184.768 33.3266 184.595 33.1756C184.422 33.0029 184.358 32.744 184.401 32.3987L186.084 11.1333C186.105 10.8528 186.213 10.637 186.408 10.486C186.623 10.3134 186.871 10.2271 187.152 10.2271C187.433 10.2271 187.659 10.3026 187.832 10.4536C188.004 10.6047 188.08 10.8312 188.058 11.1333L187.346 20.0344C187.886 19.1065 188.619 18.3944 189.547 17.8981C190.497 17.4018 191.565 17.1537 192.752 17.1537Z" fill="#49495A"/>
<path d="M209.827 17.1537C213.689 17.1537 215.47 19.1497 215.168 23.1417L214.455 32.4958C214.434 32.7764 214.337 33.0029 214.164 33.1756C213.992 33.3266 213.765 33.4021 213.484 33.4021C213.182 33.4021 212.934 33.305 212.74 33.1108C212.567 32.9166 212.492 32.6685 212.513 32.3664L212.643 30.5538C212.168 31.4817 211.499 32.2045 210.636 32.7224C209.773 33.2187 208.78 33.4669 207.658 33.4669C206.083 33.4669 204.799 33.0461 203.807 32.2045C202.814 31.363 202.318 30.2841 202.318 28.9678C202.318 27.781 202.631 26.8423 203.256 26.1518C203.904 25.4613 204.929 24.965 206.331 24.6629C207.734 24.3392 209.622 24.1774 211.996 24.1774H213.128L213.225 23.0769C213.247 22.9043 213.258 22.6669 213.258 22.3648C213.258 21.1565 212.967 20.2717 212.384 19.7107C211.823 19.1497 210.949 18.8692 209.762 18.8692C208.079 18.8692 206.31 19.4518 204.454 20.617C204.303 20.7033 204.163 20.7465 204.033 20.7465C203.817 20.7465 203.634 20.6602 203.483 20.4875C203.353 20.3149 203.289 20.1099 203.289 19.8725C203.289 19.5057 203.451 19.2144 203.774 18.9986C204.551 18.4376 205.49 17.9952 206.59 17.6716C207.691 17.3263 208.77 17.1537 209.827 17.1537ZM207.982 31.7514C209.32 31.7514 210.453 31.2982 211.381 30.392C212.308 29.4641 212.826 28.2665 212.934 26.7992L213.031 25.6339H212.093C210.107 25.6339 208.565 25.731 207.464 25.9253C206.364 26.1195 205.576 26.4539 205.101 26.9286C204.627 27.3818 204.389 28.0183 204.389 28.8383C204.389 29.723 204.713 30.4351 205.36 30.9746C206.008 31.4924 206.881 31.7514 207.982 31.7514Z" fill="#49495A"/>
<path d="M227.932 17.1537C229.68 17.1537 231.018 17.596 231.946 18.4807C232.874 19.3655 233.338 20.6817 233.338 22.4296C233.338 22.818 233.327 23.1093 233.305 23.3035L232.625 32.3987C232.604 32.744 232.485 33.0029 232.269 33.1756C232.075 33.3266 231.838 33.4021 231.557 33.4021C231.277 33.4021 231.05 33.3266 230.878 33.1756C230.705 33.0029 230.629 32.744 230.651 32.3987L231.331 23.433C231.352 23.2603 231.363 23.0122 231.363 22.6885C231.363 20.1639 230.112 18.9015 227.608 18.9015C226.012 18.9015 224.739 19.3655 223.789 20.2933C222.861 21.2212 222.333 22.5051 222.203 24.145L221.556 32.3987C221.513 32.744 221.394 33.0029 221.2 33.1756C221.006 33.3266 220.768 33.4021 220.488 33.4021C220.186 33.4021 219.948 33.3266 219.776 33.1756C219.603 33.0029 219.538 32.744 219.581 32.3987L220.714 18.1247C220.736 17.8226 220.844 17.596 221.038 17.445C221.254 17.2939 221.502 17.2184 221.782 17.2184C222.063 17.2184 222.279 17.2939 222.43 17.445C222.602 17.596 222.678 17.8226 222.656 18.1247L222.494 20.0991C223.034 19.1712 223.768 18.4484 224.695 17.9305C225.645 17.4126 226.724 17.1537 227.932 17.1537Z" fill="#49495A"/>
<path d="M251.416 17.2184C251.718 17.2184 251.956 17.3047 252.128 17.4774C252.301 17.6284 252.376 17.8766 252.355 18.2218L251.222 32.334C250.855 36.9733 248.482 39.293 244.101 39.293C242.828 39.293 241.652 39.1312 240.573 38.8075C239.516 38.4838 238.599 38.0307 237.822 37.4481C237.498 37.2107 237.336 36.9194 237.336 36.5741C237.336 36.3368 237.412 36.1318 237.563 35.9592C237.736 35.7865 237.93 35.7002 238.146 35.7002C238.318 35.7002 238.458 35.7434 238.566 35.8297C239.473 36.4339 240.347 36.8654 241.188 37.1244C242.03 37.4049 243.001 37.5452 244.101 37.5452C247.295 37.5452 249.021 35.8405 249.28 32.4311L249.507 29.777C249.01 30.7264 248.277 31.4601 247.306 31.978C246.356 32.4958 245.299 32.7548 244.134 32.7548C242.062 32.7548 240.401 32.0966 239.149 30.7804C237.919 29.4641 237.304 27.7055 237.304 25.5045C237.304 23.8429 237.606 22.3864 238.21 21.1349C238.815 19.8618 239.678 18.8799 240.8 18.1894C241.922 17.4989 243.217 17.1537 244.684 17.1537C246 17.1537 247.133 17.4342 248.082 17.9952C249.032 18.5563 249.733 19.3439 250.186 20.3581L250.38 18.2218C250.402 17.8766 250.51 17.6284 250.704 17.4774C250.898 17.3047 251.136 17.2184 251.416 17.2184ZM244.457 31.0069C246.14 31.0069 247.457 30.4243 248.406 29.2591C249.377 28.0723 249.863 26.4431 249.863 24.3716C249.863 22.6238 249.409 21.2751 248.503 20.3257C247.618 19.3547 246.378 18.8692 244.781 18.8692C243.076 18.8692 241.749 19.4626 240.8 20.6494C239.85 21.8362 239.376 23.4761 239.376 25.5692C239.376 27.3386 239.807 28.6873 240.67 29.6151C241.555 30.543 242.817 31.0069 244.457 31.0069Z" fill="#49495A"/>
<path d="M257.992 25.6339V25.9576C257.992 27.7702 258.445 29.1836 259.351 30.1978C260.257 31.2119 261.563 31.719 263.268 31.719C264.152 31.719 265.005 31.5896 265.825 31.3306C266.666 31.0501 267.4 30.6725 268.026 30.1978C268.241 30.0467 268.446 29.9712 268.641 29.9712C268.856 29.9712 269.029 30.0467 269.158 30.1978C269.309 30.3488 269.385 30.543 269.385 30.7804C269.385 31.0825 269.256 31.3522 268.997 31.5896C268.414 32.129 267.572 32.5822 266.472 32.949C265.393 33.2942 264.303 33.4669 263.203 33.4669C260.959 33.4669 259.189 32.7871 257.895 31.4277C256.6 30.0467 255.952 28.2018 255.952 25.8929C255.952 24.1666 256.265 22.6454 256.891 21.3291C257.517 20.0128 258.412 18.9878 259.578 18.2542C260.743 17.5205 262.102 17.1537 263.656 17.1537C265.727 17.1537 267.303 17.7687 268.382 18.9986C269.46 20.207 270 22.0088 270 24.404C270 24.814 269.892 25.1269 269.676 25.3426C269.482 25.5368 269.223 25.6339 268.899 25.6339H257.992ZM263.753 18.772C262.156 18.772 260.872 19.2468 259.901 20.1962C258.952 21.1241 258.358 22.4511 258.121 24.1774H268.187C268.252 22.408 267.885 21.0701 267.087 20.1638C266.288 19.236 265.177 18.772 263.753 18.772Z" fill="#49495A"/>
</svg>
