<svg width="17" height="14" viewBox="0 0 17 14" fill="none" xmlns="http://www.w3.org/2000/svg">
<path d="M1.19176 6.17728C6.21413 3.97624 12.7145 1.29403 13.6138 0.922424C15.9671 -0.0494621 16.6894 0.13634 16.3306 2.28974C16.0723 3.83808 15.3262 8.95954 14.733 12.1468C14.3791 14.0381 13.5899 14.262 12.3414 13.4426C11.7435 13.0472 8.72054 11.0605 8.06524 10.5889C7.46734 10.1649 6.63984 9.65035 7.6778 8.64035C8.04611 8.28303 10.4616 5.98195 12.3414 4.1954C12.5902 3.96195 12.2793 3.57606 11.9923 3.76186C9.45716 5.43884 5.93671 7.76374 5.49187 8.06388C4.81743 8.52124 4.16692 8.73087 2.99981 8.39738C2.1197 8.14488 1.25872 7.84473 0.923895 7.73039C-0.36279 7.29686 -0.0566643 6.72516 1.19176 6.17728Z" fill="#1F1F31"/>
</svg>
