<svg width="19" height="15" viewBox="0 0 19 15" fill="none" xmlns="http://www.w3.org/2000/svg">
<path d="M18.6308 1.96422C17.9674 2.26143 17.2509 2.45781 16.4972 2.54803C17.2615 2.08629 17.8506 1.36448 18.1319 0.494066C17.4154 0.918658 16.6193 1.22649 15.7754 1.39632C15.096 0.674518 14.1354 0.223389 13.0633 0.223389C11.0147 0.223389 9.35344 1.88461 9.35344 3.93326C9.35344 4.22517 9.38528 4.50646 9.44897 4.77714C6.36537 4.62323 3.63206 3.14246 1.801 0.897429C1.48256 1.44409 1.2968 2.08098 1.2968 2.76563C1.2968 4.05533 1.95492 5.19112 2.9474 5.85454C2.33705 5.83331 1.76916 5.66878 1.26495 5.38749C1.26495 5.40341 1.26495 5.41934 1.26495 5.43526C1.26495 7.23447 2.54404 8.73116 4.24241 9.07614C3.92927 9.16106 3.60021 9.20882 3.26584 9.20882C3.02701 9.20882 2.79349 9.18759 2.56527 9.14513C3.03763 10.6206 4.40694 11.6927 6.031 11.7245C4.76253 12.7223 3.1597 13.3114 1.41887 13.3114C1.12165 13.3114 0.824439 13.2955 0.532532 13.2584C2.17252 14.3092 4.12564 14.9249 6.22207 14.9249C13.0474 14.9249 16.7838 9.27251 16.7838 4.36316C16.7838 4.20394 16.7785 4.04472 16.7732 3.8855C17.5056 3.36006 18.1319 2.70725 18.6308 1.96422Z" fill="#1F1F31"/>
</svg>
