<svg width="626" height="352" viewBox="0 0 626 352" fill="none" xmlns="http://www.w3.org/2000/svg">
<g filter="url(#filter0_dd_81_962)">
<g clip-path="url(#clip0_81_962)">
<rect x="20" y="20" width="578.531" height="304" rx="10" fill="white"/>
<g filter="url(#filter1_d_81_962)">
<rect x="20.0002" y="45.7125" width="578.531" height="24.1054" fill="white"/>
</g>
<g filter="url(#filter2_d_81_962)">
<rect x="148.562" y="80.2635" width="321.406" height="529.516" rx="3.21406" fill="white"/>
</g>
<path d="M30.4459 55.4573V56.1837H28.5753V57.3343H30.0088V58.0479H28.5753V59.9442H27.6754V55.4573H30.4459ZM32.6653 60.002C32.3225 60.002 32.0139 59.927 31.7397 59.777C31.4654 59.6227 31.249 59.4063 31.0904 59.1278C30.9362 58.8492 30.859 58.5278 30.859 58.1636C30.859 57.7993 30.9383 57.4779 31.0969 57.1993C31.2597 56.9208 31.4804 56.7065 31.759 56.5565C32.0375 56.4023 32.3482 56.3251 32.691 56.3251C33.0339 56.3251 33.3446 56.4023 33.6231 56.5565C33.9017 56.7065 34.1202 56.9208 34.2788 57.1993C34.4416 57.4779 34.5231 57.7993 34.5231 58.1636C34.5231 58.5278 34.4395 58.8492 34.2724 59.1278C34.1095 59.4063 33.8867 59.6227 33.6038 59.777C33.3253 59.927 33.0124 60.002 32.6653 60.002ZM32.6653 59.2178C32.8282 59.2178 32.9803 59.1792 33.1217 59.1021C33.2674 59.0206 33.3831 58.9007 33.4688 58.7421C33.5546 58.5835 33.5974 58.3907 33.5974 58.1636C33.5974 57.825 33.5074 57.5657 33.3274 57.3858C33.1517 57.2015 32.9353 57.1094 32.6782 57.1094C32.4211 57.1094 32.2046 57.2015 32.0289 57.3858C31.8575 57.5657 31.7718 57.825 31.7718 58.1636C31.7718 58.5021 31.8554 58.7635 32.0225 58.9478C32.1939 59.1278 32.4082 59.2178 32.6653 59.2178ZM37.1566 56.3316C37.5809 56.3316 37.9237 56.4665 38.1851 56.7365C38.4465 57.0022 38.5772 57.375 38.5772 57.855V59.9442H37.6773V57.9771C37.6773 57.6943 37.6066 57.4779 37.4652 57.3279C37.3238 57.1736 37.1309 57.0965 36.8866 57.0965C36.6381 57.0965 36.441 57.1736 36.2953 57.3279C36.1538 57.4779 36.0831 57.6943 36.0831 57.9771V59.9442H35.1832V56.383H36.0831V56.8265C36.2031 56.6722 36.3553 56.5522 36.5395 56.4665C36.7281 56.3765 36.9338 56.3316 37.1566 56.3316ZM40.4808 57.1222V58.8449C40.4808 58.9649 40.5087 59.0528 40.5644 59.1085C40.6244 59.1599 40.7229 59.1856 40.8601 59.1856H41.2779V59.9442H40.7122C39.9537 59.9442 39.5745 59.5756 39.5745 58.8385V57.1222H39.1502V56.383H39.5745V55.5023H40.4808V56.383H41.2779V57.1222H40.4808Z" fill="#102870"/>
<g filter="url(#filter3_d_81_962)">
<rect x="46.1145" y="50.5336" width="74.7269" height="14.4633" rx="3.21406" fill="white"/>
<rect x="46.3154" y="50.7344" width="74.3251" height="14.0615" rx="3.01318" stroke="#F0F2F8" stroke-width="0.401757"/>
</g>
<path d="M57.984 55.4959V59.9442H57.399V56.6272L55.9206 59.9442H55.5092L54.0243 56.6208V59.9442H53.4393V55.4959H54.0693L55.7149 59.1728L57.3605 55.4959H57.984ZM60.5123 60.002C60.1824 60.002 59.8824 59.927 59.6124 59.777C59.3467 59.627 59.1367 59.4149 58.9824 59.1406C58.8325 58.8621 58.7575 58.5407 58.7575 58.1764C58.7575 57.8164 58.8346 57.4993 58.9889 57.2251C59.1474 56.9465 59.3617 56.7344 59.6317 56.5887C59.9017 56.4387 60.2038 56.3637 60.5381 56.3637C60.8723 56.3637 61.1744 56.4387 61.4444 56.5887C61.7144 56.7344 61.9265 56.9444 62.0808 57.2186C62.2394 57.4929 62.3186 57.8122 62.3186 58.1764C62.3186 58.5407 62.2372 58.8621 62.0744 59.1406C61.9158 59.4149 61.6994 59.627 61.4251 59.777C61.1509 59.927 60.8466 60.002 60.5123 60.002ZM60.5123 59.4878C60.7223 59.4878 60.9195 59.4385 61.1037 59.3399C61.288 59.2413 61.4358 59.0935 61.5473 58.8964C61.663 58.6992 61.7208 58.4593 61.7208 58.1764C61.7208 57.8936 61.6651 57.6536 61.5537 57.4565C61.4423 57.2593 61.2966 57.1136 61.1166 57.0194C60.9366 56.9208 60.7416 56.8715 60.5316 56.8715C60.3174 56.8715 60.1202 56.9208 59.9402 57.0194C59.7645 57.1136 59.6231 57.2593 59.516 57.4565C59.4088 57.6536 59.3553 57.8936 59.3553 58.1764C59.3553 58.4635 59.4067 58.7057 59.5096 58.9028C59.6167 59.0999 59.7581 59.2478 59.9338 59.3463C60.1095 59.4406 60.3024 59.4878 60.5123 59.4878ZM64.8041 56.3573C65.2326 56.3573 65.5797 56.488 65.8454 56.7494C66.1111 57.0065 66.244 57.3793 66.244 57.8679V59.9442H65.6654V57.9514C65.6654 57.6 65.5776 57.3322 65.4019 57.1479C65.2262 56.9594 64.9862 56.8651 64.6819 56.8651C64.3734 56.8651 64.127 56.9615 63.9427 57.1543C63.7627 57.3472 63.6727 57.6279 63.6727 57.9964V59.9442H63.0878V56.4215H63.6727V56.9229C63.7884 56.743 63.9448 56.6037 64.142 56.5051C64.3434 56.4065 64.5641 56.3573 64.8041 56.3573ZM67.913 56.9037V58.9799C67.913 59.1514 67.9494 59.2735 68.0223 59.3463C68.0951 59.4149 68.2216 59.4492 68.4015 59.4492H68.8322V59.9442H68.3051C67.9794 59.9442 67.7352 59.8692 67.5723 59.7192C67.4095 59.5692 67.3281 59.3228 67.3281 58.9799V56.9037H66.8717V56.4215H67.3281V55.5345H67.913V56.4215H68.8322V56.9037H67.913ZM70.788 60.002C70.5181 60.002 70.2759 59.957 70.0617 59.867C69.8474 59.7727 69.6781 59.6442 69.5538 59.4813C69.4296 59.3142 69.361 59.1235 69.3481 58.9092H69.9524C69.9695 59.0849 70.0509 59.2285 70.1966 59.3399C70.3466 59.4513 70.5416 59.507 70.7816 59.507C71.0045 59.507 71.1802 59.4578 71.3087 59.3592C71.4373 59.2606 71.5016 59.1364 71.5016 58.9864C71.5016 58.8321 71.433 58.7185 71.2959 58.6457C71.1587 58.5685 70.9466 58.4935 70.6595 58.4207C70.3981 58.3521 70.1838 58.2836 70.0167 58.215C69.8538 58.1421 69.7124 58.0371 69.5924 57.9C69.4767 57.7586 69.4188 57.5743 69.4188 57.3472C69.4188 57.1672 69.4724 57.0022 69.5796 56.8522C69.6867 56.7022 69.8388 56.5844 70.0359 56.4987C70.2331 56.4087 70.4581 56.3637 70.7109 56.3637C71.1009 56.3637 71.4158 56.4623 71.6558 56.6594C71.8958 56.8565 72.0244 57.1265 72.0415 57.4693H71.4566C71.4437 57.2851 71.3687 57.1372 71.2316 57.0258C71.0987 56.9144 70.9187 56.8587 70.6916 56.8587C70.4816 56.8587 70.3145 56.9037 70.1902 56.9936C70.0659 57.0836 70.0038 57.2015 70.0038 57.3472C70.0038 57.4629 70.0402 57.5593 70.1131 57.6365C70.1902 57.7093 70.2845 57.7693 70.3959 57.8164C70.5116 57.8593 70.6702 57.9086 70.8716 57.9643C71.1244 58.0329 71.3301 58.1014 71.4887 58.17C71.6473 58.2343 71.7823 58.3328 71.8937 58.4657C72.0094 58.5985 72.0694 58.7721 72.0737 58.9864C72.0737 59.1792 72.0201 59.3528 71.913 59.507C71.8058 59.6613 71.6537 59.7834 71.4566 59.8734C71.2637 59.9592 71.0409 60.002 70.788 60.002ZM76.1135 58.0479C76.1135 58.1593 76.1071 58.2771 76.0942 58.4014H73.2787C73.3001 58.7485 73.418 59.0206 73.6322 59.2178C73.8508 59.4106 74.1143 59.507 74.4229 59.507C74.6757 59.507 74.8857 59.4492 75.0528 59.3335C75.2243 59.2135 75.3442 59.0549 75.4128 58.8578H76.0428C75.9485 59.1963 75.7599 59.4728 75.4771 59.687C75.1943 59.897 74.8429 60.002 74.4229 60.002C74.0886 60.002 73.7886 59.927 73.5229 59.777C73.2615 59.627 73.0558 59.4149 72.9059 59.1406C72.7559 58.8621 72.6809 58.5407 72.6809 58.1764C72.6809 57.8122 72.7537 57.4929 72.8994 57.2186C73.0451 56.9444 73.2487 56.7344 73.5101 56.5887C73.7758 56.4387 74.0801 56.3637 74.4229 56.3637C74.7571 56.3637 75.0528 56.4365 75.31 56.5822C75.5671 56.728 75.7642 56.9294 75.9014 57.1865C76.0428 57.4393 76.1135 57.7265 76.1135 58.0479ZM75.5092 57.9257C75.5092 57.7029 75.46 57.5122 75.3614 57.3536C75.2628 57.1908 75.1278 57.0686 74.9564 56.9872C74.7893 56.9015 74.6029 56.8587 74.3972 56.8587C74.1015 56.8587 73.8486 56.9529 73.6387 57.1415C73.433 57.3301 73.3151 57.5915 73.2851 57.9257H75.5092ZM77.4706 56.9936C77.5734 56.7922 77.7191 56.6358 77.9077 56.5244C78.1005 56.413 78.3341 56.3573 78.6083 56.3573V56.9615H78.4541C77.7984 56.9615 77.4706 57.3172 77.4706 58.0286V59.9442H76.8856V56.4215H77.4706V56.9936ZM79.8686 56.9936C79.9714 56.7922 80.1171 56.6358 80.3057 56.5244C80.4985 56.413 80.7321 56.3573 81.0063 56.3573V56.9615H80.8521C80.1964 56.9615 79.8686 57.3172 79.8686 58.0286V59.9442H79.2836V56.4215H79.8686V56.9936ZM81.463 58.17C81.463 57.81 81.5359 57.495 81.6816 57.2251C81.8273 56.9508 82.0266 56.7387 82.2794 56.5887C82.5365 56.4387 82.8215 56.3637 83.1343 56.3637C83.4429 56.3637 83.7107 56.4301 83.9379 56.563C84.165 56.6958 84.3343 56.8629 84.4457 57.0644V56.4215H85.0371V59.9442H84.4457V59.2885C84.33 59.4942 84.1564 59.6656 83.925 59.8027C83.6979 59.9356 83.4322 60.002 83.1279 60.002C82.8151 60.002 82.5322 59.9249 82.2794 59.7706C82.0266 59.6163 81.8273 59.3999 81.6816 59.1214C81.5359 58.8428 81.463 58.5257 81.463 58.17ZM84.4457 58.1764C84.4457 57.9107 84.3921 57.6793 84.285 57.4822C84.1778 57.2851 84.0321 57.1351 83.8479 57.0322C83.6679 56.9251 83.4686 56.8715 83.25 56.8715C83.0315 56.8715 82.8322 56.9229 82.6522 57.0258C82.4722 57.1286 82.3287 57.2786 82.2215 57.4758C82.1144 57.6729 82.0608 57.9043 82.0608 58.17C82.0608 58.44 82.1144 58.6757 82.2215 58.8771C82.3287 59.0742 82.4722 59.2263 82.6522 59.3335C82.8322 59.4363 83.0315 59.4878 83.25 59.4878C83.4686 59.4878 83.6679 59.4363 83.8479 59.3335C84.0321 59.2263 84.1778 59.0742 84.285 58.8771C84.3921 58.6757 84.4457 58.4421 84.4457 58.1764ZM86.7391 56.9037V58.9799C86.7391 59.1514 86.7755 59.2735 86.8484 59.3463C86.9212 59.4149 87.0477 59.4492 87.2276 59.4492H87.6583V59.9442H87.1312C86.8055 59.9442 86.5613 59.8692 86.3984 59.7192C86.2356 59.5692 86.1542 59.3228 86.1542 58.9799V56.9037H85.6978V56.4215H86.1542V55.5345H86.7391V56.4215H87.6583V56.9037H86.7391Z" fill="#102870"/>
<path d="M115.217 56.9616L112.806 59.3721L110.396 56.9616" stroke="#4169E1" stroke-width="0.401757" stroke-linecap="round" stroke-linejoin="round"/>
<rect x="498.092" y="50.9353" width="42.5863" height="13.6597" rx="2.8123" stroke="#4169E1" stroke-width="0.803515"/>
<path d="M518.62 55.4638V55.9394H517.398V59.9442H516.814V55.9394H515.586V55.4638H518.62ZM522.554 58.0479C522.554 58.1593 522.547 58.2771 522.535 58.4014H519.719C519.741 58.7485 519.858 59.0206 520.073 59.2178C520.291 59.4106 520.555 59.507 520.863 59.507C521.116 59.507 521.326 59.4492 521.493 59.3335C521.665 59.2135 521.785 59.0549 521.853 58.8578H522.483C522.389 59.1963 522.2 59.4728 521.918 59.687C521.635 59.897 521.283 60.002 520.863 60.002C520.529 60.002 520.229 59.927 519.963 59.777C519.702 59.627 519.496 59.4149 519.346 59.1406C519.196 58.8621 519.121 58.5407 519.121 58.1764C519.121 57.8122 519.194 57.4929 519.34 57.2186C519.486 56.9444 519.689 56.7344 519.951 56.5887C520.216 56.4387 520.52 56.3637 520.863 56.3637C521.198 56.3637 521.493 56.4365 521.75 56.5822C522.008 56.728 522.205 56.9294 522.342 57.1865C522.483 57.4393 522.554 57.7265 522.554 58.0479ZM521.95 57.9257C521.95 57.7029 521.9 57.5122 521.802 57.3536C521.703 57.1908 521.568 57.0686 521.397 56.9872C521.23 56.9015 521.043 56.8587 520.838 56.8587C520.542 56.8587 520.289 56.9529 520.079 57.1415C519.873 57.3301 519.756 57.5915 519.726 57.9257H521.95ZM524.573 60.002C524.303 60.002 524.061 59.957 523.847 59.867C523.632 59.7727 523.463 59.6442 523.339 59.4813C523.215 59.3142 523.146 59.1235 523.133 58.9092H523.737C523.755 59.0849 523.836 59.2285 523.982 59.3399C524.132 59.4513 524.327 59.507 524.567 59.507C524.79 59.507 524.965 59.4578 525.094 59.3592C525.222 59.2606 525.287 59.1364 525.287 58.9864C525.287 58.8321 525.218 58.7185 525.081 58.6457C524.944 58.5685 524.732 58.4935 524.445 58.4207C524.183 58.3521 523.969 58.2836 523.802 58.215C523.639 58.1421 523.497 58.0371 523.377 57.9C523.262 57.7586 523.204 57.5743 523.204 57.3472C523.204 57.1672 523.257 57.0022 523.365 56.8522C523.472 56.7022 523.624 56.5844 523.821 56.4987C524.018 56.4087 524.243 56.3637 524.496 56.3637C524.886 56.3637 525.201 56.4623 525.441 56.6594C525.681 56.8565 525.809 57.1265 525.827 57.4693H525.242C525.229 57.2851 525.154 57.1372 525.017 57.0258C524.884 56.9144 524.704 56.8587 524.477 56.8587C524.267 56.8587 524.1 56.9037 523.975 56.9936C523.851 57.0836 523.789 57.2015 523.789 57.3472C523.789 57.4629 523.825 57.5593 523.898 57.6365C523.975 57.7093 524.07 57.7693 524.181 57.8164C524.297 57.8593 524.455 57.9086 524.657 57.9643C524.91 58.0329 525.115 58.1014 525.274 58.17C525.432 58.2343 525.567 58.3328 525.679 58.4657C525.794 58.5985 525.854 58.7721 525.859 58.9864C525.859 59.1792 525.805 59.3528 525.698 59.507C525.591 59.6613 525.439 59.7834 525.242 59.8734C525.049 59.9592 524.826 60.002 524.573 60.002ZM527.398 56.9037V58.9799C527.398 59.1514 527.434 59.2735 527.507 59.3463C527.58 59.4149 527.707 59.4492 527.887 59.4492H528.317V59.9442H527.79C527.464 59.9442 527.22 59.8692 527.057 59.7192C526.894 59.5692 526.813 59.3228 526.813 58.9799V56.9037H526.357V56.4215H526.813V55.5345H527.398V56.4215H528.317V56.9037H527.398Z" fill="#102870"/>
<path d="M510.638 58.7174C510.56 58.5969 510.45 58.4764 510.306 58.4C510.191 58.3438 510.117 58.2514 510.051 58.1429C509.842 57.7974 509.965 57.3434 510.314 57.1385C510.725 56.9095 510.856 56.3993 510.618 56.0015L510.343 55.5275C510.109 55.1297 509.596 54.9891 509.189 55.2221C508.828 55.415 508.364 55.2864 508.154 54.9449C508.089 54.8324 508.052 54.7119 508.06 54.5914C508.072 54.4347 508.023 54.286 507.949 54.1655C507.797 53.9164 507.522 53.7477 507.218 53.7477H506.639C506.34 53.7557 506.065 53.9164 505.913 54.1655C505.835 54.286 505.79 54.4347 505.798 54.5914C505.806 54.7119 505.769 54.8324 505.703 54.9449C505.494 55.2864 505.03 55.415 504.673 55.2221C504.262 54.9891 503.753 55.1297 503.515 55.5275L503.24 56.0015C503.006 56.3993 503.137 56.9095 503.544 57.1385C503.893 57.3434 504.016 57.7974 503.811 58.1429C503.741 58.2514 503.667 58.3438 503.552 58.4C503.412 58.4764 503.289 58.5969 503.223 58.7174C503.072 58.9665 503.08 59.2799 503.232 59.541L503.515 60.0231C503.667 60.2803 503.95 60.441 504.246 60.441C504.385 60.441 504.55 60.4008 504.681 60.3204C504.784 60.2521 504.907 60.228 505.042 60.228C505.449 60.228 505.79 60.5615 505.798 60.9592C505.798 61.4212 506.176 61.7828 506.652 61.7828H507.21C507.682 61.7828 508.06 61.4212 508.06 60.9592C508.072 60.5615 508.413 60.228 508.82 60.228C508.951 60.228 509.074 60.2521 509.181 60.3204C509.312 60.4008 509.472 60.441 509.616 60.441C509.908 60.441 510.191 60.2803 510.343 60.0231L510.63 59.541C510.778 59.2718 510.79 58.9665 510.638 58.7174Z" fill="#4169E1"/>
<path d="M506.935 58.9023C506.29 58.9023 505.769 58.4001 505.769 57.7693C505.769 57.1385 506.29 56.6323 506.935 56.6323C507.58 56.6323 508.089 57.1385 508.089 57.7693C508.089 58.4001 507.58 58.9023 506.935 58.9023Z" fill="#ECF0FC"/>
<rect x="452.291" y="50.9353" width="42.5863" height="13.6597" rx="2.8123" stroke="#4169E1" stroke-width="0.803515"/>
<path d="M473.514 55.4638V59.9442H472.929V57.9129H470.647V59.9442H470.062V55.4638H470.647V57.4308H472.929V55.4638H473.514ZM477.27 55.4638V55.9394H476.049V59.9442H475.464V55.9394H474.236V55.4638H477.27ZM482.535 55.4959V59.9442H481.95V56.6272L480.471 59.9442H480.06L478.575 56.6208V59.9442H477.99V55.4959H478.62L480.266 59.1728L481.911 55.4959H482.535ZM484.112 59.4685H485.68V59.9442H483.527V55.4638H484.112V59.4685Z" fill="#102870"/>
<path d="M463.062 56.5684C462.88 56.5684 462.64 56.5644 462.341 56.5644C461.611 56.5644 461.012 55.9606 461.012 55.2241V53.9321C461.012 53.8304 460.93 53.7477 460.829 53.7477H458.704C457.713 53.7477 456.911 54.5616 456.911 55.5592V59.8881C456.911 60.9347 457.751 61.7828 458.788 61.7828H461.952C462.94 61.7828 463.741 60.9741 463.741 59.9757V56.7492C463.741 56.6472 463.66 56.5648 463.559 56.5652C463.389 56.5664 463.185 56.5684 463.062 56.5684Z" fill="#4169E1"/>
<path d="M461.967 53.9756C461.847 53.8506 461.637 53.9366 461.637 54.1097V55.1692C461.637 55.6135 462.003 55.9791 462.447 55.9791C462.727 55.9823 463.116 55.9831 463.447 55.9823C463.616 55.9819 463.702 55.7799 463.584 55.6577C463.161 55.217 462.402 54.4271 461.967 53.9756Z" fill="#4169E1"/>
<path d="M461.531 57.7651L462.335 58.5687L461.531 59.3722" stroke="white" stroke-width="0.401757" stroke-linecap="round" stroke-linejoin="round"/>
<path d="M459.121 57.7651L458.318 58.5687L459.121 59.3722" stroke="white" stroke-width="0.401757" stroke-linecap="round" stroke-linejoin="round"/>
<path d="M459.869 59.8813L460.881 57.2271" stroke="white" stroke-width="0.401757" stroke-linecap="round" stroke-linejoin="round"/>
<g filter="url(#filter4_d_81_962)">
<rect x="543.49" y="50.5336" width="43.3898" height="14.4633" rx="3.21406" fill="#4169E1"/>
<path d="M563.083 59.9891C562.787 59.9891 562.522 59.9377 562.286 59.8349C562.054 59.7277 561.872 59.582 561.739 59.3978C561.607 59.2092 561.538 58.9928 561.534 58.7485H562.157C562.179 58.9585 562.264 59.1364 562.414 59.2821C562.569 59.4235 562.792 59.4942 563.083 59.4942C563.361 59.4942 563.58 59.4256 563.739 59.2885C563.901 59.1471 563.983 58.9671 563.983 58.7485C563.983 58.5771 563.936 58.4378 563.841 58.3307C563.747 58.2236 563.629 58.1421 563.488 58.0864C563.346 58.0307 563.156 57.9707 562.916 57.9064C562.62 57.8293 562.382 57.7522 562.202 57.675C562.027 57.5979 561.874 57.4779 561.746 57.3151C561.622 57.1479 561.559 56.9251 561.559 56.6465C561.559 56.4023 561.622 56.1858 561.746 55.9973C561.87 55.8087 562.044 55.663 562.267 55.5602C562.494 55.4573 562.753 55.4059 563.044 55.4059C563.464 55.4059 563.807 55.5109 564.073 55.7209C564.343 55.9309 564.495 56.2094 564.529 56.5565H563.886C563.865 56.3851 563.775 56.2351 563.616 56.1066C563.458 55.9737 563.248 55.9073 562.987 55.9073C562.742 55.9073 562.543 55.9716 562.389 56.1001C562.234 56.2244 562.157 56.4001 562.157 56.6272C562.157 56.7901 562.202 56.9229 562.292 57.0258C562.387 57.1286 562.5 57.2079 562.633 57.2636C562.77 57.3151 562.961 57.375 563.205 57.4436C563.501 57.525 563.739 57.6065 563.919 57.6879C564.099 57.765 564.253 57.8872 564.381 58.0543C564.51 58.2171 564.574 58.44 564.574 58.7228C564.574 58.9414 564.516 59.1471 564.401 59.3399C564.285 59.5328 564.114 59.6892 563.886 59.8092C563.659 59.9292 563.391 59.9891 563.083 59.9891ZM568.649 58.0479C568.649 58.1593 568.643 58.2771 568.63 58.4014H565.814C565.836 58.7485 565.954 59.0206 566.168 59.2178C566.386 59.4106 566.65 59.507 566.959 59.507C567.211 59.507 567.421 59.4492 567.588 59.3335C567.76 59.2135 567.88 59.0549 567.948 58.8578H568.578C568.484 59.1963 568.296 59.4728 568.013 59.687C567.73 59.897 567.379 60.002 566.959 60.002C566.624 60.002 566.324 59.927 566.059 59.777C565.797 59.627 565.591 59.4149 565.442 59.1406C565.292 58.8621 565.217 58.5407 565.217 58.1764C565.217 57.8122 565.289 57.4929 565.435 57.2186C565.581 56.9444 565.784 56.7344 566.046 56.5887C566.311 56.4387 566.616 56.3637 566.959 56.3637C567.293 56.3637 567.588 56.4365 567.846 56.5822C568.103 56.728 568.3 56.9294 568.437 57.1865C568.578 57.4393 568.649 57.7265 568.649 58.0479ZM568.045 57.9257C568.045 57.7029 567.996 57.5122 567.897 57.3536C567.798 57.1908 567.663 57.0686 567.492 56.9872C567.325 56.9015 567.139 56.8587 566.933 56.8587C566.637 56.8587 566.384 56.9529 566.174 57.1415C565.969 57.3301 565.851 57.5915 565.821 57.9257H568.045ZM571.138 56.3573C571.566 56.3573 571.913 56.488 572.179 56.7494C572.445 57.0065 572.577 57.3793 572.577 57.8679V59.9442H571.999V57.9514C571.999 57.6 571.911 57.3322 571.735 57.1479C571.56 56.9594 571.32 56.8651 571.015 56.8651C570.707 56.8651 570.46 56.9615 570.276 57.1543C570.096 57.3472 570.006 57.6279 570.006 57.9964V59.9442H569.421V56.4215H570.006V56.9229C570.122 56.743 570.278 56.6037 570.475 56.5051C570.677 56.4065 570.898 56.3573 571.138 56.3573ZM573.314 58.17C573.314 57.81 573.387 57.495 573.533 57.2251C573.679 56.9508 573.878 56.7387 574.131 56.5887C574.388 56.4387 574.675 56.3637 574.992 56.3637C575.266 56.3637 575.521 56.428 575.757 56.5565C575.993 56.6808 576.173 56.8458 576.297 57.0515V55.1873H576.888V59.9442H576.297V59.2821C576.181 59.492 576.01 59.6656 575.783 59.8027C575.556 59.9356 575.29 60.002 574.986 60.002C574.673 60.002 574.388 59.9249 574.131 59.7706C573.878 59.6163 573.679 59.3999 573.533 59.1214C573.387 58.8428 573.314 58.5257 573.314 58.17ZM576.297 58.1764C576.297 57.9107 576.244 57.6793 576.136 57.4822C576.029 57.2851 575.884 57.1351 575.699 57.0322C575.519 56.9251 575.32 56.8715 575.101 56.8715C574.883 56.8715 574.684 56.9229 574.504 57.0258C574.324 57.1286 574.18 57.2786 574.073 57.4758C573.966 57.6729 573.912 57.9043 573.912 58.17C573.912 58.44 573.966 58.6757 574.073 58.8771C574.18 59.0742 574.324 59.2263 574.504 59.3335C574.684 59.4363 574.883 59.4878 575.101 59.4878C575.32 59.4878 575.519 59.4363 575.699 59.3335C575.884 59.2263 576.029 59.0742 576.136 58.8771C576.244 58.6757 576.297 58.4421 576.297 58.1764Z" fill="white"/>
<path d="M556.518 53.98C556.317 53.7747 556.02 53.6987 555.743 53.7791L549.278 55.6468C548.986 55.728 548.779 55.9598 548.723 56.2539C548.666 56.5536 548.865 56.9345 549.125 57.0936L551.147 58.3278C551.354 58.4547 551.621 58.423 551.793 58.251L554.107 55.9365C554.224 55.8156 554.417 55.8156 554.533 55.9365C554.65 56.0526 554.65 56.2418 554.533 56.3624L552.215 58.6769C552.043 58.8489 552.011 59.1156 552.137 59.3233L553.372 61.3522C553.517 61.5929 553.766 61.7299 554.039 61.7299C554.071 61.7299 554.107 61.7299 554.14 61.7254C554.453 61.6857 554.702 61.4723 554.794 61.171L556.711 54.7553C556.795 54.4822 556.719 54.1849 556.518 53.98Z" fill="white"/>
</g>
<g filter="url(#filter5_d_81_962)">
<rect x="392.027" y="50.5336" width="14.4633" height="14.4633" rx="3.21406" fill="white"/>
<rect x="392.228" y="50.7344" width="14.0615" height="14.0615" rx="3.01318" stroke="#F0F2F8" stroke-width="0.401757"/>
</g>
<path opacity="0.4" d="M401.221 54.9991H400.039C399.744 55.001 399.465 54.87 399.278 54.6426L398.889 54.1043C398.705 53.8749 398.426 53.7432 398.131 53.7478H397.295C395.795 53.7478 395.241 54.6283 395.241 56.1256V57.7441C395.24 57.9221 403.275 57.9219 403.275 57.7441V57.2735C403.283 55.7763 402.743 54.9991 401.221 54.9991Z" fill="#4169E1"/>
<path d="M403.1 56.0829C403.035 55.8962 402.936 55.7234 402.808 55.5731C402.767 55.5256 402.723 55.4815 402.675 55.4412C402.262 55.1164 401.742 54.9586 401.218 54.9991H397.288C396.353 54.9991 395.781 55.3021 395.502 55.8975C395.408 56.0904 395.342 56.2956 395.306 56.5071C395.306 56.5855 395.281 56.6639 395.27 56.7459C395.251 56.9212 395.242 57.0973 395.242 57.2735V59.384C395.241 59.5619 395.256 59.7396 395.284 59.9152C395.329 60.2255 395.436 60.5237 395.599 60.7922C395.673 60.9217 395.763 61.0415 395.867 61.1486C396.344 61.5854 396.977 61.8127 397.624 61.7796H400.889C401.535 61.8129 402.167 61.5855 402.643 61.1486C402.748 61.0417 402.84 60.9219 402.915 60.7922C403.078 60.5235 403.187 60.2256 403.236 59.9152C403.262 59.7393 403.275 59.5618 403.275 59.384V57.2735C403.288 56.8695 403.228 56.4664 403.1 56.0829Z" fill="#4169E1"/>
<g filter="url(#filter6_d_81_962)">
<rect x="408.901" y="50.5336" width="14.4633" height="14.4633" rx="3.21406" fill="white"/>
<rect x="409.102" y="50.7344" width="14.0615" height="14.0615" rx="3.01318" stroke="#F0F2F8" stroke-width="0.401757"/>
</g>
<path d="M418.364 55.8755C419.349 55.8755 420.15 56.7031 420.15 57.7202V59.742C420.15 60.7566 419.351 61.582 418.368 61.582H413.902C412.917 61.582 412.115 60.7549 412.115 59.7378V57.716C412.115 56.7014 412.915 55.8755 413.898 55.8755H414.276H418.364Z" fill="#4169E1"/>
<path d="M416.352 59.3873L417.521 58.1949C417.641 58.0717 417.641 57.8734 417.52 57.7505C417.399 57.6281 417.203 57.6285 417.083 57.7513L416.443 58.4043V54.2628C416.443 54.0893 416.304 53.9485 416.133 53.9485C415.962 53.9485 415.824 54.0893 415.824 54.2628V58.4043L415.183 57.7513C415.063 57.6285 414.867 57.6281 414.746 57.7505C414.685 57.8121 414.655 57.8925 414.655 57.9733C414.655 58.0533 414.685 58.1337 414.745 58.1949L415.914 59.3873C415.972 59.4465 416.051 59.4799 416.133 59.4799C416.215 59.4799 416.294 59.4465 416.352 59.3873Z" fill="white"/>
<path d="M416.443 54.2628V55.8757H415.824V54.2628C415.824 54.0893 415.962 53.9485 416.133 53.9485C416.304 53.9485 416.443 54.0893 416.443 54.2628Z" fill="#4169E1"/>
<g filter="url(#filter7_d_81_962)">
<rect x="337.388" y="50.5336" width="14.4633" height="14.4633" rx="3.21406" fill="white"/>
<rect x="337.589" y="50.7344" width="14.0615" height="14.0615" rx="3.01318" stroke="#F0F2F8" stroke-width="0.401757"/>
</g>
<rect x="341.004" y="59.3722" width="7.23163" height="0.803515" rx="0.401757" fill="#4169E1"/>
<rect x="341.004" y="57.3635" width="7.23163" height="0.803515" rx="0.401757" fill="#4169E1"/>
<rect x="341.004" y="55.3546" width="3.21406" height="0.803515" rx="0.401757" fill="#4169E1"/>
<g filter="url(#filter8_d_81_962)">
<rect x="354.262" y="50.5336" width="14.4633" height="14.4633" rx="3.21406" fill="white"/>
<rect x="354.463" y="50.7344" width="14.0615" height="14.0615" rx="3.01318" stroke="#F0F2F8" stroke-width="0.401757"/>
</g>
<rect x="357.878" y="59.3722" width="7.23163" height="0.803515" rx="0.401757" fill="#4169E1"/>
<rect x="357.878" y="57.3635" width="7.23163" height="0.803515" rx="0.401757" fill="#4169E1"/>
<rect x="357.878" y="55.3546" width="7.23163" height="0.803515" rx="0.401757" fill="#4169E1"/>
<g filter="url(#filter9_d_81_962)">
<rect width="14.4633" height="14.4633" rx="3.21406" transform="matrix(-1 0 0 1 385.599 50.5336)" fill="white"/>
<rect x="-0.200879" y="0.200879" width="14.0615" height="14.0615" rx="3.01318" transform="matrix(-1 0 0 1 385.198 50.5336)" stroke="#F0F2F8" stroke-width="0.401757"/>
</g>
<rect width="7.23163" height="0.803515" rx="0.401757" transform="matrix(-1 0 0 1 381.983 59.3722)" fill="#4169E1"/>
<rect width="7.23163" height="0.803515" rx="0.401757" transform="matrix(-1 0 0 1 381.983 57.3635)" fill="#4169E1"/>
<rect width="3.21406" height="0.803515" rx="0.401757" transform="matrix(-1 0 0 1 381.983 55.3546)" fill="#4169E1"/>
<g filter="url(#filter10_d_81_962)">
<rect x="316.497" y="50.5336" width="14.4633" height="14.4633" rx="3.21406" fill="white"/>
<rect x="316.698" y="50.7344" width="14.0615" height="14.0615" rx="3.01318" stroke="#F0F2F8" stroke-width="0.401757"/>
</g>
<rect x="322.122" y="59.3722" width="5.22285" height="0.803515" rx="0.401757" fill="#4169E1"/>
<rect x="322.122" y="57.3635" width="5.22285" height="0.803515" rx="0.401757" fill="#4169E1"/>
<rect x="322.122" y="55.3546" width="5.22285" height="0.803515" rx="0.401757" fill="#4169E1"/>
<path d="M319.755 55.8308V55.3873H320.497V57.1494H320.003V55.8308H319.755Z" fill="#4169E1"/>
<path d="M319.791 59.9849C319.947 59.8628 320.074 59.7576 320.174 59.6692C320.274 59.5808 320.357 59.49 320.425 59.3968C320.492 59.302 320.526 59.212 320.526 59.1268C320.526 59.0754 320.514 59.0352 320.49 59.0063C320.467 58.9773 320.434 58.9629 320.389 58.9629C320.342 58.9629 320.306 58.983 320.28 59.0231C320.254 59.0617 320.242 59.1188 320.244 59.1943H319.786C319.791 59.0513 319.822 58.9331 319.88 58.8399C319.938 58.7451 320.013 58.676 320.107 58.6326C320.2 58.5876 320.303 58.5651 320.417 58.5651C320.615 58.5651 320.762 58.6142 320.859 58.7122C320.955 58.8102 321.003 58.9372 321.003 59.093C321.003 59.2602 320.947 59.4169 320.834 59.5631C320.724 59.7093 320.585 59.8403 320.417 59.956H321.02V60.3393H319.791V59.9849Z" fill="#4169E1"/>
<g filter="url(#filter11_d_81_962)">
<rect x="299.623" y="50.5336" width="14.4633" height="14.4633" rx="3.21406" fill="white"/>
<rect x="299.824" y="50.7344" width="14.0615" height="14.0615" rx="3.01318" stroke="#F0F2F8" stroke-width="0.401757"/>
</g>
<rect x="305.248" y="59.3722" width="5.22285" height="0.803515" rx="0.401757" fill="#4169E1"/>
<rect x="305.248" y="57.3635" width="5.22285" height="0.803515" rx="0.401757" fill="#4169E1"/>
<rect x="305.248" y="55.3546" width="5.22285" height="0.803515" rx="0.401757" fill="#4169E1"/>
<rect x="303.239" y="59.3721" width="1.20527" height="0.803515" rx="0.401757" fill="#4169E1"/>
<rect x="303.239" y="57.3634" width="1.20527" height="0.803515" rx="0.401757" fill="#4169E1"/>
<rect x="303.239" y="55.3546" width="1.20527" height="0.803515" rx="0.401757" fill="#4169E1"/>
<g filter="url(#filter12_d_81_962)">
<rect x="278.732" y="50.9352" width="14.4633" height="14.4633" rx="3.21406" fill="white"/>
<rect x="278.933" y="51.1361" width="14.0615" height="14.0615" rx="3.01318" stroke="#F0F2F8" stroke-width="0.401757"/>
</g>
<rect x="282.112" y="60.1758" width="3.61582" height="2.8123" rx="0.803515" transform="rotate(-45 282.112 60.1758)" stroke="#4169E1" stroke-width="0.803515"/>
<rect x="285.521" y="56.7665" width="3.61582" height="2.8123" rx="0.803515" transform="rotate(-45 285.521 56.7665)" stroke="#4169E1" stroke-width="0.803515"/>
<path opacity="0.4" d="M284.953 59.3234L287.084 57.1927" stroke="#4169E1" stroke-width="0.803515" stroke-linecap="round" stroke-linejoin="round"/>
<g filter="url(#filter13_d_81_962)">
<rect x="257.84" y="50.9352" width="14.4633" height="14.4633" rx="3.21406" fill="white"/>
<rect x="258.041" y="51.1361" width="14.0615" height="14.0615" rx="3.01318" stroke="#F0F2F8" stroke-width="0.401757"/>
</g>
<rect x="261.456" y="54.551" width="7.23163" height="7.23163" rx="0.803515" fill="#4169E1"/>
<path d="M262.661 60.1756V59.4935H263.378L264.471 56.8401H263.863V56.158H265.506L266.831 59.4935H267.483V60.1756H265.615V59.4935H265.999L265.774 58.9069H264.334L264.102 59.4935H264.522V60.1756H262.661ZM264.536 58.368H265.579L265.072 56.9356L264.536 58.368Z" fill="white"/>
<g filter="url(#filter14_d_81_962)">
<rect x="240.967" y="50.9352" width="14.4633" height="14.4633" rx="3.21406" fill="white"/>
<rect x="241.168" y="51.1361" width="14.0615" height="14.0615" rx="3.01318" stroke="#F0F2F8" stroke-width="0.401757"/>
</g>
<path d="M245.386 60.1757V59.2889H246.282L247.648 55.8396H246.888V54.9528H248.942L250.598 59.2889H251.412V60.1757H249.078V59.2889H249.557L249.277 58.5263H247.476L247.187 59.2889H247.711V60.1757H245.386ZM247.729 57.8258H249.032L248.399 55.9637L247.729 57.8258Z" fill="#4169E1"/>
<rect x="244.582" y="60.9792" width="7.23163" height="0.803515" rx="0.401757" fill="#4169E1"/>
<g filter="url(#filter15_d_81_962)">
<rect x="220.075" y="50.9352" width="14.4633" height="14.4633" rx="3.21406" fill="white"/>
<rect x="220.276" y="51.1361" width="14.0615" height="14.0615" rx="3.01318" stroke="#F0F2F8" stroke-width="0.401757"/>
</g>
<path d="M229.026 58.3329C229.026 58.91 228.883 59.3627 228.596 59.691C228.31 60.014 227.872 60.1755 227.284 60.1755C226.705 60.1755 226.278 60.014 226.002 59.691C225.725 59.3627 225.587 58.91 225.587 58.3329V56.0454H224.896V55.3544H226.815V56.0454H226.355V58.5155C226.355 58.865 226.437 59.1192 226.6 59.278C226.769 59.4316 226.997 59.5084 227.284 59.5084C227.586 59.5084 227.821 59.4236 227.99 59.2542C228.164 59.0795 228.251 58.8068 228.251 58.4361V56.0454H227.79V55.3544H229.717V56.0454H229.026V58.3329Z" fill="#4169E1"/>
<rect x="224.093" y="60.9791" width="6.42812" height="0.803515" rx="0.401757" fill="#4169E1"/>
<g filter="url(#filter16_d_81_962)">
<rect x="186.328" y="50.9352" width="14.4633" height="14.4633" rx="3.21406" fill="white"/>
<rect x="186.529" y="51.1361" width="14.0615" height="14.0615" rx="3.01318" stroke="#F0F2F8" stroke-width="0.401757"/>
</g>
<path d="M190.747 61.3809V60.4907H191.67V56.2446H190.747V55.3545H193.415C194.181 55.3545 194.766 55.4943 195.169 55.774C195.573 56.0468 195.775 56.439 195.775 56.9506C195.775 57.2439 195.703 57.5099 195.559 57.7487C195.416 57.9806 195.214 58.1613 194.954 58.2909C195.255 58.3864 195.498 58.5604 195.682 58.8127C195.874 59.0583 195.97 59.3652 195.97 59.7336C195.97 60.2315 195.799 60.6305 195.457 60.9307C195.121 61.2308 194.612 61.3809 193.928 61.3809H190.747ZM192.696 57.9533H193.876C194.143 57.9533 194.345 57.8783 194.482 57.7282C194.625 57.5781 194.697 57.3701 194.697 57.1041C194.697 56.5311 194.307 56.2446 193.528 56.2446H192.696V57.9533ZM192.686 60.4907H193.805C194.53 60.4907 194.892 60.1906 194.892 59.5903C194.892 59.3175 194.803 59.1095 194.625 58.9662C194.448 58.8162 194.195 58.7411 193.866 58.7411H192.696L192.686 60.4907Z" fill="#4169E1"/>
<g filter="url(#filter17_d_81_962)">
<rect x="203.201" y="50.9352" width="14.4633" height="14.4633" rx="3.21406" fill="white"/>
<rect x="203.402" y="51.1361" width="14.0615" height="14.0615" rx="3.01318" stroke="#F0F2F8" stroke-width="0.401757"/>
</g>
<rect x="207.219" y="60.9791" width="6.42812" height="0.803515" rx="0.401757" fill="#4169E1"/>
<path d="M209.905 55.3544H212.04V56.0665H211.355L210.671 59.4634H211.371V60.1755H209.228V59.4634H209.942L210.612 56.0665H209.905V55.3544Z" fill="#4169E1"/>
<g filter="url(#filter18_d_81_962)">
<rect x="148.562" y="50.9352" width="14.4633" height="14.4633" rx="3.21406" fill="white"/>
<rect x="148.763" y="51.1361" width="14.0615" height="14.0615" rx="3.01318" stroke="#F0F2F8" stroke-width="0.401757"/>
</g>
<path d="M152.847 55.3714H157.487V56.9977H156.683V56.1404H155.613L155.596 59.8084H156.391V60.5774H153.916V59.8084H154.712V56.1404H153.651V56.9977H152.847V55.3714Z" fill="#4169E1"/>
<path d="M157 57.765H159.41V58.6436H158.992V58.1804H158.437L158.427 60.1619H158.841V60.5773H157.555V60.1619H157.968V58.1804H157.417V58.6436H157V57.765Z" fill="#4169E1"/>
<g filter="url(#filter19_d_81_962)">
<rect x="165.436" y="50.9352" width="14.4633" height="14.4633" rx="3.21406" fill="white"/>
<rect x="165.637" y="51.1361" width="14.0615" height="14.0615" rx="3.01318" stroke="#F0F2F8" stroke-width="0.401757"/>
</g>
<path d="M171.327 55.3713H175.968V56.9977H175.163V56.1403H174.094L174.076 59.8083H174.872V60.5773H172.397V59.8083H173.192V56.1403H172.132V56.9977H171.327V55.3713Z" fill="#4169E1"/>
<path d="M169.454 57.765H171.864V58.6435H171.447V58.1804H170.891L170.882 60.1619H171.295V60.5773H170.009V60.1619H170.423V58.1804H169.872V58.6435H169.454V57.765Z" fill="#4169E1"/>
<g filter="url(#filter20_d_81_962)">
<rect width="578.531" height="25.7125" transform="translate(20 20)" fill="white"/>
<path d="M547.754 31.6683V35.8386H547.206V32.729L545.82 35.8386H545.434L544.042 32.7229V35.8386H543.494V31.6683H544.084L545.627 35.1154L547.17 31.6683H547.754ZM551.529 32.5361L549.54 37.3934H548.974L549.625 35.8024L548.293 32.5361H548.901L549.938 35.2118L550.962 32.5361H551.529ZM554.995 31.6382C555.453 31.6382 555.848 31.7246 556.182 31.8973C556.519 32.0661 556.776 32.3091 556.953 32.6265C557.134 32.9439 557.224 33.3175 557.224 33.7474C557.224 34.1773 557.134 34.5509 556.953 34.8683C556.776 35.1817 556.519 35.4227 556.182 35.5915C555.848 35.7562 555.453 35.8386 554.995 35.8386H553.687V31.6382H554.995ZM554.995 35.3866C555.537 35.3866 555.951 35.244 556.236 34.9587C556.521 34.6694 556.664 34.2657 556.664 33.7474C556.664 33.2251 556.519 32.8173 556.23 32.5241C555.945 32.2308 555.533 32.0841 554.995 32.0841H554.235V35.3866H554.995ZM557.743 34.1753C557.743 33.8378 557.811 33.5425 557.948 33.2894C558.084 33.0323 558.271 32.8334 558.508 32.6928C558.749 32.5522 559.016 32.4819 559.31 32.4819C559.599 32.4819 559.85 32.5442 560.063 32.6687C560.276 32.7932 560.435 32.9499 560.539 33.1388V32.5361H561.093V35.8386H560.539V35.2239C560.431 35.4167 560.268 35.5774 560.051 35.706C559.838 35.8305 559.589 35.8928 559.304 35.8928C559.01 35.8928 558.745 35.8205 558.508 35.6759C558.271 35.5312 558.084 35.3283 557.948 35.0672C557.811 34.806 557.743 34.5087 557.743 34.1753ZM560.539 34.1813C560.539 33.9322 560.489 33.7153 560.388 33.5305C560.288 33.3457 560.151 33.205 559.979 33.1086C559.81 33.0082 559.623 32.958 559.418 32.958C559.213 32.958 559.026 33.0062 558.858 33.1026C558.689 33.199 558.554 33.3396 558.454 33.5244C558.353 33.7092 558.303 33.9262 558.303 34.1753C558.303 34.4284 558.353 34.6494 558.454 34.8382C558.554 35.023 558.689 35.1656 558.858 35.2661C559.026 35.3625 559.213 35.4107 559.418 35.4107C559.623 35.4107 559.81 35.3625 559.979 35.2661C560.151 35.1656 560.288 35.023 560.388 34.8382C560.489 34.6494 560.539 34.4304 560.539 34.1813ZM563.189 35.8928C562.936 35.8928 562.709 35.8506 562.508 35.7662C562.307 35.6779 562.149 35.5573 562.032 35.4047C561.916 35.248 561.851 35.0692 561.839 34.8683H562.406C562.422 35.033 562.498 35.1676 562.635 35.2721C562.776 35.3765 562.958 35.4288 563.183 35.4288C563.392 35.4288 563.557 35.3826 563.677 35.2902C563.798 35.1978 563.858 35.0812 563.858 34.9406C563.858 34.796 563.794 34.6895 563.665 34.6212C563.537 34.5489 563.338 34.4786 563.069 34.4103C562.824 34.346 562.623 34.2818 562.466 34.2175C562.313 34.1492 562.181 34.0507 562.068 33.9222C561.96 33.7896 561.906 33.6168 561.906 33.4039C561.906 33.2352 561.956 33.0805 562.056 32.9399C562.157 32.7993 562.299 32.6888 562.484 32.6084C562.669 32.5241 562.88 32.4819 563.117 32.4819C563.483 32.4819 563.778 32.5743 564.003 32.7591C564.228 32.9439 564.348 33.197 564.364 33.5184H563.816C563.804 33.3457 563.734 33.2071 563.605 33.1026C563.481 32.9981 563.312 32.9459 563.099 32.9459C562.902 32.9459 562.745 32.9881 562.629 33.0725C562.512 33.1568 562.454 33.2673 562.454 33.4039C562.454 33.5124 562.488 33.6028 562.557 33.6751C562.629 33.7434 562.717 33.7996 562.822 33.8438C562.93 33.884 563.079 33.9302 563.268 33.9824C563.505 34.0467 563.698 34.111 563.846 34.1753C563.995 34.2356 564.121 34.328 564.226 34.4525C564.334 34.577 564.391 34.7398 564.395 34.9406C564.395 35.1214 564.344 35.2841 564.244 35.4288C564.143 35.5734 564.001 35.6879 563.816 35.7723C563.635 35.8526 563.426 35.8928 563.189 35.8928ZM566.808 32.4759C567.057 32.4759 567.282 32.5301 567.483 32.6386C567.684 32.743 567.84 32.9017 567.953 33.1146C568.069 33.3276 568.128 33.5867 568.128 33.892V35.8386H567.585V33.9704C567.585 33.6409 567.503 33.3899 567.338 33.2171C567.174 33.0403 566.949 32.9519 566.663 32.9519C566.374 32.9519 566.143 33.0423 565.97 33.2231C565.802 33.4039 565.717 33.6671 565.717 34.0126V35.8386H565.169V31.3791H565.717V33.0062C565.826 32.8374 565.974 32.7069 566.163 32.6145C566.356 32.5221 566.571 32.4759 566.808 32.4759ZM569.572 33.1508C569.684 32.9539 569.849 32.7932 570.066 32.6687C570.283 32.5442 570.53 32.4819 570.807 32.4819C571.105 32.4819 571.372 32.5522 571.609 32.6928C571.846 32.8334 572.033 33.0323 572.169 33.2894C572.306 33.5425 572.374 33.8378 572.374 34.1753C572.374 34.5087 572.306 34.806 572.169 35.0672C572.033 35.3283 571.844 35.5312 571.603 35.6759C571.366 35.8205 571.101 35.8928 570.807 35.8928C570.522 35.8928 570.271 35.8305 570.054 35.706C569.841 35.5814 569.68 35.4227 569.572 35.2299V35.8386H569.023V31.3791H569.572V33.1508ZM571.814 34.1753C571.814 33.9262 571.763 33.7092 571.663 33.5244C571.563 33.3396 571.426 33.199 571.253 33.1026C571.085 33.0062 570.898 32.958 570.693 32.958C570.492 32.958 570.305 33.0082 570.132 33.1086C569.964 33.205 569.827 33.3477 569.723 33.5365C569.622 33.7213 569.572 33.9362 569.572 34.1813C569.572 34.4304 569.622 34.6494 569.723 34.8382C569.827 35.023 569.964 35.1656 570.132 35.2661C570.305 35.3625 570.492 35.4107 570.693 35.4107C570.898 35.4107 571.085 35.3625 571.253 35.2661C571.426 35.1656 571.563 35.023 571.663 34.8382C571.763 34.6494 571.814 34.4284 571.814 34.1753ZM574.536 35.8928C574.227 35.8928 573.946 35.8225 573.693 35.6819C573.444 35.5413 573.247 35.3424 573.102 35.0853C572.961 34.8241 572.891 34.5228 572.891 34.1813C572.891 33.8438 572.963 33.5465 573.108 33.2894C573.257 33.0283 573.458 32.8294 573.711 32.6928C573.964 32.5522 574.247 32.4819 574.56 32.4819C574.874 32.4819 575.157 32.5522 575.41 32.6928C575.663 32.8294 575.862 33.0263 576.007 33.2834C576.155 33.5405 576.23 33.8398 576.23 34.1813C576.23 34.5228 576.153 34.8241 576.001 35.0853C575.852 35.3424 575.649 35.5413 575.392 35.6819C575.135 35.8225 574.85 35.8928 574.536 35.8928ZM574.536 35.4107C574.733 35.4107 574.918 35.3645 575.091 35.2721C575.263 35.1797 575.402 35.0411 575.507 34.8563C575.615 34.6715 575.669 34.4465 575.669 34.1813C575.669 33.9162 575.617 33.6912 575.513 33.5064C575.408 33.3216 575.272 33.185 575.103 33.0966C574.934 33.0042 574.751 32.958 574.554 32.958C574.353 32.958 574.169 33.0042 574 33.0966C573.835 33.185 573.703 33.3216 573.602 33.5064C573.502 33.6912 573.452 33.9162 573.452 34.1813C573.452 34.4505 573.5 34.6775 573.596 34.8623C573.697 35.0471 573.829 35.1857 573.994 35.2781C574.159 35.3665 574.339 35.4107 574.536 35.4107ZM576.746 34.1753C576.746 33.8378 576.814 33.5425 576.951 33.2894C577.087 33.0323 577.274 32.8334 577.511 32.6928C577.752 32.5522 578.019 32.4819 578.313 32.4819C578.602 32.4819 578.853 32.5442 579.066 32.6687C579.279 32.7932 579.438 32.9499 579.542 33.1388V32.5361H580.097V35.8386H579.542V35.2239C579.434 35.4167 579.271 35.5774 579.054 35.706C578.841 35.8305 578.592 35.8928 578.307 35.8928C578.013 35.8928 577.748 35.8205 577.511 35.6759C577.274 35.5312 577.087 35.3283 576.951 35.0672C576.814 34.806 576.746 34.5087 576.746 34.1753ZM579.542 34.1813C579.542 33.9322 579.492 33.7153 579.391 33.5305C579.291 33.3457 579.154 33.205 578.982 33.1086C578.813 33.0082 578.626 32.958 578.421 32.958C578.216 32.958 578.029 33.0062 577.861 33.1026C577.692 33.199 577.557 33.3396 577.457 33.5244C577.357 33.7092 577.306 33.9262 577.306 34.1753C577.306 34.4284 577.357 34.6494 577.457 34.8382C577.557 35.023 577.692 35.1656 577.861 35.2661C578.029 35.3625 578.216 35.4107 578.421 35.4107C578.626 35.4107 578.813 35.3625 578.982 35.2661C579.154 35.1656 579.291 35.023 579.391 34.8382C579.492 34.6494 579.542 34.4304 579.542 34.1813ZM581.572 33.0725C581.668 32.8836 581.805 32.737 581.981 32.6325C582.162 32.5281 582.381 32.4759 582.638 32.4759V33.0423H582.494C581.879 33.0423 581.572 33.3758 581.572 34.0427V35.8386H581.023V32.5361H581.572V33.0725ZM583.066 34.1753C583.066 33.8378 583.135 33.5425 583.271 33.2894C583.408 33.0323 583.595 32.8334 583.832 32.6928C584.073 32.5522 584.342 32.4819 584.639 32.4819C584.896 32.4819 585.136 32.5421 585.356 32.6627C585.577 32.7792 585.746 32.9339 585.863 33.1267V31.3791H586.417V35.8386H585.863V35.2178C585.754 35.4147 585.594 35.5774 585.381 35.706C585.168 35.8305 584.919 35.8928 584.633 35.8928C584.34 35.8928 584.073 35.8205 583.832 35.6759C583.595 35.5312 583.408 35.3283 583.271 35.0672C583.135 34.806 583.066 34.5087 583.066 34.1753ZM585.863 34.1813C585.863 33.9322 585.812 33.7153 585.712 33.5305C585.612 33.3457 585.475 33.205 585.302 33.1086C585.134 33.0082 584.947 32.958 584.742 32.958C584.537 32.958 584.35 33.0062 584.181 33.1026C584.013 33.199 583.878 33.3396 583.778 33.5244C583.677 33.7092 583.627 33.9262 583.627 34.1753C583.627 34.4284 583.677 34.6494 583.778 34.8382C583.878 35.023 584.013 35.1656 584.181 35.2661C584.35 35.3625 584.537 35.4107 584.742 35.4107C584.947 35.4107 585.134 35.3625 585.302 35.2661C585.475 35.1656 585.612 35.023 585.712 34.8382C585.812 34.6494 585.863 34.4304 585.863 34.1813Z" fill="#102870"/>
<path opacity="0.4" d="M535.485 29.2405H536.845C537.409 29.2405 537.865 29.7008 537.865 30.269V31.6408C537.865 32.2089 537.409 32.6693 536.845 32.6693H535.485C534.922 32.6693 534.465 32.2089 534.465 31.6408V30.269C534.465 29.7008 534.922 29.2405 535.485 29.2405Z" fill="#4169E1"/>
<path fill-rule="evenodd" clip-rule="evenodd" d="M530.851 29.2406H532.211C532.774 29.2406 533.231 29.701 533.231 30.2691V31.6409C533.231 32.209 532.774 32.6694 532.211 32.6694H530.851C530.287 32.6694 529.831 32.209 529.831 31.6409V30.2691C529.831 29.701 530.287 29.2406 530.851 29.2406ZM530.85 33.8468H532.21C532.774 33.8468 533.23 34.3071 533.23 34.8752V36.2471C533.23 36.8148 532.774 37.2756 532.21 37.2756H530.85C530.287 37.2756 529.83 36.8148 529.83 36.2471V34.8752C529.83 34.3071 530.287 33.8468 530.85 33.8468ZM536.845 33.8468H535.485C534.922 33.8468 534.465 34.3071 534.465 34.8752V36.2471C534.465 36.8148 534.922 37.2756 535.485 37.2756H536.845C537.409 37.2756 537.865 36.8148 537.865 36.2471V34.8752C537.865 34.3071 537.409 33.8468 536.845 33.8468Z" fill="#4169E1"/>
<path d="M39.9194 34.6387C40.6782 30.4344 37.7062 27.8506 36.1254 27.0842C35.4509 28.5732 36.0552 30.7702 36.4416 31.6826C36.4416 31.6826 32.5422 29.9308 34.2284 25.2229C34.2284 25.2229 29.0644 27.0842 31.4883 32.668C31.9226 33.6684 31.8045 34.0913 31.5937 34.3102C31.5937 34.3102 30.0129 35.4051 30.0129 30.9162C28.0106 32.1205 26.8091 36.4781 30.0129 38.1423C33.2167 39.8064 34.4392 35.5511 34.65 33.2154C34.65 33.2154 38.1278 36.5 34.2284 39.3466C35.8092 39.5291 39.1606 38.843 39.9194 34.6387Z" fill="#4169E1"/>
<path d="M51.5747 31.7588C51.5747 32.1862 51.4803 32.5786 51.2914 32.936C51.1026 33.2863 50.8125 33.5701 50.4213 33.7873C50.0301 34.0045 49.5445 34.1132 48.9645 34.1132H47.892V36.7618H46.162V29.3834H48.9645C49.531 29.3834 50.0099 29.485 50.4011 29.6882C50.7923 29.8914 51.0857 30.1717 51.2813 30.529C51.4769 30.8864 51.5747 31.2963 51.5747 31.7588ZM48.8329 32.6837C49.1634 32.6837 49.4096 32.6031 49.5715 32.442C49.7334 32.2808 49.8143 32.0531 49.8143 31.7588C49.8143 31.4645 49.7334 31.2367 49.5715 31.0756C49.4096 30.9144 49.1634 30.8338 48.8329 30.8338H47.892V32.6837H48.8329Z" fill="#102870"/>
<path d="M55.0451 36.8459C54.4921 36.8459 53.9929 36.7233 53.5478 36.4781C53.1094 36.2328 52.762 35.8825 52.5057 35.427C52.2562 34.9715 52.1314 34.439 52.1314 33.8294C52.1314 33.2268 52.2595 32.6977 52.5158 32.2423C52.7721 31.7798 53.1229 31.4259 53.568 31.1807C54.0132 30.9354 54.5123 30.8128 55.0654 30.8128C55.6184 30.8128 56.1176 30.9354 56.5627 31.1807C57.0079 31.4259 57.3586 31.7798 57.6149 32.2423C57.8712 32.6977 57.9994 33.2268 57.9994 33.8294C57.9994 34.432 57.8678 34.9645 57.6048 35.427C57.3485 35.8825 56.9944 36.2328 56.5425 36.4781C56.0973 36.7233 55.5982 36.8459 55.0451 36.8459ZM55.0451 35.2904C55.3756 35.2904 55.6555 35.1642 55.8849 34.912C56.1209 34.6597 56.239 34.2988 56.239 33.8294C56.239 33.3599 56.1243 32.999 55.895 32.7468C55.6724 32.4945 55.3959 32.3684 55.0654 32.3684C54.7281 32.3684 54.4482 32.4945 54.2256 32.7468C54.0031 32.992 53.8918 33.3529 53.8918 33.8294C53.8918 34.2988 53.9997 34.6597 54.2155 34.912C54.4381 35.1642 54.7146 35.2904 55.0451 35.2904Z" fill="#102870"/>
<path d="M61.2138 36.8459C60.7214 36.8459 60.283 36.7583 59.8986 36.5832C59.5141 36.408 59.2106 36.1697 58.988 35.8684C58.7654 35.5601 58.6406 35.2168 58.6137 34.8384H60.3235C60.3437 35.0416 60.4348 35.2063 60.5966 35.3324C60.7585 35.4585 60.9575 35.5216 61.1936 35.5216C61.4094 35.5216 61.5746 35.4795 61.6893 35.3955C61.8107 35.3044 61.8714 35.1887 61.8714 35.0486C61.8714 34.8804 61.7871 34.7578 61.6185 34.6807C61.4499 34.5966 61.1767 34.5056 60.799 34.4075C60.3943 34.3094 60.0571 34.2078 59.7873 34.1026C59.5175 33.9905 59.2848 33.8189 59.0892 33.5876C58.8936 33.3494 58.7958 33.0306 58.7958 32.6312C58.7958 32.2948 58.8835 31.99 59.0588 31.7167C59.2409 31.4364 59.504 31.2157 59.848 31.0546C60.1987 30.8934 60.6135 30.8128 61.0924 30.8128C61.8006 30.8128 62.357 30.995 62.7617 31.3594C63.1732 31.7237 63.4092 32.2072 63.4699 32.8098H61.8714C61.8444 32.6066 61.7568 32.4455 61.6084 32.3263C61.4667 32.2072 61.2779 32.1477 61.0418 32.1477C60.8395 32.1477 60.6843 32.1897 60.5764 32.2738C60.4685 32.3509 60.4145 32.4595 60.4145 32.5996C60.4145 32.7678 60.4988 32.8939 60.6675 32.978C60.8428 33.0621 61.1126 33.1462 61.4768 33.2303C61.895 33.3424 62.2356 33.4545 62.4987 33.5666C62.7617 33.6717 62.9911 33.8469 63.1867 34.0921C63.389 34.3304 63.4935 34.6527 63.5003 35.0591C63.5003 35.4025 63.4059 35.7108 63.217 35.9841C63.0349 36.2503 62.7685 36.4605 62.4177 36.6147C62.0738 36.7689 61.6724 36.8459 61.2138 36.8459Z" fill="#102870"/>
<path d="M67.7052 35.2378V36.7618H66.825C66.1977 36.7618 65.7087 36.6042 65.358 36.2889C65.0072 35.9665 64.8319 35.4445 64.8319 34.7228V32.3894H64.1439V30.8969H64.8319V29.4674H66.5619V30.8969H67.6951V32.3894H66.5619V34.7438C66.5619 34.919 66.6024 35.0451 66.6833 35.1222C66.7643 35.1993 66.8992 35.2378 67.088 35.2378H67.7052Z" fill="#102870"/>
<path d="M74.8201 29.3834V36.7618H73.0901V33.7243H70.3989V36.7618H68.6688V29.3834H70.3989V32.2738H73.0901V29.3834H74.8201Z" fill="#102870"/>
<path d="M81.3907 33.7348C81.3907 33.9029 81.3806 34.0781 81.3603 34.2603H77.445C77.4719 34.6247 77.5832 34.905 77.7788 35.1012C77.9812 35.2904 78.2274 35.3849 78.5174 35.3849C78.9491 35.3849 79.2492 35.1958 79.4178 34.8174H81.2592C81.1647 35.2028 80.9927 35.5496 80.7432 35.8579C80.5004 36.1662 80.1935 36.408 79.8225 36.5832C79.4515 36.7583 79.0367 36.8459 78.5781 36.8459C78.025 36.8459 77.5327 36.7233 77.101 36.4781C76.6693 36.2328 76.3321 35.8825 76.0893 35.427C75.8465 34.9715 75.725 34.439 75.725 33.8294C75.725 33.2198 75.8431 32.6872 76.0791 32.2318C76.322 31.7763 76.6592 31.4259 77.0909 31.1807C77.5225 30.9354 78.0183 30.8128 78.5781 30.8128C79.1244 30.8128 79.6101 30.9319 80.035 31.1702C80.4599 31.4084 80.7904 31.7483 81.0265 32.1897C81.2693 32.6312 81.3907 33.1462 81.3907 33.7348ZM79.6202 33.2618C79.6202 32.9535 79.519 32.7082 79.3167 32.526C79.1143 32.3439 78.8614 32.2528 78.5579 32.2528C78.2678 32.2528 78.0217 32.3404 77.8193 32.5155C77.6237 32.6907 77.5023 32.9395 77.4551 33.2618H79.6202Z" fill="#102870"/>
<path d="M81.9594 33.8189C81.9594 33.2162 82.0673 32.6872 82.2831 32.2318C82.5057 31.7763 82.8059 31.4259 83.1836 31.1807C83.5613 30.9354 83.9828 30.8128 84.4482 30.8128C84.8462 30.8128 85.1935 30.8969 85.4903 31.0651C85.7938 31.2332 86.0265 31.454 86.1884 31.7272V30.8969H87.9184V36.7618H86.1884V35.9315C86.0198 36.2048 85.7837 36.4255 85.4802 36.5937C85.1834 36.7618 84.836 36.8459 84.4381 36.8459C83.9795 36.8459 83.5613 36.7233 83.1836 36.4781C82.8059 36.2258 82.5057 35.8719 82.2831 35.4165C82.0673 34.954 81.9594 34.4215 81.9594 33.8189ZM86.1884 33.8294C86.1884 33.3809 86.067 33.0271 85.8242 32.7678C85.5881 32.5085 85.2981 32.3789 84.9541 32.3789C84.6101 32.3789 84.3167 32.5085 84.0739 32.7678C83.8378 33.0201 83.7198 33.3704 83.7198 33.8189C83.7198 34.2673 83.8378 34.6247 84.0739 34.8909C84.3167 35.1502 84.6101 35.2798 84.9541 35.2798C85.2981 35.2798 85.5881 35.1502 85.8242 34.8909C86.067 34.6317 86.1884 34.2778 86.1884 33.8294Z" fill="#102870"/>
<path d="M92.3165 35.2378V36.7618H91.4363C90.809 36.7618 90.32 36.6042 89.9693 36.2889C89.6186 35.9665 89.4432 35.4445 89.4432 34.7228V32.3894H88.7552V30.8969H89.4432V29.4674H91.1732V30.8969H92.3064V32.3894H91.1732V34.7438C91.1732 34.919 91.2137 35.0451 91.2946 35.1222C91.3756 35.1993 91.5105 35.2378 91.6993 35.2378H92.3165Z" fill="#102870"/>
</g>
</g>
</g>
<defs>
<filter id="filter0_dd_81_962" x="0.520855" y="0.520855" width="625.281" height="350.75" filterUnits="userSpaceOnUse" color-interpolation-filters="sRGB">
<feFlood flood-opacity="0" result="BackgroundImageFix"/>
<feColorMatrix in="SourceAlpha" type="matrix" values="0 0 0 0 0 0 0 0 0 0 0 0 0 0 0 0 0 0 127 0" result="hardAlpha"/>
<feOffset dx="3.89583" dy="3.89583"/>
<feGaussianBlur stdDeviation="11.6875"/>
<feColorMatrix type="matrix" values="0 0 0 0 0.254902 0 0 0 0 0.411765 0 0 0 0 0.882353 0 0 0 0.25 0"/>
<feBlend mode="normal" in2="BackgroundImageFix" result="effect1_dropShadow_81_962"/>
<feColorMatrix in="SourceAlpha" type="matrix" values="0 0 0 0 0 0 0 0 0 0 0 0 0 0 0 0 0 0 127 0" result="hardAlpha"/>
<feOffset dx="3.89583" dy="3.89583"/>
<feGaussianBlur stdDeviation="5.84374"/>
<feColorMatrix type="matrix" values="0 0 0 0 0.254902 0 0 0 0 0.411765 0 0 0 0 0.882353 0 0 0 0.13 0"/>
<feBlend mode="normal" in2="effect1_dropShadow_81_962" result="effect2_dropShadow_81_962"/>
<feBlend mode="normal" in="SourceGraphic" in2="effect2_dropShadow_81_962" result="shape"/>
</filter>
<filter id="filter1_d_81_962" x="17.1879" y="44.5073" width="584.155" height="29.7301" filterUnits="userSpaceOnUse" color-interpolation-filters="sRGB">
<feFlood flood-opacity="0" result="BackgroundImageFix"/>
<feColorMatrix in="SourceAlpha" type="matrix" values="0 0 0 0 0 0 0 0 0 0 0 0 0 0 0 0 0 0 127 0" result="hardAlpha"/>
<feOffset dy="1.60703"/>
<feGaussianBlur stdDeviation="1.40615"/>
<feColorMatrix type="matrix" values="0 0 0 0 0.254115 0 0 0 0 0.314544 0 0 0 0 0.495833 0 0 0 0.07 0"/>
<feBlend mode="normal" in2="BackgroundImageFix" result="effect1_dropShadow_81_962"/>
<feBlend mode="normal" in="SourceGraphic" in2="effect1_dropShadow_81_962" result="shape"/>
</filter>
<filter id="filter2_d_81_962" x="138.92" y="70.6214" width="340.69" height="548.801" filterUnits="userSpaceOnUse" color-interpolation-filters="sRGB">
<feFlood flood-opacity="0" result="BackgroundImageFix"/>
<feColorMatrix in="SourceAlpha" type="matrix" values="0 0 0 0 0 0 0 0 0 0 0 0 0 0 0 0 0 0 127 0" result="hardAlpha"/>
<feOffset/>
<feGaussianBlur stdDeviation="4.82109"/>
<feColorMatrix type="matrix" values="0 0 0 0 0.254115 0 0 0 0 0.314544 0 0 0 0 0.495833 0 0 0 0.1 0"/>
<feBlend mode="normal" in2="BackgroundImageFix" result="effect1_dropShadow_81_962"/>
<feBlend mode="normal" in="SourceGraphic" in2="effect1_dropShadow_81_962" result="shape"/>
</filter>
<filter id="filter3_d_81_962" x="43.3022" y="49.3283" width="80.3514" height="20.0879" filterUnits="userSpaceOnUse" color-interpolation-filters="sRGB">
<feFlood flood-opacity="0" result="BackgroundImageFix"/>
<feColorMatrix in="SourceAlpha" type="matrix" values="0 0 0 0 0 0 0 0 0 0 0 0 0 0 0 0 0 0 127 0" result="hardAlpha"/>
<feOffset dy="1.60703"/>
<feGaussianBlur stdDeviation="1.40615"/>
<feColorMatrix type="matrix" values="0 0 0 0 0.254115 0 0 0 0 0.314544 0 0 0 0 0.495833 0 0 0 0.07 0"/>
<feBlend mode="normal" in2="BackgroundImageFix" result="effect1_dropShadow_81_962"/>
<feBlend mode="normal" in="SourceGraphic" in2="effect1_dropShadow_81_962" result="shape"/>
</filter>
<filter id="filter4_d_81_962" x="541.883" y="50.5336" width="46.6038" height="17.6773" filterUnits="userSpaceOnUse" color-interpolation-filters="sRGB">
<feFlood flood-opacity="0" result="BackgroundImageFix"/>
<feColorMatrix in="SourceAlpha" type="matrix" values="0 0 0 0 0 0 0 0 0 0 0 0 0 0 0 0 0 0 127 0" result="hardAlpha"/>
<feOffset dy="1.60703"/>
<feGaussianBlur stdDeviation="0.803515"/>
<feColorMatrix type="matrix" values="0 0 0 0 0.254902 0 0 0 0 0.411765 0 0 0 0 0.882353 0 0 0 0.3 0"/>
<feBlend mode="normal" in2="BackgroundImageFix" result="effect1_dropShadow_81_962"/>
<feBlend mode="normal" in="SourceGraphic" in2="effect1_dropShadow_81_962" result="shape"/>
</filter>
<filter id="filter5_d_81_962" x="389.215" y="49.3283" width="20.0879" height="20.0879" filterUnits="userSpaceOnUse" color-interpolation-filters="sRGB">
<feFlood flood-opacity="0" result="BackgroundImageFix"/>
<feColorMatrix in="SourceAlpha" type="matrix" values="0 0 0 0 0 0 0 0 0 0 0 0 0 0 0 0 0 0 127 0" result="hardAlpha"/>
<feOffset dy="1.60703"/>
<feGaussianBlur stdDeviation="1.40615"/>
<feColorMatrix type="matrix" values="0 0 0 0 0.254115 0 0 0 0 0.314544 0 0 0 0 0.495833 0 0 0 0.07 0"/>
<feBlend mode="normal" in2="BackgroundImageFix" result="effect1_dropShadow_81_962"/>
<feBlend mode="normal" in="SourceGraphic" in2="effect1_dropShadow_81_962" result="shape"/>
</filter>
<filter id="filter6_d_81_962" x="406.089" y="49.3283" width="20.0879" height="20.0879" filterUnits="userSpaceOnUse" color-interpolation-filters="sRGB">
<feFlood flood-opacity="0" result="BackgroundImageFix"/>
<feColorMatrix in="SourceAlpha" type="matrix" values="0 0 0 0 0 0 0 0 0 0 0 0 0 0 0 0 0 0 127 0" result="hardAlpha"/>
<feOffset dy="1.60703"/>
<feGaussianBlur stdDeviation="1.40615"/>
<feColorMatrix type="matrix" values="0 0 0 0 0.254115 0 0 0 0 0.314544 0 0 0 0 0.495833 0 0 0 0.07 0"/>
<feBlend mode="normal" in2="BackgroundImageFix" result="effect1_dropShadow_81_962"/>
<feBlend mode="normal" in="SourceGraphic" in2="effect1_dropShadow_81_962" result="shape"/>
</filter>
<filter id="filter7_d_81_962" x="334.576" y="49.3283" width="20.0879" height="20.0879" filterUnits="userSpaceOnUse" color-interpolation-filters="sRGB">
<feFlood flood-opacity="0" result="BackgroundImageFix"/>
<feColorMatrix in="SourceAlpha" type="matrix" values="0 0 0 0 0 0 0 0 0 0 0 0 0 0 0 0 0 0 127 0" result="hardAlpha"/>
<feOffset dy="1.60703"/>
<feGaussianBlur stdDeviation="1.40615"/>
<feColorMatrix type="matrix" values="0 0 0 0 0.254115 0 0 0 0 0.314544 0 0 0 0 0.495833 0 0 0 0.07 0"/>
<feBlend mode="normal" in2="BackgroundImageFix" result="effect1_dropShadow_81_962"/>
<feBlend mode="normal" in="SourceGraphic" in2="effect1_dropShadow_81_962" result="shape"/>
</filter>
<filter id="filter8_d_81_962" x="351.45" y="49.3283" width="20.0879" height="20.0879" filterUnits="userSpaceOnUse" color-interpolation-filters="sRGB">
<feFlood flood-opacity="0" result="BackgroundImageFix"/>
<feColorMatrix in="SourceAlpha" type="matrix" values="0 0 0 0 0 0 0 0 0 0 0 0 0 0 0 0 0 0 127 0" result="hardAlpha"/>
<feOffset dy="1.60703"/>
<feGaussianBlur stdDeviation="1.40615"/>
<feColorMatrix type="matrix" values="0 0 0 0 0.254115 0 0 0 0 0.314544 0 0 0 0 0.495833 0 0 0 0.07 0"/>
<feBlend mode="normal" in2="BackgroundImageFix" result="effect1_dropShadow_81_962"/>
<feBlend mode="normal" in="SourceGraphic" in2="effect1_dropShadow_81_962" result="shape"/>
</filter>
<filter id="filter9_d_81_962" x="368.324" y="49.3283" width="20.0879" height="20.0879" filterUnits="userSpaceOnUse" color-interpolation-filters="sRGB">
<feFlood flood-opacity="0" result="BackgroundImageFix"/>
<feColorMatrix in="SourceAlpha" type="matrix" values="0 0 0 0 0 0 0 0 0 0 0 0 0 0 0 0 0 0 127 0" result="hardAlpha"/>
<feOffset dy="1.60703"/>
<feGaussianBlur stdDeviation="1.40615"/>
<feColorMatrix type="matrix" values="0 0 0 0 0.254115 0 0 0 0 0.314544 0 0 0 0 0.495833 0 0 0 0.07 0"/>
<feBlend mode="normal" in2="BackgroundImageFix" result="effect1_dropShadow_81_962"/>
<feBlend mode="normal" in="SourceGraphic" in2="effect1_dropShadow_81_962" result="shape"/>
</filter>
<filter id="filter10_d_81_962" x="313.685" y="49.3283" width="20.0879" height="20.0879" filterUnits="userSpaceOnUse" color-interpolation-filters="sRGB">
<feFlood flood-opacity="0" result="BackgroundImageFix"/>
<feColorMatrix in="SourceAlpha" type="matrix" values="0 0 0 0 0 0 0 0 0 0 0 0 0 0 0 0 0 0 127 0" result="hardAlpha"/>
<feOffset dy="1.60703"/>
<feGaussianBlur stdDeviation="1.40615"/>
<feColorMatrix type="matrix" values="0 0 0 0 0.254115 0 0 0 0 0.314544 0 0 0 0 0.495833 0 0 0 0.07 0"/>
<feBlend mode="normal" in2="BackgroundImageFix" result="effect1_dropShadow_81_962"/>
<feBlend mode="normal" in="SourceGraphic" in2="effect1_dropShadow_81_962" result="shape"/>
</filter>
<filter id="filter11_d_81_962" x="296.811" y="49.3283" width="20.0879" height="20.0879" filterUnits="userSpaceOnUse" color-interpolation-filters="sRGB">
<feFlood flood-opacity="0" result="BackgroundImageFix"/>
<feColorMatrix in="SourceAlpha" type="matrix" values="0 0 0 0 0 0 0 0 0 0 0 0 0 0 0 0 0 0 127 0" result="hardAlpha"/>
<feOffset dy="1.60703"/>
<feGaussianBlur stdDeviation="1.40615"/>
<feColorMatrix type="matrix" values="0 0 0 0 0.254115 0 0 0 0 0.314544 0 0 0 0 0.495833 0 0 0 0.07 0"/>
<feBlend mode="normal" in2="BackgroundImageFix" result="effect1_dropShadow_81_962"/>
<feBlend mode="normal" in="SourceGraphic" in2="effect1_dropShadow_81_962" result="shape"/>
</filter>
<filter id="filter12_d_81_962" x="275.92" y="49.73" width="20.0879" height="20.0879" filterUnits="userSpaceOnUse" color-interpolation-filters="sRGB">
<feFlood flood-opacity="0" result="BackgroundImageFix"/>
<feColorMatrix in="SourceAlpha" type="matrix" values="0 0 0 0 0 0 0 0 0 0 0 0 0 0 0 0 0 0 127 0" result="hardAlpha"/>
<feOffset dy="1.60703"/>
<feGaussianBlur stdDeviation="1.40615"/>
<feColorMatrix type="matrix" values="0 0 0 0 0.254115 0 0 0 0 0.314544 0 0 0 0 0.495833 0 0 0 0.07 0"/>
<feBlend mode="normal" in2="BackgroundImageFix" result="effect1_dropShadow_81_962"/>
<feBlend mode="normal" in="SourceGraphic" in2="effect1_dropShadow_81_962" result="shape"/>
</filter>
<filter id="filter13_d_81_962" x="255.028" y="49.7299" width="20.0879" height="20.0879" filterUnits="userSpaceOnUse" color-interpolation-filters="sRGB">
<feFlood flood-opacity="0" result="BackgroundImageFix"/>
<feColorMatrix in="SourceAlpha" type="matrix" values="0 0 0 0 0 0 0 0 0 0 0 0 0 0 0 0 0 0 127 0" result="hardAlpha"/>
<feOffset dy="1.60703"/>
<feGaussianBlur stdDeviation="1.40615"/>
<feColorMatrix type="matrix" values="0 0 0 0 0.254115 0 0 0 0 0.314544 0 0 0 0 0.495833 0 0 0 0.07 0"/>
<feBlend mode="normal" in2="BackgroundImageFix" result="effect1_dropShadow_81_962"/>
<feBlend mode="normal" in="SourceGraphic" in2="effect1_dropShadow_81_962" result="shape"/>
</filter>
<filter id="filter14_d_81_962" x="238.154" y="49.73" width="20.0879" height="20.0879" filterUnits="userSpaceOnUse" color-interpolation-filters="sRGB">
<feFlood flood-opacity="0" result="BackgroundImageFix"/>
<feColorMatrix in="SourceAlpha" type="matrix" values="0 0 0 0 0 0 0 0 0 0 0 0 0 0 0 0 0 0 127 0" result="hardAlpha"/>
<feOffset dy="1.60703"/>
<feGaussianBlur stdDeviation="1.40615"/>
<feColorMatrix type="matrix" values="0 0 0 0 0.254115 0 0 0 0 0.314544 0 0 0 0 0.495833 0 0 0 0.07 0"/>
<feBlend mode="normal" in2="BackgroundImageFix" result="effect1_dropShadow_81_962"/>
<feBlend mode="normal" in="SourceGraphic" in2="effect1_dropShadow_81_962" result="shape"/>
</filter>
<filter id="filter15_d_81_962" x="217.263" y="49.7299" width="20.0879" height="20.0879" filterUnits="userSpaceOnUse" color-interpolation-filters="sRGB">
<feFlood flood-opacity="0" result="BackgroundImageFix"/>
<feColorMatrix in="SourceAlpha" type="matrix" values="0 0 0 0 0 0 0 0 0 0 0 0 0 0 0 0 0 0 127 0" result="hardAlpha"/>
<feOffset dy="1.60703"/>
<feGaussianBlur stdDeviation="1.40615"/>
<feColorMatrix type="matrix" values="0 0 0 0 0.254115 0 0 0 0 0.314544 0 0 0 0 0.495833 0 0 0 0.07 0"/>
<feBlend mode="normal" in2="BackgroundImageFix" result="effect1_dropShadow_81_962"/>
<feBlend mode="normal" in="SourceGraphic" in2="effect1_dropShadow_81_962" result="shape"/>
</filter>
<filter id="filter16_d_81_962" x="183.515" y="49.73" width="20.0879" height="20.0879" filterUnits="userSpaceOnUse" color-interpolation-filters="sRGB">
<feFlood flood-opacity="0" result="BackgroundImageFix"/>
<feColorMatrix in="SourceAlpha" type="matrix" values="0 0 0 0 0 0 0 0 0 0 0 0 0 0 0 0 0 0 127 0" result="hardAlpha"/>
<feOffset dy="1.60703"/>
<feGaussianBlur stdDeviation="1.40615"/>
<feColorMatrix type="matrix" values="0 0 0 0 0.254115 0 0 0 0 0.314544 0 0 0 0 0.495833 0 0 0 0.07 0"/>
<feBlend mode="normal" in2="BackgroundImageFix" result="effect1_dropShadow_81_962"/>
<feBlend mode="normal" in="SourceGraphic" in2="effect1_dropShadow_81_962" result="shape"/>
</filter>
<filter id="filter17_d_81_962" x="200.389" y="49.7299" width="20.0879" height="20.0879" filterUnits="userSpaceOnUse" color-interpolation-filters="sRGB">
<feFlood flood-opacity="0" result="BackgroundImageFix"/>
<feColorMatrix in="SourceAlpha" type="matrix" values="0 0 0 0 0 0 0 0 0 0 0 0 0 0 0 0 0 0 127 0" result="hardAlpha"/>
<feOffset dy="1.60703"/>
<feGaussianBlur stdDeviation="1.40615"/>
<feColorMatrix type="matrix" values="0 0 0 0 0.254115 0 0 0 0 0.314544 0 0 0 0 0.495833 0 0 0 0.07 0"/>
<feBlend mode="normal" in2="BackgroundImageFix" result="effect1_dropShadow_81_962"/>
<feBlend mode="normal" in="SourceGraphic" in2="effect1_dropShadow_81_962" result="shape"/>
</filter>
<filter id="filter18_d_81_962" x="145.75" y="49.73" width="20.0879" height="20.0879" filterUnits="userSpaceOnUse" color-interpolation-filters="sRGB">
<feFlood flood-opacity="0" result="BackgroundImageFix"/>
<feColorMatrix in="SourceAlpha" type="matrix" values="0 0 0 0 0 0 0 0 0 0 0 0 0 0 0 0 0 0 127 0" result="hardAlpha"/>
<feOffset dy="1.60703"/>
<feGaussianBlur stdDeviation="1.40615"/>
<feColorMatrix type="matrix" values="0 0 0 0 0.254115 0 0 0 0 0.314544 0 0 0 0 0.495833 0 0 0 0.07 0"/>
<feBlend mode="normal" in2="BackgroundImageFix" result="effect1_dropShadow_81_962"/>
<feBlend mode="normal" in="SourceGraphic" in2="effect1_dropShadow_81_962" result="shape"/>
</filter>
<filter id="filter19_d_81_962" x="162.624" y="49.7299" width="20.0879" height="20.0879" filterUnits="userSpaceOnUse" color-interpolation-filters="sRGB">
<feFlood flood-opacity="0" result="BackgroundImageFix"/>
<feColorMatrix in="SourceAlpha" type="matrix" values="0 0 0 0 0 0 0 0 0 0 0 0 0 0 0 0 0 0 127 0" result="hardAlpha"/>
<feOffset dy="1.60703"/>
<feGaussianBlur stdDeviation="1.40615"/>
<feColorMatrix type="matrix" values="0 0 0 0 0.254115 0 0 0 0 0.314544 0 0 0 0 0.495833 0 0 0 0.07 0"/>
<feBlend mode="normal" in2="BackgroundImageFix" result="effect1_dropShadow_81_962"/>
<feBlend mode="normal" in="SourceGraphic" in2="effect1_dropShadow_81_962" result="shape"/>
</filter>
<filter id="filter20_d_81_962" x="19.5982" y="20" width="579.334" height="26.516" filterUnits="userSpaceOnUse" color-interpolation-filters="sRGB">
<feFlood flood-opacity="0" result="BackgroundImageFix"/>
<feColorMatrix in="SourceAlpha" type="matrix" values="0 0 0 0 0 0 0 0 0 0 0 0 0 0 0 0 0 0 127 0" result="hardAlpha"/>
<feOffset dy="0.401757"/>
<feGaussianBlur stdDeviation="0.200879"/>
<feColorMatrix type="matrix" values="0 0 0 0 0.254115 0 0 0 0 0.314544 0 0 0 0 0.495833 0 0 0 0.14 0"/>
<feBlend mode="normal" in2="BackgroundImageFix" result="effect1_dropShadow_81_962"/>
<feBlend mode="normal" in="SourceGraphic" in2="effect1_dropShadow_81_962" result="shape"/>
</filter>
<clipPath id="clip0_81_962">
<rect x="20" y="20" width="578.531" height="304" rx="10" fill="white"/>
</clipPath>
</defs>
</svg>
