<svg width="271" height="507" viewBox="0 0 271 507" fill="none" xmlns="http://www.w3.org/2000/svg">
<g filter="url(#filter0_d_81_963)">
<rect x="34" y="25" width="195" height="431" rx="10" fill="#F8F9FF"/>
<g filter="url(#filter1_d_81_963)">
<rect x="45.5474" y="42.3214" width="171.768" height="36.0858" rx="5.77373" fill="white"/>
<rect x="45.9082" y="42.6822" width="171.047" height="35.3641" rx="5.41287" stroke="#F0F2F8" stroke-width="0.721716"/>
</g>
<path d="M69.1505 56.6437V57.9485H67.0026V64.7038H65.386V57.9485H63.2382V56.6437H69.1505ZM76.277 61.3666C76.277 61.5975 76.2616 61.8054 76.2308 61.9901H71.554C71.5925 62.452 71.7542 62.8139 72.039 63.0756C72.3239 63.3373 72.6742 63.4682 73.0899 63.4682C73.6903 63.4682 74.1176 63.2103 74.3716 62.6945H76.1153C75.9305 63.3104 75.5764 63.8185 75.0529 64.2188C74.5294 64.6114 73.8866 64.8077 73.1245 64.8077C72.5086 64.8077 71.9544 64.673 71.4617 64.4036C70.9767 64.1264 70.5956 63.7377 70.3185 63.2373C70.049 62.7369 69.9143 62.1595 69.9143 61.5052C69.9143 60.8431 70.049 60.2619 70.3185 59.7615C70.5879 59.2611 70.9651 58.8762 71.4501 58.6067C71.9351 58.3373 72.4932 58.2026 73.1245 58.2026C73.7327 58.2026 74.2754 58.3335 74.7527 58.5952C75.2377 58.8569 75.6111 59.2303 75.8728 59.7153C76.1422 60.1926 76.277 60.743 76.277 61.3666ZM74.6026 60.9047C74.5949 60.489 74.4448 60.1579 74.1522 59.9116C73.8597 59.6576 73.5017 59.5305 73.0783 59.5305C72.678 59.5305 72.3393 59.6537 72.0621 59.9001C71.7927 60.1387 71.6272 60.4736 71.5656 60.9047H74.6026ZM85.4016 58.2141C86.1868 58.2141 86.8181 58.4566 87.2954 58.9416C87.7804 59.4189 88.0229 60.0887 88.0229 60.9509V64.7038H86.4062V61.1703C86.4062 60.6699 86.2792 60.2888 86.0252 60.0271C85.7711 59.7576 85.4247 59.6229 84.9859 59.6229C84.5471 59.6229 84.1968 59.7576 83.9351 60.0271C83.681 60.2888 83.554 60.6699 83.554 61.1703V64.7038H81.9374V61.1703C81.9374 60.6699 81.8104 60.2888 81.5563 60.0271C81.3023 59.7576 80.9558 59.6229 80.517 59.6229C80.0705 59.6229 79.7164 59.7576 79.4547 60.0271C79.2006 60.2888 79.0736 60.6699 79.0736 61.1703V64.7038H77.457V58.3065H79.0736V59.0802C79.2815 58.8107 79.5471 58.599 79.8704 58.4451C80.2014 58.2911 80.5632 58.2141 80.9558 58.2141C81.4562 58.2141 81.9027 58.3219 82.2953 58.5375C82.688 58.7453 82.992 59.0455 83.2076 59.4382C83.4154 59.0686 83.7157 58.7723 84.1083 58.549C84.5086 58.3258 84.9397 58.2141 85.4016 58.2141ZM91.1736 59.2303C91.3815 58.9378 91.6663 58.6953 92.0281 58.5028C92.3976 58.3027 92.8172 58.2026 93.2868 58.2026C93.8334 58.2026 94.3261 58.3373 94.7649 58.6067C95.2114 58.8762 95.5617 59.2611 95.8157 59.7615C96.0774 60.2542 96.2083 60.8277 96.2083 61.4821C96.2083 62.1364 96.0774 62.7176 95.8157 63.2257C95.5617 63.7261 95.2114 64.1149 94.7649 64.392C94.3261 64.6692 93.8334 64.8077 93.2868 64.8077C92.8172 64.8077 92.4015 64.7115 92.0397 64.519C91.6856 64.3266 91.3969 64.0841 91.1736 63.7915V67.7523H89.557V58.3065H91.1736V59.2303ZM94.557 61.4821C94.557 61.0971 94.4762 60.7661 94.3145 60.489C94.1606 60.2041 93.9527 59.9886 93.691 59.8423C93.4369 59.6961 93.1598 59.6229 92.8595 59.6229C92.567 59.6229 92.2899 59.6999 92.0281 59.8539C91.7741 60.0001 91.5662 60.2157 91.4046 60.5005C91.2506 60.7854 91.1736 61.1202 91.1736 61.5052C91.1736 61.8901 91.2506 62.2249 91.4046 62.5098C91.5662 62.7946 91.7741 63.014 92.0281 63.168C92.2899 63.3143 92.567 63.3874 92.8595 63.3874C93.1598 63.3874 93.4369 63.3104 93.691 63.1564C93.9527 63.0025 94.1606 62.7831 94.3145 62.4982C94.4762 62.2134 94.557 61.8747 94.557 61.4821ZM98.9997 56.1587V64.7038H97.3831V56.1587H98.9997ZM100.181 61.4821C100.181 60.8354 100.308 60.2619 100.562 59.7615C100.824 59.2611 101.174 58.8762 101.613 58.6067C102.06 58.3373 102.556 58.2026 103.103 58.2026C103.58 58.2026 103.996 58.2988 104.35 58.4913C104.712 58.6837 105 58.9262 105.216 59.2188V58.3065H106.844V64.7038H105.216V63.7685C105.008 64.0687 104.719 64.3189 104.35 64.519C103.988 64.7115 103.569 64.8077 103.091 64.8077C102.552 64.8077 102.06 64.6692 101.613 64.392C101.174 64.1149 100.824 63.7261 100.562 63.2257C100.308 62.7176 100.181 62.1364 100.181 61.4821ZM105.216 61.5052C105.216 61.1125 105.139 60.7777 104.985 60.5005C104.831 60.2157 104.623 60.0001 104.361 59.8539C104.1 59.6999 103.819 59.6229 103.518 59.6229C103.218 59.6229 102.941 59.6961 102.687 59.8423C102.433 59.9886 102.225 60.2041 102.063 60.489C101.91 60.7661 101.833 61.0971 101.833 61.4821C101.833 61.867 101.91 62.2057 102.063 62.4982C102.225 62.7831 102.433 63.0025 102.687 63.1564C102.949 63.3104 103.226 63.3874 103.518 63.3874C103.819 63.3874 104.1 63.3143 104.361 63.168C104.623 63.014 104.831 62.7985 104.985 62.5213C105.139 62.2365 105.216 61.8978 105.216 61.5052ZM110.305 59.6345V62.7292C110.305 62.9447 110.355 63.1025 110.455 63.2026C110.563 63.295 110.74 63.3412 110.987 63.3412H111.737V64.7038H110.721C109.358 64.7038 108.677 64.0417 108.677 62.7176V59.6345H107.915V58.3065H108.677V56.7245H110.305V58.3065H111.737V59.6345H110.305ZM118.847 61.3666C118.847 61.5975 118.832 61.8054 118.801 61.9901H114.124C114.162 62.452 114.324 62.8139 114.609 63.0756C114.894 63.3373 115.244 63.4682 115.66 63.4682C116.26 63.4682 116.688 63.2103 116.942 62.6945H118.685C118.5 63.3104 118.146 63.8185 117.623 64.2188C117.099 64.6114 116.457 64.8077 115.694 64.8077C115.079 64.8077 114.524 64.673 114.032 64.4036C113.547 64.1264 113.166 63.7377 112.888 63.2373C112.619 62.7369 112.484 62.1595 112.484 61.5052C112.484 60.8431 112.619 60.2619 112.888 59.7615C113.158 59.2611 113.535 58.8762 114.02 58.6067C114.505 58.3373 115.063 58.2026 115.694 58.2026C116.303 58.2026 116.845 58.3335 117.323 58.5952C117.808 58.8569 118.181 59.2303 118.443 59.7153C118.712 60.1926 118.847 60.743 118.847 61.3666ZM117.173 60.9047C117.165 60.489 117.015 60.1579 116.722 59.9116C116.43 59.6576 116.072 59.5305 115.648 59.5305C115.248 59.5305 114.909 59.6537 114.632 59.9001C114.363 60.1387 114.197 60.4736 114.136 60.9047H117.173ZM122.475 64.8077C121.951 64.8077 121.482 64.7153 121.066 64.5306C120.65 64.3381 120.319 64.0802 120.073 63.7569C119.834 63.4336 119.704 63.0756 119.68 62.683H121.309C121.339 62.9293 121.459 63.1333 121.667 63.295C121.882 63.4567 122.148 63.5375 122.463 63.5375C122.771 63.5375 123.01 63.4759 123.179 63.3527C123.356 63.2296 123.445 63.0718 123.445 62.8793C123.445 62.6714 123.337 62.5175 123.122 62.4174C122.914 62.3096 122.579 62.1942 122.117 62.071C121.64 61.9555 121.247 61.8362 120.939 61.713C120.639 61.5898 120.377 61.4012 120.154 61.1472C119.938 60.8931 119.831 60.5506 119.831 60.1195C119.831 59.7653 119.931 59.442 120.131 59.1495C120.339 58.8569 120.631 58.626 121.008 58.4566C121.393 58.2873 121.844 58.2026 122.359 58.2026C123.122 58.2026 123.73 58.395 124.184 58.78C124.638 59.1572 124.888 59.6691 124.935 60.3158H123.387C123.364 60.0617 123.256 59.8616 123.064 59.7153C122.879 59.5613 122.629 59.4843 122.313 59.4843C122.021 59.4843 121.794 59.5382 121.632 59.646C121.478 59.7538 121.401 59.9039 121.401 60.0964C121.401 60.3119 121.509 60.4774 121.724 60.5929C121.94 60.7007 122.275 60.8123 122.729 60.9278C123.191 61.0433 123.572 61.1626 123.872 61.2858C124.172 61.4089 124.43 61.6014 124.646 61.8631C124.869 62.1172 124.985 62.4559 124.992 62.8793C124.992 63.2488 124.888 63.5798 124.681 63.8724C124.48 64.1649 124.188 64.3959 123.803 64.5652C123.426 64.7269 122.983 64.8077 122.475 64.8077Z" fill="#102870"/>
<path d="M206.49 62.5291L202.16 58.1989L197.83 62.5291" stroke="#4169E1" stroke-width="0.721716" stroke-linecap="round" stroke-linejoin="round"/>
<g filter="url(#filter2_d_81_963)">
<rect x="46.991" y="89.9545" width="53.407" height="53.407" rx="10" fill="white"/>
<path d="M71.3927 110.237V111.193C71.3927 111.351 71.3857 111.511 71.3719 111.67C71.1781 113.851 69.6627 115.277 67.476 115.277H61.4972C60.39 115.277 59.4558 114.918 58.7846 114.266C58.5216 114.024 58.3002 113.741 58.1272 113.415C58.3556 113.137 58.6116 112.834 58.8607 112.529C59.2828 112.023 59.6911 111.524 59.9471 111.2C60.3277 110.729 61.3311 109.489 62.722 110.071C63.0057 110.189 63.2549 110.355 63.4832 110.5C64.0437 110.874 64.279 110.985 64.6734 110.77C65.1094 110.535 65.3931 110.071 65.6907 109.586C65.8498 109.329 66.009 109.081 66.182 108.852C66.9362 107.869 68.0988 107.606 69.0676 108.188C69.552 108.478 69.9672 108.845 70.3547 109.219C70.4377 109.302 70.5208 109.379 70.5969 109.455C70.7007 109.559 71.0467 109.905 71.3927 110.237Z" fill="#4169E1"/>
<path opacity="0.4" d="M67.4828 101.465H61.4971C59.1513 101.465 57.5804 103.105 57.5804 105.549V111.192C57.5804 112.043 57.7742 112.799 58.1271 113.415C58.3555 113.137 58.6115 112.833 58.8606 112.528C59.2827 112.023 59.691 111.524 59.9471 111.199C60.3276 110.729 61.331 109.489 62.7219 110.071C63.0057 110.188 63.2548 110.355 63.4831 110.5C64.0436 110.874 64.2789 110.985 64.6734 110.769C65.1093 110.535 65.393 110.071 65.6906 109.585C65.8497 109.329 66.0089 109.081 66.1819 108.852C66.9362 107.869 68.0987 107.606 69.0675 108.188C69.5519 108.478 69.9671 108.845 70.3546 109.218C70.4376 109.302 70.5207 109.378 70.5968 109.455C70.7006 109.558 71.0466 109.904 71.3926 110.237V105.549C71.3926 103.105 69.8218 101.465 67.4828 101.465Z" fill="#4169E1"/>
<path d="M64.1101 106.158C64.1101 107.131 63.2998 107.941 62.3275 107.941C61.356 107.941 60.5457 107.131 60.5457 106.158C60.5457 105.186 61.356 104.376 62.3275 104.376C63.2998 104.376 64.1101 105.186 64.1101 106.158Z" fill="#4169E1"/>
<path d="M71.3927 126.811V127.767C71.3927 127.926 71.3857 128.085 71.3719 128.244C71.1781 130.426 69.6627 131.851 67.476 131.851H61.4972C60.39 131.851 59.4558 131.492 58.7846 130.84C58.5216 130.599 58.3002 130.315 58.1272 129.989C58.3556 129.712 58.6116 129.408 58.8607 129.103C59.2828 128.598 59.6911 128.099 59.9471 127.774C60.3277 127.303 61.3311 126.064 62.722 126.645C63.0057 126.763 63.2549 126.929 63.4832 127.075C64.0437 127.448 64.279 127.559 64.6734 127.345C65.1094 127.109 65.3931 126.645 65.6907 126.161C65.8498 125.904 66.009 125.655 66.182 125.427C66.9362 124.444 68.0988 124.18 69.0676 124.762C69.552 125.053 69.9672 125.42 70.3547 125.793C70.4377 125.876 70.5208 125.953 70.5969 126.029C70.7007 126.133 71.0467 126.479 71.3927 126.811Z" fill="#4169E1"/>
<path opacity="0.4" d="M67.4828 118.039H61.4971C59.1513 118.039 57.5804 119.68 57.5804 122.124V127.767C57.5804 128.618 57.7742 129.374 58.1271 129.99C58.3555 129.712 58.6115 129.408 58.8606 129.103C59.2827 128.598 59.691 128.099 59.9471 127.774C60.3276 127.303 61.331 126.064 62.7219 126.646C63.0057 126.763 63.2548 126.93 63.4831 127.075C64.0436 127.449 64.2789 127.56 64.6734 127.344C65.1093 127.11 65.393 126.646 65.6906 126.16C65.8497 125.904 66.0089 125.656 66.1819 125.427C66.9362 124.444 68.0987 124.181 69.0675 124.762C69.5519 125.053 69.9671 125.42 70.3546 125.793C70.4376 125.876 70.5207 125.953 70.5968 126.029C70.7006 126.133 71.0466 126.479 71.3926 126.812V122.124C71.3926 119.68 69.8218 118.039 67.4828 118.039Z" fill="#4169E1"/>
<path d="M64.1101 122.733C64.1101 123.706 63.2998 124.516 62.3275 124.516C61.356 124.516 60.5457 123.706 60.5457 122.733C60.5457 121.761 61.356 120.95 62.3275 120.95C63.2998 120.95 64.1101 121.761 64.1101 122.733Z" fill="#4169E1"/>
<path d="M89.3484 110.237V111.193C89.3484 111.351 89.3414 111.511 89.3276 111.67C89.1338 113.851 87.6184 115.277 85.4317 115.277H79.4529C78.3457 115.277 77.4115 114.918 76.7403 114.266C76.4773 114.024 76.2559 113.741 76.0829 113.415C76.3112 113.137 76.5673 112.834 76.8164 112.529C77.2385 112.023 77.6468 111.524 77.9028 111.2C78.2834 110.729 79.2868 109.489 80.6777 110.071C80.9614 110.189 81.2105 110.355 81.4389 110.5C81.9994 110.874 82.2347 110.985 82.6291 110.77C83.0651 110.535 83.3488 110.071 83.6463 109.586C83.8055 109.329 83.9647 109.081 84.1377 108.852C84.8919 107.869 86.0545 107.606 87.0233 108.188C87.5077 108.478 87.9229 108.845 88.3104 109.219C88.3934 109.302 88.4764 109.379 88.5526 109.455C88.6564 109.559 89.0024 109.905 89.3484 110.237Z" fill="#4169E1"/>
<path opacity="0.4" d="M85.4384 101.465H79.4527C77.1068 101.465 75.536 103.105 75.536 105.549V111.192C75.536 112.043 75.7298 112.799 76.0827 113.415C76.311 113.137 76.5671 112.833 76.8162 112.528C77.2383 112.023 77.6466 111.524 77.9026 111.199C78.2832 110.729 79.2866 109.489 80.6775 110.071C80.9612 110.188 81.2103 110.355 81.4387 110.5C81.9992 110.874 82.2345 110.985 82.6289 110.769C83.0649 110.535 83.3486 110.071 83.6461 109.585C83.8053 109.329 83.9645 109.081 84.1375 108.852C84.8917 107.869 86.0543 107.606 87.0231 108.188C87.5075 108.478 87.9227 108.845 88.3102 109.218C88.3932 109.302 88.4762 109.378 88.5524 109.455C88.6562 109.558 89.0022 109.904 89.3482 110.237V105.549C89.3482 103.105 87.7773 101.465 85.4384 101.465Z" fill="#4169E1"/>
<path d="M82.0658 106.158C82.0658 107.131 81.2555 107.941 80.2832 107.941C79.3117 107.941 78.5013 107.131 78.5013 106.158C78.5013 105.186 79.3117 104.376 80.2832 104.376C81.2555 104.376 82.0658 105.186 82.0658 106.158Z" fill="#4169E1"/>
<path d="M89.3484 126.811V127.767C89.3484 127.926 89.3414 128.085 89.3276 128.244C89.1338 130.426 87.6184 131.851 85.4317 131.851H79.4529C78.3457 131.851 77.4115 131.492 76.7403 130.84C76.4773 130.599 76.2559 130.315 76.0829 129.989C76.3112 129.712 76.5673 129.408 76.8164 129.103C77.2385 128.598 77.6468 128.099 77.9028 127.774C78.2834 127.303 79.2868 126.064 80.6777 126.645C80.9614 126.763 81.2105 126.929 81.4389 127.075C81.9994 127.448 82.2347 127.559 82.6291 127.345C83.0651 127.109 83.3488 126.645 83.6463 126.161C83.8055 125.904 83.9647 125.655 84.1377 125.427C84.8919 124.444 86.0545 124.18 87.0233 124.762C87.5077 125.053 87.9229 125.42 88.3104 125.793C88.3934 125.876 88.4764 125.953 88.5526 126.029C88.6564 126.133 89.0024 126.479 89.3484 126.811Z" fill="#4169E1"/>
<path opacity="0.4" d="M85.4384 118.039H79.4527C77.1068 118.039 75.536 119.68 75.536 122.124V127.767C75.536 128.618 75.7298 129.374 76.0827 129.99C76.311 129.712 76.5671 129.408 76.8162 129.103C77.2383 128.598 77.6466 128.099 77.9026 127.774C78.2832 127.303 79.2866 126.064 80.6775 126.646C80.9612 126.763 81.2103 126.93 81.4387 127.075C81.9992 127.449 82.2345 127.56 82.6289 127.344C83.0649 127.11 83.3486 126.646 83.6461 126.16C83.8053 125.904 83.9645 125.656 84.1375 125.427C84.8917 124.444 86.0543 124.181 87.0231 124.762C87.5075 125.053 87.9227 125.42 88.3102 125.793C88.3932 125.876 88.4762 125.953 88.5524 126.029C88.6562 126.133 89.0022 126.479 89.3482 126.812V122.124C89.3482 119.68 87.7773 118.039 85.4384 118.039Z" fill="#4169E1"/>
<path d="M82.0658 122.733C82.0658 123.706 81.2555 124.516 80.2832 124.516C79.3117 124.516 78.5013 123.706 78.5013 122.733C78.5013 121.761 79.3117 120.95 80.2832 120.95C81.2555 120.95 82.0658 121.761 82.0658 122.733Z" fill="#4169E1"/>
<rect x="47.3518" y="90.3153" width="52.6852" height="52.6852" rx="9.63914" stroke="#4169E1" stroke-width="0.721716"/>
</g>
<g filter="url(#filter3_d_81_963)">
<rect x="105.45" y="89.9545" width="53.407" height="53.407" rx="10" fill="white"/>
<path d="M125.607 106.695V107.268C125.607 107.363 125.602 107.459 125.594 107.554C125.478 108.862 124.57 109.716 123.259 109.716H119.675C119.011 109.716 118.451 109.501 118.049 109.11C117.891 108.966 117.759 108.795 117.655 108.6C117.792 108.434 117.945 108.252 118.095 108.069C118.348 107.766 118.592 107.467 118.746 107.272C118.974 106.99 119.576 106.247 120.409 106.596C120.579 106.666 120.729 106.766 120.866 106.853C121.201 107.077 121.343 107.144 121.579 107.015C121.84 106.874 122.01 106.596 122.189 106.305C122.284 106.151 122.379 106.002 122.483 105.865C122.935 105.276 123.632 105.118 124.213 105.467C124.503 105.641 124.752 105.861 124.984 106.085C125.034 106.135 125.084 106.181 125.13 106.226C125.192 106.289 125.399 106.496 125.607 106.695Z" fill="#4169E1" fill-opacity="0.5"/>
<path opacity="0.4" d="M123.264 101.437H119.676C118.269 101.437 117.328 102.42 117.328 103.885V107.268C117.328 107.778 117.444 108.231 117.656 108.6C117.792 108.434 117.946 108.251 118.095 108.068C118.348 107.766 118.593 107.467 118.746 107.272C118.975 106.99 119.576 106.247 120.41 106.596C120.58 106.666 120.729 106.766 120.866 106.853C121.202 107.077 121.343 107.143 121.579 107.014C121.841 106.874 122.011 106.596 122.189 106.305C122.285 106.151 122.38 106.002 122.484 105.865C122.936 105.276 123.633 105.118 124.213 105.467C124.504 105.641 124.753 105.861 124.985 106.085C125.035 106.134 125.084 106.181 125.13 106.226C125.192 106.288 125.4 106.496 125.607 106.695V103.885C125.607 102.42 124.666 101.437 123.264 101.437Z" fill="#4169E1" fill-opacity="0.5"/>
<path d="M121.241 104.25C121.241 104.833 120.755 105.319 120.173 105.319C119.59 105.319 119.104 104.833 119.104 104.25C119.104 103.668 119.59 103.182 120.173 103.182C120.755 103.182 121.241 103.668 121.241 104.25Z" fill="#4169E1" fill-opacity="0.5"/>
<path d="M136.37 106.695V107.268C136.37 107.363 136.366 107.459 136.357 107.554C136.241 108.862 135.333 109.716 134.022 109.716H130.438C129.775 109.716 129.215 109.501 128.812 109.11C128.655 108.966 128.522 108.795 128.418 108.6C128.555 108.434 128.709 108.252 128.858 108.069C129.111 107.766 129.356 107.467 129.509 107.272C129.737 106.99 130.339 106.247 131.172 106.596C131.342 106.666 131.492 106.766 131.629 106.853C131.965 107.077 132.106 107.144 132.342 107.015C132.603 106.874 132.774 106.596 132.952 106.305C133.047 106.151 133.143 106.002 133.246 105.865C133.698 105.276 134.395 105.118 134.976 105.467C135.266 105.641 135.515 105.861 135.748 106.085C135.797 106.135 135.847 106.181 135.893 106.226C135.955 106.289 136.162 106.496 136.37 106.695Z" fill="#4169E1" fill-opacity="0.5"/>
<path opacity="0.4" d="M134.026 101.437H130.439C129.032 101.437 128.091 102.42 128.091 103.885V107.268C128.091 107.778 128.207 108.231 128.419 108.6C128.555 108.434 128.709 108.251 128.858 108.068C129.111 107.766 129.356 107.467 129.509 107.272C129.738 106.99 130.339 106.247 131.173 106.596C131.343 106.666 131.492 106.766 131.629 106.853C131.965 107.077 132.106 107.143 132.342 107.014C132.604 106.874 132.774 106.596 132.952 106.305C133.048 106.151 133.143 106.002 133.247 105.865C133.699 105.276 134.396 105.118 134.976 105.467C135.267 105.641 135.516 105.861 135.748 106.085C135.798 106.134 135.847 106.181 135.893 106.226C135.955 106.288 136.163 106.496 136.37 106.695V103.885C136.37 102.42 135.428 101.437 134.026 101.437Z" fill="#4169E1" fill-opacity="0.5"/>
<path d="M132.004 104.25C132.004 104.833 131.519 105.319 130.936 105.319C130.354 105.319 129.868 104.833 129.868 104.25C129.868 103.668 130.354 103.182 130.936 103.182C131.519 103.182 132.004 103.668 132.004 104.25Z" fill="#4169E1" fill-opacity="0.5"/>
<path d="M147.133 106.695V107.268C147.133 107.363 147.129 107.459 147.12 107.554C147.004 108.862 146.096 109.716 144.785 109.716H141.201C140.538 109.716 139.978 109.501 139.575 109.11C139.418 108.966 139.285 108.795 139.181 108.6C139.318 108.434 139.472 108.252 139.621 108.069C139.874 107.766 140.119 107.467 140.272 107.272C140.5 106.99 141.102 106.247 141.935 106.596C142.105 106.666 142.255 106.766 142.392 106.853C142.728 107.077 142.869 107.144 143.105 107.015C143.366 106.874 143.536 106.596 143.715 106.305C143.81 106.151 143.906 106.002 144.009 105.865C144.461 105.276 145.158 105.118 145.739 105.467C146.029 105.641 146.278 105.861 146.51 106.085C146.56 106.135 146.61 106.181 146.656 106.226C146.718 106.289 146.925 106.496 147.133 106.695Z" fill="#4169E1" fill-opacity="0.5"/>
<path opacity="0.4" d="M144.789 101.437H141.201C139.795 101.437 138.854 102.42 138.854 103.885V107.268C138.854 107.778 138.97 108.231 139.181 108.6C139.318 108.434 139.472 108.251 139.621 108.068C139.874 107.766 140.119 107.467 140.272 107.272C140.5 106.99 141.102 106.247 141.935 106.596C142.105 106.666 142.255 106.766 142.392 106.853C142.728 107.077 142.869 107.143 143.105 107.014C143.366 106.874 143.536 106.596 143.715 106.305C143.81 106.151 143.906 106.002 144.009 105.865C144.461 105.276 145.158 105.118 145.739 105.467C146.029 105.641 146.278 105.861 146.511 106.085C146.56 106.134 146.61 106.181 146.656 106.226C146.718 106.288 146.925 106.496 147.133 106.695V103.885C147.133 102.42 146.191 101.437 144.789 101.437Z" fill="#4169E1" fill-opacity="0.5"/>
<path d="M142.767 104.25C142.767 104.833 142.281 105.319 141.699 105.319C141.116 105.319 140.631 104.833 140.631 104.25C140.631 103.668 141.116 103.182 141.699 103.182C142.281 103.182 142.767 103.668 142.767 104.25Z" fill="#4169E1" fill-opacity="0.5"/>
<path d="M125.607 117.777V118.349C125.607 118.444 125.602 118.54 125.594 118.635C125.478 119.943 124.57 120.798 123.259 120.798H119.675C119.011 120.798 118.451 120.582 118.049 120.192C117.891 120.047 117.759 119.877 117.655 119.682C117.792 119.515 117.945 119.333 118.095 119.15C118.348 118.847 118.592 118.548 118.746 118.353C118.974 118.071 119.576 117.328 120.409 117.677C120.579 117.748 120.729 117.847 120.866 117.934C121.201 118.158 121.343 118.225 121.579 118.096C121.84 117.955 122.01 117.677 122.189 117.386C122.284 117.232 122.379 117.083 122.483 116.947C122.935 116.357 123.632 116.2 124.213 116.548C124.503 116.722 124.752 116.942 124.984 117.166C125.034 117.216 125.084 117.262 125.13 117.308C125.192 117.37 125.399 117.577 125.607 117.777Z" fill="#4169E1" fill-opacity="0.5"/>
<path opacity="0.4" d="M123.264 112.518H119.676C118.269 112.518 117.328 113.502 117.328 114.966V118.349C117.328 118.859 117.444 119.312 117.656 119.681C117.792 119.515 117.946 119.333 118.095 119.15C118.348 118.847 118.593 118.548 118.746 118.353C118.975 118.071 119.576 117.328 120.41 117.677C120.58 117.747 120.729 117.847 120.866 117.934C121.202 118.158 121.343 118.225 121.579 118.096C121.841 117.955 122.011 117.677 122.189 117.386C122.285 117.232 122.38 117.083 122.484 116.946C122.936 116.357 123.633 116.199 124.213 116.548C124.504 116.722 124.753 116.942 124.985 117.166C125.035 117.216 125.084 117.262 125.13 117.308C125.192 117.369 125.4 117.577 125.607 117.776V114.966C125.607 113.502 124.666 112.518 123.264 112.518Z" fill="#4169E1" fill-opacity="0.5"/>
<path d="M121.241 115.332C121.241 115.915 120.756 116.4 120.173 116.4C119.59 116.4 119.105 115.915 119.105 115.332C119.105 114.749 119.59 114.263 120.173 114.263C120.756 114.263 121.241 114.749 121.241 115.332Z" fill="#4169E1" fill-opacity="0.5"/>
<path d="M136.37 117.777V118.349C136.37 118.444 136.366 118.54 136.357 118.635C136.241 119.943 135.333 120.798 134.022 120.798H130.438C129.775 120.798 129.215 120.582 128.812 120.192C128.655 120.047 128.522 119.877 128.418 119.682C128.555 119.515 128.709 119.333 128.858 119.15C129.111 118.847 129.356 118.548 129.509 118.353C129.737 118.071 130.339 117.328 131.172 117.677C131.342 117.748 131.492 117.847 131.629 117.934C131.965 118.158 132.106 118.225 132.342 118.096C132.603 117.955 132.774 117.677 132.952 117.386C133.047 117.232 133.143 117.083 133.246 116.947C133.698 116.357 134.395 116.2 134.976 116.548C135.266 116.722 135.515 116.942 135.748 117.166C135.797 117.216 135.847 117.262 135.893 117.308C135.955 117.37 136.162 117.577 136.37 117.777Z" fill="#4169E1" fill-opacity="0.5"/>
<path opacity="0.4" d="M134.026 112.518H130.439C129.032 112.518 128.091 113.502 128.091 114.966V118.349C128.091 118.859 128.207 119.312 128.419 119.681C128.555 119.515 128.709 119.333 128.858 119.15C129.111 118.847 129.356 118.548 129.509 118.353C129.738 118.071 130.339 117.328 131.173 117.677C131.343 117.747 131.492 117.847 131.629 117.934C131.965 118.158 132.106 118.225 132.342 118.096C132.604 117.955 132.774 117.677 132.952 117.386C133.048 117.232 133.143 117.083 133.247 116.946C133.699 116.357 134.396 116.199 134.976 116.548C135.267 116.722 135.516 116.942 135.748 117.166C135.798 117.216 135.847 117.262 135.893 117.308C135.955 117.369 136.163 117.577 136.37 117.776V114.966C136.37 113.502 135.428 112.518 134.026 112.518Z" fill="#4169E1" fill-opacity="0.5"/>
<path d="M132.004 115.332C132.004 115.915 131.519 116.4 130.936 116.4C130.354 116.4 129.868 115.915 129.868 115.332C129.868 114.749 130.354 114.263 130.936 114.263C131.519 114.263 132.004 114.749 132.004 115.332Z" fill="#4169E1" fill-opacity="0.5"/>
<path d="M147.133 117.777V118.349C147.133 118.444 147.129 118.54 147.12 118.635C147.004 119.943 146.096 120.798 144.785 120.798H141.201C140.538 120.798 139.978 120.582 139.575 120.192C139.418 120.047 139.285 119.877 139.181 119.682C139.318 119.515 139.472 119.333 139.621 119.15C139.874 118.847 140.119 118.548 140.272 118.353C140.5 118.071 141.102 117.328 141.935 117.677C142.105 117.748 142.255 117.847 142.392 117.934C142.728 118.158 142.869 118.225 143.105 118.096C143.366 117.955 143.536 117.677 143.715 117.386C143.81 117.232 143.906 117.083 144.009 116.947C144.461 116.357 145.158 116.2 145.739 116.548C146.029 116.722 146.278 116.942 146.51 117.166C146.56 117.216 146.61 117.262 146.656 117.308C146.718 117.37 146.925 117.577 147.133 117.777Z" fill="#4169E1" fill-opacity="0.5"/>
<path opacity="0.4" d="M144.789 112.518H141.201C139.795 112.518 138.854 113.502 138.854 114.966V118.349C138.854 118.859 138.97 119.312 139.181 119.681C139.318 119.515 139.472 119.333 139.621 119.15C139.874 118.847 140.119 118.548 140.272 118.353C140.5 118.071 141.102 117.328 141.935 117.677C142.105 117.747 142.255 117.847 142.392 117.934C142.728 118.158 142.869 118.225 143.105 118.096C143.366 117.955 143.536 117.677 143.715 117.386C143.81 117.232 143.906 117.083 144.009 116.946C144.461 116.357 145.158 116.199 145.739 116.548C146.029 116.722 146.278 116.942 146.511 117.166C146.56 117.216 146.61 117.262 146.656 117.308C146.718 117.369 146.925 117.577 147.133 117.776V114.966C147.133 113.502 146.191 112.518 144.789 112.518Z" fill="#4169E1" fill-opacity="0.5"/>
<path d="M142.767 115.332C142.767 115.915 142.281 116.4 141.699 116.4C141.116 116.4 140.631 115.915 140.631 115.332C140.631 114.749 141.116 114.263 141.699 114.263C142.281 114.263 142.767 114.749 142.767 115.332Z" fill="#4169E1" fill-opacity="0.5"/>
<path d="M125.607 128.858V129.431C125.607 129.526 125.602 129.622 125.594 129.717C125.478 131.024 124.57 131.879 123.259 131.879H119.675C119.011 131.879 118.451 131.663 118.049 131.273C117.891 131.128 117.759 130.958 117.655 130.763C117.792 130.596 117.945 130.414 118.095 130.232C118.348 129.929 118.592 129.629 118.746 129.435C118.974 129.153 119.576 128.41 120.409 128.758C120.579 128.829 120.729 128.928 120.866 129.016C121.201 129.24 121.343 129.306 121.579 129.177C121.84 129.036 122.01 128.758 122.189 128.468C122.284 128.314 122.379 128.165 122.483 128.028C122.935 127.439 123.632 127.281 124.213 127.629C124.503 127.804 124.752 128.024 124.984 128.247C125.034 128.297 125.084 128.343 125.13 128.389C125.192 128.451 125.399 128.659 125.607 128.858Z" fill="#4169E1" fill-opacity="0.5"/>
<path opacity="0.4" d="M123.264 123.599H119.676C118.269 123.599 117.328 124.583 117.328 126.048V129.43C117.328 129.94 117.444 130.393 117.656 130.763C117.792 130.596 117.946 130.414 118.095 130.231C118.348 129.928 118.593 129.629 118.746 129.435C118.975 129.152 119.576 128.409 120.41 128.758C120.58 128.829 120.729 128.928 120.866 129.015C121.202 129.239 121.343 129.306 121.579 129.177C121.841 129.036 122.011 128.758 122.189 128.467C122.285 128.314 122.38 128.165 122.484 128.028C122.936 127.438 123.633 127.281 124.213 127.629C124.504 127.804 124.753 128.023 124.985 128.247C125.035 128.297 125.084 128.343 125.13 128.389C125.192 128.451 125.4 128.658 125.607 128.858V126.048C125.607 124.583 124.666 123.599 123.264 123.599Z" fill="#4169E1" fill-opacity="0.5"/>
<path d="M121.241 126.413C121.241 126.996 120.756 127.482 120.173 127.482C119.59 127.482 119.105 126.996 119.105 126.413C119.105 125.83 119.59 125.344 120.173 125.344C120.756 125.344 121.241 125.83 121.241 126.413Z" fill="#4169E1" fill-opacity="0.5"/>
<path d="M136.37 128.858V129.431C136.37 129.526 136.366 129.621 136.357 129.716C136.241 131.024 135.333 131.879 134.022 131.879H130.438C129.775 131.879 129.215 131.663 128.812 131.273C128.655 131.128 128.522 130.958 128.418 130.763C128.555 130.596 128.709 130.414 128.858 130.232C129.111 129.929 129.356 129.629 129.509 129.435C129.737 129.152 130.339 128.41 131.172 128.758C131.342 128.829 131.492 128.928 131.629 129.016C131.965 129.24 132.106 129.306 132.342 129.177C132.603 129.036 132.774 128.758 132.952 128.468C133.047 128.314 133.143 128.165 133.246 128.028C133.698 127.438 134.395 127.281 134.976 127.629C135.266 127.804 135.515 128.024 135.748 128.247C135.797 128.297 135.847 128.343 135.893 128.389C135.955 128.451 136.162 128.659 136.37 128.858Z" fill="#4169E1" fill-opacity="0.5"/>
<path opacity="0.4" d="M134.026 123.599H130.439C129.032 123.599 128.091 124.583 128.091 126.048V129.43C128.091 129.94 128.207 130.393 128.419 130.763C128.555 130.596 128.709 130.414 128.858 130.231C129.111 129.928 129.356 129.629 129.509 129.434C129.738 129.152 130.339 128.409 131.173 128.758C131.343 128.829 131.492 128.928 131.629 129.015C131.965 129.239 132.106 129.306 132.342 129.177C132.604 129.036 132.774 128.758 132.952 128.467C133.048 128.314 133.143 128.165 133.247 128.028C133.699 127.438 134.396 127.281 134.976 127.629C135.267 127.803 135.516 128.023 135.748 128.247C135.798 128.297 135.847 128.343 135.893 128.389C135.955 128.45 136.163 128.658 136.37 128.858V126.048C136.37 124.583 135.428 123.599 134.026 123.599Z" fill="#4169E1" fill-opacity="0.5"/>
<path d="M132.004 126.413C132.004 126.996 131.519 127.482 130.936 127.482C130.354 127.482 129.868 126.996 129.868 126.413C129.868 125.83 130.354 125.344 130.936 125.344C131.519 125.344 132.004 125.83 132.004 126.413Z" fill="#4169E1" fill-opacity="0.5"/>
<path d="M147.133 128.858V129.431C147.133 129.526 147.129 129.621 147.12 129.716C147.004 131.024 146.096 131.879 144.785 131.879H141.201C140.538 131.879 139.978 131.663 139.575 131.273C139.418 131.128 139.285 130.958 139.181 130.763C139.318 130.596 139.472 130.414 139.621 130.232C139.874 129.929 140.119 129.629 140.272 129.435C140.5 129.152 141.102 128.41 141.935 128.758C142.105 128.829 142.255 128.928 142.392 129.016C142.728 129.24 142.869 129.306 143.105 129.177C143.366 129.036 143.536 128.758 143.715 128.468C143.81 128.314 143.906 128.165 144.009 128.028C144.461 127.438 145.158 127.281 145.739 127.629C146.029 127.804 146.278 128.024 146.51 128.247C146.56 128.297 146.61 128.343 146.656 128.389C146.718 128.451 146.925 128.659 147.133 128.858Z" fill="#4169E1" fill-opacity="0.5"/>
<path opacity="0.4" d="M144.789 123.599H141.201C139.795 123.599 138.854 124.583 138.854 126.048V129.43C138.854 129.94 138.97 130.393 139.181 130.763C139.318 130.596 139.472 130.414 139.621 130.231C139.874 129.928 140.119 129.629 140.272 129.434C140.5 129.152 141.102 128.409 141.935 128.758C142.105 128.829 142.255 128.928 142.392 129.015C142.728 129.239 142.869 129.306 143.105 129.177C143.366 129.036 143.536 128.758 143.715 128.467C143.81 128.314 143.906 128.165 144.009 128.028C144.461 127.438 145.158 127.281 145.739 127.629C146.029 127.803 146.278 128.023 146.511 128.247C146.56 128.297 146.61 128.343 146.656 128.389C146.718 128.45 146.925 128.658 147.133 128.858V126.048C147.133 124.583 146.191 123.599 144.789 123.599Z" fill="#4169E1" fill-opacity="0.5"/>
<path d="M142.767 126.413C142.767 126.996 142.281 127.482 141.699 127.482C141.116 127.482 140.631 126.996 140.631 126.413C140.631 125.83 141.116 125.344 141.699 125.344C142.281 125.344 142.767 125.83 142.767 126.413Z" fill="#4169E1" fill-opacity="0.5"/>
<rect x="105.811" y="90.3153" width="52.6852" height="52.6852" rx="9.63914" stroke="#F0F2F8" stroke-width="0.721716"/>
</g>
<g filter="url(#filter4_d_81_963)">
<rect x="163.909" y="89.9545" width="53.407" height="53.407" rx="10" fill="white"/>
<rect x="174.735" y="105.148" width="14.2794" height="2.76243" rx="0.92081" fill="#4169E1" fill-opacity="0.4"/>
<rect x="174.735" y="112.054" width="14.2794" height="2.76243" rx="0.92081" fill="#4169E1" fill-opacity="0.4"/>
<rect x="174.735" y="118.96" width="14.2794" height="2.76243" rx="0.92081" fill="#4169E1" fill-opacity="0.4"/>
<rect x="174.735" y="125.866" width="14.2794" height="2.76243" rx="0.92081" fill="#4169E1" fill-opacity="0.4"/>
<rect x="192.584" y="105.148" width="14.2794" height="2.76243" rx="0.92081" fill="#4169E1" fill-opacity="0.4"/>
<rect x="192.584" y="112.054" width="14.2794" height="2.76243" rx="0.92081" fill="#4169E1" fill-opacity="0.4"/>
<rect x="192.584" y="118.96" width="14.2794" height="2.76243" rx="0.92081" fill="#4169E1" fill-opacity="0.4"/>
<rect x="192.584" y="125.866" width="14.2794" height="2.76243" rx="0.92081" fill="#4169E1" fill-opacity="0.4"/>
<rect x="164.27" y="90.3153" width="52.6852" height="52.6852" rx="9.63914" stroke="#F0F2F8" stroke-width="0.721716"/>
</g>
<g filter="url(#filter5_d_81_963)">
<rect x="105.45" y="149.135" width="53.407" height="53.407" rx="10" fill="white"/>
<path d="M131.232 176.485V177.759C131.232 177.971 131.223 178.184 131.205 178.395C130.946 181.304 128.926 183.205 126.01 183.205H118.038C116.562 183.205 115.317 182.726 114.422 181.857C114.071 181.535 113.776 181.157 113.545 180.723C113.85 180.353 114.191 179.947 114.523 179.541C115.086 178.867 115.63 178.202 115.972 177.769C116.479 177.141 117.817 175.488 119.671 176.264C120.05 176.421 120.382 176.642 120.686 176.836C121.434 177.335 121.747 177.482 122.273 177.196C122.855 176.882 123.233 176.264 123.63 175.618C123.842 175.275 124.054 174.944 124.285 174.639C125.29 173.328 126.841 172.977 128.132 173.753C128.778 174.141 129.332 174.63 129.848 175.127C129.959 175.238 130.07 175.341 130.171 175.442C130.31 175.581 130.771 176.042 131.232 176.485Z" fill="#4169E1" fill-opacity="0.5"/>
<path opacity="0.4" d="M126.019 164.789H118.039C114.911 164.789 112.816 166.977 112.816 170.235V177.76C112.816 178.894 113.075 179.901 113.545 180.723C113.85 180.353 114.191 179.947 114.523 179.54C115.086 178.867 115.63 178.202 115.972 177.769C116.479 177.141 117.817 175.489 119.672 176.264C120.05 176.421 120.382 176.643 120.687 176.836C121.434 177.335 121.748 177.483 122.273 177.196C122.855 176.883 123.233 176.264 123.63 175.617C123.842 175.275 124.054 174.944 124.285 174.639C125.291 173.328 126.841 172.978 128.132 173.753C128.778 174.141 129.332 174.63 129.848 175.128C129.959 175.238 130.07 175.341 130.171 175.442C130.31 175.58 130.771 176.042 131.232 176.486V170.235C131.232 166.977 129.138 164.789 126.019 164.789Z" fill="#4169E1" fill-opacity="0.5"/>
<path d="M121.522 171.047C121.522 172.344 120.442 173.424 119.146 173.424C117.85 173.424 116.77 172.344 116.77 171.047C116.77 169.751 117.85 168.67 119.146 168.67C120.442 168.67 121.522 169.751 121.522 171.047Z" fill="#4169E1" fill-opacity="0.5"/>
<rect x="134.455" y="164.789" width="18.4162" height="2.76243" rx="0.92081" fill="#4169E1" fill-opacity="0.4"/>
<rect x="134.455" y="171.695" width="18.4162" height="2.76243" rx="0.92081" fill="#4169E1" fill-opacity="0.4"/>
<rect x="134.455" y="178.601" width="18.4162" height="2.76243" rx="0.92081" fill="#4169E1" fill-opacity="0.4"/>
<rect x="134.455" y="185.507" width="18.4162" height="2.76243" rx="0.92081" fill="#4169E1" fill-opacity="0.4"/>
<rect x="112.816" y="185.968" width="18.4162" height="2.76243" rx="0.92081" fill="#4169E1" fill-opacity="0.4"/>
<rect x="105.811" y="149.496" width="52.6852" height="52.6852" rx="9.63914" stroke="#F0F2F8" stroke-width="0.721716"/>
</g>
<g filter="url(#filter6_d_81_963)">
<rect x="46.991" y="149.135" width="53.407" height="53.407" rx="10" fill="white"/>
<path d="M71.3927 185.993V186.948C71.3927 187.107 71.3857 187.266 71.3719 187.425C71.1781 189.607 69.6627 191.032 67.476 191.032H61.4972C60.39 191.032 59.4558 190.673 58.7846 190.021C58.5216 189.78 58.3002 189.496 58.1272 189.171C58.3556 188.893 58.6116 188.589 58.8607 188.284C59.2828 187.779 59.6911 187.28 59.9471 186.955C60.3277 186.484 61.3311 185.245 62.722 185.826C63.0057 185.944 63.2549 186.11 63.4832 186.256C64.0437 186.629 64.279 186.74 64.6734 186.526C65.1094 186.29 65.3931 185.826 65.6907 185.342C65.8498 185.085 66.009 184.836 66.182 184.608C66.9362 183.625 68.0988 183.361 69.0676 183.943C69.552 184.234 69.9672 184.601 70.3547 184.974C70.4377 185.057 70.5208 185.134 70.5969 185.21C70.7007 185.314 71.0467 185.66 71.3927 185.993Z" fill="#4169E1" fill-opacity="0.5"/>
<path opacity="0.4" d="M67.4828 177.22H61.4971C59.1513 177.22 57.5804 178.861 57.5804 181.304V186.948C57.5804 187.799 57.7742 188.554 58.1271 189.17C58.3555 188.893 58.6115 188.589 58.8606 188.283C59.2827 187.779 59.691 187.279 59.9471 186.955C60.3276 186.484 61.331 185.244 62.7219 185.826C63.0057 185.944 63.2548 186.11 63.4831 186.255C64.0436 186.629 64.2789 186.74 64.6734 186.525C65.1093 186.29 65.393 185.826 65.6906 185.341C65.8497 185.085 66.0089 184.836 66.1819 184.608C66.9362 183.624 68.0987 183.361 69.0675 183.943C69.5519 184.234 69.9671 184.601 70.3546 184.974C70.4376 185.057 70.5207 185.134 70.5968 185.21C70.7006 185.313 71.0466 185.659 71.3926 185.992V181.304C71.3926 178.861 69.8218 177.22 67.4828 177.22Z" fill="#4169E1" fill-opacity="0.5"/>
<path d="M64.1101 181.914C64.1101 182.887 63.2998 183.697 62.3275 183.697C61.356 183.697 60.5457 182.887 60.5457 181.914C60.5457 180.942 61.356 180.131 62.3275 180.131C63.2998 180.131 64.1101 180.942 64.1101 181.914Z" fill="#4169E1" fill-opacity="0.5"/>
<path d="M89.3486 185.993V186.948C89.3486 187.107 89.3417 187.266 89.3278 187.425C89.1341 189.607 87.6186 191.032 85.4319 191.032H79.4531C78.3459 191.032 77.4118 190.673 76.7405 190.021C76.4776 189.78 76.2561 189.496 76.0831 189.171C76.3115 188.893 76.5675 188.589 76.8166 188.284C77.2388 187.779 77.647 187.28 77.9031 186.955C78.2837 186.484 79.287 185.245 80.678 185.826C80.9617 185.944 81.2108 186.11 81.4391 186.256C81.9997 186.629 82.2349 186.74 82.6294 186.526C83.0653 186.29 83.349 185.826 83.6466 185.342C83.8058 185.085 83.9649 184.836 84.1379 184.608C84.8922 183.625 86.0547 183.361 87.0235 183.943C87.5079 184.234 87.9231 184.601 88.3106 184.974C88.3937 185.057 88.4767 185.134 88.5528 185.21C88.6566 185.314 89.0026 185.66 89.3486 185.993Z" fill="#4169E1" fill-opacity="0.5"/>
<path opacity="0.4" d="M85.4387 177.22H79.4529C77.1071 177.22 75.5363 178.861 75.5363 181.304V186.948C75.5363 187.799 75.73 188.554 76.0829 189.17C76.3113 188.893 76.5673 188.589 76.8164 188.283C77.2386 187.779 77.6468 187.279 77.9029 186.955C78.2835 186.484 79.2868 185.244 80.6778 185.826C80.9615 185.944 81.2106 186.11 81.4389 186.255C81.9995 186.629 82.2347 186.74 82.6292 186.525C83.0651 186.29 83.3488 185.826 83.6464 185.341C83.8056 185.085 83.9647 184.836 84.1377 184.608C84.892 183.624 86.0545 183.361 87.0233 183.943C87.5077 184.234 87.9229 184.601 88.3104 184.974C88.3935 185.057 88.4765 185.134 88.5526 185.21C88.6564 185.313 89.0024 185.659 89.3484 185.992V181.304C89.3484 178.861 87.7776 177.22 85.4387 177.22Z" fill="#4169E1" fill-opacity="0.5"/>
<path d="M82.066 181.914C82.066 182.887 81.2557 183.697 80.2835 183.697C79.3119 183.697 78.5016 182.887 78.5016 181.914C78.5016 180.942 79.3119 180.131 80.2835 180.131C81.2557 180.131 82.066 180.942 82.066 181.914Z" fill="#4169E1" fill-opacity="0.5"/>
<rect opacity="0.4" x="57.5803" y="158.804" width="31.7679" height="13.8121" rx="3.22283" fill="#4169E1" fill-opacity="0.5"/>
<path fill-rule="evenodd" clip-rule="evenodd" d="M87.6408 172.238C87.1891 172.48 86.6733 172.616 86.1255 172.616H60.9089C61.1342 172.402 61.3652 172.183 61.5927 171.963C62.3122 171.283 63.008 170.611 63.4444 170.174C64.093 169.541 65.8032 167.873 68.1738 168.656C68.611 168.799 68.9999 168.995 69.3582 169.176C69.3961 169.195 69.4338 169.214 69.4711 169.233C70.4264 169.736 70.8274 169.885 71.4997 169.597C72.2399 169.281 72.7227 168.66 73.2277 168.011L73.2334 168.003C73.5046 167.658 73.7759 167.323 74.0708 167.016C75.3563 165.693 77.3377 165.339 78.9889 166.121C79.8144 166.513 80.5221 167.006 81.1825 167.509C81.2548 167.566 81.3271 167.621 81.3979 167.674C81.4656 167.726 81.5319 167.776 81.5953 167.826L81.5954 167.826C81.7724 167.966 82.362 168.432 82.9516 168.879L87.6408 172.238Z" fill="#4169E1" fill-opacity="0.4"/>
<path d="M68.3197 163.483C68.3197 164.78 67.2393 165.86 65.943 165.86C64.6476 165.86 63.5671 164.78 63.5671 163.483C63.5671 162.187 64.6476 161.106 65.943 161.106C67.2393 161.106 68.3197 162.187 68.3197 163.483Z" fill="#4169E1" fill-opacity="0.49"/>
<rect x="47.3518" y="149.496" width="52.6852" height="52.6852" rx="9.63914" stroke="#F0F2F8" stroke-width="0.721716"/>
</g>
<g filter="url(#filter7_d_81_963)">
<rect x="163.909" y="149.135" width="53.407" height="53.407" rx="10" fill="white"/>
<rect x="181.405" y="185.968" width="18.4162" height="2.76243" rx="0.92081" fill="#4169E1" fill-opacity="0.4"/>
<circle cx="190.613" cy="172.616" r="10.1289" fill="#4169E1" fill-opacity="0.2"/>
<path fill-rule="evenodd" clip-rule="evenodd" d="M181.918 177.815C182.39 177.249 182.817 176.729 183.118 176.351C183.766 175.559 185.472 173.476 187.838 174.454C188.274 174.633 188.662 174.878 189.019 175.104C189.057 175.128 189.095 175.152 189.132 175.175C190.085 175.804 190.485 175.99 191.156 175.629C191.895 175.235 192.377 174.459 192.881 173.648L192.886 173.639C193.157 173.207 193.427 172.789 193.722 172.405C195.004 170.752 196.982 170.31 198.629 171.288C199.419 171.756 200.101 172.343 200.736 172.943C200.563 178.386 196.097 182.745 190.613 182.745C186.919 182.745 183.688 180.768 181.918 177.815Z" fill="#4169E1" fill-opacity="0.4"/>
<path d="M190.571 169.666C190.571 170.963 189.49 172.043 188.194 172.043C186.899 172.043 185.818 170.963 185.818 169.666C185.818 168.37 186.899 167.289 188.194 167.289C189.49 167.289 190.571 168.37 190.571 169.666Z" fill="#4169E1" fill-opacity="0.4"/>
<rect x="164.27" y="149.496" width="52.6852" height="52.6852" rx="9.63914" stroke="#F0F2F8" stroke-width="0.721716"/>
</g>
<g filter="url(#filter8_d_81_963)">
<rect x="46.991" y="207.594" width="53.407" height="53.407" rx="10" fill="white"/>
<rect opacity="0.4" x="53.4863" y="225.637" width="39.9532" height="17.371" rx="3.22283" fill="#4169E1" fill-opacity="0.5"/>
<path fill-rule="evenodd" clip-rule="evenodd" d="M91.552 242.719C91.1452 242.905 90.693 243.008 90.2166 243.008H57.6724C57.9557 242.739 58.2462 242.463 58.5324 242.187C59.4372 241.331 60.3123 240.486 60.8612 239.937C61.677 239.14 63.8277 237.043 66.8091 238.027C67.3589 238.207 67.8481 238.454 68.2987 238.682C68.3464 238.706 68.3938 238.73 68.4407 238.753C69.6422 239.386 70.1465 239.574 70.992 239.21C71.923 238.813 72.5301 238.033 73.1653 237.216L73.1724 237.207C73.5135 236.772 73.8547 236.351 74.2255 235.965C75.8423 234.301 78.3342 233.855 80.4108 234.84C81.4491 235.332 82.339 235.953 83.1697 236.584C83.2606 236.656 83.3516 236.725 83.4405 236.793C83.5257 236.858 83.609 236.921 83.6888 236.984C83.9113 237.16 84.653 237.746 85.3946 238.308L91.552 242.719Z" fill="#4169E1" fill-opacity="0.4"/>
<path d="M66.9928 231.522C66.9928 233.153 65.634 234.511 64.0036 234.511C62.3744 234.511 61.0156 233.153 61.0156 231.522C61.0156 229.892 62.3744 228.532 64.0036 228.532C65.634 228.532 66.9928 229.892 66.9928 231.522Z" fill="#4169E1" fill-opacity="0.49"/>
<rect x="47.3518" y="207.955" width="52.6852" height="52.6852" rx="9.63914" stroke="#F0F2F8" stroke-width="0.721716"/>
</g>
<g filter="url(#filter9_d_81_963)">
<rect x="105.45" y="207.594" width="53.407" height="53.407" rx="10" fill="white"/>
<path d="M133.348 237.322V238.82C133.348 239.069 133.337 239.319 133.315 239.568C133.011 242.988 130.636 245.223 127.208 245.223H117.836C116.1 245.223 114.636 244.659 113.584 243.638C113.172 243.259 112.824 242.814 112.553 242.304C112.911 241.869 113.313 241.392 113.703 240.915C114.365 240.123 115.005 239.34 115.406 238.831C116.003 238.093 117.576 236.15 119.756 237.062C120.201 237.246 120.591 237.507 120.949 237.735C121.828 238.321 122.197 238.495 122.815 238.158C123.498 237.789 123.943 237.062 124.409 236.302C124.659 235.9 124.908 235.51 125.18 235.152C126.362 233.611 128.184 233.198 129.703 234.11C130.462 234.566 131.113 235.141 131.721 235.726C131.851 235.856 131.981 235.977 132.1 236.096C132.263 236.259 132.805 236.801 133.348 237.322Z" fill="#4169E1" fill-opacity="0.5"/>
<path opacity="0.4" d="M127.219 223.572H117.836C114.159 223.572 111.697 226.144 111.697 229.974V238.821C111.697 240.155 112 241.339 112.554 242.305C112.912 241.87 113.313 241.393 113.703 240.914C114.365 240.123 115.005 239.341 115.406 238.832C116.003 238.094 117.576 236.151 119.756 237.063C120.201 237.247 120.592 237.508 120.95 237.735C121.828 238.322 122.197 238.495 122.815 238.158C123.499 237.79 123.943 237.063 124.41 236.302C124.659 235.9 124.909 235.51 125.18 235.152C126.362 233.611 128.185 233.199 129.703 234.11C130.463 234.566 131.114 235.141 131.721 235.726C131.851 235.857 131.981 235.977 132.101 236.097C132.263 236.258 132.806 236.801 133.348 237.323V229.974C133.348 226.144 130.886 223.572 127.219 223.572Z" fill="#4169E1" fill-opacity="0.5"/>
<path d="M121.932 230.929C121.932 232.454 120.661 233.724 119.137 233.724C117.614 233.724 116.344 232.454 116.344 230.929C116.344 229.405 117.614 228.135 119.137 228.135C120.661 228.135 121.932 229.405 121.932 230.929Z" fill="#4169E1" fill-opacity="0.5"/>
<rect x="136.484" y="226.359" width="15.8777" height="2.88686" rx="0.92081" fill="#4169E1" fill-opacity="0.4"/>
<rect x="136.484" y="232.854" width="15.8777" height="2.88686" rx="0.92081" fill="#4169E1" fill-opacity="0.4"/>
<rect x="136.484" y="240.071" width="15.8777" height="2.88686" rx="0.92081" fill="#4169E1" fill-opacity="0.4"/>
<rect x="105.811" y="207.955" width="52.6852" height="52.6852" rx="9.63914" stroke="#F0F2F8" stroke-width="0.721716"/>
</g>
<g filter="url(#filter10_d_81_963)">
<rect x="163.909" y="207.594" width="53.407" height="53.407" rx="10" fill="white"/>
<path d="M210.821 237.322V238.82C210.821 239.069 210.81 239.319 210.788 239.568C210.485 242.988 208.109 245.223 204.681 245.223H195.309C193.573 245.223 192.109 244.659 191.057 243.638C190.645 243.259 190.297 242.814 190.026 242.304C190.384 241.869 190.786 241.392 191.176 240.915C191.838 240.123 192.478 239.34 192.879 238.831C193.476 238.093 195.049 236.15 197.229 237.062C197.674 237.246 198.064 237.507 198.422 237.735C199.301 238.321 199.67 238.495 200.288 238.158C200.971 237.789 201.416 237.062 201.882 236.302C202.132 235.9 202.381 235.51 202.653 235.152C203.835 233.611 205.657 233.198 207.176 234.11C207.935 234.566 208.586 235.141 209.194 235.726C209.324 235.856 209.454 235.977 209.573 236.096C209.736 236.259 210.278 236.801 210.821 237.322Z" fill="#4169E1" fill-opacity="0.5"/>
<path opacity="0.4" d="M204.692 223.572H195.309C191.631 223.572 189.169 226.144 189.169 229.974V238.821C189.169 240.155 189.473 241.339 190.026 242.305C190.384 241.87 190.785 241.393 191.176 240.914C191.838 240.123 192.478 239.341 192.879 238.832C193.475 238.094 195.048 236.151 197.229 237.063C197.673 237.247 198.064 237.508 198.422 237.735C199.301 238.322 199.669 238.495 200.288 238.158C200.971 237.79 201.416 237.063 201.882 236.302C202.132 235.9 202.381 235.51 202.652 235.152C203.835 233.611 205.657 233.199 207.176 234.11C207.935 234.566 208.586 235.141 209.193 235.726C209.324 235.857 209.454 235.977 209.573 236.097C209.736 236.258 210.278 236.801 210.821 237.323V229.974C210.821 226.144 208.358 223.572 204.692 223.572Z" fill="#4169E1" fill-opacity="0.5"/>
<path d="M199.404 230.929C199.404 232.454 198.134 233.724 196.61 233.724C195.087 233.724 193.817 232.454 193.817 230.929C193.817 229.405 195.087 228.135 196.61 228.135C198.134 228.135 199.404 229.405 199.404 230.929Z" fill="#4169E1" fill-opacity="0.5"/>
<rect width="15.8777" height="2.88686" rx="0.92081" transform="matrix(-1 0 0 1 186.034 226.359)" fill="#4169E1" fill-opacity="0.4"/>
<rect width="15.8777" height="2.88686" rx="0.92081" transform="matrix(-1 0 0 1 186.034 232.854)" fill="#4169E1" fill-opacity="0.4"/>
<rect width="15.8777" height="2.88686" rx="0.92081" transform="matrix(-1 0 0 1 186.034 240.071)" fill="#4169E1" fill-opacity="0.4"/>
<rect x="164.27" y="207.955" width="52.6852" height="52.6852" rx="9.63914" stroke="#F0F2F8" stroke-width="0.721716"/>
</g>
<g filter="url(#filter11_d_81_963)">
<rect x="105.45" y="266.775" width="53.407" height="53.407" rx="10" fill="white"/>
<rect opacity="0.4" x="110.502" y="284.096" width="43.3029" height="18.7646" rx="3.22283" fill="#4169E1" fill-opacity="0.5"/>
<path d="M117.719 296.191V295.363H118.484V292.141H117.719V291.313H120.077C120.773 291.313 121.304 291.426 121.67 291.652C122.036 291.879 122.219 292.202 122.219 292.621C122.219 292.864 122.156 293.08 122.03 293.267C121.91 293.455 121.736 293.601 121.508 293.706C121.778 293.778 121.991 293.913 122.147 294.112C122.309 294.305 122.39 294.551 122.39 294.849C122.39 295.269 122.237 295.597 121.931 295.835C121.631 296.072 121.184 296.191 120.59 296.191H117.719ZM119.519 293.375H120.491C120.701 293.375 120.86 293.323 120.968 293.218C121.082 293.107 121.139 292.955 121.139 292.762C121.139 292.348 120.818 292.141 120.176 292.141H119.519V293.375ZM119.519 295.363H120.428C121.016 295.363 121.31 295.15 121.31 294.725C121.31 294.316 121.034 294.112 120.482 294.112H119.519V295.363Z" fill="#4169E1" fill-opacity="0.4"/>
<path d="M126.709 295.992C126.505 296.103 126.283 296.188 126.043 296.249C125.809 296.315 125.587 296.348 125.377 296.348C124.765 296.348 124.315 296.224 124.027 295.976C123.745 295.727 123.604 295.341 123.604 294.816V293.234H122.893V292.489H124.621V294.675C124.621 294.974 124.681 295.192 124.801 295.33C124.927 295.462 125.131 295.528 125.413 295.528C125.551 295.528 125.71 295.509 125.89 295.47C126.076 295.426 126.244 295.371 126.394 295.305V293.234H125.683V292.489H127.411V295.305L128.212 295.562L127.933 296.365L126.709 295.992Z" fill="#4169E1" fill-opacity="0.4"/>
<path d="M130.829 296.348C130.397 296.348 130.046 296.23 129.776 295.992C129.512 295.755 129.38 295.374 129.38 294.849V293.234H128.633V292.489H129.38V291.785L130.361 291.512V292.489H131.459V293.234H130.361V294.584C130.361 294.899 130.406 295.145 130.496 295.321C130.592 295.498 130.748 295.586 130.964 295.586C131.132 295.586 131.333 295.534 131.567 295.429L131.756 296.116C131.618 296.177 131.468 296.23 131.306 296.274C131.15 296.323 130.991 296.348 130.829 296.348Z" fill="#4169E1" fill-opacity="0.4"/>
<path d="M134.433 296.348C134.001 296.348 133.65 296.23 133.38 295.992C133.116 295.755 132.984 295.374 132.984 294.849V293.234H132.237V292.489H132.984V291.785L133.965 291.512V292.489H135.063V293.234H133.965V294.584C133.965 294.899 134.01 295.145 134.1 295.321C134.196 295.498 134.352 295.586 134.568 295.586C134.736 295.586 134.937 295.534 135.171 295.429L135.36 296.116C135.222 296.177 135.072 296.23 134.91 296.274C134.754 296.323 134.595 296.348 134.433 296.348Z" fill="#4169E1" fill-opacity="0.4"/>
<path d="M137.827 292.34C138.499 292.34 139.021 292.517 139.393 292.87C139.771 293.223 139.96 293.715 139.96 294.344C139.96 294.974 139.771 295.465 139.393 295.818C139.021 296.172 138.499 296.348 137.827 296.348C137.173 296.348 136.66 296.172 136.288 295.818C135.922 295.465 135.739 294.974 135.739 294.344C135.739 293.715 135.922 293.223 136.288 292.87C136.66 292.517 137.173 292.34 137.827 292.34ZM137.836 293.093C137.476 293.093 137.203 293.201 137.017 293.416C136.837 293.632 136.747 293.941 136.747 294.344C136.747 294.753 136.837 295.065 137.017 295.28C137.203 295.49 137.476 295.595 137.836 295.595C138.208 295.595 138.487 295.49 138.673 295.28C138.859 295.065 138.952 294.753 138.952 294.344C138.952 293.941 138.859 293.632 138.673 293.416C138.487 293.201 138.208 293.093 137.836 293.093Z" fill="#4169E1" fill-opacity="0.4"/>
<path d="M140.565 296.191V295.446H141.33V293.425L140.466 293.151L140.727 292.398L141.978 292.795C142.206 292.652 142.44 292.541 142.68 292.464C142.92 292.381 143.205 292.34 143.535 292.34C144.081 292.34 144.48 292.486 144.732 292.779C144.99 293.066 145.119 293.433 145.119 293.88V295.446H145.866V296.191H143.733V295.446H144.111V294.005C144.111 293.739 144.045 293.532 143.913 293.383C143.787 293.229 143.583 293.151 143.301 293.151C143.121 293.151 142.944 293.179 142.77 293.234C142.602 293.289 142.458 293.356 142.338 293.433V295.446H142.707V296.191H140.565Z" fill="#4169E1" fill-opacity="0.4"/>
<rect x="105.811" y="267.136" width="52.6852" height="52.6852" rx="9.63914" stroke="#F0F2F8" stroke-width="0.721716"/>
</g>
<g filter="url(#filter12_d_81_963)">
<rect x="46.991" y="266.775" width="53.407" height="53.407" rx="10" fill="white"/>
<circle cx="73.6947" cy="290.255" r="10.1289" fill="#4169E1" fill-opacity="0.2"/>
<path fill-rule="evenodd" clip-rule="evenodd" d="M65.0001 295.454C65.4724 294.888 65.8986 294.369 66.2005 293.99C66.8477 293.199 68.5541 291.116 70.9196 292.093C71.3558 292.272 71.7439 292.518 72.1014 292.744C72.1393 292.768 72.1768 292.791 72.2141 292.815C73.1673 293.443 73.5674 293.63 74.2382 293.269C74.9769 292.875 75.4586 292.099 75.9626 291.288L75.9682 291.279C76.2388 290.847 76.5095 290.429 76.8037 290.045C78.0865 288.392 80.0635 287.95 81.7111 288.927C82.5011 289.396 83.1828 289.983 83.8186 290.583C83.6456 296.026 79.1792 300.384 73.6949 300.384C70.0015 300.384 66.7698 298.408 65.0001 295.454Z" fill="#4169E1" fill-opacity="0.4"/>
<path d="M73.6526 287.306C73.6526 288.603 72.5722 289.683 71.2759 289.683C69.9805 289.683 68.9 288.603 68.9 287.306C68.9 286.01 69.9805 284.929 71.2759 284.929C72.5722 284.929 73.6526 286.01 73.6526 287.306Z" fill="#4169E1" fill-opacity="0.4"/>
<path d="M61.4252 301.833H65.0164V302.838H63.7809L63.7693 307.63H65.7555L66.1827 306.452L67.1412 306.775L66.4945 308.634H61.4252V307.63H62.6261L62.6377 302.838H61.4252V301.833Z" fill="#4169E1" fill-opacity="0.4"/>
<path d="M70.5089 303.369C71.3249 303.369 71.9715 303.611 72.4488 304.096C72.9261 304.581 73.1648 305.251 73.1648 306.106C73.1648 306.96 72.9261 307.63 72.4488 308.115C71.9715 308.592 71.3249 308.831 70.5089 308.831C69.7005 308.831 69.0616 308.592 68.592 308.115C68.1224 307.63 67.8876 306.96 67.8876 306.106C67.8876 305.251 68.1224 304.581 68.592 304.096C69.0616 303.611 69.7005 303.369 70.5089 303.369ZM70.5204 304.293C70.02 304.293 69.6428 304.45 69.3888 304.766C69.1424 305.074 69.0192 305.52 69.0192 306.106C69.0192 306.691 69.1424 307.141 69.3888 307.457C69.6428 307.765 70.02 307.919 70.5204 307.919C71.0208 307.919 71.398 307.765 71.6521 307.457C71.9061 307.141 72.0331 306.691 72.0331 306.106C72.0331 305.52 71.9061 305.074 71.6521 304.766C71.398 304.45 71.0208 304.293 70.5204 304.293Z" fill="#4169E1" fill-opacity="0.4"/>
<path d="M76.3985 307.295C76.3061 307.295 76.2176 307.291 76.1329 307.283V308.161H77.1029C77.7573 308.161 78.2461 308.292 78.5694 308.554C78.8928 308.808 79.0544 309.177 79.0544 309.662C79.0544 310.039 78.9428 310.351 78.7196 310.598C78.504 310.844 78.1999 311.025 77.8073 311.14C77.4224 311.263 76.9836 311.325 76.4909 311.325C76.1445 311.325 75.798 311.294 75.4516 311.233C75.1129 311.171 74.805 311.094 74.5278 311.002C74.2584 310.917 74.0544 310.832 73.9158 310.748L74.32 309.87C74.6433 310.024 74.9936 310.143 75.3708 310.228C75.748 310.32 76.1214 310.367 76.4909 310.367C76.9913 310.367 77.3608 310.305 77.5995 310.182C77.8381 310.059 77.9574 309.901 77.9574 309.708C77.9574 309.508 77.8766 309.354 77.7149 309.246C77.5533 309.146 77.2838 309.096 76.9066 309.096H75.1514V307.087C74.7896 306.941 74.5086 306.725 74.3084 306.44C74.1083 306.156 74.0082 305.809 74.0082 305.401C74.0082 304.77 74.2237 304.273 74.6549 303.912C75.0937 303.55 75.6787 303.369 76.4101 303.369C76.6949 303.369 76.9489 303.392 77.1722 303.438C77.4031 303.484 77.6187 303.565 77.8189 303.681L79.5163 303.069L79.8628 304.05L78.4771 304.304C78.5925 304.45 78.6772 304.616 78.7311 304.801C78.785 304.978 78.8119 305.159 78.8119 305.343C78.8119 305.775 78.708 306.136 78.5002 306.429C78.2923 306.714 78.0036 306.929 77.6341 307.076C77.2723 307.222 76.8604 307.295 76.3985 307.295ZM76.4216 306.417C76.8219 306.417 77.1376 306.317 77.3685 306.117C77.6071 305.917 77.7265 305.659 77.7265 305.343C77.7265 304.997 77.6148 304.728 77.3916 304.535C77.1683 304.343 76.845 304.246 76.4216 304.246C75.9905 304.246 75.6633 304.343 75.4401 304.535C75.2168 304.728 75.1052 304.997 75.1052 305.343C75.1052 305.659 75.2207 305.917 75.4516 306.117C75.6903 306.317 76.0136 306.417 76.4216 306.417Z" fill="#4169E1" fill-opacity="0.4"/>
<path d="M82.7668 303.369C83.5828 303.369 84.2294 303.611 84.7067 304.096C85.184 304.581 85.4227 305.251 85.4227 306.106C85.4227 306.96 85.184 307.63 84.7067 308.115C84.2294 308.592 83.5828 308.831 82.7668 308.831C81.9584 308.831 81.3195 308.592 80.8499 308.115C80.3803 307.63 80.1455 306.96 80.1455 306.106C80.1455 305.251 80.3803 304.581 80.8499 304.096C81.3195 303.611 81.9584 303.369 82.7668 303.369ZM82.7783 304.293C82.2779 304.293 81.9007 304.45 81.6467 304.766C81.4003 305.074 81.2771 305.52 81.2771 306.106C81.2771 306.691 81.4003 307.141 81.6467 307.457C81.9007 307.765 82.2779 307.919 82.7783 307.919C83.2787 307.919 83.6559 307.765 83.91 307.457C84.164 307.141 84.291 306.691 84.291 306.106C84.291 305.52 84.164 305.074 83.91 304.766C83.6559 304.45 83.2787 304.293 82.7783 304.293Z" fill="#4169E1" fill-opacity="0.4"/>
<rect x="47.3518" y="267.136" width="52.6852" height="52.6852" rx="9.63914" stroke="#F0F2F8" stroke-width="0.721716"/>
</g>
<g filter="url(#filter13_d_81_963)">
<rect x="163.909" y="266.775" width="53.407" height="53.407" rx="10" fill="white"/>
<rect x="187.384" y="282.428" width="18.4162" height="2.76243" rx="0.92081" fill="#4169E1" fill-opacity="0.4"/>
<rect x="187.384" y="289.335" width="18.4162" height="2.76243" rx="0.92081" fill="#4169E1" fill-opacity="0.4"/>
<rect x="174.978" y="296.365" width="31.0338" height="2.88686" rx="0.92081" fill="#4169E1" fill-opacity="0.4"/>
<rect x="174.978" y="302.861" width="31.0338" height="2.88686" rx="0.92081" fill="#4169E1" fill-opacity="0.4"/>
<path d="M174.735 282.684H183.071V285.606H181.626V284.066H179.705L179.673 290.655H181.102V292.036H176.656V290.655H178.085V284.066H176.18V285.606H174.735V282.684Z" fill="#4169E1" fill-opacity="0.4"/>
<rect x="164.27" y="267.136" width="52.6852" height="52.6852" rx="9.63914" stroke="#F0F2F8" stroke-width="0.721716"/>
</g>
<g filter="url(#filter14_d_81_963)">
<rect x="46.991" y="325.234" width="53.407" height="53.407" rx="10" fill="white"/>
<path d="M83.1265 360.747V362.021C83.1265 362.232 83.1173 362.446 83.0988 362.657C82.8405 365.566 80.8199 367.467 77.9043 367.467H69.9325C68.4563 367.467 67.2107 366.988 66.3157 366.119C65.9651 365.797 65.6699 365.418 65.4392 364.984C65.7437 364.614 66.0851 364.209 66.4172 363.803C66.98 363.129 67.5244 362.463 67.8658 362.03C68.3733 361.402 69.7111 359.75 71.5656 360.525C71.9439 360.682 72.2761 360.904 72.5806 361.098C73.3279 361.596 73.6416 361.744 74.1675 361.458C74.7488 361.144 75.1271 360.525 75.5238 359.879C75.736 359.537 75.9482 359.205 76.1789 358.901C77.1846 357.59 78.7347 357.239 80.0264 358.014C80.6722 358.402 81.2258 358.891 81.7425 359.389C81.8532 359.5 81.964 359.602 82.0655 359.704C82.2038 359.842 82.6652 360.304 83.1265 360.747Z" fill="#4169E1" fill-opacity="0.5"/>
<path opacity="0.4" d="M77.9135 349.05H69.9326C66.8048 349.05 64.7103 351.238 64.7103 354.496V362.021C64.7103 363.156 64.9687 364.163 65.4392 364.984C65.7437 364.614 66.0851 364.209 66.4172 363.802C66.9801 363.129 67.5244 362.463 67.8658 362.03C68.3733 361.402 69.7111 359.75 71.5657 360.525C71.9439 360.682 72.2761 360.904 72.5806 361.098C73.3279 361.596 73.6416 361.744 74.1675 361.457C74.7488 361.144 75.1271 360.525 75.5238 359.878C75.7361 359.537 75.9483 359.205 76.1789 358.901C77.1846 357.59 78.7347 357.239 80.0264 358.014C80.6723 358.402 81.2259 358.891 81.7425 359.389C81.8533 359.5 81.964 359.602 82.0655 359.704C82.2039 359.841 82.6652 360.303 83.1265 360.747V354.496C83.1265 351.238 81.0321 349.05 77.9135 349.05Z" fill="#4169E1" fill-opacity="0.5"/>
<path d="M73.416 355.308C73.416 356.605 72.3356 357.686 71.0393 357.686C69.7439 357.686 68.6635 356.605 68.6635 355.308C68.6635 354.012 69.7439 352.931 71.0393 352.931C72.3356 352.931 73.416 354.012 73.416 355.308Z" fill="#4169E1" fill-opacity="0.5"/>
<rect x="65.0343" y="336.059" width="18.4162" height="2.76243" rx="0.92081" fill="#4169E1" fill-opacity="0.4"/>
<rect x="65.0341" y="342.966" width="18.4162" height="2.76243" rx="0.92081" fill="#4169E1" fill-opacity="0.4"/>
<rect x="47.3518" y="325.595" width="52.6852" height="52.6852" rx="9.63914" stroke="#F0F2F8" stroke-width="0.721716"/>
</g>
<g filter="url(#filter15_d_81_963)">
<rect x="105.45" y="325.234" width="53.407" height="53.407" rx="10" fill="white"/>
<path d="M133.348 346.302V347.799C133.348 348.048 133.337 348.299 133.315 348.547C133.011 351.967 130.636 354.202 127.208 354.202H117.836C116.1 354.202 114.636 353.639 113.584 352.617C113.172 352.239 112.824 351.794 112.553 351.283C112.911 350.848 113.313 350.372 113.703 349.894C114.365 349.102 115.005 348.319 115.406 347.81C116.003 347.072 117.576 345.13 119.756 346.041C120.201 346.226 120.591 346.486 120.949 346.714C121.828 347.3 122.197 347.474 122.815 347.137C123.498 346.768 123.943 346.041 124.409 345.281C124.659 344.879 124.908 344.489 125.18 344.131C126.362 342.59 128.184 342.177 129.703 343.089C130.462 343.545 131.113 344.12 131.721 344.705C131.851 344.835 131.981 344.956 132.1 345.075C132.263 345.238 132.805 345.781 133.348 346.302Z" fill="#4169E1" fill-opacity="0.5"/>
<path opacity="0.4" d="M127.219 332.551H117.836C114.159 332.551 111.697 335.123 111.697 338.953V347.8C111.697 349.134 112 350.318 112.554 351.284C112.912 350.849 113.313 350.372 113.703 349.893C114.365 349.102 115.005 348.32 115.406 347.811C116.003 347.073 117.576 345.13 119.756 346.042C120.201 346.226 120.592 346.487 120.95 346.714C121.828 347.301 122.197 347.474 122.815 347.137C123.499 346.769 123.943 346.042 124.41 345.281C124.659 344.879 124.909 344.489 125.18 344.131C126.362 342.59 128.185 342.178 129.703 343.089C130.463 343.545 131.114 344.12 131.721 344.705C131.851 344.836 131.981 344.956 132.101 345.076C132.263 345.237 132.806 345.78 133.348 346.302V338.953C133.348 335.123 130.886 332.551 127.219 332.551Z" fill="#4169E1" fill-opacity="0.5"/>
<path d="M121.932 339.908C121.932 341.433 120.661 342.703 119.137 342.703C117.614 342.703 116.344 341.433 116.344 339.908C116.344 338.384 117.614 337.114 119.137 337.114C120.661 337.114 121.932 338.384 121.932 339.908Z" fill="#4169E1" fill-opacity="0.5"/>
<rect x="136.484" y="335.338" width="15.8777" height="2.88686" rx="0.92081" fill="#4169E1" fill-opacity="0.4"/>
<rect x="136.484" y="341.833" width="15.8777" height="2.88686" rx="0.92081" fill="#4169E1" fill-opacity="0.4"/>
<rect x="136.484" y="349.05" width="15.8777" height="2.88686" rx="0.92081" fill="#4169E1" fill-opacity="0.4"/>
<rect opacity="0.4" x="110.502" y="356.989" width="43.3029" height="14.4343" rx="3.22283" fill="#4169E1" fill-opacity="0.5"/>
<path d="M117.719 366.919V366.091H118.484V362.869H117.719V362.041H120.077C120.773 362.041 121.304 362.154 121.67 362.381C122.036 362.607 122.219 362.93 122.219 363.35C122.219 363.593 122.156 363.808 122.03 363.996C121.91 364.183 121.736 364.33 121.508 364.435C121.778 364.506 121.991 364.642 122.147 364.84C122.309 365.034 122.39 365.279 122.39 365.578C122.39 365.997 122.237 366.326 121.931 366.563C121.631 366.801 121.184 366.919 120.59 366.919H117.719ZM119.519 364.103H120.491C120.701 364.103 120.86 364.051 120.968 363.946C121.082 363.836 121.139 363.684 121.139 363.49C121.139 363.076 120.818 362.869 120.176 362.869H119.519V364.103ZM119.519 366.091H120.428C121.016 366.091 121.31 365.878 121.31 365.453C121.31 365.045 121.034 364.84 120.482 364.84H119.519V366.091Z" fill="#4169E1" fill-opacity="0.4"/>
<path d="M126.709 366.72C126.505 366.831 126.283 366.916 126.043 366.977C125.809 367.043 125.587 367.077 125.377 367.077C124.765 367.077 124.315 366.952 124.027 366.704C123.745 366.455 123.604 366.069 123.604 365.544V363.963H122.893V363.217H124.621V365.404C124.621 365.702 124.681 365.92 124.801 366.058C124.927 366.19 125.131 366.257 125.413 366.257C125.551 366.257 125.71 366.237 125.89 366.199C126.076 366.155 126.244 366.099 126.394 366.033V363.963H125.683V363.217H127.411V366.033L128.212 366.29L127.933 367.093L126.709 366.72Z" fill="#4169E1" fill-opacity="0.4"/>
<path d="M130.829 367.077C130.397 367.077 130.046 366.958 129.776 366.72C129.512 366.483 129.38 366.102 129.38 365.578V363.963H128.633V363.217H129.38V362.513L130.361 362.24V363.217H131.459V363.963H130.361V365.313C130.361 365.627 130.406 365.873 130.496 366.05C130.592 366.226 130.748 366.315 130.964 366.315C131.132 366.315 131.333 366.262 131.567 366.157L131.756 366.845C131.618 366.905 131.468 366.958 131.306 367.002C131.15 367.052 130.991 367.077 130.829 367.077Z" fill="#4169E1" fill-opacity="0.4"/>
<path d="M134.433 367.077C134.001 367.077 133.65 366.958 133.38 366.72C133.116 366.483 132.984 366.102 132.984 365.578V363.963H132.237V363.217H132.984V362.513L133.965 362.24V363.217H135.063V363.963H133.965V365.313C133.965 365.627 134.01 365.873 134.1 366.05C134.196 366.226 134.352 366.315 134.568 366.315C134.736 366.315 134.937 366.262 135.171 366.157L135.36 366.845C135.222 366.905 135.072 366.958 134.91 367.002C134.754 367.052 134.595 367.077 134.433 367.077Z" fill="#4169E1" fill-opacity="0.4"/>
<path d="M137.827 363.068C138.499 363.068 139.021 363.245 139.393 363.598C139.771 363.952 139.96 364.443 139.96 365.072C139.96 365.702 139.771 366.193 139.393 366.547C139.021 366.9 138.499 367.077 137.827 367.077C137.173 367.077 136.66 366.9 136.288 366.547C135.922 366.193 135.739 365.702 135.739 365.072C135.739 364.443 135.922 363.952 136.288 363.598C136.66 363.245 137.173 363.068 137.827 363.068ZM137.836 363.822C137.476 363.822 137.203 363.929 137.017 364.145C136.837 364.36 136.747 364.669 136.747 365.072C136.747 365.481 136.837 365.793 137.017 366.008C137.203 366.218 137.476 366.323 137.836 366.323C138.208 366.323 138.487 366.218 138.673 366.008C138.859 365.793 138.952 365.481 138.952 365.072C138.952 364.669 138.859 364.36 138.673 364.145C138.487 363.929 138.208 363.822 137.836 363.822Z" fill="#4169E1" fill-opacity="0.4"/>
<path d="M140.565 366.919V366.174H141.33V364.153L140.466 363.88L140.727 363.126L141.978 363.524C142.206 363.38 142.44 363.27 142.68 363.192C142.92 363.11 143.205 363.068 143.535 363.068C144.081 363.068 144.48 363.214 144.732 363.507C144.99 363.794 145.119 364.161 145.119 364.609V366.174H145.866V366.919H143.733V366.174H144.111V364.733C144.111 364.468 144.045 364.261 143.913 364.112C143.787 363.957 143.583 363.88 143.301 363.88C143.121 363.88 142.944 363.907 142.77 363.963C142.602 364.018 142.458 364.084 142.338 364.161V366.174H142.707V366.919H140.565Z" fill="#4169E1" fill-opacity="0.4"/>
<rect x="105.811" y="325.595" width="52.6852" height="52.6852" rx="9.63914" stroke="#F0F2F8" stroke-width="0.721716"/>
</g>
<g filter="url(#filter16_d_81_963)">
<rect x="163.909" y="325.234" width="53.407" height="53.407" rx="10" fill="white"/>
<path d="M208.444 342.725V343.869C208.444 344.059 208.436 344.251 208.42 344.441C208.188 347.054 206.372 348.761 203.753 348.761H196.592C195.266 348.761 194.147 348.331 193.343 347.551C193.028 347.261 192.763 346.921 192.556 346.531C192.829 346.199 193.136 345.835 193.434 345.47C193.94 344.864 194.429 344.267 194.735 343.878C195.191 343.314 196.393 341.829 198.059 342.526C198.399 342.667 198.697 342.866 198.971 343.04C199.642 343.488 199.924 343.62 200.396 343.363C200.919 343.081 201.258 342.526 201.615 341.945C201.805 341.638 201.996 341.34 202.203 341.066C203.107 339.889 204.499 339.574 205.66 340.27C206.24 340.618 206.737 341.058 207.201 341.505C207.301 341.604 207.4 341.697 207.491 341.788C207.616 341.912 208.03 342.327 208.444 342.725Z" fill="#4169E1" fill-opacity="0.5"/>
<path opacity="0.4" d="M203.762 332.217H196.592C193.782 332.217 191.901 334.183 191.901 337.109V343.869C191.901 344.888 192.133 345.793 192.556 346.531C192.829 346.198 193.136 345.834 193.434 345.469C193.94 344.864 194.429 344.266 194.736 343.877C195.191 343.313 196.393 341.829 198.059 342.525C198.399 342.666 198.697 342.865 198.971 343.04C199.642 343.487 199.924 343.62 200.397 343.362C200.919 343.081 201.259 342.525 201.615 341.944C201.806 341.637 201.996 341.339 202.203 341.066C203.107 339.888 204.499 339.573 205.66 340.27C206.24 340.618 206.737 341.058 207.201 341.505C207.301 341.604 207.4 341.696 207.491 341.787C207.616 341.911 208.03 342.326 208.445 342.724V337.109C208.445 334.183 206.563 332.217 203.762 332.217Z" fill="#4169E1" fill-opacity="0.5"/>
<path d="M199.722 337.84C199.722 339.005 198.751 339.975 197.586 339.975C196.423 339.975 195.452 339.005 195.452 337.84C195.452 336.675 196.423 335.704 197.586 335.704C198.751 335.704 199.722 336.675 199.722 337.84Z" fill="#4169E1" fill-opacity="0.5"/>
<rect width="14.4343" height="2.16515" rx="0.92081" transform="matrix(-1 0 0 1 187.004 334.616)" fill="#4169E1" fill-opacity="0.4"/>
<rect width="14.4343" height="2.16515" rx="0.92081" transform="matrix(-1 0 0 1 187.004 339.668)" fill="#4169E1" fill-opacity="0.4"/>
<rect width="14.4343" height="2.16515" rx="0.92081" transform="matrix(-1 0 0 1 187.004 344.72)" fill="#4169E1" fill-opacity="0.4"/>
<path d="M182.067 360.21V360.853C182.067 360.959 182.063 361.067 182.053 361.174C181.923 362.641 180.904 363.6 179.433 363.6H175.411C174.666 363.6 174.038 363.358 173.587 362.92C173.41 362.758 173.261 362.567 173.144 362.348C173.298 362.161 173.47 361.957 173.638 361.752C173.922 361.412 174.196 361.076 174.369 360.857C174.625 360.541 175.3 359.707 176.235 360.098C176.426 360.177 176.593 360.289 176.747 360.387C177.124 360.639 177.282 360.713 177.548 360.569C177.841 360.41 178.032 360.098 178.232 359.772C178.339 359.6 178.446 359.432 178.562 359.279C179.07 358.617 179.852 358.44 180.503 358.832C180.829 359.027 181.108 359.274 181.369 359.525C181.425 359.581 181.481 359.633 181.532 359.684C181.602 359.754 181.835 359.987 182.067 360.21Z" fill="#4169E1" fill-opacity="0.5"/>
<path opacity="0.4" d="M179.437 354.309H175.411C173.833 354.309 172.777 355.413 172.777 357.057V360.853C172.777 361.425 172.907 361.933 173.144 362.348C173.298 362.161 173.47 361.956 173.638 361.751C173.922 361.412 174.196 361.076 174.368 360.857C174.624 360.541 175.299 359.707 176.235 360.098C176.426 360.177 176.593 360.289 176.747 360.387C177.124 360.638 177.282 360.713 177.548 360.568C177.841 360.41 178.032 360.098 178.232 359.772C178.339 359.599 178.446 359.432 178.562 359.279C179.07 358.617 179.852 358.44 180.503 358.831C180.829 359.027 181.108 359.274 181.369 359.525C181.425 359.581 181.481 359.633 181.532 359.684C181.602 359.753 181.835 359.986 182.067 360.21V357.057C182.067 355.413 181.011 354.309 179.437 354.309Z" fill="#4169E1" fill-opacity="0.5"/>
<path d="M177.169 357.467C177.169 358.121 176.624 358.666 175.97 358.666C175.316 358.666 174.771 358.121 174.771 357.467C174.771 356.813 175.316 356.268 175.97 356.268C176.624 356.268 177.169 356.813 177.169 357.467Z" fill="#4169E1" fill-opacity="0.5"/>
<rect width="9.55212" height="1.91042" rx="0.92081" transform="matrix(-1 0 0 1 182.358 365.48)" fill="#4169E1" fill-opacity="0.4"/>
<rect width="9.55212" height="1.91042" rx="0.92081" transform="matrix(-1 0 0 1 182.36 369.301)" fill="#4169E1" fill-opacity="0.4"/>
<path d="M208.186 360.21V360.853C208.186 360.959 208.181 361.067 208.172 361.174C208.042 362.641 207.022 363.6 205.551 363.6H201.53C200.785 363.6 200.157 363.358 199.705 362.92C199.528 362.758 199.379 362.567 199.263 362.348C199.417 362.161 199.589 361.957 199.756 361.752C200.04 361.412 200.315 361.076 200.487 360.857C200.743 360.541 201.418 359.707 202.354 360.098C202.544 360.177 202.712 360.289 202.866 360.387C203.243 360.639 203.401 360.713 203.666 360.569C203.959 360.41 204.15 360.098 204.35 359.772C204.458 359.6 204.565 359.432 204.681 359.279C205.188 358.617 205.97 358.44 206.622 358.832C206.948 359.027 207.227 359.274 207.488 359.525C207.544 359.581 207.599 359.633 207.651 359.684C207.72 359.754 207.953 359.987 208.186 360.21Z" fill="#4169E1" fill-opacity="0.5"/>
<path opacity="0.4" d="M205.556 354.309H201.53C199.952 354.309 198.895 355.413 198.895 357.057V360.853C198.895 361.425 199.026 361.933 199.263 362.348C199.417 362.161 199.589 361.956 199.756 361.751C200.04 361.412 200.315 361.076 200.487 360.857C200.743 360.541 201.418 359.707 202.354 360.098C202.544 360.177 202.712 360.289 202.866 360.387C203.243 360.638 203.401 360.713 203.666 360.568C203.959 360.41 204.15 360.098 204.35 359.772C204.458 359.599 204.565 359.432 204.681 359.279C205.188 358.617 205.97 358.44 206.622 358.831C206.948 359.027 207.227 359.274 207.488 359.525C207.544 359.581 207.599 359.633 207.651 359.684C207.72 359.753 207.953 359.986 208.186 360.21V357.057C208.186 355.413 207.129 354.309 205.556 354.309Z" fill="#4169E1" fill-opacity="0.5"/>
<path d="M203.287 357.467C203.287 358.121 202.742 358.666 202.088 358.666C201.435 358.666 200.89 358.121 200.89 357.467C200.89 356.813 201.435 356.268 202.088 356.268C202.742 356.268 203.287 356.813 203.287 357.467Z" fill="#4169E1" fill-opacity="0.5"/>
<rect width="9.55212" height="1.91042" rx="0.92081" transform="matrix(-1 0 0 1 208.478 365.48)" fill="#4169E1" fill-opacity="0.4"/>
<rect width="9.55212" height="1.91042" rx="0.92081" transform="matrix(-1 0 0 1 208.478 369.301)" fill="#4169E1" fill-opacity="0.4"/>
<path d="M195.126 360.21V360.853C195.126 360.959 195.122 361.067 195.112 361.174C194.982 362.641 193.963 363.6 192.492 363.6H188.47C187.725 363.6 187.097 363.358 186.646 362.92C186.469 362.758 186.32 362.567 186.203 362.348C186.357 362.161 186.529 361.957 186.697 361.752C186.981 361.412 187.255 361.076 187.428 360.857C187.684 360.541 188.358 359.707 189.294 360.098C189.485 360.177 189.652 360.289 189.806 360.387C190.183 360.639 190.341 360.713 190.607 360.569C190.9 360.41 191.091 360.098 191.291 359.772C191.398 359.6 191.505 359.432 191.621 359.279C192.129 358.617 192.911 358.44 193.562 358.832C193.888 359.027 194.167 359.274 194.428 359.525C194.484 359.581 194.54 359.633 194.591 359.684C194.661 359.754 194.894 359.987 195.126 360.21Z" fill="#4169E1" fill-opacity="0.5"/>
<path opacity="0.4" d="M192.496 354.309H188.47C186.892 354.309 185.836 355.413 185.836 357.057V360.853C185.836 361.425 185.966 361.933 186.203 362.348C186.357 362.161 186.529 361.956 186.697 361.751C186.981 361.412 187.255 361.076 187.428 360.857C187.684 360.541 188.359 359.707 189.294 360.098C189.485 360.177 189.652 360.289 189.806 360.387C190.183 360.638 190.341 360.713 190.607 360.568C190.9 360.41 191.091 360.098 191.291 359.772C191.398 359.599 191.505 359.432 191.621 359.279C192.129 358.617 192.911 358.44 193.562 358.831C193.888 359.027 194.167 359.274 194.428 359.525C194.484 359.581 194.54 359.633 194.591 359.684C194.661 359.753 194.894 359.986 195.126 360.21V357.057C195.126 355.413 194.07 354.309 192.496 354.309Z" fill="#4169E1" fill-opacity="0.5"/>
<path d="M190.228 357.467C190.228 358.121 189.683 358.666 189.029 358.666C188.375 358.666 187.83 358.121 187.83 357.467C187.83 356.813 188.375 356.268 189.029 356.268C189.683 356.268 190.228 356.813 190.228 357.467Z" fill="#4169E1" fill-opacity="0.5"/>
<rect width="9.55212" height="1.91042" rx="0.92081" transform="matrix(-1 0 0 1 195.419 365.48)" fill="#4169E1" fill-opacity="0.4"/>
<rect width="9.55212" height="1.91042" rx="0.92081" transform="matrix(-1 0 0 1 195.419 369.301)" fill="#4169E1" fill-opacity="0.4"/>
<rect x="164.27" y="325.595" width="52.6852" height="52.6852" rx="9.63914" stroke="#F0F2F8" stroke-width="0.721716"/>
</g>
<g filter="url(#filter17_d_81_963)">
<rect x="105.45" y="384.415" width="53.407" height="53.407" rx="10" fill="white"/>
<circle cx="132.153" cy="411.118" r="16.5995" fill="#4169E1" fill-opacity="0.2"/>
<path fill-rule="evenodd" clip-rule="evenodd" d="M141.639 406.872C140.984 407.158 140.281 407.351 139.543 407.439C140.297 406.994 140.875 406.29 141.148 405.451C140.443 405.863 139.663 406.162 138.831 406.322C138.164 405.625 137.216 405.189 136.166 405.189C134.152 405.189 132.518 406.797 132.518 408.78C132.518 409.062 132.549 409.335 132.612 409.6C129.579 409.448 126.89 408.019 125.091 405.845C124.777 406.377 124.597 406.993 124.597 407.651C124.597 408.897 125.241 409.997 126.22 410.641C125.621 410.621 125.059 410.461 124.567 410.191C124.567 410.206 124.567 410.221 124.567 410.236C124.567 411.977 125.825 413.427 127.494 413.759C127.187 413.841 126.866 413.885 126.533 413.885C126.298 413.885 126.069 413.863 125.846 413.821C126.311 415.248 127.659 416.286 129.255 416.315C128.007 417.279 126.433 417.853 124.724 417.853C124.429 417.853 124.139 417.837 123.853 417.803C125.468 418.823 127.386 419.417 129.447 419.417C136.159 419.417 139.83 413.945 139.83 409.199C139.83 409.043 139.826 408.887 139.819 408.734C140.531 408.226 141.149 407.592 141.639 406.872Z" fill="#4169E1" fill-opacity="0.4"/>
<rect x="105.811" y="384.775" width="52.6852" height="52.6852" rx="9.63914" stroke="#F0F2F8" stroke-width="0.721716"/>
</g>
<g filter="url(#filter18_d_81_963)">
<rect x="46.991" y="384.414" width="53.407" height="53.407" rx="10" fill="white"/>
<circle cx="63.6876" cy="401.11" r="8.75682" fill="#4169E1" fill-opacity="0.2"/>
<path fill-rule="evenodd" clip-rule="evenodd" d="M68.6904 398.87C68.3451 399.021 67.9741 399.123 67.5851 399.169C67.9825 398.934 68.2876 398.563 68.4315 398.12C68.0598 398.338 67.648 398.495 67.2092 398.58C66.8573 398.212 66.3574 397.982 65.8035 397.982C64.7408 397.982 63.8788 398.831 63.8788 399.877C63.8788 400.026 63.8956 400.169 63.9285 400.309C62.3286 400.229 60.9098 399.475 59.9609 398.328C59.7954 398.609 59.7001 398.934 59.7001 399.281C59.7001 399.938 60.04 400.519 60.5567 400.858C60.2408 400.848 59.9441 400.763 59.6845 400.621C59.6845 400.629 59.6845 400.637 59.6845 400.645C59.6845 401.563 60.3481 402.328 61.2287 402.503C61.0668 402.546 60.8972 402.57 60.7216 402.57C60.5975 402.57 60.477 402.558 60.3595 402.536C60.6047 403.289 61.3156 403.836 62.1578 403.852C61.499 404.36 60.6688 404.663 59.7673 404.663C59.612 404.663 59.4586 404.655 59.3081 404.637C60.1599 405.175 61.1717 405.488 62.2591 405.488C65.8 405.488 67.7361 402.601 67.7361 400.097C67.7361 400.015 67.7343 399.933 67.7307 399.852C68.106 399.584 68.4321 399.25 68.6904 398.87Z" fill="#4169E1" fill-opacity="0.4"/>
<circle cx="63.6863" cy="421.125" r="8.75682" fill="#4169E1" fill-opacity="0.2"/>
<path fill-rule="evenodd" clip-rule="evenodd" d="M65.755 419.874H64.0713V418.526C64.0713 418.133 64.2084 417.853 64.408 417.853C64.6069 417.853 65.755 417.853 65.755 417.853V416.169L64.3499 416.172C62.4804 416.172 62.05 417.364 62.05 418.189V419.874H60.703V421.558H62.05C62.05 423.847 62.0319 426.273 62.0319 426.273H64.0705C64.0705 426.273 64.0705 423.819 64.0705 421.558H65.4175L65.755 419.874Z" fill="#4169E1" fill-opacity="0.4"/>
<circle cx="83.702" cy="401.11" r="8.75682" fill="#4169E1" fill-opacity="0.2"/>
<path d="M83.7019 400.006C83.0939 400.006 82.5981 400.501 82.5981 401.109C82.5981 401.717 83.0939 402.213 83.7019 402.213C84.31 402.213 84.8057 401.717 84.8057 401.109C84.8057 400.501 84.31 400.006 83.7019 400.006Z" fill="#4169E1" fill-opacity="0.4"/>
<path d="M86.1539 397.357H81.2464C80.531 397.357 79.9491 397.939 79.9491 398.654V403.565C79.9491 404.281 80.531 404.863 81.2464 404.863H86.1576C86.873 404.863 87.4549 404.281 87.4549 403.565V398.654C87.4512 397.939 86.8693 397.357 86.1539 397.357ZM83.7002 403.276C82.5066 403.276 81.5318 402.305 81.5318 401.108C81.5318 399.911 82.5029 398.94 83.7002 398.94C84.8974 398.94 85.8685 399.911 85.8685 401.108C85.8685 402.305 84.8937 403.276 83.7002 403.276ZM86.6617 398.684C86.6617 398.98 86.4208 399.221 86.1243 399.221C85.8277 399.221 85.5868 398.98 85.5868 398.684C85.5868 398.387 85.8277 398.146 86.1243 398.146C86.4208 398.146 86.6617 398.387 86.6617 398.684Z" fill="#4169E1" fill-opacity="0.4"/>
<circle cx="83.702" cy="421.125" r="8.75682" fill="#4169E1" fill-opacity="0.2"/>
<path d="M86.3278 418.334H81.2658C80.2723 418.334 79.4678 419.187 79.4678 420.24V422.923C79.4678 423.977 80.2723 424.83 81.2658 424.83H86.3304C87.3239 424.83 88.1284 423.977 88.1284 422.923V420.24C88.1284 419.187 87.3213 418.334 86.3278 418.334ZM85.1121 421.713L82.7445 422.91C82.6807 422.942 82.6092 422.894 82.6092 422.818V420.349C82.6092 420.273 82.6832 420.224 82.7471 420.259L85.1147 421.532C85.1836 421.57 85.1836 421.678 85.1121 421.713Z" fill="#4169E1" fill-opacity="0.4"/>
<rect x="47.3518" y="384.775" width="52.6852" height="52.6852" rx="9.63914" stroke="#F0F2F8" stroke-width="0.721716"/>
</g>
</g>
<defs>
<filter id="filter0_d_81_963" x="0" y="0" width="271" height="507" filterUnits="userSpaceOnUse" color-interpolation-filters="sRGB">
<feFlood flood-opacity="0" result="BackgroundImageFix"/>
<feColorMatrix in="SourceAlpha" type="matrix" values="0 0 0 0 0 0 0 0 0 0 0 0 0 0 0 0 0 0 127 0" result="hardAlpha"/>
<feOffset dx="4" dy="13"/>
<feGaussianBlur stdDeviation="19"/>
<feColorMatrix type="matrix" values="0 0 0 0 0.18776 0 0 0 0 0.227719 0 0 0 0 0.4375 0 0 0 0.14 0"/>
<feBlend mode="normal" in2="BackgroundImageFix" result="effect1_dropShadow_81_963"/>
<feBlend mode="normal" in="SourceGraphic" in2="effect1_dropShadow_81_963" result="shape"/>
</filter>
<filter id="filter1_d_81_963" x="40.4954" y="40.1562" width="181.872" height="46.1898" filterUnits="userSpaceOnUse" color-interpolation-filters="sRGB">
<feFlood flood-opacity="0" result="BackgroundImageFix"/>
<feColorMatrix in="SourceAlpha" type="matrix" values="0 0 0 0 0 0 0 0 0 0 0 0 0 0 0 0 0 0 127 0" result="hardAlpha"/>
<feOffset dy="2.88686"/>
<feGaussianBlur stdDeviation="2.52601"/>
<feColorMatrix type="matrix" values="0 0 0 0 0.254115 0 0 0 0 0.314544 0 0 0 0 0.495833 0 0 0 0.07 0"/>
<feBlend mode="normal" in2="BackgroundImageFix" result="effect1_dropShadow_81_963"/>
<feBlend mode="normal" in="SourceGraphic" in2="effect1_dropShadow_81_963" result="shape"/>
</filter>
<filter id="filter2_d_81_963" x="41.939" y="87.7893" width="63.511" height="63.511" filterUnits="userSpaceOnUse" color-interpolation-filters="sRGB">
<feFlood flood-opacity="0" result="BackgroundImageFix"/>
<feColorMatrix in="SourceAlpha" type="matrix" values="0 0 0 0 0 0 0 0 0 0 0 0 0 0 0 0 0 0 127 0" result="hardAlpha"/>
<feOffset dy="2.88686"/>
<feGaussianBlur stdDeviation="2.52601"/>
<feColorMatrix type="matrix" values="0 0 0 0 0.254115 0 0 0 0 0.314544 0 0 0 0 0.495833 0 0 0 0.07 0"/>
<feBlend mode="normal" in2="BackgroundImageFix" result="effect1_dropShadow_81_963"/>
<feBlend mode="normal" in="SourceGraphic" in2="effect1_dropShadow_81_963" result="shape"/>
</filter>
<filter id="filter3_d_81_963" x="100.398" y="87.7893" width="63.511" height="63.511" filterUnits="userSpaceOnUse" color-interpolation-filters="sRGB">
<feFlood flood-opacity="0" result="BackgroundImageFix"/>
<feColorMatrix in="SourceAlpha" type="matrix" values="0 0 0 0 0 0 0 0 0 0 0 0 0 0 0 0 0 0 127 0" result="hardAlpha"/>
<feOffset dy="2.88686"/>
<feGaussianBlur stdDeviation="2.52601"/>
<feColorMatrix type="matrix" values="0 0 0 0 0.254115 0 0 0 0 0.314544 0 0 0 0 0.495833 0 0 0 0.07 0"/>
<feBlend mode="normal" in2="BackgroundImageFix" result="effect1_dropShadow_81_963"/>
<feBlend mode="normal" in="SourceGraphic" in2="effect1_dropShadow_81_963" result="shape"/>
</filter>
<filter id="filter4_d_81_963" x="158.857" y="87.7893" width="63.511" height="63.511" filterUnits="userSpaceOnUse" color-interpolation-filters="sRGB">
<feFlood flood-opacity="0" result="BackgroundImageFix"/>
<feColorMatrix in="SourceAlpha" type="matrix" values="0 0 0 0 0 0 0 0 0 0 0 0 0 0 0 0 0 0 127 0" result="hardAlpha"/>
<feOffset dy="2.88686"/>
<feGaussianBlur stdDeviation="2.52601"/>
<feColorMatrix type="matrix" values="0 0 0 0 0.254115 0 0 0 0 0.314544 0 0 0 0 0.495833 0 0 0 0.07 0"/>
<feBlend mode="normal" in2="BackgroundImageFix" result="effect1_dropShadow_81_963"/>
<feBlend mode="normal" in="SourceGraphic" in2="effect1_dropShadow_81_963" result="shape"/>
</filter>
<filter id="filter5_d_81_963" x="100.398" y="146.97" width="63.511" height="63.511" filterUnits="userSpaceOnUse" color-interpolation-filters="sRGB">
<feFlood flood-opacity="0" result="BackgroundImageFix"/>
<feColorMatrix in="SourceAlpha" type="matrix" values="0 0 0 0 0 0 0 0 0 0 0 0 0 0 0 0 0 0 127 0" result="hardAlpha"/>
<feOffset dy="2.88686"/>
<feGaussianBlur stdDeviation="2.52601"/>
<feColorMatrix type="matrix" values="0 0 0 0 0.254115 0 0 0 0 0.314544 0 0 0 0 0.495833 0 0 0 0.07 0"/>
<feBlend mode="normal" in2="BackgroundImageFix" result="effect1_dropShadow_81_963"/>
<feBlend mode="normal" in="SourceGraphic" in2="effect1_dropShadow_81_963" result="shape"/>
</filter>
<filter id="filter6_d_81_963" x="41.939" y="146.97" width="63.511" height="63.5109" filterUnits="userSpaceOnUse" color-interpolation-filters="sRGB">
<feFlood flood-opacity="0" result="BackgroundImageFix"/>
<feColorMatrix in="SourceAlpha" type="matrix" values="0 0 0 0 0 0 0 0 0 0 0 0 0 0 0 0 0 0 127 0" result="hardAlpha"/>
<feOffset dy="2.88686"/>
<feGaussianBlur stdDeviation="2.52601"/>
<feColorMatrix type="matrix" values="0 0 0 0 0.254115 0 0 0 0 0.314544 0 0 0 0 0.495833 0 0 0 0.07 0"/>
<feBlend mode="normal" in2="BackgroundImageFix" result="effect1_dropShadow_81_963"/>
<feBlend mode="normal" in="SourceGraphic" in2="effect1_dropShadow_81_963" result="shape"/>
</filter>
<filter id="filter7_d_81_963" x="158.857" y="146.97" width="63.511" height="63.511" filterUnits="userSpaceOnUse" color-interpolation-filters="sRGB">
<feFlood flood-opacity="0" result="BackgroundImageFix"/>
<feColorMatrix in="SourceAlpha" type="matrix" values="0 0 0 0 0 0 0 0 0 0 0 0 0 0 0 0 0 0 127 0" result="hardAlpha"/>
<feOffset dy="2.88686"/>
<feGaussianBlur stdDeviation="2.52601"/>
<feColorMatrix type="matrix" values="0 0 0 0 0.254115 0 0 0 0 0.314544 0 0 0 0 0.495833 0 0 0 0.07 0"/>
<feBlend mode="normal" in2="BackgroundImageFix" result="effect1_dropShadow_81_963"/>
<feBlend mode="normal" in="SourceGraphic" in2="effect1_dropShadow_81_963" result="shape"/>
</filter>
<filter id="filter8_d_81_963" x="41.939" y="205.429" width="63.511" height="63.511" filterUnits="userSpaceOnUse" color-interpolation-filters="sRGB">
<feFlood flood-opacity="0" result="BackgroundImageFix"/>
<feColorMatrix in="SourceAlpha" type="matrix" values="0 0 0 0 0 0 0 0 0 0 0 0 0 0 0 0 0 0 127 0" result="hardAlpha"/>
<feOffset dy="2.88686"/>
<feGaussianBlur stdDeviation="2.52601"/>
<feColorMatrix type="matrix" values="0 0 0 0 0.254115 0 0 0 0 0.314544 0 0 0 0 0.495833 0 0 0 0.07 0"/>
<feBlend mode="normal" in2="BackgroundImageFix" result="effect1_dropShadow_81_963"/>
<feBlend mode="normal" in="SourceGraphic" in2="effect1_dropShadow_81_963" result="shape"/>
</filter>
<filter id="filter9_d_81_963" x="100.398" y="205.429" width="63.511" height="63.511" filterUnits="userSpaceOnUse" color-interpolation-filters="sRGB">
<feFlood flood-opacity="0" result="BackgroundImageFix"/>
<feColorMatrix in="SourceAlpha" type="matrix" values="0 0 0 0 0 0 0 0 0 0 0 0 0 0 0 0 0 0 127 0" result="hardAlpha"/>
<feOffset dy="2.88686"/>
<feGaussianBlur stdDeviation="2.52601"/>
<feColorMatrix type="matrix" values="0 0 0 0 0.254115 0 0 0 0 0.314544 0 0 0 0 0.495833 0 0 0 0.07 0"/>
<feBlend mode="normal" in2="BackgroundImageFix" result="effect1_dropShadow_81_963"/>
<feBlend mode="normal" in="SourceGraphic" in2="effect1_dropShadow_81_963" result="shape"/>
</filter>
<filter id="filter10_d_81_963" x="158.857" y="205.429" width="63.511" height="63.511" filterUnits="userSpaceOnUse" color-interpolation-filters="sRGB">
<feFlood flood-opacity="0" result="BackgroundImageFix"/>
<feColorMatrix in="SourceAlpha" type="matrix" values="0 0 0 0 0 0 0 0 0 0 0 0 0 0 0 0 0 0 127 0" result="hardAlpha"/>
<feOffset dy="2.88686"/>
<feGaussianBlur stdDeviation="2.52601"/>
<feColorMatrix type="matrix" values="0 0 0 0 0.254115 0 0 0 0 0.314544 0 0 0 0 0.495833 0 0 0 0.07 0"/>
<feBlend mode="normal" in2="BackgroundImageFix" result="effect1_dropShadow_81_963"/>
<feBlend mode="normal" in="SourceGraphic" in2="effect1_dropShadow_81_963" result="shape"/>
</filter>
<filter id="filter11_d_81_963" x="100.398" y="264.61" width="63.511" height="63.511" filterUnits="userSpaceOnUse" color-interpolation-filters="sRGB">
<feFlood flood-opacity="0" result="BackgroundImageFix"/>
<feColorMatrix in="SourceAlpha" type="matrix" values="0 0 0 0 0 0 0 0 0 0 0 0 0 0 0 0 0 0 127 0" result="hardAlpha"/>
<feOffset dy="2.88686"/>
<feGaussianBlur stdDeviation="2.52601"/>
<feColorMatrix type="matrix" values="0 0 0 0 0.254115 0 0 0 0 0.314544 0 0 0 0 0.495833 0 0 0 0.07 0"/>
<feBlend mode="normal" in2="BackgroundImageFix" result="effect1_dropShadow_81_963"/>
<feBlend mode="normal" in="SourceGraphic" in2="effect1_dropShadow_81_963" result="shape"/>
</filter>
<filter id="filter12_d_81_963" x="41.939" y="264.61" width="63.511" height="63.511" filterUnits="userSpaceOnUse" color-interpolation-filters="sRGB">
<feFlood flood-opacity="0" result="BackgroundImageFix"/>
<feColorMatrix in="SourceAlpha" type="matrix" values="0 0 0 0 0 0 0 0 0 0 0 0 0 0 0 0 0 0 127 0" result="hardAlpha"/>
<feOffset dy="2.88686"/>
<feGaussianBlur stdDeviation="2.52601"/>
<feColorMatrix type="matrix" values="0 0 0 0 0.254115 0 0 0 0 0.314544 0 0 0 0 0.495833 0 0 0 0.07 0"/>
<feBlend mode="normal" in2="BackgroundImageFix" result="effect1_dropShadow_81_963"/>
<feBlend mode="normal" in="SourceGraphic" in2="effect1_dropShadow_81_963" result="shape"/>
</filter>
<filter id="filter13_d_81_963" x="158.857" y="264.61" width="63.511" height="63.511" filterUnits="userSpaceOnUse" color-interpolation-filters="sRGB">
<feFlood flood-opacity="0" result="BackgroundImageFix"/>
<feColorMatrix in="SourceAlpha" type="matrix" values="0 0 0 0 0 0 0 0 0 0 0 0 0 0 0 0 0 0 127 0" result="hardAlpha"/>
<feOffset dy="2.88686"/>
<feGaussianBlur stdDeviation="2.52601"/>
<feColorMatrix type="matrix" values="0 0 0 0 0.254115 0 0 0 0 0.314544 0 0 0 0 0.495833 0 0 0 0.07 0"/>
<feBlend mode="normal" in2="BackgroundImageFix" result="effect1_dropShadow_81_963"/>
<feBlend mode="normal" in="SourceGraphic" in2="effect1_dropShadow_81_963" result="shape"/>
</filter>
<filter id="filter14_d_81_963" x="41.939" y="323.069" width="63.511" height="63.511" filterUnits="userSpaceOnUse" color-interpolation-filters="sRGB">
<feFlood flood-opacity="0" result="BackgroundImageFix"/>
<feColorMatrix in="SourceAlpha" type="matrix" values="0 0 0 0 0 0 0 0 0 0 0 0 0 0 0 0 0 0 127 0" result="hardAlpha"/>
<feOffset dy="2.88686"/>
<feGaussianBlur stdDeviation="2.52601"/>
<feColorMatrix type="matrix" values="0 0 0 0 0.254115 0 0 0 0 0.314544 0 0 0 0 0.495833 0 0 0 0.07 0"/>
<feBlend mode="normal" in2="BackgroundImageFix" result="effect1_dropShadow_81_963"/>
<feBlend mode="normal" in="SourceGraphic" in2="effect1_dropShadow_81_963" result="shape"/>
</filter>
<filter id="filter15_d_81_963" x="100.398" y="323.068" width="63.511" height="63.511" filterUnits="userSpaceOnUse" color-interpolation-filters="sRGB">
<feFlood flood-opacity="0" result="BackgroundImageFix"/>
<feColorMatrix in="SourceAlpha" type="matrix" values="0 0 0 0 0 0 0 0 0 0 0 0 0 0 0 0 0 0 127 0" result="hardAlpha"/>
<feOffset dy="2.88686"/>
<feGaussianBlur stdDeviation="2.52601"/>
<feColorMatrix type="matrix" values="0 0 0 0 0.254115 0 0 0 0 0.314544 0 0 0 0 0.495833 0 0 0 0.07 0"/>
<feBlend mode="normal" in2="BackgroundImageFix" result="effect1_dropShadow_81_963"/>
<feBlend mode="normal" in="SourceGraphic" in2="effect1_dropShadow_81_963" result="shape"/>
</filter>
<filter id="filter16_d_81_963" x="158.857" y="323.068" width="63.511" height="63.511" filterUnits="userSpaceOnUse" color-interpolation-filters="sRGB">
<feFlood flood-opacity="0" result="BackgroundImageFix"/>
<feColorMatrix in="SourceAlpha" type="matrix" values="0 0 0 0 0 0 0 0 0 0 0 0 0 0 0 0 0 0 127 0" result="hardAlpha"/>
<feOffset dy="2.88686"/>
<feGaussianBlur stdDeviation="2.52601"/>
<feColorMatrix type="matrix" values="0 0 0 0 0.254115 0 0 0 0 0.314544 0 0 0 0 0.495833 0 0 0 0.07 0"/>
<feBlend mode="normal" in2="BackgroundImageFix" result="effect1_dropShadow_81_963"/>
<feBlend mode="normal" in="SourceGraphic" in2="effect1_dropShadow_81_963" result="shape"/>
</filter>
<filter id="filter17_d_81_963" x="100.398" y="382.249" width="63.511" height="63.511" filterUnits="userSpaceOnUse" color-interpolation-filters="sRGB">
<feFlood flood-opacity="0" result="BackgroundImageFix"/>
<feColorMatrix in="SourceAlpha" type="matrix" values="0 0 0 0 0 0 0 0 0 0 0 0 0 0 0 0 0 0 127 0" result="hardAlpha"/>
<feOffset dy="2.88686"/>
<feGaussianBlur stdDeviation="2.52601"/>
<feColorMatrix type="matrix" values="0 0 0 0 0.254115 0 0 0 0 0.314544 0 0 0 0 0.495833 0 0 0 0.07 0"/>
<feBlend mode="normal" in2="BackgroundImageFix" result="effect1_dropShadow_81_963"/>
<feBlend mode="normal" in="SourceGraphic" in2="effect1_dropShadow_81_963" result="shape"/>
</filter>
<filter id="filter18_d_81_963" x="41.939" y="382.249" width="63.511" height="63.511" filterUnits="userSpaceOnUse" color-interpolation-filters="sRGB">
<feFlood flood-opacity="0" result="BackgroundImageFix"/>
<feColorMatrix in="SourceAlpha" type="matrix" values="0 0 0 0 0 0 0 0 0 0 0 0 0 0 0 0 0 0 127 0" result="hardAlpha"/>
<feOffset dy="2.88686"/>
<feGaussianBlur stdDeviation="2.52601"/>
<feColorMatrix type="matrix" values="0 0 0 0 0.254115 0 0 0 0 0.314544 0 0 0 0 0.495833 0 0 0 0.07 0"/>
<feBlend mode="normal" in2="BackgroundImageFix" result="effect1_dropShadow_81_963"/>
<feBlend mode="normal" in="SourceGraphic" in2="effect1_dropShadow_81_963" result="shape"/>
</filter>
</defs>
</svg>
