<svg width="20" height="20" viewBox="0 0 20 20" fill="none" xmlns="http://www.w3.org/2000/svg">
<path d="M14.0349 5.39898C12.5463 7.17055 11.0577 8.922 9.56909 10.6936C9.23611 11.0761 8.90313 11.4787 8.57016 11.8612C8.5114 11.9216 8.33511 12.1028 8.17842 12.2638C7.9042 11.9417 7.39494 11.5794 7.19907 11.3579C6.78775 10.915 6.37643 10.452 5.9651 9.96884C4.96617 8.80121 3.32087 10.5124 4.30021 11.68C5.16204 12.6866 6.08262 13.8945 7.1599 14.6394C8.33511 15.4446 9.17735 14.7803 9.96083 13.8341C11.8999 11.5995 13.7999 9.36489 15.6998 7.11016C16.6791 5.94253 15.0338 4.21121 14.0349 5.39898Z" fill="white"/>
</svg>
