<svg width="20" height="21" viewBox="0 0 20 21" fill="none" xmlns="http://www.w3.org/2000/svg">
<circle cx="10" cy="10.5" r="10" fill="#D2FFD9"/>
<path d="M14.0349 5.89898C12.5463 7.67055 11.0577 9.422 9.56909 11.1936C9.23611 11.5761 8.90313 11.9787 8.57016 12.3612C8.5114 12.4216 8.33511 12.6028 8.17842 12.7638C7.9042 12.4417 7.39494 12.0794 7.19907 11.8579C6.78775 11.415 6.37643 10.952 5.9651 10.4688C4.96617 9.30121 3.32087 11.0124 4.30021 12.18C5.16204 13.1866 6.08262 14.3945 7.1599 15.1394C8.33511 15.9446 9.17735 15.2803 9.96083 14.3341C11.8999 12.0995 13.7999 9.86489 15.6998 7.61016C16.6791 6.44253 15.0338 4.71121 14.0349 5.89898Z" fill="#76E088"/>
</svg>
