<svg width="93" height="94" fill="none" xmlns="http://www.w3.org/2000/svg"><g clip-path="url(#clip0_177_3596)" fill="#31449E" stroke="#060D19"><path d="M73.032 13.883l.281-.305-.248-.333c-.96-1.284-1.543-2.853-1.543-4.564 0-4.231 3.442-7.674 7.673-7.674S86.87 4.45 86.87 8.681s-3.443 7.674-7.674 7.674a7.589 7.589 0 01-1.816-.242l-.286-.07-.2.216-13.331 14.466-.282.305.249.333c.96 1.284 1.543 2.853 1.543 4.564 0 4.231-3.443 7.674-7.674 7.674-4.23 0-7.673-3.443-7.673-7.674 0-.782.153-1.533.384-2.272l.106-.337-.283-.212-9.506-7.128-.283-.212-.294.197a7.62 7.62 0 01-4.247 1.29 7.62 7.62 0 01-4.247-1.29l-.295-.197-.283.212-9.506 7.128-.283.212.106.337c.231.739.384 1.49.384 2.272 0 4.231-3.442 7.674-7.673 7.674S6.13 40.158 6.13 35.927s3.443-7.674 7.674-7.674a7.62 7.62 0 014.247 1.291l.294.197.283-.213 9.506-7.127.283-.212-.105-.338c-.232-.738-.385-1.489-.385-2.271 0-4.232 3.442-7.674 7.674-7.674 4.23 0 7.673 3.442 7.673 7.673 0 .783-.153 1.534-.384 2.272l-.106.338.283.212 9.506 7.127.283.213.294-.197a7.62 7.62 0 014.247-1.29c.619 0 1.219.095 1.816.241l.287.07.2-.216 13.33-14.466zm-42.88 30.718h10.899c1.23 0 2.224.995 2.224 2.225v35.283H27.928V46.826c0-1.23.994-2.225 2.224-2.225zM51.95 55.5h10.898c1.23 0 2.224.994 2.224 2.224v24.385H49.725V57.724c0-1.23.994-2.225 2.224-2.225zm21.796-21.797h10.898c1.23 0 2.225.994 2.225 2.224V82.11H71.522V35.927c0-1.23.994-2.224 2.224-2.224zM8.355 60.949h10.899c1.23 0 2.224.994 2.224 2.224V82.11H6.132V63.173c0-1.23.995-2.224 2.224-2.224zm61.976 27.609h-1.3 0-.007 0-.008 0-.002 0-.002 0-.002 0-.002 0-.002 0-.002 0-.002 0H69h0-.002 0-.004 0-.002 0-.003 0-.002 0-.002 0-.003 0-.002 0-.002 0-.002 0-.002 0-.001 0-.002 0-.001 0-.001 0-.001 0-.001 0-.001 0-.001 0-.001 0-.001 0-.001 0-.001 0-.001 0-.001 0-.001 0-.001 0-.001 0-.001 0-.001 0-.001 0H2.725a2.224 2.224 0 100 4.449l67.606-4.449zm0 0h.013m-.013 0h.013m0 0h.014m-.014 0h.014m0 0h.013m-.013 0h.013m0 0h.013m-.013 0h.013m0 0h.013m-.013 0h.013m0 0h.014m-.014 0h.014m0 0h.013m-.013 0h.013m0 0h.014m-.014 0h.014m0 0h.013m-.013 0h.013m0 0h.014m-.014 0h.014m0 0h.014m-.014 0h.014m0 0h.014m-.014 0h.014m0 0h.014m-.014 0h.014m0 0h.014m-.014 0h.014m0 0h.014m-.014 0h.014m0 0h.014m-.014 0h.014m0 0h.015m-.015 0h.015m0 0h.014m-.014 0h.014m0 0h.014m-.014 0h.014m0 0h.015m-.014 0h.014m0 0h.015m-.015 0h.015m0 0h.014m-.014 0h.014m0 0h.015m-.015 0h.015m0 0h.015m-.015 0h.015m0 0h.015m-.015 0h.015m0 0h.015m-.015 0h.015m0 0h.015m-.015 0h.015m0 0h.015m-.015 0h.015m0 0h.016m-.016 0h.016m0 0h.015m-.016 0h.016m0 0h.015m-.015 0h.015m0 0h.016m-.016 0h.016m0 0h.015m-.015 0h.015m0 0h.016m-.016 0h.016m0 0h.016m-.016 0h.016m0 0h.016m-.016 0h.016m0 0h.016m-.016 0h.016m0 0h.016m-.016 0h.016m0 0h.016m-.016 0h.016m0 0h.016m-.016 0h.016m0 0h.016m-.016 0h.016m0 0h.016m-.016 0h.016m0 0h.017m-.017 0h.017m0 0h.016m-.016 0h.016m0 0h.017m-.017 0h.017m0 0h.017m-.017 0h.017m0 0h.016m-.016 0h.016m0 0h.017m-.017 0h.017m0 0h.017m-.017 0h.017m0 0h.017m-.017 0h.017m0 0h.017m-.017 0h.017m0 0h.017m-.017 0h.017m0 0h.018m-.018 0h.018m0 0h.017m-.017 0h.017m0 0h.017m-.017 0h.017m0 0h.018m-.017 0h.017m0 0h.018m-.018 0h.018m0 0h.017m-.017 0h.017m0 0h.018m-.018 0h.018m0 0h.018m-.018 0h.018m0 0h.018m-.018 0h.018m0 0h.018m-.018 0h.018m0 0h.018m-.018 0h.018m0 0h.018m-.018 0h.018m0 0h.019m-.019 0h.019m0 0h.018m-.018 0h.018m0 0h.018m-.018 0h.018m0 0h.019m-.019 0h.019m0 0h.019m-.019 0h.019m0 0h.018m-.018 0h.018m0 0h.02m-.02 0h.02m0 0h.018m-.019 0h.02m0 0h.018m-.019 0h.02m0 0h.018m-.019 0h.02m0 0h.018m-.019 0h.02m0 0h.019m-.02 0h.02m0 0h.019m-.02 0h.02m0 0h.02m-.02 0h.02m0 0h.019m-.02 0h.02m0 0h.02m-.02 0h.02m0 0h.02m-.02 0h.02m0 0h.019m-.02 0h.02m0 0h.02m-.02 0h.02m0 0h.02m-.02 0h.02m0 0h.02m-.02 0h.02m0 0h.02m-.02 0h.02m0 0h.02m-.02 0h.02m0 0h.02m-.02 0h.02m0 0h.021m-.02 0h.02m0 0h.02m-.02 0h.02m0 0h.021m-.02 0h.02m0 0h.02m-.02 0h.02m0 0h.022m-.021 0h.02m0 0h.021m-.02 0h.02m0 0h.021m-.02 0h.02m0 0h.021m-.02 0h.02m0 0h.022m-.022 0h.022m0 0h.02m-.02 0h.02m0 0h.022m-.021 0h.021m0 0h.022m-.022 0h.022m0 0h.021m-.021 0h.021m0 0h.022m-.022 0h.022m0 0h.021m-.021 0h.021m0 0h.022m-.022 0h.022m0 0h.022m-.022 0h.022m0 0h.022m-.022 0h.022m0 0h.022m-.022 0h.022m0 0h.022m-.022 0h.022m0 0h.023m-.023 0h.023m0 0h.022m-.022 0h.022m0 0h.022m-.022 0h.022m0 0h.023m-.023 0h.023m0 0h.022m-.022 0h.022m0 0h.023m-.023 0h.023m0 0h.023m-.023 0h.023m0 0h.023m-.023 0h.023m0 0h.023m-.023 0h.023m0 0h.023m-.023 0h.023m0 0h.023m-.023 0h.023m0 0h.023m-.023 0h.023m0 0h.024m-.024 0h.024m0 0h.023m-.023 0h.023m0 0h.024m-.024 0h.024m0 0h.023m-.023 0h.023m0 0h.024m-.023 0h.023m0 0h.024m-.024 0h.024m0 0h.024m-.024 0h.024m0 0h.024m-.024 0h.024m0 0h.024m-.024 0h.024m0 0h.025m-.025 0h.025m0 0h.024m-.025 0h.025m0 0h.024m-.024 0h.024m0 0h.025m-.025 0h.025m0 0h.024m-.024 0h.024m0 0h.025m-.025 0h.025m0 0h.025m-.025 0h.025m0 0h.025m-.025 0h.025m0 0h.025m-.025 0h.025m0 0h.025m-.025 0h.025m0 0h.025m-.025 0h.025m0 0h.025m-.025 0h.025m0 0h.026m-.026 0h.026m0 0h.025m-.025 0h.025m0 0h.026m-.026 0h.026m0 0h.026m-.026 0h.026m0 0h.025m-.025 0h.025m0 0h.026m-.026 0h.026m0 0h.026m-.026 0h.026m0 0h.026m-.026 0h.026m0 0h.027m-.027 0h.027m0 0h.026m-.026 0h.026m0 0h.026m-.026 0h.026m0 0h.027m-.027 0h.027m0 0h.026m-.026 0h.026m0 0h.027m-.027 0h.027m0 0h.027m-.027 0h.027m0 0h.027m-.027 0h.027m0 0h.027m-.027 0h.027m0 0h.027m-.027 0h.027m0 0h.027m-.027 0h.027m0 0h.027m-.027 0h.027m0 0h.027m-.027 0h.027m0 0h.028m-.028 0h.028m0 0h.028m-.028 0h.028m0 0h.027m-.027 0h.027m0 0h.028m-.028 0h.028m0 0h.028m-.028 0h.028m0 0h.028m-.028 0h.028m0 0h.028m-.028 0h.028m0 0h.028m-.028 0h.028m0 0h.028m-.028 0h.028m0 0h.029m-.028 0h.028m0 0h.028m-.028 0h.028m0 0h.029m-.029 0h.029m0 0h.029m-.029 0h.029m0 0h.028m-.028 0h.028m0 0h.03m-.03 0h.03m0 0h.028m-.029 0h.03m0 0h.029m-.03 0h.03m0 0h.029m-.03 0h.03m0 0h.029m-.03 0h.03m0 0h.03m-.03 0h.03m0 0h.029m-.03 0h.03m0 0h.03m-.03 0h.03m0 0h.03m-.03 0h.03m0 0h.03m-.03 0h.03m0 0h.03m-.03 0h.03m0 0h.03m-.03 0h.03m0 0h.03m-.03 0h.03m0 0h.03m-.03 0h.03m0 0h.03m-.03 0h.03m0 0h.03m-.03 0h.03m0 0h.031m-.03 0h.03m0 0h.03m-.03 0h.03m0 0h.031m-.03 0h.03m0 0h.031m-.03 0h.03m0 0h.031m-.03 0h.03m0 0h.031m-.03 0h.03m0 0h.032m-.032 0h.032m0 0h.03m-.03 0h.03m0 0h.032m-.031 0h.031m0 0h.032m-.032 0h.032m0 0h.031m-.031 0h.031m0 0h.032m-.032 0h.032m0 0h.032m-.032 0h.032m0 0h.032m-.032 0h.032m0 0h.032m-.032 0h.032m0 0h.032m-.032 0h.032m0 0h.032m-.032 0h.032m0 0h.033m-.032 0h.032m0 0h.032m-.032 0h.032m0 0h.033m-.033 0h.033m0 0h.033m-.033 0h.033m0 0h.032m-.032 0h.032m0 0h.033m-.033 0h.033m0 0h.033m-.033 0h.033m0 0h.034m-.034 0h.034m0 0h.033m-.034 0h.034m0 0h.033m-.033 0h.033m0 0h.033m-.033 0h.033m0 0h.034m-.034 0h.034m0 0h.034m-.034 0h.034m0 0h.034m-.034 0h.034m0 0h.034m-.034 0h.034m0 0h.034m-.034 0h.034m0 0h.034m-.034 0h.034m0 0h.034m-.034 0h.034m0 0h.034m-.034 0h.034m0 0h.035m-.035 0h.035m0 0h.034m-.034 0h.034m0 0h.035m-.035 0h.035m0 0h.035m-.035 0h.035m0 0h.034m-.034 0h.034m0 0h.035m-.035 0h.035m0 0h.036m-.036 0h.036m0 0h.035m-.035 0h.035m0 0h.035m-.035 0h.035m0 0h.035m-.035 0h.035m0 0h.036m-.035 0h.035m0 0h.036m-.036 0h.036m0 0h.035m-.035 0h.035m0 0h.036m-.035 0h.035m0 0h.036m-.036 0h.036m0 0h.036m-.036 0h.036m0 0h.037m-.037 0h.037m0 0h.036m-.036 0h.036m0 0h.037m-.037 0h.037m0 0h.036m-.037 0h.037m0 0h.037m-.037 0h.037m0 0h.037m-.037 0h.037m0 0h.036m-.036 0h.036m0 0h.037m-.037 0h.037m0 0h.038m-.037 0h.037m0 0h.037m-.037 0h.037m0 0h.037m-.037 0h.037m0 0h.038m-.038 0h.038m0 0h.037m-.037 0h.037m0 0h.038m-.038 0h.038m0 0h.038m-.038 0h.038m0 0h.038m-.038 0h.038m0 0h.038m-.038 0h.038m0 0h.038m-.038 0h.038m0 0h.038m-.038 0h.038m0 0h.039m-.039 0h.039m0 0h.038m-.038 0h.038m0 0h.039m-.039 0h.039m0 0h.038m-.038 0h.038m0 0h.04m-.04 0h.04m0 0h.038m-.039 0h.04m0 0h.038m-.039 0h.04m0 0h.038m-.039 0h.04m0 0h.039m-.04 0h.04m0 0h.04m-.04 0h.04m0 0h.039m-.04 0h.04m0 0h.04m-.04 0h.04m0 0h.04m-.04 0h.04m0 0h.04m-.04 0h.04m0 0h.04m-.04 0h.04m0 0h.04m-.04 0h.04m0 0h.04m-.04 0h.04m0 0h.04m-.04 0h.04m0 0h.04m-.04 0h.04m0 0h.041m-.04 0h.04m0 0h.04m-.04 0h.04m0 0h.042m-.041 0h.04m0 0h.042m-.041 0h.04m0 0h.042m-.041 0h.04m0 0h.042m-.041 0h.04m0 0h.042m-.041 0h.041m0 0h.042m-.042 0h.042m0 0h.041m-.041 0h.041m0 0h.042m-.042 0h.042m0 0h.042m-.042 0h.042m0 0h.042m-.042 0h.042m0 0h.041m-.041 0h.041m0 0h.043m-.043 0h.043m0 0h.042m-.042 0h.042m0 0h.042m-.042 0h.042m0 0h.043m-.043 0h.043m0 0h.043m-.043 0h.043m0 0h.042m-.043 0h.043m0 0h.043m-.043 0h.043m0 0h.043m-.043 0h.043m0 0h.043m-.043 0h.043m0 0h.043m-.043 0h.043m0 0h.044m-.044 0h.044m0 0h.043m-.043 0h.043m0 0h.044m-.044 0h.044m0 0h.044m-.044 0h.044m0 0h.043m-.043 0h.043m0 0h.044m-.044 0h.044m0 0h.044m-.044 0h.044m0 0h.045m-.044 0h.044m0 0h.044m-.044 0h.044m0 0h.044m-.044 0h.044m0 0h.045m-.045 0h.045m0 0h.045m-.045 0h.045m0 0h.044m-.044 0h.044m0 0h.045m-.044 0h.044m0 0h.046m-.046 0h.046m0 0h.045m-.046 0h.046m0 0h.045m-.045 0h.045m0 0h.045m-.045 0h.045m0 0h.046m-.046 0h.046m0 0h.046m-.046 0h.046m0 0h.045m-.045 0h.045m0 0h.046m-.046 0h.046m0 0h.047m-.046 0h.046m0 0h.046m-.046 0h.046m0 0h.046m-.046 0h.046m0 0h.046m-.046 0h.046m0 0h.047m-.047 0h.047m0 0h.047m-.047 0h.047m0 0h.047m-.047 0h.047m0 0h.046m-.046 0h.046m0 0h.047m-.047 0h.047m0 0h.048m-.048 0h.048m0 0h.047m-.047 0h.047m0 0h.047m-.047 0h.047m0 0h.048m-.048 0h.048m0 0h.048m-.048 0h.048m0 0h.047m-.047 0h.047m0 0h.048m-.048 0h.048m0 0h.048m-.048 0h.048m0 0h.049m-.049 0h.049m0 0h.048m-.048 0h.048m0 0h.048m-.048 0h.048m0 0h.049m-.049 0h.049m0 0h.049m-.05 0h.05m0 0h.048m-.048 0h.048m0 0h.05m-.05 0h.05m0 0h.049m-.05 0h.05m0 0h.049m-.05 0h.05m0 0h.05m-.05 0h.05m0 0h.049m-.05 0h.05m0 0h.05m-.05 0h.05m0 0h.049m-.05 0h.05m0 0h.05m-.05 0h.05m0 0h.05m-.05 0h.05m0 0h.05m-.05 0h.05m0 0h.05m-.05 0h.05m0 0h.05m-.05 0h.05m0 0h.05m-.05 0h.05m0 0h.051m-.05 0h.05m0 0h.051m-.05 0h.05m0 0h.051m-.05 0h.05m0 0h.051m-.05 0h.05m0 0h.051m-.05 0h.05m0 0h.052m-.052 0h.052m0 0h.051m-.051 0h.051m0 0h.052m-.052 0h.052m0 0h.051m-.052 0h.052m0 0h.052m-.052 0h.052m0 0h.052m-.052 0h.052m0 0h.052m-.052 0h.052m0 0h.052m-.052 0h.052m0 0h.052m-.052 0h.052m0 0h.053m-.052 0h.052m0 0h.053m-.053 0h.053m0 0h.052m-.052 0h.052m0 0h.053m-.053 0h.053m0 0h.053m-.053 0h.053m0 0h.053m-.053 0h.053m0 0h.053m-.053 0h.053m0 0h.054m-.053 0h.053m0 0h.053m-.053 0h.053m0 0h.054m-.054 0h.054m0 0h.054m-.054 0h.054m0 0h.054m-.054 0h.054m0 0h.054m-.054 0h.054m0 0h.054m-.054 0h.054m0 0h.054m-.054 0h.054m0 0h.055m-.055 0h.055m0 0h.054m-.054 0h.054m0 0h.055m-.055 0h.055m0 0h.055m-.055 0h.055m0 0h.055m-.055 0h.055m0 0h.055m-.055 0h.055m0 0h.055m-.055 0h.055m0 0h.055m-.055 0h.055m0 0h.056m-.056 0h.056m0 0h.056m-.056 0h.056m0 0h.055m-.055 0h.055m0 0h.056m-.056 0h.056m0 0h.056m-.056 0h.056m0 0h.057m-.057 0h.057m0 0h.056m-.056 0h.056m0 0h.056m-.056 0h.056m0 0h.057m-.057 0h.057m0 0h.057m-.057 0h.057m0 0h.057m-.057 0h.057m0 0h.057m-.057 0h.057m0 0h.057m-.057 0h.057m0 0h.057m-.057 0h.057m0 0h.058m-.058 0h.058m0 0h.057m-.058 0h.058m0 0h.058m-.058 0h.058m0 0h.058m-.058 0h.058m0 0h.058m-.058 0h.058m0 0h.058m-.058 0h.058m0 0h.058m-.058 0h.058m0 0h.058m-.058 0h.058m0 0h.059m-.059 0h.059m0 0h.058m-.058 0h.058m0 0h.06m-.06 0h.06m0 0h.058m-.059 0h.06m0 0h.058m-.059 0h.06m0 0h.058m-.059 0h.06m0 0h.059m-.06 0h.06m0 0h.06m-.06 0h.06m0 0h.059m-.06 0h.06m0 0h.06m-.06 0h.06m0 0h.06m-.06 0h.06m0 0h.06m-.06 0h.06m0 0h.06m-.06 0h.06m0 0h.06m-.06 0h.06m0 0h.06m-.06 0h.06m0 0h.061m-.06 0h.06m0 0h.061m-.06 0h.06m0 0h.06m-.06 0h.06m0 0h.062m-.061 0h.06m0 0h.062m-.061 0h.061m0 0h.061m-.06 0h.06m0 0h.062m-.062 0h.062m0 0h.061m-.061 0h.061m0 0h.062m-.062 0h.062m0 0h.062m-.062 0h.062m0 0h.062m-.062 0h.062m0 0h.062m-.062 0h.062m0 0h.063m-.063 0h.063m0 0h.062m-.063 0h.063m0 0h.063m-.063 0h.063m0 0h.062m-.063 0h.063m0 0h.063m-.063 0h.063m0 0h.063m-.063 0h.063m0 0h.063m-.063 0h.063m0 0h.063m-.063 0h.063m0 0h.064m-.064 0h.064m0 0h.064m-.064 0h.064m0 0h.063m-.063 0h.063m0 0h.064m-.064 0h.064m0 0h.064m-.064 0h.064m0 0h.064m-.064 0h.064m0 0h.065m-.065 0h.065m0 0h.064m-.064 0h.064m0 0h.065m-.065 0h.065m0 0h.064m-.064 0h.064m0 0h.065m-.065 0h.065m0 0h.065m-.065 0h.065m0 0h.065m-.065 0h.065m0 0h.066m-.066 0h.066m0 0h.065m-.065 0h.065m0 0h.066m-.066 0h.066m0 0h.066m-.066 0h.066m0 0h.065m-.066 0h.066m0 0h.066m-.066 0h.066m0 0h.067m-.067 0h.067m0 0h.066m-.066 0h.066m0 0h.066m-.066 0h.066m0 0h.067m-.067 0h.067m0 0h.067m-.067 0h.067m0 0h.067m-.067 0h.067m0 0h.067m-.067 0h.067m0 0h.067m-.067 0h.067m0 0h.067m-.067 0h.067m0 0h.068m-.068 0h.068m0 0h.067m-.067 0h.067m0 0h.068m-.068 0h.068m0 0h.068m-.068 0h.068m0 0h.068m-.068 0h.068m0 0h.068m-.068 0h.068m0 0h.069m-.069 0h.069m0 0h.068m-.068 0h.068m0 0h.07m-.07 0h.07m0 0h.068m-.069 0h.069m0 0h.069m-.07 0h.07m0 0h.069m-.07 0h.07m0 0h.07m-.07 0h.07m0 0h.069m-.07 0h.07m0 0h.07m-.07 0h.07m0 0h.069m-.07 0h.07m0 0h.07m-.07 0h.07m0 0h.07m-.07 0h.07m0 0h.07m-.07 0h.07m0 0h.07m-.07 0h.07m0 0h.07m-.07 0h.07m0 0h.071m-.07 0h.07m0 0h.071m-.07 0h.07m0 0h.071m-.07 0h.07m0 0h.071m-.07 0h.07m0 0h.071m-.07 0h.07m0 0c1.23 0 2.225.995 2.225 2.225l-2.225-2.225zm-.18 4.45h.18-.18zm0 0h-.18m.18 0h-.18m0 0h-.18m.18 0h-.18m0 0h-.18m.18 0h-.18m0 0h-.18m.18 0h-.18m0 0h-.18m.18 0h-.18m0 0h-.179m.18 0h-.18m0 0h-.18m.18 0h-.18m0 0h-.178m.179 0h-.18m0 0h-.178m.179 0h-.18m0 0H88.3m.179 0h-.18m0 0h-.178m.179 0h-.179m0 0h-.178m.178 0h-.178m0 0h-.179m.179 0h-.179m0 0h-.178m.178 0h-.178m0 0h-.178m.178 0h-.178m0 0h-.178m.178 0h-.178m0 0h-.178m.178 0h-.178m0 0h-.177m.177 0h-.177m0 0h-.178m.178 0h-.178m0 0h-.177m.177 0h-.177m0 0h-.177m.177 0h-.177m0 0h-.178m.178 0h-.178m0 0h-.176m.176 0h-.176m0 0h-.177m.177 0h-.177m0 0h-.177m.177 0h-.177m0 0h-.176m.176 0h-.176m0 0h-.177m.177 0h-.177m0 0h-.176m.177 0h-.177m0 0h-.176m.176 0h-.176m0 0h-.176m.176 0h-.176m0 0h-.175m.175 0h-.175m0 0h-.176m.176 0h-.176m0 0h-.176m.176 0h-.176m0 0h-.175m.175 0h-.175m0 0h-.175m.175 0h-.175m0 0h-.175m.175 0h-.175m0 0h-.175m.175 0h-.175m0 0h-.175m.175 0h-.175m0 0h-.175m.175 0h-.175m0 0h-.174m.174 0h-.174m0 0h-.175m.175 0h-.175m0 0h-.174m.174 0h-.174m0 0h-.174m.174 0h-.174m0 0h-.174m.174 0h-.174m0 0h-.174m.174 0h-.174m0 0h-.174m.174 0h-.174m0 0h-.174m.174 0h-.174m0 0h-.173m.173 0h-.173m0 0h-.174m.174 0h-.174m0 0h-.173m.174 0h-.174m0 0h-.173m.173 0h-.173m0 0h-.173m.173 0h-.173m0 0h-.173m.173 0h-.173m0 0h-.173m.173 0h-.173m0 0H80.4m.172 0H80.4m0 0h-.173m.173 0h-.173m0 0h-.172m.172 0h-.172m0 0h-.173m.173 0h-.173m0 0h-.172m.172 0h-.172m0 0h-.172m.172 0h-.172m0 0h-.172m.172 0h-.172m0 0h-.172m.172 0h-.172m0 0h-.171m.171 0h-.171m0 0h-.172m.172 0h-.172m0 0h-.171m.171 0h-.171m0 0h-.172m.172 0h-.172m0 0h-.171m.171 0h-.171m0 0h-.171m.17 0h-.17m0 0h-.171m.17 0h-.17m0 0h-.171m.17 0h-.17m0 0h-.171m.17 0h-.17m0 0h-.17m.17 0h-.17m0 0h-.172m.171 0h-.17m0 0h-.171m.17 0h-.17m0 0h-.17m.17 0h-.17m0 0h-.17m.17 0h-.17m0 0h-.17m.17 0h-.17m0 0h-.171m.17 0h-.17m0 0h-.17m.17 0h-.17m0 0h-.17m.17 0h-.17m0 0h-.17m.17 0h-.17m0 0h-.17m.17 0h-.17m0 0h-.169m.17 0h-.17m0 0h-.17m.17 0h-.17m0 0h-.169m.17 0h-.17m0 0h-.17m.17 0h-.17m0 0h-.168m.169 0h-.17m0 0h-.168m.169 0h-.17m0 0h-.168m.169 0h-.17m0 0h-.168m.169 0h-.17m0 0h-.168m.169 0h-.17m0 0h-.168m.169 0h-.169m0 0h-.168m.168 0h-.168m0 0h-.169m.169 0h-.169m0 0h-.168m.168 0h-.168m0 0h-.169m.169 0h-.169m0 0h-.168m.168 0h-.168m0 0h-.168m.168 0h-.168m0 0h-.168m.168 0h-.168m0 0h-.168m.168 0h-.168m0 0h-.168m.168 0h-.168m0 0h-.168m.168 0h-.168m0 0h-.167m.167 0h-.167m0 0h-.168m.168 0h-.168m0 0h-.168m.168 0h-.168m0 0h-.167m.167 0h-.167m0 0h-.168m.168 0h-.168m0 0h-.167m.167 0h-.167m0 0h-.167m.167 0h-.167m0 0h-.167m.167 0h-.167m0 0H70.9m.167 0H70.9m0 0h-.167m.167 0h-.167m0 0h-.167m.167 0h-.167m0 0H70.4m.167 0H70.4m0 0h-.167m.167 0h-.167m0 0h-.166m.166 0h-.166m0 0H69.9m.167 0H69.9m0 0h-.166m.166 0h-.166m0 0h-.167m.167 0h-.167m0 0h-.166m.166 0h-.166m0 0h-.167m.167 0h-.167m0 0h-.166m.166 0h-.166m0 0h-.166m.166 0h-.166m0 0h-.166m.166 0h-.166m0 0h-.166m.166 0h-.166m0 0h-.166m.166 0h-.166m0 0h-.166m.166 0h-.166m0 0h-.166m.166 0h-.166m0 0h-.165m.165 0h-.165m0 0h-.166m.166 0h-.166m0 0h-.166m.166 0h-.166m0 0h-.165m.165 0h-.165m0 0h-.166m.166 0h-.166m0 0h-.165m.165 0h-.165m0 0h-.165m.165 0h-.165m0 0h-.166m.165 0h-.165m0 0h-.165m.165 0h-.165m0 0h-.165m.165 0h-.165m0 0h-.165m.165 0h-.165m0 0h-.165m.165 0h-.165m0 0h-.165m.165 0h-.165m0 0h-.165m.165 0h-.165m0 0h-.165m.165 0h-.165m0 0h-.165m.165 0h-.165m0 0h-.165m.165 0h-.165m0 0H65.1m.164 0H65.1m0 0h-.165m.165 0h-.165m0 0h-.165m.165 0h-.165m0 0h-.164m.164 0h-.164m0 0h-.165m.165 0h-.165m0 0h-.164m.164 0h-.164m0 0h-.164m.164 0h-.164m0 0h-.165m.165 0h-.165m0 0h-.164m.164 0h-.164m0 0h-.164m.164 0h-.164m0 0h-.165m.165 0h-.165m0 0h-.164m.164 0h-.164m0 0h-.164m.164 0h-.164m0 0h-.164m.164 0h-.164m0 0h-.164m.164 0h-.164m0 0h-.164m.164 0h-.164m0 0h-.164m.164 0h-.164m0 0h-.164m.164 0h-.164m0 0h-.163m.163 0h-.163m0 0h-.164m.163 0h-.163m0 0h-.164m.164 0h-.164m0 0h-.164m.164 0h-.164m0 0h-.164m.164 0h-.164m0 0h-.163m.163 0h-.163m0 0h-.164m.164 0h-.164m0 0h-.163m.163 0h-.163m0 0h-.164m.164 0h-.164m0 0h-.163m.163 0h-.163m0 0h-.164m.164 0h-.164m0 0h-.163m.163 0h-.163m0 0h-.164m.164 0h-.164m0 0h-.163m.163 0h-.163m0 0h-.163m.163 0h-.163m0 0h-.164m.164 0h-.164m0 0h-.163m.163 0h-.163m0 0h-.163m.163 0h-.163m0 0H59.2m.163 0H59.2m0 0h-.164m.164 0h-.164m0 0h-.163m.163 0h-.163m0 0h-.163m.163 0h-.163m0 0h-.163m.163 0h-.163m0 0h-.163m.163 0h-.163m0 0h-.163m.163 0h-.163m0 0h-.163m.163 0h-.163m0 0h-.163m.163 0h-.163m0 0h-.163m.163 0h-.163m0 0h-.163m.163 0h-.163m0 0h-.163m.163 0h-.163m0 0h-.163m.163 0h-.163m0 0h-.163m.163 0h-.163m0 0h-.163m.163 0h-.163m0 0h-.163m.163 0h-.163m0 0h-.162m.162 0h-.162m0 0h-.163m.163 0h-.163m0 0h-.163m.163 0h-.163m0 0h-.163m.163 0h-.163m0 0h-.163m.163 0h-.163m0 0h-.162m.162 0h-.162m0 0h-.163m.163 0h-.163m0 0h-.163m.163 0h-.163m0 0h-.163m.163 0h-.163m0 0h-.162m.162 0h-.162m0 0h-.163m.163 0h-.163m0 0H54.8m.163 0H54.8m0 0h-.163m.163 0h-.163m0 0h-.162m.162 0h-.162m0 0h-.163m.163 0h-.163m0 0h-.163m.163 0h-.163m0 0h-.162m.162 0h-.162m0 0h-.163m.163 0h-.163m0 0h-.163m.163 0h-.163m0 0H53.5m.162 0H53.5m0 0h-.163m.163 0h-.163m0 0h-.163m.163 0h-.163m0 0h-.162m.162 0h-.162m0 0h-.163m.163 0h-.163m0 0h-.163m.163 0h-.163m0 0h-.162m.162 0h-.162m0 0h-.163m.163 0h-.163m0 0H52.2m.162 0H52.2m0 0h-.163m.163 0h-.163m0 0h-.163m.163 0h-.163m0 0h-.162m.162 0h-.162m0 0h-.163m.163 0h-.163m0 0h-.163m.163 0h-.163m0 0h-.163m.163 0h-.163m0 0h-.162m.162 0h-.162m0 0h-.163m.163 0h-.163m0 0h-.163m.163 0h-.163m0 0h-.162m.162 0h-.162m0 0h-.163m.163 0h-.163m0 0h-.163m.163 0h-.163m0 0h-.163m.163 0h-.163m0 0h-.162m.162 0h-.162m0 0h-.163m.163 0h-.163m0 0h-.163m.163 0h-.163m0 0h-.163m.163 0h-.163m0 0h-.163m.163 0h-.163m0 0h-.163m.163 0h-.163m0 0h-.162m.162 0h-.162m0 0h-.163m.163 0h-.163m0 0h-.163m.163 0h-.163m0 0h-.163m.163 0h-.163m0 0h-.163m.163 0h-.163m0 0h-.163m.163 0h-.163m0 0h-.163m.163 0h-.163m0 0h-.163m.163 0h-.163m0 0h-.163m.163 0h-.163m0 0h-.163m.163 0h-.163m0 0h-.163m.163 0h-.163m0 0h-.163m.163 0h-.163m0 0h-.163m.163 0h-.163m0 0h-.163m.163 0h-.163m0 0h-.164m.164 0h-.164m0 0h-.163m.163 0h-.163m0 0h-.163m.163 0h-.163m0 0h-.163m.163 0h-.163m0 0h-.163m.163 0h-.163m0 0h-.164m.163 0h-.163m0 0h-.163m.163 0h-.163m0 0h-.164m.164 0h-.164m0 0h-.163m.163 0h-.163m0 0h-.163m.163 0h-.163m0 0h-.164m.164 0h-.164m0 0h-.163m.163 0h-.163m0 0H44.7m.164 0H44.7m0 0h-.164m.164 0h-.164m0 0h-.163m.163 0h-.163m0 0h-.164m.164 0h-.164m0 0h-.164m.164 0h-.164m0 0h-.163m.163 0h-.163m0 0h-.164m.164 0h-.164m0 0h-.164m.164 0h-.164m0 0h-.164m.164 0h-.164m0 0h-.164m.164 0h-.164m0 0h-.164m.164 0h-.164m0 0H42.9m.164 0H42.9m0 0h-.164m.164 0h-.164m0 0h-.164m.164 0h-.164m0 0h-.164m.164 0h-.164m0 0h-.164m.164 0h-.164m0 0h-.164m.164 0h-.164m0 0h-.165m.165 0h-.165m0 0h-.164m.164 0h-.164m0 0h-.164m.164 0h-.164m0 0h-.165m.165 0h-.165m0 0h-.164m.164 0h-.164m0 0h-.165m.165 0h-.165m0 0h-.164m.164 0h-.164m0 0h-.165m.165 0h-.165m0 0H40.6m.164 0H40.6m0 0h-.165m.165 0h-.165m0 0h-.165m.165 0h-.165m0 0h-.165m.165 0h-.165m0 0h-.165m.165 0h-.165m0 0h-.165m.165 0h-.165m0 0h-.165m.165 0h-.165m0 0h-.165m.165 0h-.165m0 0h-.165m.165 0h-.165m0 0h-.165m.165 0h-.165m0 0h-.165m.165 0h-.165m0 0h-.166m.166 0h-.166m0 0h-.165m.165 0h-.165m0 0h-.166m.166 0h-.166m0 0h-.165m.165 0h-.165m0 0h-.166m.166 0h-.166m0 0h-.165m.165 0h-.165m0 0h-.166m.166 0h-.166m0 0h-.166m.166 0h-.166m0 0h-.166m.166 0h-.166m0 0h-.166m.166 0h-.166m0 0h-.166m.166 0h-.166m0 0h-.166m.166 0h-.166m0 0h-.166m.166 0h-.166m0 0h-.166m.166 0h-.166m0 0h-.166m.166 0h-.166m0 0h-.167m.167 0h-.167m0 0h-.166m.166 0h-.166m0 0h-.166m.166 0h-.166m0 0h-.167m.167 0h-.167m0 0h-.167m.167 0h-.167m0 0h-.166m.166 0h-.166m0 0h-.167m.167 0h-.167m0 0h-.167m.167 0h-.167m0 0h-.167m.167 0h-.167m0 0h-.167m.167 0h-.167m0 0h-.167m.167 0h-.167m0 0h-.167m.167 0h-.167m0 0h-.167m.167 0h-.167m0 0h-.168m.168 0h-.168m0 0h-.167m.167 0h-.167m0 0h-.168m.168 0h-.168m0 0h-.167m.167 0h-.167m0 0h-.168m.168 0h-.168m0 0h-.168m.168 0h-.168m0 0h-.168m.168 0h-.168m0 0h-.168m.168 0h-.168m0 0h-.168m.168 0h-.168m0 0h-.168m.168 0h-.168m0 0h-.168m.168 0h-.168m0 0h-.168m.168 0h-.168m0 0h-.169m.169 0h-.169m0 0h-.168m.168 0h-.168m0 0h-.169m.169 0h-.169m0 0h-.168m.168 0h-.168m0 0h-.17m.17 0h-.17m0 0h-.168m.169 0h-.169m0 0H31.1m.17 0h-.17m0 0h-.169m.17 0h-.17m0 0h-.169m.17 0h-.17m0 0h-.17m.17 0h-.17m0 0h-.169m.17 0h-.17m0 0h-.17m.17 0h-.17m0 0h-.169m.17 0h-.17m0 0h-.17m.17 0h-.17m0 0h-.169m.17 0h-.17m0 0h-.17m.17 0h-.17m0 0h-.17m.17 0h-.17m0 0h-.17m.17 0h-.17m0 0h-.17m.17 0h-.17m0 0h-.17m.17 0h-.17m0 0h-.17m.17 0h-.17m0 0h-.171m.17 0h-.17m0 0h-.17m.17 0h-.17m0 0h-.171m.17 0h-.17m0 0h-.171m.17 0h-.17m0 0h-.17m.17 0h-.17m0 0H27.7m.171 0h-.17m0 0h-.172m.171 0h-.171m0 0h-.171m.171 0h-.171m0 0h-.172m.172 0h-.172m0 0h-.171m.171 0h-.171m0 0h-.172m.172 0h-.172m0 0h-.171m.171 0h-.171m0 0H26.5m.172 0H26.5m0 0h-.172m.172 0h-.172m0 0h-.172m.172 0h-.172m0 0h-.172m.172 0h-.172m0 0h-.172m.172 0h-.172m0 0h-.173m.173 0h-.173m0 0h-.172m.172 0h-.172m0 0h-.173m.173 0h-.173m0 0h-.173m.173 0h-.173m0 0h-.172m.172 0h-.172m0 0h-.173m.173 0h-.173m0 0h-.173m.173 0h-.173m0 0h-.174m.174 0h-.174m0 0h-.173m.173 0h-.173m0 0h-.174m.174 0h-.174m0 0h-.173m.173 0h-.173m0 0h-.174m.174 0h-.174m0 0h-.174m.174 0h-.174m0 0h-.174m.174 0h-.174m0 0h-.174m.174 0h-.174m0 0h-.174m.174 0h-.174m0 0h-.175m.175 0h-.175m0 0h-.174m.174 0h-.174m0 0h-.175m.175 0h-.175m0 0h-.174m.174 0h-.174m0 0h-.175m.175 0h-.175m0 0h-.175m.175 0h-.175m0 0h-.175m.175 0h-.175m0 0h-.176m.176 0h-.176m0 0h-.175m.175 0h-.175m0 0h-.176m.176 0h-.176m0 0h-.175m.175 0h-.175m0 0h-.176m.176 0h-.176m0 0h-.176m.176 0h-.176m0 0h-.176m.176 0h-.176m0 0h-.177m.177 0h-.177m0 0h-.176m.176 0h-.176m0 0h-.177m.177 0h-.177m0 0h-.176m.176 0h-.176m0 0h-.177m.177 0h-.177m0 0h-.177m.177 0h-.177m0 0h-.177m.177 0h-.177m0 0h-.177m.177 0h-.177m0 0h-.178m.178 0h-.178m0 0h-.177m.177 0h-.177m0 0h-.178m.178 0h-.178m0 0h-.178m.178 0h-.178m0 0h-.178m.178 0h-.178m0 0h-.178m.178 0h-.178m0 0h-.178m.178 0h-.178m0 0h-.179m.179 0h-.179m0 0h-.178m.178 0h-.178m0 0h-.18m.18 0h-.18m0 0h-.178m.179 0h-.18m0 0h-.178m.179 0h-.18m0 0h-.178m.179 0h-.18m0 0h-.179m.18 0h-.18m0 0h-.18m.18 0h-.18m0 0h-.179m.18 0h-.18m0 0h-.18m.18 0h-.18m0 0h-.18m.18 0h-.18m0 0h-.18m.18 0h-.18m0 0h-.18m.18 0h-.18m0 0h-.18m.18 0h-.18m0 0h-.181m.18 0h-.18m0 0h-.181m.18 0h-.18m0 0h-.181m.18 0h-.18m0 0h-.181m.18 0h-.18m0 0h-.182m.182 0h-.182m0 0h-.181m.181 0h-.181m0 0h-.182m.182 0h-.182m0 0h-.181m.181 0h-.181m0 0h-.183m.182 0h-.181m0 0H13.6m.182 0H13.6m0 0h-.182m.182 0h-.182m0 0h-.182m.182 0h-.182m0 0h-.183m.183 0h-.183m0 0h-.183m.183 0h-.183m0 0h-.183m.183 0h-.183m0 0h-.183m.183 0h-.183m0 0h-.183m.183 0h-.183m0 0h-.184m.184 0h-.184m0 0h-.183m.183 0h-.183m0 0h-.184m.184 0h-.184m0 0h-.184m.184 0h-.184m0 0H11.4m.184 0H11.4m0 0h-.185m.185 0h-.185m0 0h-.184m.184 0h-.184m0 0h-.185m.185 0h-.185m0 0h-.185m.185 0h-.185m0 0h-.185m.185 0h-.185m0 0h-.185m.185 0h-.185m0 0h-.186m.186 0h-.186m0 0H9.92m.185 0H9.92m0 0h-.186m.186 0h-.186m0 0h-.186m.186 0h-.186m0 0h-.186m.186 0h-.186m0 0h-.187m.187 0h-.187m0 0H8.99m.186 0H8.99m0 0h-.187m.187 0h-.187m0 0h-.187m.187 0h-.187m0 0H8.43m.187 0H8.43m0 0h-.187m.187 0h-.187m0 0h-.188m.188 0h-.188m0 0h-.188m.188 0h-.188m0 0H7.68m.187 0H7.68m0 0h-.19m.188 0H7.49m0 0h-.189m.189 0h-.189m0 0h-.188m.188 0h-.188m0 0h-.189m.189 0h-.189m0 0h-.189m.19 0h-.19m0 0h-.189m.19 0h-.19m0 0h-.189m.19 0h-.19m0 0h-.19m.19 0h-.19m0 0H5.98m.19 0h-.19m0 0h-.19m.19 0h-.19m0 0H5.6m.19 0H5.6m0 0h-.19m.19 0h-.19m0 0h-.19m.19 0h-.19m0 0h-.191m.19 0h-.19m0 0h-.19m.19 0h-.19m0 0h-.192m.191 0h-.19m0 0h-.192m.191 0h-.191m0 0h-.192m.192 0h-.192m0 0h-.191m.191 0h-.191m0 0H3.88m.192 0H3.88m0 0h-.192m.192 0h-.192m0 0h-.192m.192 0h-.192m0 0h-.193m.193 0h-.193m0 0h-.192.192z"/></g><defs><clipPath id="clip0_177_3596"><path fill="#fff" transform="translate(0 .507)" d="M0 0h93v93H0z"/></clipPath></defs></svg>