<svg width="100" height="101" fill="none" xmlns="http://www.w3.org/2000/svg"><g clip-path="url(#clip0_177_3654)" fill="#31449E" stroke="#060D19" stroke-width=".1"><path d="M76.367 47.628h.05v-6.414c3.405-1.23 5.86-4.46 5.86-8.285 0-4.874-3.966-8.839-8.84-8.839a2.881 2.881 0 01-2.88-2.88 2.882 2.882 0 012.88-2.88c1.59 0 2.88 1.291 2.88 2.88v.05h5.96v-.05c0-3.824-2.455-7.055-5.86-8.284V6.512h-5.96v6.414c-3.404 1.23-5.859 4.46-5.859 8.284 0 4.874 3.966 8.84 8.84 8.84 1.589 0 2.88 1.29 2.88 2.88a2.88 2.88 0 01-5.76-.001v-.05h-5.96v.05c0 3.825 2.455 7.055 5.86 8.285v6.414h5.91zM47.12 27.07C47.12 12.535 58.903.557 73.438.557 87.972.557 99.95 12.535 99.95 27.07c0 14.534-11.977 26.317-26.513 26.317-14.534 0-26.317-11.783-26.317-26.317zM23.683 56.367c0-3.853.328-7.8.933-11.67H41.16v23.338H24.615c-.604-3.87-.932-7.816-.932-11.668zm17.478-17.628H25.803c1.475-6.267 3.65-12.06 6.295-16.597 2.636-4.523 5.734-7.792 9.063-9.047v25.644zM17.723 56.367c0 3.914.322 7.831.872 11.668H1.667C.64 64.315.05 60.413.05 56.367c0-4.047.591-7.948 1.617-11.67h16.928c-.55 3.838-.872 7.755-.872 11.67zm55.714 2.979a32.042 32.042 0 0014.57-3.511c.003.072.008.144.013.215l.002.014c.007.101.014.201.014.303 0 4.046-.591 7.947-1.617 11.668H69.686c.417-2.912.684-5.866.79-8.836.975.09 1.961.147 2.961.147zM32.098 90.99c-2.644-4.736-4.82-10.727-6.295-16.995h15.358v26.44c-3.328-1.257-6.426-4.723-9.063-9.445zm-2.042-76.172c-4.668 5.905-8.324 14.426-10.4 23.92h-15.9c4.93-11.215 14.6-19.956 26.3-23.92zm38.57 59.177h15.703c-4.93 11.22-14.409 20.746-26.104 24.717 4.668-5.918 8.324-15.222 10.4-24.717zm-38.57 24.717c-11.697-3.97-21.37-13.497-26.3-24.717h15.9c2.076 9.495 5.732 18.8 10.4 24.717zm33.61-30.677H47.12V45.698a32.36 32.36 0 0017.431 12.375 76.926 76.926 0 01-.885 9.962zM56.183 90.99c-2.636 4.722-5.735 8.188-9.063 9.445v-26.44h15.358c-1.475 6.268-3.65 12.26-6.295 16.995z"/></g><defs><clipPath id="clip0_177_3654"><path fill="#fff" transform="translate(0 .507)" d="M0 0h100v100H0z"/></clipPath></defs></svg>