<svg width="90" height="96" fill="none" xmlns="http://www.w3.org/2000/svg"><path fill-rule="evenodd" clip-rule="evenodd" d="M28.54 47.442a2.852 2.852 0 114.314-3.733l7.634 8.792L57.38 37.02a2.849 2.849 0 013.844 4.202L42.296 58.57a2.854 2.854 0 01-4.2-.124L28.54 47.442zM55.657 7.697l-9.503-6.681a1.957 1.957 0 00-2.309 0l-9.503 6.681a7.624 7.624 0 01-2.051 1.036 7.703 7.703 0 01-2.28.362l-11.616.181a1.955 1.955 0 00-1.854 1.356l-3.763 10.991a7.442 7.442 0 01-2.676 3.678l-9.29 6.973a1.963 1.963 0 00-.713 2.204l3.418 11.104a7.36 7.36 0 010 4.535L.1 61.221a1.958 1.958 0 00.712 2.203l9.291 6.973a7.436 7.436 0 012.676 3.68l3.763 10.992a1.954 1.954 0 001.854 1.355l11.616.181a7.703 7.703 0 012.28.363c.732.24 1.423.589 2.05 1.035l9.504 6.682a1.965 1.965 0 002.31 0l9.503-6.683a7.46 7.46 0 014.33-1.398l11.616-.182a1.955 1.955 0 001.856-1.355l3.762-10.992a7.431 7.431 0 012.675-3.68l9.292-6.973c.335-.246.585-.59.716-.984a2.024 2.024 0 00-.004-1.219l-3.418-11.103a7.35 7.35 0 010-4.536L89.9 34.477a1.962 1.962 0 00-.712-2.205l-9.292-6.971a7.436 7.436 0 01-2.675-3.678L73.46 10.632a1.956 1.956 0 00-1.856-1.356l-11.616-.181a7.694 7.694 0 01-2.279-.362 7.618 7.618 0 01-2.051-1.036zM45 15.677A32.171 32.171 0 1067.749 25.1 32.075 32.075 0 0045 15.677zm18.703 13.47a26.45 26.45 0 107.747 18.7 26.363 26.363 0 00-7.747-18.7z" fill="#31449E"/></svg>