<svg width="103" height="106" fill="none" xmlns="http://www.w3.org/2000/svg"><g clip-path="url(#clip0_177_3620)" fill="#fff"><path d="M39.9 61c6.24-3.77 9.651-7.649 9.765-14.17 0-5.103-4.073-9.255-9.078-9.255-5.006 0-9.078 4.152-9.078 9.254v3.076h6.035V46.83c0-1.71 1.365-3.101 3.043-3.101 1.677 0 3.042 1.391 3.042 3.101-.009 5.098-3.843 6.977-6.955 8.971-3.24 2.076-5.166 5.662-5.166 9.563v3.076h18.156v-6.152H38.536c.367-.502.816-.957 1.365-1.288zm34.232-9.428h-3.043v-8.87h-6.035v8.87h-5.36l2.827-13.288-5.898-1.305-4.414 20.745h12.845v10.708h6.035V57.724h3.043v-6.152z"/><path d="M100.961 55.007h-8.883C91.054 76.897 73.312 94.382 51.5 94.382c-11.23 0-21.394-4.643-28.74-12.133l-1.373-1.4 1.374-1.4 3.338-3.404-16.815-1.154-.013.013 1.134 17.14 3.25-3.314 1.429-1.456 1.427 1.456c8.964 9.138 21.332 14.777 34.989 14.777 26.646 0 48.432-21.504 49.461-48.5zM51.5 2.508c-26.646 0-48.432 21.504-49.462 48.5h8.884c1.024-21.89 18.765-39.376 40.578-39.376 11.23 0 21.393 4.644 28.739 12.131l.572.584v1.636l-.572.584-3.34 3.405 16.815 1.156.013-.013-1.135-17.142-3.249 3.312-1.427 1.455-1.428-1.455C77.524 8.147 65.156 2.508 51.5 2.508z" stroke="#31449E" stroke-width="4"/></g><defs><clipPath id="clip0_177_3620"><path fill="#fff" transform="translate(0 .507)" d="M0 0h103v105H0z"/></clipPath></defs></svg>