<svg width="88" height="89" fill="none" xmlns="http://www.w3.org/2000/svg"><g clip-path="url(#clip0_177_3642)" fill="#31449E"><path d="M59.64 31.742c-15.637 0-28.359 12.722-28.359 28.36 0 15.637 12.722 28.359 28.36 28.359C75.278 88.46 88 75.739 88 60.1c0-15.637-12.722-28.359-28.36-28.359zm0 25.781c4.266 0 7.735 3.47 7.735 7.735 0 3.357-2.162 6.191-5.156 7.26v5.63h-5.157v-5.63c-2.994-1.069-5.156-3.903-5.156-7.26h5.157a2.58 2.58 0 002.578 2.578 2.58 2.58 0 002.578-2.578 2.58 2.58 0 00-2.578-2.578c-4.265 0-7.735-3.47-7.735-7.735 0-3.356 2.162-6.191 5.157-7.26v-5.63h5.156v5.63c2.994 1.069 5.156 3.904 5.156 7.26h-5.156a2.58 2.58 0 00-2.578-2.578 2.58 2.58 0 00-2.578 2.578 2.58 2.58 0 002.578 2.578zM28.703 31.742c15.902 0 28.36-6.795 28.36-15.469C57.063 7.6 44.605.461 28.703.461S0 7.6 0 16.273c0 8.674 12.801 15.47 28.703 15.47zM0 58.479v4.2c0 8.674 12.801 15.47 28.703 15.47.902 0 1.776-.084 2.664-.127a33.298 33.298 0 01-4.32-10.248C15.546 67.456 5.561 63.923 0 58.479zm26.249 4.069c-.06-.81-.124-1.62-.124-2.446 0-2.688.352-5.29.953-7.795C15.564 51.995 5.568 48.459 0 43.01v4.2c0 8.214 11.56 14.67 26.249 15.338zm2.454-15.338h.008a33.631 33.631 0 017.242-10.796c-2.329.294-4.735.484-7.25.484-12.24 0-22.872-3.65-28.703-9.357v4.201c0 8.674 12.801 15.469 28.703 15.469z"/></g><defs><clipPath id="clip0_177_3642"><path fill="#fff" transform="translate(0 .46)" d="M0 0h88v88H0z"/></clipPath></defs></svg>